# Blender 5.1.0
# www.blender.org
mtllib catapult.mtl
o Cube
v 0.124337 -0.011269 0.005000
v 0.124337 -0.011269 -0.005000
v -0.250000 -0.025000 0.005000
v -0.250000 -0.025000 -0.005000
v 0.124337 0.011269 0.005000
v 0.124337 0.011269 -0.005000
v -0.250000 0.025000 0.005000
v -0.250000 0.025000 -0.005000
v -0.208282 0.025000 -0.005000
v -0.208282 -0.025000 0.005000
v -0.208282 0.025000 0.005000
v -0.208282 -0.025000 -0.005000
v -0.245473 -0.019574 0.005000
v -0.245473 0.019574 0.005000
v -0.212809 -0.019574 0.005000
v -0.212809 0.019574 0.005000
v -0.250000 -0.025000 0.022861
v -0.250000 0.025000 0.022861
v -0.208282 -0.025000 0.022861
v -0.208282 0.025000 0.022861
v -0.245473 -0.019574 0.019927
v -0.245473 0.019574 0.019927
v -0.212809 -0.019574 0.019927
v -0.212809 0.019574 0.019927
v -0.195816 0.011269 0.005000
v -0.195816 -0.011269 -0.005000
v -0.195816 0.011269 -0.005000
v -0.195816 -0.011269 0.005000
vn -1.0000 -0.0000 -0.0000
vn -0.0000 1.0000 -0.0000
vn -0.0000 -0.0000 -1.0000
vn -0.0000 -1.0000 -0.0000
vn 1.0000 -0.0000 -0.0000
vn 0.7404 -0.6722 -0.0000
vn -0.0000 -0.0000 1.0000
vn -0.0000 0.4756 0.8797
vn -0.0000 -0.4756 0.8797
vn -0.5438 -0.0000 0.8392
vn 0.5438 -0.0000 0.8392
vn 0.7404 0.6722 -0.0000
vt 0.875000 0.729141
vt 0.625000 0.729141
vt 0.375000 0.750000
vt 0.625000 0.750000
vt 0.625000 1.000000
vt 0.375000 1.000000
vt 0.375000 0.027092
vt 0.625000 0.027092
vt 0.625000 0.250000
vt 0.375000 0.250000
vt 0.125000 0.729141
vt 0.375000 0.729141
vt 0.125000 0.750000
vt 0.625000 0.500000
vt 0.375000 0.500000
vt 0.375000 0.722908
vt 0.625000 0.722908
vt 0.125000 0.722908
vt 0.375000 0.000000
vt 0.625000 0.000000
vt 0.625000 0.020859
vt 0.375000 0.020859
vt 0.875000 0.722908
vt 0.875000 0.750000
vt 0.875000 0.500000
vt 0.125000 0.500000
s 0
usemtl Material
f 16/1/1 15/2/1 23/2/1 24/1/1
f 4/3/1 3/4/1 7/5/1 8/6/1
f 27/7/2 25/8/2 5/9/2 6/10/2
f 9/11/3 12/12/3 4/3/3 8/13/3
f 12/12/4 10/2/4 3/4/4 4/3/4
f 6/10/5 5/9/5 1/14/5 2/15/5
f 26/16/6 28/17/6 10/2/6 12/12/6
f 27/18/3 26/16/3 12/12/3 9/11/3
f 8/19/2 7/20/2 11/21/2 9/22/2
f 28/17/7 25/23/7 11/1/7 10/2/7
f 15/2/7 16/1/7 14/24/7 13/4/7
f 11/21/2 7/20/2 18/20/2 20/21/2
f 3/4/4 10/2/4 19/2/4 17/4/4
f 13/4/5 14/24/5 22/24/5 21/4/5
f 17/4/8 19/2/8 23/2/8 21/4/8
f 20/21/9 18/20/9 22/20/9 24/21/9
f 19/2/10 20/1/10 24/1/10 23/2/10
f 18/5/11 17/4/11 21/4/11 22/5/11
f 15/2/2 13/4/2 21/4/2 23/2/2
f 10/2/5 11/1/5 20/1/5 19/2/5
f 7/5/1 3/4/1 17/4/1 18/5/1
f 14/24/4 16/1/4 24/1/4 22/24/4
f 1/14/7 5/25/7 25/23/7 28/17/7
f 6/26/3 2/15/3 26/16/3 27/18/3
f 2/15/4 1/14/4 28/17/4 26/16/4
f 9/22/12 11/21/12 25/8/12 27/7/12
