# Blender 5.1.0
# www.blender.org
mtllib table.mtl
o Cube
v -0.000887 0.001211 -0.025400
v 0.250059 -0.097887 -0.035349
v 0.250059 -0.097887 0.024651
v -0.000401 0.001115 -0.025400
v -0.249941 -0.097887 -0.035349
v -0.249941 -0.097887 0.024651
v 0.250059 0.096113 -0.035349
v 0.000011 0.000839 -0.025400
v 0.250059 0.096113 0.024651
v -0.249941 0.096113 -0.035349
v 0.000287 0.000427 -0.025400
v -0.249941 0.096113 0.024651
v 0.000383 -0.000059 -0.025400
v 0.000287 -0.000545 -0.025400
v 0.000011 -0.000957 -0.025400
v -0.000401 -0.001232 -0.025400
v -0.000887 -0.001329 -0.025400
v -0.001373 -0.001232 -0.025400
v -0.001785 -0.000957 -0.025400
v -0.002060 -0.000545 -0.025400
v -0.002157 -0.000059 -0.025400
v -0.002060 0.000427 -0.025400
v -0.001785 0.000839 -0.025400
v -0.001373 0.001115 -0.025400
v -0.000887 0.000020 -0.028158
v -0.000857 0.000014 -0.028158
v -0.000831 -0.000003 -0.028158
v -0.000814 -0.000029 -0.028158
v -0.000808 -0.000059 -0.028158
v -0.000814 -0.000089 -0.028158
v -0.000831 -0.000114 -0.028158
v -0.000857 -0.000131 -0.028158
v -0.000887 -0.000137 -0.028158
v -0.000917 -0.000131 -0.028158
v -0.000942 -0.000114 -0.028158
v -0.000959 -0.000089 -0.028158
v -0.000965 -0.000059 -0.028158
v -0.000959 -0.000029 -0.028158
v -0.000942 -0.000003 -0.028158
v -0.000917 0.000014 -0.028158
v 0.024113 0.001211 -0.025400
v 0.024599 0.001115 -0.025400
v 0.025011 0.000839 -0.025400
v 0.025287 0.000427 -0.025400
v 0.025383 -0.000059 -0.025400
v 0.025287 -0.000545 -0.025400
v 0.025011 -0.000957 -0.025400
v 0.024599 -0.001232 -0.025400
v 0.024113 -0.001329 -0.025400
v 0.023627 -0.001232 -0.025400
v 0.023215 -0.000957 -0.025400
v 0.022940 -0.000545 -0.025400
v 0.022843 -0.000059 -0.025400
v 0.022940 0.000427 -0.025400
v 0.023215 0.000839 -0.025400
v 0.023627 0.001115 -0.025400
v 0.024113 0.000020 -0.028158
v 0.024143 0.000014 -0.028158
v 0.024169 -0.000003 -0.028158
v 0.024186 -0.000029 -0.028158
v 0.024192 -0.000059 -0.028158
v 0.024186 -0.000089 -0.028158
v 0.024169 -0.000114 -0.028158
v 0.024143 -0.000131 -0.028158
v 0.024113 -0.000137 -0.028158
v 0.024083 -0.000131 -0.028158
v 0.024058 -0.000114 -0.028158
v 0.024041 -0.000089 -0.028158
v 0.024035 -0.000059 -0.028158
v 0.024041 -0.000029 -0.028158
v 0.024058 -0.000003 -0.028158
v 0.024083 0.000014 -0.028158
v -0.025887 0.001211 -0.025400
v -0.025401 0.001115 -0.025400
v -0.024989 0.000839 -0.025400
v -0.024713 0.000427 -0.025400
v -0.024617 -0.000059 -0.025400
v -0.024713 -0.000545 -0.025400
v -0.024989 -0.000957 -0.025400
v -0.025401 -0.001232 -0.025400
v -0.025887 -0.001329 -0.025400
v -0.026373 -0.001232 -0.025400
v -0.026785 -0.000957 -0.025400
v -0.027060 -0.000545 -0.025400
v -0.027157 -0.000059 -0.025400
v -0.027060 0.000427 -0.025400
v -0.026785 0.000839 -0.025400
v -0.026373 0.001115 -0.025400
v -0.025887 0.000020 -0.028158
v -0.025857 0.000014 -0.028158
v -0.025831 -0.000003 -0.028158
v -0.025814 -0.000029 -0.028158
v -0.025808 -0.000059 -0.028158
v -0.025814 -0.000089 -0.028158
v -0.025831 -0.000114 -0.028158
v -0.025857 -0.000131 -0.028158
v -0.025887 -0.000137 -0.028158
v -0.025917 -0.000131 -0.028158
v -0.025942 -0.000114 -0.028158
v -0.025959 -0.000089 -0.028158
v -0.025965 -0.000059 -0.028158
v -0.025959 -0.000029 -0.028158
v -0.025942 -0.000003 -0.028158
v -0.025917 0.000014 -0.028158
v -0.000887 -0.001329 0.024651
v -0.025887 -0.001329 0.024651
v -0.001373 -0.001232 0.024651
v -0.025401 -0.001232 0.024651
v -0.000401 -0.001232 0.024651
v -0.026373 -0.001232 0.024651
v 0.000011 -0.000957 0.024651
v -0.026785 -0.000957 0.024651
v -0.001785 -0.000957 0.024651
v -0.024989 -0.000957 0.024651
v -0.002060 -0.000545 0.024651
v -0.024713 -0.000545 0.024651
v -0.027060 -0.000545 0.024651
v -0.024713 0.000427 0.024651
v -0.002157 -0.000059 0.024651
v -0.024617 -0.000059 0.024651
v -0.027157 -0.000059 0.024651
v -0.027060 0.000427 0.024651
v -0.024989 0.000839 0.024651
v -0.026785 0.000839 0.024651
v -0.025887 0.001211 0.024651
v -0.026373 0.001115 0.024651
v -0.025401 0.001115 0.024651
v 0.024113 -0.001329 0.024651
v 0.024599 -0.001232 0.024651
v 0.025011 -0.000957 0.024651
v 0.023215 -0.000957 0.024651
v 0.023627 -0.001232 0.024651
v 0.025383 -0.000059 0.024651
v 0.022940 -0.000545 0.024651
v 0.000287 -0.000545 0.024651
v 0.022843 -0.000059 0.024651
v 0.000383 -0.000059 0.024651
v 0.025287 -0.000545 0.024651
v 0.022940 0.000427 0.024651
v 0.000287 0.000427 0.024651
v 0.000011 0.000839 0.024651
v 0.023215 0.000839 0.024651
v -0.001785 0.000839 0.024651
v 0.025011 0.000839 0.024651
v -0.002060 0.000427 0.024651
v 0.023627 0.001115 0.024651
v -0.000401 0.001115 0.024651
v -0.000887 0.001211 0.024651
v 0.024113 0.001211 0.024651
v 0.024599 0.001115 0.024651
v -0.001373 0.001115 0.024651
v 0.025287 0.000427 0.024651
v -0.000887 0.002179 -0.025420
v 0.248615 -0.097327 -0.035176
v 0.248615 -0.097327 0.024477
v 0.001307 0.001821 -0.025415
v -0.248498 -0.097327 -0.035176
v -0.248498 -0.097327 0.024477
v 0.248615 0.095553 -0.035176
v 0.002319 0.001211 -0.025410
v 0.248615 0.095553 0.024477
v -0.248498 0.095553 -0.035176
v 0.002751 0.000588 -0.025408
v -0.248498 0.095553 0.024477
v 0.002883 -0.000059 -0.025408
v 0.002751 -0.000705 -0.025408
v 0.002319 -0.001328 -0.025410
v 0.001307 -0.001939 -0.025415
v -0.000887 -0.002297 -0.025420
v -0.003080 -0.001939 -0.025415
v -0.004093 -0.001328 -0.025410
v -0.004524 -0.000705 -0.025408
v -0.004656 -0.000059 -0.025408
v -0.004524 0.000588 -0.025408
v -0.004093 0.001211 -0.025410
v -0.003080 0.001821 -0.025415
v -0.000887 0.000743 -0.028358
v 0.000412 0.000519 -0.028364
v 0.000818 0.000255 -0.028369
v 0.000929 0.000083 -0.028370
v 0.000956 -0.000059 -0.028371
v 0.000929 -0.000200 -0.028370
v 0.000818 -0.000372 -0.028369
v 0.000412 -0.000637 -0.028364
v -0.000887 -0.000860 -0.028358
v -0.002185 -0.000637 -0.028364
v -0.002592 -0.000372 -0.028369
v -0.002702 -0.000200 -0.028370
v -0.002729 -0.000059 -0.028371
v -0.002702 0.000083 -0.028370
v -0.002592 0.000255 -0.028369
v -0.002185 0.000519 -0.028364
v 0.024113 0.002179 -0.025420
v 0.026307 0.001821 -0.025415
v 0.027319 0.001211 -0.025410
v 0.027751 0.000588 -0.025408
v 0.027883 -0.000059 -0.025408
v 0.027751 -0.000705 -0.025408
v 0.027319 -0.001328 -0.025410
v 0.026307 -0.001939 -0.025415
v 0.024113 -0.002297 -0.025420
v 0.021920 -0.001939 -0.025415
v 0.020907 -0.001328 -0.025410
v 0.020476 -0.000705 -0.025408
v 0.020344 -0.000059 -0.025408
v 0.020476 0.000588 -0.025408
v 0.020907 0.001211 -0.025410
v 0.021920 0.001821 -0.025415
v 0.024113 0.000743 -0.028358
v 0.025412 0.000519 -0.028364
v 0.025818 0.000255 -0.028369
v 0.025929 0.000083 -0.028370
v 0.025956 -0.000059 -0.028371
v 0.025929 -0.000200 -0.028370
v 0.025818 -0.000372 -0.028369
v 0.025412 -0.000637 -0.028364
v 0.024113 -0.000860 -0.028358
v 0.022815 -0.000637 -0.028364
v 0.022408 -0.000372 -0.028369
v 0.022298 -0.000200 -0.028370
v 0.022271 -0.000059 -0.028371
v 0.022298 0.000083 -0.028370
v 0.022408 0.000255 -0.028369
v 0.022815 0.000519 -0.028364
v -0.025887 0.002179 -0.025420
v -0.023693 0.001821 -0.025415
v -0.022681 0.001211 -0.025410
v -0.022249 0.000588 -0.025408
v -0.022117 -0.000059 -0.025408
v -0.022249 -0.000705 -0.025408
v -0.022681 -0.001328 -0.025410
v -0.023693 -0.001939 -0.025415
v -0.025887 -0.002297 -0.025420
v -0.028080 -0.001939 -0.025415
v -0.029093 -0.001328 -0.025410
v -0.029524 -0.000705 -0.025408
v -0.029656 -0.000059 -0.025408
v -0.029524 0.000588 -0.025408
v -0.029093 0.001211 -0.025410
v -0.028080 0.001821 -0.025415
v -0.025887 0.000743 -0.028358
v -0.024588 0.000519 -0.028364
v -0.024182 0.000255 -0.028369
v -0.024071 0.000083 -0.028370
v -0.024044 -0.000059 -0.028371
v -0.024071 -0.000200 -0.028370
v -0.024182 -0.000372 -0.028369
v -0.024588 -0.000637 -0.028364
v -0.025887 -0.000860 -0.028358
v -0.027185 -0.000637 -0.028364
v -0.027592 -0.000372 -0.028369
v -0.027702 -0.000200 -0.028370
v -0.027729 -0.000059 -0.028371
v -0.027702 0.000083 -0.028370
v -0.027592 0.000255 -0.028369
v -0.027185 0.000519 -0.028364
v -0.000887 -0.002092 0.024465
v -0.025887 -0.002092 0.024465
v -0.002682 -0.001767 0.024456
v -0.024091 -0.001767 0.024456
v 0.000909 -0.001767 0.024456
v -0.027682 -0.001767 0.024456
v 0.001712 -0.001228 0.024447
v -0.028485 -0.001228 0.024447
v -0.003485 -0.001228 0.024447
v -0.023288 -0.001228 0.024447
v -0.003850 -0.000661 0.024444
v -0.022923 -0.000661 0.024444
v -0.028850 -0.000661 0.024444
v -0.022923 0.000543 0.024444
v -0.003879 -0.000059 0.024433
v -0.022894 -0.000059 0.024433
v -0.028966 -0.000059 0.024443
v -0.028850 0.000543 0.024444
v -0.023288 0.001110 0.024447
v -0.028485 0.001110 0.024447
v -0.025887 0.001974 0.024465
v -0.027457 0.001558 0.024418
v -0.024091 0.001650 0.024456
v 0.024113 -0.002092 0.024465
v 0.025909 -0.001767 0.024456
v 0.026712 -0.001228 0.024447
v 0.021515 -0.001228 0.024447
v 0.022318 -0.001767 0.024456
v 0.027192 -0.000059 0.024443
v 0.021150 -0.000661 0.024444
v 0.002077 -0.000661 0.024444
v 0.021121 -0.000059 0.024433
v 0.002106 -0.000059 0.024433
v 0.027077 -0.000661 0.024444
v 0.021150 0.000543 0.024444
v 0.002077 0.000543 0.024444
v 0.001712 0.001110 0.024447
v 0.021515 0.001111 0.024447
v -0.003485 0.001110 0.024447
v 0.026712 0.001111 0.024447
v -0.003850 0.000543 0.024444
v 0.022318 0.001650 0.024456
v 0.000909 0.001650 0.024456
v -0.000887 0.001974 0.024465
v 0.024113 0.001974 0.024465
v 0.025684 0.001558 0.024418
v -0.002682 0.001650 0.024456
v 0.027077 0.000543 0.024444
vn -0.0000 -1.0000 -0.0000
vn -1.0000 -0.0000 -0.0000
vn -0.0000 1.0000 -0.0000
vn 1.0000 -0.0000 -0.0000
vn -0.0000 -0.0000 -1.0000
vn -0.0000 -0.0000 1.0000
vn -0.1951 -0.9808 -0.0000
vn -0.5556 -0.8315 -0.0000
vn -0.8315 -0.5556 -0.0000
vn -0.9808 -0.1951 -0.0000
vn -0.9808 0.1951 -0.0000
vn -0.8315 0.5556 -0.0000
vn -0.5556 0.8315 -0.0000
vn -0.1951 0.9808 -0.0000
vn 0.1951 0.9808 -0.0000
vn 0.5556 0.8315 -0.0000
vn 0.8315 0.5556 -0.0000
vn 0.9808 0.1951 -0.0000
vn 0.9808 -0.1951 -0.0000
vn 0.8315 -0.5556 -0.0000
vn 0.5556 -0.8315 -0.0000
vn 0.1951 -0.9808 -0.0000
vn -0.9031 0.1796 0.3901
vn 0.5115 0.7656 0.3901
vn 0.5115 -0.7656 0.3901
vn -0.7656 -0.5116 0.3901
vn -0.1796 0.9031 0.3901
vn -0.1796 -0.9031 0.3901
vn 0.9031 -0.1796 0.3901
vn -0.7656 0.5116 0.3901
vn 0.7656 0.5116 0.3901
vn 0.1796 -0.9031 0.3901
vn -0.9031 -0.1796 0.3901
vn 0.1796 0.9031 0.3901
vn 0.7656 -0.5116 0.3901
vn -0.5115 -0.7656 0.3901
vn -0.5115 0.7656 0.3901
vn 0.9031 0.1796 0.3901
vn -0.0000 -0.0002 -1.0000
vn -0.0000 0.0006 -1.0000
vn 0.1686 0.9857 0.0044
vn 0.5353 0.8446 0.0077
vn 0.8308 0.5565 0.0115
vn 0.9918 0.1272 0.0145
vn 0.9918 -0.1272 0.0145
vn 0.8308 -0.5565 0.0115
vn 0.5353 -0.8446 0.0077
vn 0.1686 -0.9857 0.0044
vn -0.1686 -0.9857 0.0044
vn -0.5353 -0.8446 0.0077
vn -0.8308 -0.5565 0.0115
vn -0.9918 -0.1272 0.0145
vn -0.9918 0.1272 0.0145
vn -0.8308 0.5565 0.0115
vn -0.5353 0.8446 0.0077
vn -0.1686 0.9857 0.0044
vn 0.8269 -0.1658 -0.5374
vn -0.4622 -0.7495 -0.4740
vn -0.4622 0.7495 -0.4740
vn 0.7076 0.4824 -0.5163
vn 0.1476 -0.8880 -0.4355
vn 0.1476 0.8880 -0.4355
vn -0.8269 0.1658 -0.5374
vn 0.7076 -0.4824 -0.5163
vn -0.7076 -0.4824 -0.5163
vn -0.1476 0.8880 -0.4355
vn 0.8269 0.1658 -0.5374
vn -0.1476 -0.8880 -0.4355
vn -0.7076 0.4824 -0.5163
vn 0.4622 0.7495 -0.4740
vn 0.4622 -0.7495 -0.4740
vn -0.8269 -0.1658 -0.5374
vn 0.2015 0.9795 0.0059
vn 0.4604 0.8876 0.0089
vn 0.9809 0.1941 0.0135
vn 0.9809 -0.1941 0.0135
vn -0.8269 -0.1657 -0.5374
vn -0.9809 -0.1941 0.0135
vn -0.9809 0.1941 0.0135
vn -0.4604 0.8876 0.0089
vn -0.2015 0.9795 0.0059
vn 0.8269 0.1657 -0.5374
vt 0.375000 0.000000
vt 0.625000 0.000000
vt 0.625000 0.250000
vt 0.375000 0.250000
vt 0.625000 0.500000
vt 0.375000 0.500000
vt 0.625000 0.750000
vt 0.375000 0.750000
vt 0.625000 1.000000
vt 0.375000 1.000000
vt 0.125000 0.500000
vt 0.125000 0.750000
vt 0.748933 0.623892
vt 0.748933 0.612662
vt 0.749559 0.612614
vt 0.750090 0.612476
vt 0.750445 0.612270
vt 0.750570 0.612027
vt 0.750445 0.611784
vt 0.750090 0.611578
vt 0.749559 0.611441
vt 0.748933 0.611392
vt 0.748307 0.611441
vt 0.747776 0.611578
vt 0.747421 0.611784
vt 0.875000 0.500000
vt 0.875000 0.750000
vt 0.747421 0.637270
vt 0.747776 0.637476
vt 0.748307 0.637614
vt 0.748933 0.637662
vt 0.749559 0.637614
vt 0.750090 0.637476
vt 0.750445 0.637270
vt 0.750570 0.637027
vt 0.750445 0.636784
vt 0.750090 0.636578
vt 0.749559 0.636441
vt 0.748933 0.636392
vt 0.748933 0.625162
vt 0.749559 0.625114
vt 0.750090 0.624976
vt 0.750445 0.624770
vt 0.750569 0.624527
vt 0.750445 0.624284
vt 0.750090 0.624078
vt 0.749559 0.623941
vt 0.748307 0.636441
vt 0.747776 0.636578
vt 0.747421 0.636784
vt 0.747296 0.637027
vt 0.747296 0.612027
vt 0.747421 0.612270
vt 0.747776 0.612476
vt 0.748307 0.612614
vt 0.748307 0.623941
vt 0.747776 0.624078
vt 0.747421 0.624284
vt 0.747296 0.624527
vt 0.747421 0.624770
vt 0.747776 0.624976
vt 0.748307 0.625114
vt 1.000000 0.500000
vt 0.937500 0.500000
vt 0.937500 0.992624
vt 1.000000 0.992624
vt 0.875000 0.992624
vt 0.812500 0.500000
vt 0.812500 0.992624
vt 0.750000 0.500000
vt 0.750000 0.992624
vt 0.687500 0.500000
vt 0.687500 0.992624
vt 0.625000 0.992624
vt 0.562500 0.500000
vt 0.562500 0.992624
vt 0.500000 0.500000
vt 0.500000 0.992624
vt 0.437500 0.500000
vt 0.437500 0.992624
vt 0.375000 0.992624
vt 0.312500 0.500000
vt 0.312500 0.992624
vt 0.250000 0.500000
vt 0.250000 0.992624
vt 0.187500 0.500000
vt 0.187500 0.992624
vt 0.125000 0.992624
vt 0.062500 0.500000
vt 0.062500 0.992624
vt 0.000000 0.500000
vt 0.000000 0.992624
vt 0.841844 0.028269
vt 0.919706 0.080294
vt 0.971731 0.158156
vt 0.990000 0.250000
vt 0.971731 0.341844
vt 0.919706 0.419706
vt 0.841844 0.471731
vt 0.750000 0.490000
vt 0.658156 0.471731
vt 0.580294 0.419706
vt 0.528269 0.341844
vt 0.510000 0.250000
vt 0.528269 0.158156
vt 0.580294 0.080294
vt 0.658156 0.028269
vt 0.750000 0.010000
vt 0.937500 0.992624
vt 0.875000 0.992624
vt 0.812500 0.992624
vt 0.312500 0.992624
vt 0.125000 0.992624
vt 0.125000 0.500000
vt 0.062500 0.500000
vt 0.841844 0.028272
vt 0.919708 0.080297
vt 0.971732 0.158159
vt 0.989999 0.250003
vt 0.971729 0.341847
vt 0.919706 0.419709
vt 0.841844 0.471734
vt 0.750000 0.490003
vt 0.658156 0.471734
vt 0.580294 0.419709
vt 0.528271 0.341847
vt 0.510001 0.250003
vt 0.528268 0.158159
vt 0.580292 0.080297
vt 0.658156 0.028272
vt 0.750000 0.010003
vt 1.000000 0.500000
vt 0.687500 0.992624
vt 0.375000 0.992624
vt 0.062500 0.992624
vt 0.841844 0.028266
vt 0.919706 0.080291
vt 0.971729 0.158153
vt 0.989999 0.249997
vt 0.971732 0.341841
vt 0.919708 0.419703
vt 0.841844 0.471728
vt 0.750000 0.489997
vt 0.658156 0.471728
vt 0.580292 0.419703
vt 0.528268 0.341841
vt 0.510001 0.249997
vt 0.528271 0.158153
vt 0.580294 0.080291
vt 0.658156 0.028266
vt 0.750000 0.009997
vt 0.062500 0.500000
vt 0.000000 0.500000
s 0
usemtl Material
f 2/1/1 3/2/1 6/3/1 5/4/1
f 5/4/2 6/3/2 12/5/2 10/6/2
f 10/6/3 12/5/3 9/7/3 7/8/3
f 7/8/4 9/7/4 3/9/4 2/10/4
f 5/11/5 10/6/5 7/8/5 2/12/5
f 119/13/6 120/14/6 116/15/6 114/16/6 108/17/6 106/18/6 110/19/6 112/20/6 117/21/6 121/22/6 122/23/6 124/24/6 126/25/6 12/5/6 6/26/6 3/27/6 9/7/6 150/28/6 144/29/6 152/30/6 133/31/6 138/32/6 130/33/6 129/34/6 128/35/6 132/36/6 131/37/6 134/38/6 136/39/6 137/40/6 135/41/6 111/42/6 109/43/6 105/44/6 107/45/6 113/46/6 115/47/6
f 137/40/6 136/39/6 139/48/6 142/49/6 146/50/6 149/51/6 150/28/6 9/7/6 12/5/6 126/25/6 125/52/6 127/53/6 123/54/6 118/55/6 120/14/6 119/13/6 145/56/6 143/57/6 151/58/6 148/59/6 147/60/6 141/61/6 140/62/6
f 1/63/7 4/64/7 147/65/7 148/66/7
f 4/64/8 8/26/8 141/67/8 147/65/8
f 8/26/9 11/68/9 140/69/9 141/67/9
f 11/68/10 13/70/10 137/71/10 140/69/10
f 13/70/11 14/72/11 135/73/11 137/71/11
f 14/72/12 15/5/12 111/74/12 135/73/12
f 15/5/13 16/75/13 109/76/13 111/74/13
f 109/76/14 16/75/14 17/77/14 105/78/14
f 105/78/15 17/77/15 18/79/15 107/80/15
f 107/80/16 18/79/16 19/6/16 113/81/16
f 113/81/17 19/6/17 20/82/17 115/83/17
f 115/83/18 20/82/18 21/84/18 119/85/18
f 119/85/19 21/84/19 22/86/19 145/87/19
f 145/87/20 22/86/20 23/11/20 143/88/20
f 143/88/21 23/11/21 24/89/21 151/90/21
f 24/89/22 1/91/22 148/92/22 151/90/22
f 13/70/23 29/70/23 30/72/23 14/72/23
f 32/93/6 31/94/6 30/95/6 29/96/6 28/97/6 27/98/6 26/99/6 25/100/6 40/101/6 39/102/6 38/103/6 37/104/6 36/105/6 35/106/6 34/107/6 33/108/6
f 18/79/24 34/79/24 35/6/24 19/6/24
f 23/11/25 39/11/25 40/89/25 24/89/25
f 8/26/26 27/26/26 28/68/26 11/68/26
f 16/75/27 32/75/27 33/77/27 17/77/27
f 1/63/28 25/63/28 26/64/28 4/64/28
f 21/84/29 37/84/29 38/86/29 22/86/29
f 14/72/30 30/72/30 31/5/30 15/5/30
f 19/6/31 35/6/31 36/82/31 20/82/31
f 24/89/32 40/89/32 25/91/32 1/91/32
f 11/68/33 28/68/33 29/70/33 13/70/33
f 17/77/34 33/77/34 34/79/34 18/79/34
f 22/86/35 38/86/35 39/11/35 23/11/35
f 4/64/36 26/64/36 27/26/36 8/26/36
f 15/5/37 31/5/37 32/75/37 16/75/37
f 20/82/38 36/82/38 37/84/38 21/84/38
f 41/63/7 42/64/7 150/109/7 149/66/7
f 42/64/8 43/26/8 144/110/8 150/109/8
f 43/26/9 44/68/9 152/111/9 144/110/9
f 44/68/10 45/70/10 133/71/10 152/111/10
f 45/70/11 46/72/11 138/73/11 133/71/11
f 46/72/12 47/5/12 130/74/12 138/73/12
f 47/5/13 48/75/13 129/76/13 130/74/13
f 129/76/14 48/75/14 49/77/14 128/78/14
f 128/78/15 49/77/15 50/79/15 132/80/15
f 132/80/16 50/79/16 51/6/16 131/81/16
f 131/81/17 51/6/17 52/82/17 134/112/17
f 134/112/18 52/82/18 53/84/18 136/85/18
f 136/85/19 53/84/19 54/86/19 139/87/19
f 139/87/20 54/86/20 55/11/20 142/113/20
f 142/113/21 55/114/21 56/89/21 146/90/21
f 56/115/22 41/91/22 149/92/22 146/90/22
f 45/70/23 61/70/23 62/72/23 46/72/23
f 64/116/6 63/117/6 62/118/6 61/119/6 60/120/6 59/121/6 58/122/6 57/123/6 72/124/6 71/125/6 70/126/6 69/127/6 68/128/6 67/129/6 66/130/6 65/131/6
f 50/79/24 66/79/24 67/6/24 51/6/24
f 55/11/25 71/11/25 72/89/25 56/89/25
f 43/26/26 59/26/26 60/68/26 44/68/26
f 48/75/27 64/75/27 65/77/27 49/77/27
f 41/63/28 57/63/28 58/64/28 42/64/28
f 53/84/29 69/84/29 70/86/29 54/86/29
f 46/72/30 62/72/30 63/5/30 47/5/30
f 51/6/31 67/6/31 68/82/31 52/82/31
f 56/89/32 72/89/32 57/91/32 41/91/32
f 44/68/33 60/68/33 61/70/33 45/70/33
f 49/77/34 65/77/34 66/79/34 50/79/34
f 54/86/35 70/86/35 71/11/35 55/11/35
f 42/64/36 58/64/36 59/26/36 43/26/36
f 47/5/37 63/5/37 64/75/37 48/75/37
f 52/82/38 68/82/38 69/84/38 53/84/38
f 73/132/7 74/64/7 127/109/7 125/66/7
f 74/64/8 75/26/8 123/110/8 127/109/8
f 75/26/9 76/68/9 118/111/9 123/110/9
f 76/68/10 77/70/10 120/71/10 118/111/10
f 77/70/11 78/72/11 116/133/11 120/71/11
f 78/72/12 79/5/12 114/74/12 116/133/12
f 79/5/13 80/75/13 108/76/13 114/74/13
f 108/76/14 80/75/14 81/77/14 106/78/14
f 106/78/15 81/77/15 82/79/15 110/80/15
f 110/80/16 82/79/16 83/6/16 112/134/16
f 112/134/17 83/6/17 84/82/17 117/112/17
f 117/112/18 84/82/18 85/84/18 121/85/18
f 121/85/19 85/84/19 86/86/19 122/87/19
f 122/87/20 86/86/20 87/11/20 124/113/20
f 124/113/21 87/11/21 88/89/21 126/135/21
f 88/89/22 73/91/22 125/92/22 126/135/22
f 77/70/23 93/70/23 94/72/23 78/72/23
f 96/136/6 95/137/6 94/138/6 93/139/6 92/140/6 91/141/6 90/142/6 89/143/6 104/144/6 103/145/6 102/146/6 101/147/6 100/148/6 99/149/6 98/150/6 97/151/6
f 82/79/24 98/79/24 99/6/24 83/6/24
f 87/11/25 103/11/25 104/89/25 88/152/25
f 75/26/26 91/26/26 92/68/26 76/68/26
f 80/75/27 96/75/27 97/77/27 81/77/27
f 73/132/28 89/63/28 90/64/28 74/64/28
f 85/84/29 101/84/29 102/86/29 86/86/29
f 78/72/30 94/72/30 95/5/30 79/5/30
f 83/6/31 99/6/31 100/82/31 84/82/31
f 88/89/32 104/89/32 89/91/32 73/153/32
f 76/68/33 92/68/33 93/70/33 77/70/33
f 81/77/34 97/77/34 98/79/34 82/79/34
f 86/86/35 102/86/35 103/11/35 87/11/35
f 74/64/36 90/64/36 91/26/36 75/26/36
f 79/5/37 95/5/37 96/75/37 80/75/37
f 84/82/38 100/82/38 101/84/38 85/84/38
f 154/1/3 157/4/3 158/3/3 155/2/3
f 157/4/4 162/6/4 164/5/4 158/3/4
f 162/6/1 159/8/1 161/7/1 164/5/1
f 159/8/2 154/10/2 155/9/2 161/7/2
f 157/11/6 154/12/6 159/8/6 162/6/6
f 271/13/39 267/47/39 265/46/39 259/45/39 257/44/39 261/43/39 263/42/39 287/41/39 289/40/39 288/39/39 286/38/39 283/37/39 284/36/39 280/35/39 281/34/39 282/33/39 290/32/39 285/31/39 304/30/39 296/29/39 302/28/39 161/7/39 155/27/39 158/26/39 164/5/39 278/25/39 276/24/39 274/23/39 273/22/39 269/21/39 264/20/39 262/19/39 258/18/39 260/17/39 266/16/39 268/15/39 272/14/39
f 289/40/40 292/62/40 293/61/40 299/60/40 300/59/40 303/58/40 295/57/40 297/56/40 271/13/40 272/14/40 270/55/40 275/54/40 279/53/40 277/52/40 278/25/40 164/5/40 161/7/40 302/28/40 301/51/40 298/50/40 294/49/40 291/48/40 288/39/40
f 153/63/41 300/66/41 299/65/41 156/64/41
f 156/64/42 299/65/42 293/67/42 160/26/42
f 160/26/43 293/67/43 292/69/43 163/68/43
f 163/68/44 292/69/44 289/71/44 165/70/44
f 165/70/45 289/71/45 287/73/45 166/72/45
f 166/72/46 287/73/46 263/74/46 167/5/46
f 167/5/47 263/74/47 261/76/47 168/75/47
f 261/76/48 257/78/48 169/77/48 168/75/48
f 257/78/49 259/80/49 170/79/49 169/77/49
f 259/80/50 265/81/50 171/6/50 170/79/50
f 265/81/51 267/83/51 172/82/51 171/6/51
f 267/83/52 271/85/52 173/84/52 172/82/52
f 271/85/53 297/87/53 174/86/53 173/84/53
f 297/87/54 295/88/54 175/11/54 174/86/54
f 295/88/55 303/90/55 176/89/55 175/11/55
f 176/89/56 303/90/56 300/92/56 153/91/56
f 165/70/57 166/72/57 182/72/57 181/70/57
f 184/93/5 185/108/5 186/107/5 187/106/5 188/105/5 189/104/5 190/103/5 191/102/5 192/101/5 177/100/5 178/99/5 179/98/5 180/97/5 181/96/5 182/95/5 183/94/5
f 170/79/58 171/6/58 187/6/58 186/79/58
f 175/11/59 176/89/59 192/89/59 191/11/59
f 160/26/60 163/68/60 180/68/60 179/26/60
f 168/75/61 169/77/61 185/77/61 184/75/61
f 153/63/62 156/64/62 178/64/62 177/63/62
f 173/84/63 174/86/63 190/86/63 189/84/63
f 166/72/64 167/5/64 183/5/64 182/72/64
f 171/6/65 172/82/65 188/82/65 187/6/65
f 176/89/66 153/91/66 177/91/66 192/89/66
f 163/68/67 165/70/67 181/70/67 180/68/67
f 169/77/68 170/79/68 186/79/68 185/77/68
f 174/86/69 175/11/69 191/11/69 190/86/69
f 156/64/70 160/26/70 179/26/70 178/64/70
f 167/5/71 168/75/71 184/75/71 183/5/71
f 172/82/72 173/84/72 189/84/72 188/82/72
f 193/63/73 301/66/73 302/109/73 194/64/73
f 194/64/74 302/109/74 296/110/74 195/26/74
f 195/26/43 296/110/43 304/111/43 196/68/43
f 196/68/75 304/111/75 285/71/75 197/70/75
f 197/70/76 285/71/76 290/73/76 198/72/76
f 198/72/46 290/73/46 282/74/46 199/5/46
f 199/5/47 282/74/47 281/76/47 200/75/47
f 281/76/48 280/78/48 201/77/48 200/75/48
f 280/78/49 284/80/49 202/79/49 201/77/49
f 284/80/50 283/81/50 203/6/50 202/79/50
f 283/81/51 286/112/51 204/82/51 203/6/51
f 286/112/52 288/85/52 205/84/52 204/82/52
f 288/85/53 291/87/53 206/86/53 205/84/53
f 291/87/54 294/113/54 207/11/54 206/86/54
f 294/113/55 298/90/55 208/89/55 207/114/55
f 208/115/56 298/90/56 301/92/56 193/91/56
f 197/70/57 198/72/57 214/72/57 213/70/57
f 216/116/5 217/131/5 218/130/5 219/129/5 220/128/5 221/127/5 222/126/5 223/125/5 224/124/5 209/123/5 210/122/5 211/121/5 212/120/5 213/119/5 214/118/5 215/117/5
f 202/79/58 203/6/58 219/6/58 218/79/58
f 207/11/59 208/89/59 224/89/59 223/11/59
f 195/26/60 196/68/60 212/68/60 211/26/60
f 200/75/61 201/77/61 217/77/61 216/75/61
f 193/63/62 194/64/62 210/64/62 209/63/62
f 205/84/63 206/86/63 222/86/63 221/84/63
f 198/72/64 199/5/64 215/5/64 214/72/64
f 203/6/65 204/82/65 220/82/65 219/6/65
f 208/89/66 193/91/66 209/91/66 224/89/66
f 196/68/67 197/70/67 213/70/67 212/68/67
f 201/77/68 202/79/68 218/79/68 217/77/68
f 206/86/69 207/11/69 223/11/69 222/86/69
f 194/64/70 195/26/70 211/26/70 210/64/70
f 199/5/71 200/75/71 216/75/71 215/5/71
f 204/82/77 205/84/77 221/84/77 220/82/77
f 225/132/41 277/66/41 279/109/41 226/64/41
f 226/64/42 279/109/42 275/110/42 227/26/42
f 227/26/43 275/110/43 270/111/43 228/68/43
f 228/68/44 270/111/44 272/71/44 229/70/44
f 229/70/45 272/71/45 268/133/45 230/72/45
f 230/72/46 268/133/46 266/74/46 231/5/46
f 231/5/47 266/74/47 260/76/47 232/75/47
f 260/76/48 258/78/48 233/77/48 232/75/48
f 258/78/49 262/80/49 234/79/49 233/77/49
f 262/80/50 264/134/50 235/6/50 234/79/50
f 264/134/51 269/112/51 236/82/51 235/6/51
f 269/112/78 273/85/78 237/84/78 236/82/78
f 273/85/79 274/87/79 238/86/79 237/84/79
f 274/87/54 276/113/54 239/11/54 238/86/54
f 276/113/80 278/135/80 240/89/80 239/11/80
f 240/89/81 278/135/81 277/92/81 225/91/81
f 229/70/57 230/72/57 246/72/57 245/70/57
f 248/136/5 249/151/5 250/150/5 251/149/5 252/148/5 253/147/5 254/146/5 255/145/5 256/144/5 241/143/5 242/142/5 243/141/5 244/140/5 245/139/5 246/138/5 247/137/5
f 234/79/58 235/6/58 251/6/58 250/79/58
f 239/11/59 240/152/59 256/89/59 255/11/59
f 227/26/60 228/68/60 244/68/60 243/26/60
f 232/75/61 233/77/61 249/77/61 248/75/61
f 225/132/62 226/64/62 242/64/62 241/63/62
f 237/84/63 238/86/63 254/86/63 253/84/63
f 230/72/64 231/5/64 247/5/64 246/72/64
f 235/6/65 236/82/65 252/82/65 251/6/65
f 240/89/66 225/153/66 241/91/66 256/89/66
f 228/68/82 229/70/82 245/70/82 244/68/82
f 233/77/68 234/79/68 250/79/68 249/77/68
f 238/86/69 239/11/69 255/11/69 254/86/69
f 226/64/70 227/26/70 243/26/70 242/64/70
f 231/5/71 232/75/71 248/75/71 247/5/71
f 236/82/72 237/84/72 253/84/72 252/82/72
