# Blender 5.1.0
# www.blender.org
mtllib weight.mtl
o BézierCircle
v -0.000828 -0.000945 1.000019
v 0.370735 -0.092527 0.923899
v 0.685732 -0.170167 0.707126
v 0.896205 -0.222044 0.382702
v 0.970114 -0.240261 0.000019
v 0.896205 -0.222044 -0.382665
v 0.685732 -0.170167 -0.707088
v 0.338021 -0.178787 0.923899
v 0.625284 -0.329554 0.707126
v 0.817227 -0.430294 0.382703
v 0.884628 -0.465668 0.000019
v 0.817227 -0.430294 -0.382665
v 0.625284 -0.329554 -0.707088
v 0.285615 -0.254711 0.923899
v 0.528449 -0.469844 0.707126
v 0.690706 -0.613591 0.382703
v 0.746817 -0.663300 0.000019
v 0.690706 -0.613591 -0.382665
v 0.528449 -0.469844 -0.707088
v 0.216561 -0.315888 0.923899
v 0.400854 -0.582883 0.707126
v 0.517217 -0.751463 0.377760
v 0.545524 -0.792472 0.000019
v 0.517217 -0.751463 -0.377722
v 0.400854 -0.582883 -0.707088
v 0.134873 -0.358761 0.923899
v 0.249916 -0.662102 0.707126
v 0.312311 -0.826624 0.365796
v 0.319516 -0.845623 0.000019
v 0.312311 -0.826624 -0.365758
v 0.249916 -0.662102 -0.707088
v 0.045299 -0.380839 0.923899
v 0.084404 -0.702897 0.707126
v 0.103840 -0.862968 0.359703
v 0.103840 -0.862968 -0.359665
v 0.084404 -0.702897 -0.707088
v -0.046955 -0.380839 0.923899
v -0.086060 -0.702897 0.707126
v -0.105497 -0.862968 0.359703
v -0.105497 -0.862968 -0.359665
v -0.086060 -0.702897 -0.707088
v -0.136530 -0.358761 0.923899
v -0.251572 -0.662102 0.707126
v -0.313967 -0.826624 0.365796
v -0.321172 -0.845623 0.000019
v -0.313967 -0.826624 -0.365758
v -0.251572 -0.662102 -0.707088
v -0.218217 -0.315888 0.923899
v -0.402511 -0.582883 0.707126
v -0.518873 -0.751463 0.377760
v -0.547180 -0.792472 0.000019
v -0.518873 -0.751463 -0.377722
v -0.402511 -0.582883 -0.707088
v -0.287271 -0.254712 0.923899
v -0.530105 -0.469844 0.707126
v -0.692362 -0.613591 0.382703
v -0.748473 -0.663301 0.000019
v -0.692362 -0.613591 -0.382665
v -0.530105 -0.469844 -0.707088
v -0.339678 -0.178787 0.923899
v -0.626940 -0.329554 0.707126
v -0.818883 -0.430294 0.382703
v -0.886284 -0.465669 0.000019
v -0.818883 -0.430294 -0.382665
v -0.626940 -0.329554 -0.707088
v -0.372392 -0.092528 0.923899
v -0.687388 -0.170167 0.707126
v -0.897862 -0.222044 0.382702
v -0.971770 -0.240261 0.000019
v -0.897862 -0.222044 -0.382665
v -0.687388 -0.170167 -0.707088
v -0.383512 -0.000945 0.923899
v -0.707935 -0.000945 0.707126
v -0.924708 -0.000945 0.382702
v -1.000828 -0.000945 0.000019
v -0.924708 -0.000945 -0.382665
v -0.707935 -0.000945 -0.707088
v -0.372392 0.090637 0.923899
v -0.687388 0.168276 0.707126
v -0.897862 0.220154 0.382703
v -0.971770 0.238370 0.000019
v -0.897862 0.220154 -0.382664
v -0.687388 0.168276 -0.707088
v -0.339678 0.176897 0.923899
v -0.626940 0.327664 0.707126
v -0.818883 0.428403 0.382702
v -0.886284 0.463778 0.000019
v -0.818883 0.428403 -0.382664
v -0.626940 0.327664 -0.707088
v -0.287271 0.252821 0.923899
v -0.530105 0.467953 0.707126
v -0.692362 0.611700 0.382702
v -0.748473 0.661410 0.000019
v -0.692362 0.611700 -0.382664
v -0.530105 0.467953 -0.707088
v -0.218217 0.313997 0.923899
v -0.402511 0.580992 0.707126
v -0.518873 0.749572 0.377760
v -0.547180 0.790582 0.000019
v -0.518873 0.749572 -0.377722
v -0.402511 0.580992 -0.707088
v -0.136530 0.356870 0.923899
v -0.251572 0.660211 0.707126
v -0.313967 0.824733 0.365796
v -0.321172 0.843733 0.000019
v -0.313967 0.824733 -0.365758
v -0.251572 0.660211 -0.707088
v -0.046955 0.378948 0.923899
v -0.086060 0.701006 0.707126
v -0.105497 0.861078 0.359703
v -0.105497 0.861078 -0.359665
v -0.086060 0.701006 -0.707088
v 0.045299 0.378948 0.923899
v 0.084404 0.701006 0.707126
v 0.103840 0.861078 0.359703
v 0.103840 0.861078 -0.359665
v 0.084404 0.701006 -0.707088
v 0.134873 0.356870 0.923899
v 0.249915 0.660211 0.707126
v 0.312310 0.824734 0.365796
v 0.319516 0.843733 0.000019
v 0.312310 0.824734 -0.365758
v 0.249915 0.660211 -0.707088
v 0.216561 0.313997 0.923899
v 0.400854 0.580993 0.707126
v 0.517217 0.749573 0.377760
v 0.545524 0.790582 0.000019
v 0.517217 0.749573 -0.377722
v 0.400854 0.580993 -0.707088
v 0.285615 0.252821 0.923899
v 0.528449 0.467954 0.707126
v 0.690706 0.611701 0.382702
v 0.746817 0.661411 0.000019
v 0.690706 0.611701 -0.382664
v 0.528449 0.467954 -0.707088
v 0.338022 0.176897 0.923899
v 0.625284 0.327664 0.707126
v 0.817227 0.428404 0.382702
v 0.884628 0.463778 0.000019
v 0.817227 0.428404 -0.382664
v 0.625284 0.327664 -0.707088
v 0.370736 0.090637 0.923899
v 0.685732 0.168277 0.707126
v 0.896206 0.220154 0.382703
v 0.970114 0.238371 0.000019
v 0.896206 0.220154 -0.382664
v 0.685732 0.168277 -0.707088
v 0.381856 -0.000945 0.923899
v 0.706279 -0.000945 0.707126
v 0.923052 -0.000945 0.382702
v 0.999173 -0.000945 0.000019
v 0.923052 -0.000945 -0.382665
v 0.706279 -0.000945 -0.707088
v -0.268994 0.893465 0.120702
v -0.238361 0.893465 0.120702
v -0.238361 0.893465 -0.055105
v -0.084530 0.893465 0.120702
v -0.058558 0.893465 0.120702
v -0.058558 0.893465 -0.106382
v -0.089191 0.893465 -0.106382
v -0.089191 0.893465 0.068426
v -0.241025 0.893465 -0.106382
v -0.268994 0.893465 -0.106382
v -0.023930 0.893465 0.007160
v -0.023328 0.893465 0.024141
v -0.021556 0.893465 0.040071
v -0.018665 0.893465 0.054868
v -0.014705 0.893465 0.068451
v -0.009728 0.893465 0.080738
v -0.003785 0.893465 0.091650
v 0.003074 0.893465 0.101106
v 0.010798 0.893465 0.109023
v 0.019335 0.893465 0.115322
v 0.028636 0.893465 0.119922
v 0.038649 0.893465 0.122741
v 0.049323 0.893465 0.123698
v 0.059998 0.893465 0.122741
v 0.070010 0.893465 0.119922
v 0.079311 0.893465 0.115322
v 0.087849 0.893465 0.109023
v 0.095573 0.893465 0.101106
v 0.102432 0.893465 0.091650
v 0.108375 0.893465 0.080738
v 0.113352 0.893465 0.068451
v 0.117311 0.893465 0.054868
v 0.120202 0.893465 0.040071
v 0.121974 0.893465 0.024141
v 0.122576 0.893465 0.007160
v 0.121974 0.893465 -0.009822
v 0.120202 0.893465 -0.025752
v 0.117311 0.893465 -0.040548
v 0.113352 0.893465 -0.054131
v 0.108375 0.893465 -0.066419
v 0.102432 0.893465 -0.077331
v 0.095573 0.893465 -0.086786
v 0.087849 0.893465 -0.094704
v 0.079311 0.893465 -0.101003
v 0.070010 0.893465 -0.105602
v 0.059998 0.893465 -0.108421
v 0.049323 0.893465 -0.109379
v 0.038649 0.893465 -0.108421
v 0.028636 0.893465 -0.105602
v 0.019335 0.893465 -0.101003
v 0.010798 0.893465 -0.094704
v 0.003074 0.893465 -0.086786
v -0.003785 0.893465 -0.077331
v -0.009728 0.893465 -0.066419
v -0.014705 0.893465 -0.054131
v -0.018665 0.893465 -0.040548
v -0.021556 0.893465 -0.025752
v -0.023328 0.893465 -0.009822
v 0.008701 0.893465 0.007160
v 0.009017 0.893465 -0.005715
v 0.009953 0.893465 -0.017677
v 0.011490 0.893465 -0.028686
v 0.013609 0.893465 -0.038704
v 0.016293 0.893465 -0.047689
v 0.019523 0.893465 -0.055605
v 0.023279 0.893465 -0.062410
v 0.027545 0.893465 -0.068066
v 0.032300 0.893465 -0.072534
v 0.037528 0.893465 -0.075774
v 0.043208 0.893465 -0.077747
v 0.049323 0.893465 -0.078413
v 0.055438 0.893465 -0.077747
v 0.061119 0.893465 -0.075774
v 0.066346 0.893465 -0.072534
v 0.071102 0.893465 -0.068066
v 0.075367 0.893465 -0.062410
v 0.079124 0.893465 -0.055605
v 0.082353 0.893465 -0.047689
v 0.085037 0.893465 -0.038704
v 0.087157 0.893465 -0.028686
v 0.088694 0.893465 -0.017677
v 0.089629 0.893465 -0.005715
v 0.089945 0.893465 0.007160
v 0.089629 0.893465 0.020035
v 0.088694 0.893465 0.031997
v 0.087157 0.893465 0.043006
v 0.085037 0.893465 0.053023
v 0.082353 0.893465 0.062009
v 0.079124 0.893465 0.069924
v 0.075367 0.893465 0.076730
v 0.071102 0.893465 0.082386
v 0.066346 0.893465 0.086854
v 0.061119 0.893465 0.090093
v 0.055439 0.893465 0.092066
v 0.049323 0.893465 0.092733
v 0.043208 0.893465 0.092066
v 0.037528 0.893465 0.090093
v 0.032300 0.893465 0.086854
v 0.027545 0.893465 0.082386
v 0.023279 0.893465 0.076730
v 0.019523 0.893465 0.069924
v 0.016293 0.893465 0.062009
v 0.013609 0.893465 0.053023
v 0.011490 0.893465 0.043006
v 0.009953 0.893465 0.031997
v 0.009017 0.893465 0.020035
v 0.164530 0.893465 0.120702
v 0.265420 0.893465 0.120702
v 0.265419 0.893465 0.002498
v 0.253362 0.893465 0.004783
v 0.242183 0.893465 0.005712
v 0.231915 0.893465 0.005386
v 0.222590 0.893465 0.003904
v 0.214241 0.893465 0.001368
v 0.206900 0.893465 -0.002122
v 0.200600 0.893465 -0.006465
v 0.195373 0.893465 -0.011560
v 0.191251 0.893465 -0.017308
v 0.188267 0.893465 -0.023607
v 0.186452 0.893465 -0.030358
v 0.185840 0.893465 -0.037458
v 0.186274 0.893465 -0.042950
v 0.187537 0.893465 -0.048238
v 0.189570 0.893465 -0.053269
v 0.192315 0.893465 -0.057991
v 0.195711 0.893465 -0.062353
v 0.199700 0.893465 -0.066301
v 0.204223 0.893465 -0.069785
v 0.209222 0.893465 -0.072753
v 0.214637 0.893465 -0.075151
v 0.220409 0.893465 -0.076929
v 0.226479 0.893465 -0.078033
v 0.232789 0.893465 -0.078413
v 0.236951 0.893465 -0.078295
v 0.241111 0.893465 -0.077943
v 0.245270 0.893465 -0.077357
v 0.249425 0.893465 -0.076539
v 0.253575 0.893465 -0.075489
v 0.257720 0.893465 -0.074209
v 0.261857 0.893465 -0.072701
v 0.265987 0.893465 -0.070964
v 0.270107 0.893465 -0.069002
v 0.274217 0.893465 -0.066813
v 0.278315 0.893465 -0.064401
v 0.282401 0.893465 -0.061765
v 0.282401 0.893465 -0.095394
v 0.277568 0.893465 -0.097768
v 0.272874 0.893465 -0.099899
v 0.268291 0.893465 -0.101794
v 0.263792 0.893465 -0.103460
v 0.259347 0.893465 -0.104904
v 0.254931 0.893465 -0.106133
v 0.250515 0.893465 -0.107154
v 0.246070 0.893465 -0.107973
v 0.241571 0.893465 -0.108599
v 0.236988 0.893465 -0.109037
v 0.232294 0.893465 -0.109295
v 0.227461 0.893465 -0.109379
v 0.216977 0.893465 -0.108752
v 0.207047 0.893465 -0.106916
v 0.197739 0.893465 -0.103937
v 0.189121 0.893465 -0.099883
v 0.181261 0.893465 -0.094821
v 0.174228 0.893465 -0.088818
v 0.168090 0.893465 -0.081941
v 0.162915 0.893465 -0.074257
v 0.158771 0.893465 -0.065833
v 0.155727 0.893465 -0.056736
v 0.153850 0.893465 -0.047034
v 0.153209 0.893465 -0.036792
v 0.153855 0.893465 -0.026520
v 0.155765 0.893465 -0.016738
v 0.158901 0.893465 -0.007538
v 0.163223 0.893465 0.000993
v 0.168692 0.893465 0.008767
v 0.175268 0.893465 0.015692
v 0.182913 0.893465 0.021681
v 0.191587 0.893465 0.026644
v 0.201250 0.893465 0.030493
v 0.211864 0.893465 0.033139
v 0.223389 0.893465 0.034492
v 0.235785 0.893465 0.034463
v 0.235785 0.893465 0.091401
v 0.164530 0.893465 0.091401
v -0.268994 0.841800 0.120702
v -0.238361 0.841800 0.120702
v -0.238361 0.841800 -0.055105
v -0.084530 0.841800 0.120702
v -0.058558 0.841800 0.120702
v -0.058558 0.841800 -0.106382
v -0.089191 0.841800 -0.106382
v -0.089191 0.841800 0.068426
v -0.241025 0.841800 -0.106382
v -0.268994 0.841800 -0.106382
v -0.023930 0.841800 0.007160
v -0.023328 0.841800 0.024141
v -0.021556 0.841800 0.040071
v -0.018665 0.841800 0.054868
v -0.014705 0.841800 0.068451
v -0.009728 0.841800 0.080738
v -0.003785 0.841800 0.091650
v 0.003074 0.841800 0.101106
v 0.010798 0.841800 0.109023
v 0.019335 0.841800 0.115322
v 0.028636 0.841800 0.119922
v 0.038649 0.841800 0.122741
v 0.049323 0.841800 0.123698
v 0.059998 0.841800 0.122741
v 0.070010 0.841800 0.119922
v 0.079311 0.841800 0.115322
v 0.087849 0.841800 0.109023
v 0.095573 0.841800 0.101106
v 0.102432 0.841800 0.091650
v 0.108375 0.841800 0.080738
v 0.113352 0.841800 0.068451
v 0.117311 0.841800 0.054868
v 0.120202 0.841800 0.040071
v 0.121974 0.841800 0.024141
v 0.122576 0.841800 0.007160
v 0.121974 0.841800 -0.009822
v 0.120202 0.841800 -0.025752
v 0.117311 0.841800 -0.040548
v 0.113352 0.841800 -0.054131
v 0.108375 0.841800 -0.066419
v 0.102432 0.841800 -0.077331
v 0.095573 0.841800 -0.086786
v 0.087849 0.841800 -0.094704
v 0.079311 0.841800 -0.101003
v 0.070010 0.841800 -0.105602
v 0.059998 0.841800 -0.108421
v 0.049323 0.841800 -0.109379
v 0.038649 0.841800 -0.108421
v 0.028636 0.841800 -0.105602
v 0.019335 0.841800 -0.101003
v 0.010798 0.841800 -0.094704
v 0.003074 0.841800 -0.086786
v -0.003785 0.841800 -0.077331
v -0.009728 0.841800 -0.066419
v -0.014705 0.841800 -0.054131
v -0.018665 0.841800 -0.040548
v -0.021556 0.841800 -0.025752
v -0.023328 0.841800 -0.009822
v 0.008701 0.841800 0.007160
v 0.009017 0.841800 -0.005715
v 0.009953 0.841800 -0.017677
v 0.011490 0.841800 -0.028686
v 0.013609 0.841800 -0.038704
v 0.016293 0.841800 -0.047689
v 0.019523 0.841800 -0.055605
v 0.023279 0.841800 -0.062410
v 0.027545 0.841800 -0.068066
v 0.032300 0.841800 -0.072534
v 0.037528 0.841800 -0.075774
v 0.043208 0.841800 -0.077747
v 0.049323 0.841800 -0.078413
v 0.055438 0.841800 -0.077747
v 0.061119 0.841800 -0.075774
v 0.066346 0.841800 -0.072534
v 0.071102 0.841800 -0.068066
v 0.075367 0.841800 -0.062410
v 0.079124 0.841800 -0.055605
v 0.082353 0.841800 -0.047689
v 0.085037 0.841800 -0.038704
v 0.087157 0.841800 -0.028686
v 0.088694 0.841800 -0.017677
v 0.089629 0.841800 -0.005715
v 0.089945 0.841800 0.007160
v 0.089629 0.841800 0.020035
v 0.088694 0.841800 0.031997
v 0.087157 0.841800 0.043006
v 0.085037 0.841800 0.053023
v 0.082353 0.841800 0.062009
v 0.079124 0.841800 0.069924
v 0.075367 0.841800 0.076730
v 0.071102 0.841800 0.082386
v 0.066346 0.841800 0.086854
v 0.061119 0.841800 0.090093
v 0.055439 0.841800 0.092066
v 0.049323 0.841800 0.092733
v 0.043208 0.841800 0.092066
v 0.037528 0.841800 0.090093
v 0.032300 0.841800 0.086854
v 0.027545 0.841800 0.082386
v 0.023279 0.841800 0.076730
v 0.019523 0.841800 0.069924
v 0.016293 0.841800 0.062009
v 0.013609 0.841800 0.053023
v 0.011490 0.841800 0.043006
v 0.009953 0.841800 0.031997
v 0.009017 0.841800 0.020035
v 0.164530 0.841800 0.120702
v 0.265420 0.841800 0.120702
v 0.265419 0.841800 0.002498
v 0.253362 0.841800 0.004783
v 0.242183 0.841800 0.005712
v 0.231915 0.841800 0.005386
v 0.222590 0.841800 0.003904
v 0.214241 0.841800 0.001368
v 0.206900 0.841800 -0.002122
v 0.200600 0.841800 -0.006465
v 0.195373 0.841800 -0.011560
v 0.191251 0.841800 -0.017308
v 0.188267 0.841800 -0.023607
v 0.186452 0.841800 -0.030358
v 0.185840 0.841800 -0.037458
v 0.186274 0.841800 -0.042950
v 0.187537 0.841800 -0.048238
v 0.189570 0.841800 -0.053269
v 0.192315 0.841800 -0.057991
v 0.195711 0.841800 -0.062353
v 0.199700 0.841800 -0.066301
v 0.204223 0.841800 -0.069785
v 0.209222 0.841800 -0.072753
v 0.214637 0.841800 -0.075151
v 0.220409 0.841800 -0.076929
v 0.226479 0.841800 -0.078033
v 0.232789 0.841800 -0.078413
v 0.236951 0.841800 -0.078295
v 0.241111 0.841800 -0.077943
v 0.245270 0.841800 -0.077357
v 0.249425 0.841800 -0.076539
v 0.253575 0.841800 -0.075489
v 0.257720 0.841800 -0.074209
v 0.261857 0.841800 -0.072701
v 0.265987 0.841800 -0.070964
v 0.270107 0.841800 -0.069002
v 0.274217 0.841800 -0.066813
v 0.278315 0.841800 -0.064401
v 0.282401 0.841800 -0.061765
v 0.282401 0.841800 -0.095394
v 0.277568 0.841800 -0.097768
v 0.272874 0.841800 -0.099899
v 0.268291 0.841800 -0.101794
v 0.263792 0.841800 -0.103460
v 0.259347 0.841800 -0.104904
v 0.254931 0.841800 -0.106133
v 0.250515 0.841800 -0.107154
v 0.246070 0.841800 -0.107973
v 0.241571 0.841800 -0.108599
v 0.236988 0.841800 -0.109037
v 0.232294 0.841800 -0.109295
v 0.227461 0.841800 -0.109379
v 0.216977 0.841800 -0.108752
v 0.207047 0.841800 -0.106916
v 0.197739 0.841800 -0.103937
v 0.189121 0.841800 -0.099883
v 0.181261 0.841800 -0.094821
v 0.174228 0.841800 -0.088818
v 0.168090 0.841800 -0.081941
v 0.162915 0.841800 -0.074257
v 0.158771 0.841800 -0.065833
v 0.155727 0.841800 -0.056736
v 0.153850 0.841800 -0.047034
v 0.153209 0.841800 -0.036792
v 0.153855 0.841800 -0.026520
v 0.155765 0.841800 -0.016738
v 0.158901 0.841800 -0.007538
v 0.163223 0.841800 0.000993
v 0.168692 0.841800 0.008767
v 0.175268 0.841800 0.015692
v 0.182913 0.841800 0.021681
v 0.191587 0.841800 0.026644
v 0.201250 0.841800 0.030493
v 0.211864 0.841800 0.033139
v 0.223389 0.841800 0.034492
v 0.235785 0.841800 0.034463
v 0.235785 0.841800 0.091401
v 0.164530 0.841800 0.091401
vn 0.8273 -0.1004 -0.5528
vn 0.9739 -0.1183 0.1937
vn 0.5543 -0.0673 0.8296
vn 0.9739 -0.1183 -0.1937
vn 0.8273 -0.1004 0.5528
vn 0.1950 -0.0237 0.9805
vn 0.5221 -0.1980 0.8296
vn 0.9173 -0.3479 -0.1937
vn 0.7792 -0.2955 0.5528
vn 0.1837 -0.0697 0.9805
vn 0.7792 -0.2955 -0.5528
vn 0.9173 -0.3479 0.1937
vn 0.8062 -0.5595 -0.1923
vn 0.6858 -0.4734 0.5528
vn 0.1617 -0.1116 0.9805
vn 0.6858 -0.4734 -0.5528
vn 0.8062 -0.5595 0.1923
vn 0.4595 -0.3172 0.8296
vn 0.1303 -0.1471 0.9805
vn 0.5341 -0.6515 -0.5388
vn 0.5715 -0.8050 0.1595
vn 0.3703 -0.4180 0.8296
vn 0.5715 -0.8050 -0.1595
vn 0.5341 -0.6515 0.5388
vn 0.3332 -0.8060 -0.4891
vn 0.2819 -0.9552 0.0906
vn 0.2595 -0.4944 0.8296
vn 0.2819 -0.9552 -0.0906
vn 0.3332 -0.8060 0.4891
vn 0.0913 -0.1740 0.9805
vn 0.1749 -0.8825 0.4367
vn 0.0470 -0.1908 0.9805
vn 0.1749 -0.8825 -0.4367
vn 0.1336 -0.5422 0.8296
vn -0.0000 -0.9082 0.4185
vn -0.0000 -0.1965 0.9805
vn -0.0000 -0.9082 -0.4185
vn -0.0000 -0.5584 0.8296
vn -0.1749 -0.8825 -0.4367
vn -0.0000 -1.0000 -0.0000
vn -0.1336 -0.5422 0.8296
vn -0.1749 -0.8825 0.4367
vn -0.0470 -0.1908 0.9805
vn -0.2819 -0.9552 0.0906
vn -0.2595 -0.4944 0.8296
vn -0.2819 -0.9552 -0.0906
vn -0.3332 -0.8060 0.4891
vn -0.0913 -0.1740 0.9805
vn -0.3332 -0.8060 -0.4891
vn -0.5715 -0.8050 -0.1595
vn -0.5341 -0.6515 0.5388
vn -0.1303 -0.1471 0.9805
vn -0.5341 -0.6515 -0.5388
vn -0.5715 -0.8050 0.1595
vn -0.3703 -0.4180 0.8296
vn -0.6858 -0.4734 0.5528
vn -0.1617 -0.1116 0.9805
vn -0.6858 -0.4734 -0.5528
vn -0.8062 -0.5595 0.1923
vn -0.4595 -0.3172 0.8296
vn -0.8062 -0.5595 -0.1923
vn -0.7792 -0.2955 -0.5528
vn -0.9173 -0.3479 0.1937
vn -0.5221 -0.1980 0.8296
vn -0.9173 -0.3479 -0.1937
vn -0.7792 -0.2955 0.5528
vn -0.1837 -0.0697 0.9805
vn -0.5543 -0.0673 0.8296
vn -0.9739 -0.1183 -0.1937
vn -0.8273 -0.1004 0.5528
vn -0.1950 -0.0237 0.9805
vn -0.8273 -0.1004 -0.5528
vn -0.9739 -0.1183 0.1937
vn -0.9739 0.1183 -0.1937
vn -0.8273 0.1004 0.5528
vn -0.1950 0.0237 0.9805
vn -0.8273 0.1004 -0.5528
vn -0.9739 0.1183 0.1937
vn -0.5543 0.0673 0.8296
vn -0.1837 0.0697 0.9805
vn -0.7792 0.2955 -0.5528
vn -0.9173 0.3479 0.1937
vn -0.5221 0.1980 0.8296
vn -0.9173 0.3479 -0.1937
vn -0.7792 0.2955 0.5528
vn -0.6858 0.4734 -0.5528
vn -0.8062 0.5595 0.1923
vn -0.4595 0.3172 0.8296
vn -0.8062 0.5595 -0.1923
vn -0.6858 0.4734 0.5528
vn -0.1617 0.1116 0.9805
vn -0.5715 0.8050 -0.1595
vn -0.5341 0.6515 0.5388
vn -0.1303 0.1471 0.9805
vn -0.5341 0.6515 -0.5388
vn -0.5715 0.8050 0.1595
vn -0.3703 0.4180 0.8296
vn -0.2819 0.9552 -0.0906
vn -0.3332 0.8060 0.4891
vn -0.0913 0.1740 0.9805
vn -0.3332 0.8060 -0.4891
vn -0.2819 0.9552 0.0906
vn -0.2595 0.4944 0.8296
vn -0.1749 0.8825 -0.4367
vn -0.1336 0.5422 0.8296
vn -0.1749 0.8825 0.4367
vn -0.0470 0.1908 0.9805
vn -0.0000 0.5584 0.8296
vn -0.0000 0.9082 0.4185
vn -0.0000 0.1965 0.9805
vn -0.0000 0.9082 -0.4185
vn 0.1749 0.8825 0.4367
vn 0.0470 0.1908 0.9805
vn 0.1749 0.8825 -0.4367
vn -0.0000 1.0000 -0.0000
vn 0.1336 0.5422 0.8296
vn 0.3332 0.8060 0.4891
vn 0.0913 0.1740 0.9805
vn 0.3332 0.8060 -0.4891
vn 0.2819 0.9552 0.0906
vn 0.2595 0.4944 0.8296
vn 0.2819 0.9552 -0.0906
vn 0.5341 0.6515 -0.5388
vn 0.5715 0.8050 0.1595
vn 0.3703 0.4180 0.8296
vn 0.5715 0.8050 -0.1595
vn 0.5341 0.6515 0.5388
vn 0.1303 0.1471 0.9805
vn 0.4595 0.3172 0.8296
vn 0.8062 0.5595 -0.1923
vn 0.6858 0.4734 0.5528
vn 0.1617 0.1116 0.9805
vn 0.6858 0.4734 -0.5528
vn 0.8062 0.5595 0.1923
vn -0.0000 -0.0000 -1.0000
vn 0.9173 0.3479 -0.1937
vn 0.7792 0.2955 0.5528
vn 0.1837 0.0697 0.9805
vn 0.7792 0.2955 -0.5528
vn 0.9173 0.3479 0.1937
vn 0.5221 0.1980 0.8296
vn 0.1950 0.0237 0.9805
vn 0.8273 0.1004 -0.5528
vn 0.9739 0.1183 0.1937
vn 0.5543 0.0673 0.8296
vn 0.9739 0.1183 -0.1937
vn 0.8273 0.1004 0.5528
vn -1.0000 -0.0000 -0.0000
vn 1.0000 -0.0000 -0.0000
vn -0.0000 -0.0000 1.0000
vn -0.7526 -0.0000 0.6585
vn 0.7550 -0.0000 -0.6558
vn 0.9814 -0.0000 -0.1918
vn -0.9904 -0.0000 0.1383
vn 0.9939 -0.0000 -0.1106
vn -0.9970 -0.0000 0.0780
vn 0.9994 -0.0000 -0.0354
vn -0.9997 -0.0000 0.0245
vn -0.9997 -0.0000 -0.0245
vn 0.9994 -0.0000 0.0354
vn -0.9970 -0.0000 -0.0780
vn 0.9939 -0.0000 0.1106
vn -0.9904 -0.0000 -0.1383
vn 0.9814 -0.0000 0.1918
vn 0.0894 -0.0000 -0.9960
vn -0.1083 -0.0000 0.9941
vn 0.2710 -0.0000 -0.9626
vn -0.3281 -0.0000 0.9447
vn -0.3281 -0.0000 -0.9447
vn 0.2710 -0.0000 0.9626
vn 0.4433 -0.0000 -0.8964
vn -0.5268 -0.0000 0.8500
vn -0.5268 -0.0000 -0.8500
vn 0.4433 -0.0000 0.8964
vn 0.5937 -0.0000 -0.8047
vn -0.6847 -0.0000 0.7288
vn 0.7158 -0.0000 -0.6983
vn -0.7984 -0.0000 0.6021
vn 0.8095 -0.0000 -0.5872
vn -0.8755 -0.0000 0.4833
vn 0.8782 -0.0000 -0.4783
vn -0.9259 -0.0000 0.3778
vn 0.9269 -0.0000 -0.3754
vn -0.9582 -0.0000 0.2862
vn 0.9600 -0.0000 -0.2799
vn -0.9783 -0.0000 0.2070
vn -0.9783 -0.0000 -0.2070
vn 0.9600 -0.0000 0.2799
vn -0.9582 -0.0000 -0.2862
vn 0.9269 -0.0000 0.3754
vn -0.9259 -0.0000 -0.3778
vn 0.8782 -0.0000 0.4783
vn -0.8755 -0.0000 -0.4833
vn 0.8095 -0.0000 0.5872
vn -0.7984 -0.0000 -0.6021
vn 0.7158 -0.0000 0.6983
vn -0.6847 -0.0000 -0.7288
vn 0.5937 -0.0000 0.8047
vn 0.1083 -0.0000 -0.9941
vn -0.0894 -0.0000 0.9960
vn -0.2710 -0.0000 -0.9626
vn 0.3281 -0.0000 0.9447
vn 0.3281 -0.0000 -0.9447
vn -0.2710 -0.0000 0.9626
vn -0.4433 -0.0000 -0.8964
vn 0.5268 -0.0000 0.8500
vn 0.5268 -0.0000 -0.8500
vn -0.4433 -0.0000 0.8964
vn -0.9814 -0.0000 -0.1918
vn 0.9904 -0.0000 0.1383
vn -0.9939 -0.0000 -0.1106
vn 0.9970 -0.0000 0.0780
vn -0.9994 -0.0000 -0.0354
vn 0.9997 -0.0000 0.0245
vn 0.9997 -0.0000 -0.0245
vn -0.9994 -0.0000 0.0354
vn 0.9970 -0.0000 -0.0780
vn -0.9939 -0.0000 0.1106
vn 0.9904 -0.0000 -0.1383
vn -0.9814 -0.0000 0.1918
vn -0.5937 -0.0000 -0.8047
vn 0.6847 -0.0000 0.7288
vn -0.7158 -0.0000 -0.6983
vn 0.7984 -0.0000 0.6021
vn -0.8095 -0.0000 -0.5872
vn 0.8755 -0.0000 0.4833
vn -0.8782 -0.0000 -0.4783
vn 0.9259 -0.0000 0.3778
vn -0.9269 -0.0000 -0.3754
vn 0.9582 -0.0000 0.2862
vn -0.9600 -0.0000 -0.2799
vn 0.9783 -0.0000 0.2070
vn 0.9783 -0.0000 -0.2070
vn -0.9600 -0.0000 0.2799
vn 0.9582 -0.0000 -0.2862
vn -0.9269 -0.0000 0.3754
vn 0.9259 -0.0000 -0.3778
vn -0.8782 -0.0000 0.4783
vn 0.8755 -0.0000 -0.4833
vn -0.8095 -0.0000 0.5872
vn 0.7984 -0.0000 -0.6021
vn -0.7158 -0.0000 0.6983
vn 0.6847 -0.0000 -0.7288
vn -0.5937 -0.0000 0.8047
vn -0.0894 -0.0000 -0.9960
vn 0.1083 -0.0000 0.9941
vn -0.1083 -0.0000 -0.9941
vn 0.0894 -0.0000 0.9960
vn -0.5421 -0.0000 0.8403
vn 0.4409 -0.0000 -0.8976
vn -0.4301 -0.0000 0.9028
vn -0.4700 -0.0000 0.8827
vn -0.5073 -0.0000 0.8618
vn 0.3090 -0.0000 -0.9511
vn -0.2950 -0.0000 0.9555
vn 0.3472 -0.0000 -0.9378
vn -0.3425 -0.0000 0.9395
vn 0.3821 -0.0000 -0.9241
vn 0.4133 -0.0000 -0.9106
vn -0.3876 -0.0000 0.9218
vn 0.0952 -0.0000 -0.9955
vn -0.0844 -0.0000 0.9964
vn 0.1377 -0.0000 -0.9905
vn -0.1395 -0.0000 0.9902
vn 0.0175 -0.0000 -0.9998
vn 0.0601 -0.0000 0.9982
vn -0.0597 -0.0000 -0.9982
vn 0.1790 -0.0000 0.9838
vn 0.1569 -0.0000 -0.9876
vn 0.0548 -0.0000 -0.9985
vn -0.0283 -0.0000 0.9996
vn 0.0318 -0.0000 -0.9995
vn 0.0023 -0.0000 1.0000
vn 0.1814 -0.0000 -0.9834
vn 0.2252 -0.0000 -0.9743
vn -0.1932 -0.0000 0.9812
vn 0.2681 -0.0000 -0.9634
vn -0.2452 -0.0000 0.9695
vn -0.0828 -0.0000 -0.9966
vn -0.1862 -0.0000 -0.9825
vn 0.4294 -0.0000 -0.9031
vn -0.2418 -0.0000 0.9703
vn -0.4257 -0.0000 -0.9049
vn 0.5105 -0.0000 0.8599
vn -0.3700 -0.0000 0.9290
vn -0.9818 -0.0000 -0.1899
vn 0.9969 -0.0000 0.0788
vn -0.9980 -0.0000 -0.0624
vn -0.9980 -0.0000 0.0627
vn 0.9963 -0.0000 -0.0859
vn -0.9815 -0.0000 0.1917
vn -0.5415 -0.0000 -0.8407
vn 0.6102 -0.0000 0.7923
vn -0.6492 -0.0000 -0.7606
vn 0.7035 -0.0000 0.7107
vn -0.7461 -0.0000 -0.6659
vn 0.7890 -0.0000 0.6144
vn -0.8294 -0.0000 -0.5586
vn 0.8646 -0.0000 0.5024
vn -0.8973 -0.0000 -0.4414
vn 0.9272 -0.0000 0.3747
vn -0.9483 -0.0000 -0.3174
vn 0.9726 -0.0000 0.2323
vn 0.9657 -0.0000 -0.2596
vn -0.9465 -0.0000 0.3226
vn 0.9037 -0.0000 -0.4282
vn -0.8921 -0.0000 0.4519
vn -0.8179 -0.0000 0.5754
vn 0.8126 -0.0000 -0.5828
vn -0.7251 -0.0000 0.6886
vn 0.6980 -0.0000 -0.7161
vn -0.6167 -0.0000 0.7872
vn 0.5676 -0.0000 -0.8233
vn -0.4967 -0.0000 0.8679
vn -0.1818 -0.0000 -0.9833
vn 0.2943 -0.0000 0.9557
vn -0.3048 -0.0000 -0.9524
vn 0.4050 -0.0000 0.9143
vn 0.2906 -0.0000 -0.9568
vn -0.1166 -0.0000 0.9932
vt 0.730769 0.250000
vt 0.730769 0.375000
vt 0.692308 0.375000
vt 0.692308 0.250000
vt 0.730769 0.500000
vt 0.730769 0.625000
vt 0.692308 0.625000
vt 0.692308 0.500000
vt 0.730769 0.750000
vt 0.730769 0.875000
vt 0.692308 0.875000
vt 0.692308 0.750000
vt 0.711538 1.000000
vt 0.653846 0.875000
vt 0.653846 0.750000
vt 0.653846 0.500000
vt 0.653846 0.375000
vt 0.653846 0.625000
vt 0.673077 1.000000
vt 0.653846 0.250000
vt 0.615385 0.500000
vt 0.615385 0.375000
vt 0.615385 0.750000
vt 0.615385 0.625000
vt 0.634615 1.000000
vt 0.615385 0.875000
vt 0.615385 0.250000
vt 0.596154 1.000000
vt 0.576923 0.875000
vt 0.576923 0.375000
vt 0.576923 0.250000
vt 0.576923 0.625000
vt 0.576923 0.500000
vt 0.576923 0.750000
vt 0.538461 0.375000
vt 0.538461 0.250000
vt 0.538461 0.625000
vt 0.538461 0.500000
vt 0.538461 0.875000
vt 0.538461 0.750000
vt 0.557692 1.000000
vt 0.500000 0.750000
vt 0.500000 0.625000
vt 0.519231 1.000000
vt 0.500000 0.875000
vt 0.500000 0.375000
vt 0.500000 0.250000
vt 0.461538 0.750000
vt 0.461538 0.625000
vt 0.480769 1.000000
vt 0.461538 0.875000
vt 0.461538 0.375000
vt 0.461538 0.250000
vt 0.423077 0.375000
vt 0.423077 0.250000
vt 0.423077 0.625000
vt 0.423077 0.500000
vt 0.423077 0.875000
vt 0.423077 0.750000
vt 0.442308 1.000000
vt 0.384615 0.625000
vt 0.384615 0.500000
vt 0.384615 0.875000
vt 0.384615 0.750000
vt 0.384615 0.375000
vt 0.403846 1.000000
vt 0.384615 0.250000
vt 0.346154 0.500000
vt 0.346154 0.375000
vt 0.346154 0.750000
vt 0.346154 0.625000
vt 0.365385 1.000000
vt 0.346154 0.875000
vt 0.346154 0.250000
vt 0.307692 0.750000
vt 0.307692 0.625000
vt 0.326923 1.000000
vt 0.307692 0.875000
vt 0.307692 0.375000
vt 0.307692 0.250000
vt 0.307692 0.500000
vt 0.269231 0.375000
vt 0.269231 0.250000
vt 0.269231 0.625000
vt 0.269231 0.500000
vt 0.269231 0.875000
vt 0.269231 0.750000
vt 0.288462 1.000000
vt 0.230769 0.875000
vt 0.230769 0.750000
vt 0.230769 0.500000
vt 0.230769 0.375000
vt 0.230769 0.625000
vt 0.250000 1.000000
vt 0.230769 0.250000
vt 0.192308 0.500000
vt 0.192308 0.375000
vt 0.192308 0.750000
vt 0.192308 0.625000
vt 0.211538 1.000000
vt 0.192308 0.875000
vt 0.192308 0.250000
vt 0.173077 1.000000
vt 0.153846 0.875000
vt 0.153846 0.375000
vt 0.153846 0.250000
vt 0.153846 0.625000
vt 0.153846 0.500000
vt 0.153846 0.750000
vt 0.115385 0.375000
vt 0.115385 0.250000
vt 0.115385 0.625000
vt 0.115385 0.500000
vt 0.115385 0.875000
vt 0.115385 0.750000
vt 0.134615 1.000000
vt 0.076923 0.500000
vt 0.076923 0.375000
vt 0.076923 0.750000
vt 0.076923 0.625000
vt 0.096154 1.000000
vt 0.076923 0.875000
vt 0.076923 0.250000
vt 0.038462 0.500000
vt 0.038462 0.375000
vt 0.038462 0.750000
vt 0.038462 0.625000
vt 0.057692 1.000000
vt 0.038462 0.875000
vt 0.038462 0.250000
vt 0.000000 0.375000
vt 0.000000 0.250000
vt 0.000000 0.875000
vt 0.000000 0.750000
vt 0.000000 0.625000
vt 0.019231 1.000000
vt 1.000000 0.750000
vt 1.000000 0.875000
vt 0.961538 0.875000
vt 0.961538 0.750000
vt 1.000000 0.625000
vt 0.961538 0.625000
vt 0.980769 1.000000
vt 1.000000 0.250000
vt 1.000000 0.375000
vt 0.961538 0.375000
vt 0.961538 0.250000
vt 0.923077 0.750000
vt 0.923077 0.625000
vt 0.942308 1.000000
vt 0.923077 0.875000
vt 0.923077 0.375000
vt 0.923077 0.250000
vt 0.923077 0.500000
vt 0.884615 0.750000
vt 0.884615 0.625000
vt 0.903846 1.000000
vt 0.884615 0.875000
vt 0.884615 0.375000
vt 0.884615 0.250000
vt 0.884615 0.500000
vt 0.846154 0.375000
vt 0.846154 0.250000
vt 0.846154 0.625000
vt 0.846154 0.500000
vt 0.846154 0.875000
vt 0.846154 0.750000
vt 0.865385 1.000000
vt 0.807692 0.875000
vt 0.807692 0.750000
vt 0.807692 0.500000
vt 0.807692 0.375000
vt 0.807692 0.625000
vt 0.826923 1.000000
vt 0.807692 0.250000
vt 0.769231 0.250000
vt 0.769231 0.500000
vt 0.769231 0.375000
vt 0.769231 0.750000
vt 0.769231 0.625000
vt 0.788461 1.000000
vt 0.769231 0.875000
vt 0.750000 1.000000
vt 0.666667 0.000000
vt 0.777778 0.000000
vt 0.555556 0.000000
vt 0.444444 0.000000
vt 0.333333 0.000000
vt 0.888889 0.000000
vt 1.000000 0.000000
vt 0.222222 0.000000
vt 0.000000 0.000000
vt 0.111111 0.000000
vt 0.273684 0.000000
vt 0.284211 0.000000
vt 0.726316 0.000000
vt 0.736842 0.000000
vt 0.263158 0.000000
vt 0.747368 0.000000
vt 0.252632 0.000000
vt 0.757895 0.000000
vt 0.768421 0.000000
vt 0.242105 0.000000
vt 0.778947 0.000000
vt 0.231579 0.000000
vt 0.789474 0.000000
vt 0.221053 0.000000
vt 0.378947 0.000000
vt 0.631579 0.000000
vt 0.368421 0.000000
vt 0.642105 0.000000
vt 0.357895 0.000000
vt 0.652632 0.000000
vt 0.147368 0.000000
vt 0.863158 0.000000
vt 0.873684 0.000000
vt 0.136842 0.000000
vt 0.347368 0.000000
vt 0.663158 0.000000
vt 0.852632 0.000000
vt 0.157895 0.000000
vt 0.336842 0.000000
vt 0.673684 0.000000
vt 0.326316 0.000000
vt 0.684211 0.000000
vt 0.315789 0.000000
vt 0.694737 0.000000
vt 0.305263 0.000000
vt 0.705263 0.000000
vt 0.294737 0.000000
vt 0.715789 0.000000
vt 0.800000 0.000000
vt 0.210526 0.000000
vt 0.810526 0.000000
vt 0.200000 0.000000
vt 0.821053 0.000000
vt 0.189474 0.000000
vt 0.831579 0.000000
vt 0.178947 0.000000
vt 0.842105 0.000000
vt 0.168421 0.000000
vt 0.884211 0.000000
vt 0.894737 0.000000
vt 0.115789 0.000000
vt 0.126316 0.000000
vt 0.621053 0.000000
vt 0.389474 0.000000
vt 0.400000 0.000000
vt 0.610526 0.000000
vt 0.905263 0.000000
vt 0.105263 0.000000
vt 0.410526 0.000000
vt 0.600000 0.000000
vt 0.915789 0.000000
vt 0.094737 0.000000
vt 0.473684 0.000000
vt 0.484211 0.000000
vt 0.536842 0.000000
vt 0.526316 0.000000
vt 0.494737 0.000000
vt 0.515789 0.000000
vt 0.505263 0.000000
vt 0.010526 0.000000
vt 0.989474 0.000000
vt 0.021053 0.000000
vt 0.978947 0.000000
vt 0.031579 0.000000
vt 0.421053 0.000000
vt 0.589474 0.000000
vt 0.431579 0.000000
vt 0.578947 0.000000
vt 0.442105 0.000000
vt 0.568421 0.000000
vt 0.452632 0.000000
vt 0.557895 0.000000
vt 0.463158 0.000000
vt 0.547368 0.000000
vt 0.968421 0.000000
vt 0.042105 0.000000
vt 0.957895 0.000000
vt 0.052632 0.000000
vt 0.947368 0.000000
vt 0.063158 0.000000
vt 0.936842 0.000000
vt 0.073684 0.000000
vt 0.926316 0.000000
vt 0.084211 0.000000
vt 0.493506 0.000000
vt 0.506494 0.000000
vt 0.480519 0.000000
vt 0.519481 0.000000
vt 0.441558 0.000000
vt 0.454545 0.000000
vt 0.467532 0.000000
vt 0.558442 0.000000
vt 0.571429 0.000000
vt 0.402597 0.000000
vt 0.415584 0.000000
vt 0.545455 0.000000
vt 0.428571 0.000000
vt 0.532468 0.000000
vt 0.636364 0.000000
vt 0.350649 0.000000
vt 0.623377 0.000000
vt 0.363636 0.000000
vt 0.610390 0.000000
vt 0.376623 0.000000
vt 0.337662 0.000000
vt 0.649351 0.000000
vt 0.662338 0.000000
vt 0.324675 0.000000
vt 0.675325 0.000000
vt 0.311688 0.000000
vt 0.077922 0.000000
vt 0.961039 0.000000
vt 0.064935 0.000000
vt 0.974026 0.000000
vt 0.051948 0.000000
vt 0.597403 0.000000
vt 0.584416 0.000000
vt 0.389610 0.000000
vt 0.038961 0.000000
vt 0.025974 0.000000
vt 0.012987 0.000000
vt 0.987013 0.000000
vt 0.103896 0.000000
vt 0.935065 0.000000
vt 0.090909 0.000000
vt 0.948052 0.000000
vt 0.701299 0.000000
vt 0.714286 0.000000
vt 0.285714 0.000000
vt 0.272727 0.000000
vt 0.922078 0.000000
vt 0.792208 0.000000
vt 0.805195 0.000000
vt 0.194805 0.000000
vt 0.181818 0.000000
vt 0.818182 0.000000
vt 0.831169 0.000000
vt 0.168831 0.000000
vt 0.844156 0.000000
vt 0.727273 0.000000
vt 0.259740 0.000000
vt 0.740260 0.000000
vt 0.246753 0.000000
vt 0.753247 0.000000
vt 0.233766 0.000000
vt 0.766234 0.000000
vt 0.220779 0.000000
vt 0.779221 0.000000
vt 0.207792 0.000000
vt 0.155844 0.000000
vt 0.857143 0.000000
vt 0.142857 0.000000
vt 0.870130 0.000000
vt 0.883117 0.000000
vt 0.129870 0.000000
vt 0.896104 0.000000
vt 0.116883 0.000000
vt 0.909091 0.000000
vt 0.688312 0.000000
vt 0.298701 0.000000
s 0
usemtl Material.003
f 160/184/115 161/185/115 159/186/115
f 158/187/115 159/186/115 161/185/115
f 161/185/115 157/188/115 158/187/115
f 162/189/115 163/190/115 156/191/115
f 163/190/115 154/192/115 156/191/115
f 155/193/115 156/191/115 154/192/115
f 157/188/115 161/185/115 156/191/115
f 162/189/115 156/191/115 161/185/115
f 190/194/115 191/195/115 233/196/115
f 233/196/115 234/197/115 190/194/115
f 189/198/115 190/194/115 234/197/115
f 234/197/115 235/199/115 189/198/115
f 188/200/115 189/198/115 235/199/115
f 235/199/115 236/201/115 188/200/115
f 236/201/115 237/202/115 188/200/115
f 187/203/115 188/200/115 237/202/115
f 237/202/115 238/204/115 187/203/115
f 186/205/115 187/203/115 238/204/115
f 238/204/115 239/206/115 186/205/115
f 185/207/115 186/205/115 239/206/115
f 200/208/115 224/209/115 199/210/115
f 224/209/115 225/211/115 199/210/115
f 199/210/115 225/211/115 198/212/115
f 226/213/115 198/212/115 225/211/115
f 178/214/115 246/215/115 247/216/115
f 247/216/115 177/217/115 178/214/115
f 198/212/115 226/213/115 197/218/115
f 226/213/115 227/219/115 197/218/115
f 245/220/115 246/215/115 179/221/115
f 246/215/115 178/214/115 179/221/115
f 197/218/115 227/219/115 196/222/115
f 227/219/115 228/223/115 196/222/115
f 195/224/115 196/222/115 228/223/115
f 228/223/115 229/225/115 195/224/115
f 194/226/115 195/224/115 229/225/115
f 229/225/115 230/227/115 194/226/115
f 193/228/115 194/226/115 230/227/115
f 230/227/115 231/229/115 193/228/115
f 192/230/115 193/228/115 231/229/115
f 231/229/115 232/231/115 192/230/115
f 191/195/115 192/230/115 232/231/115
f 233/196/115 191/195/115 232/231/115
f 185/207/115 239/206/115 240/232/115
f 184/233/115 185/207/115 240/232/115
f 240/232/115 241/234/115 184/233/115
f 183/235/115 184/233/115 241/234/115
f 241/234/115 242/236/115 183/235/115
f 182/237/115 183/235/115 242/236/115
f 242/236/115 243/238/115 182/237/115
f 181/239/115 182/237/115 243/238/115
f 243/238/115 244/240/115 181/239/115
f 180/241/115 181/239/115 244/240/115
f 244/240/115 245/220/115 180/241/115
f 245/220/115 179/221/115 180/241/115
f 248/242/115 249/243/115 175/244/115
f 176/245/115 248/242/115 175/244/115
f 223/246/115 201/247/115 202/248/115
f 202/248/115 222/249/115 223/246/115
f 250/250/115 174/251/115 249/243/115
f 175/244/115 249/243/115 174/251/115
f 222/249/115 202/248/115 203/252/115
f 221/253/115 222/249/115 203/252/115
f 250/250/115 251/254/115 173/255/115
f 174/251/115 250/250/115 173/255/115
f 209/256/115 210/257/115 215/258/115
f 214/259/115 215/258/115 210/257/115
f 210/257/115 211/260/115 214/259/115
f 213/261/115 214/259/115 211/260/115
f 211/260/115 164/192/115 213/261/115
f 212/262/115 213/261/115 164/192/115
f 259/190/115 212/262/115 164/192/115
f 164/192/115 165/263/115 259/190/115
f 258/264/115 259/190/115 165/263/115
f 165/263/115 166/265/115 258/264/115
f 257/266/115 258/264/115 166/265/115
f 166/265/115 167/267/115 257/266/115
f 221/253/115 203/252/115 204/268/115
f 220/269/115 221/253/115 204/268/115
f 204/268/115 205/270/115 220/269/115
f 219/271/115 220/269/115 205/270/115
f 205/270/115 206/272/115 219/271/115
f 218/273/115 219/271/115 206/272/115
f 206/272/115 207/274/115 218/273/115
f 217/275/115 218/273/115 207/274/115
f 207/274/115 208/276/115 217/275/115
f 216/277/115 217/275/115 208/276/115
f 208/276/115 209/256/115 216/277/115
f 209/256/115 215/258/115 216/277/115
f 257/266/115 167/267/115 256/278/115
f 167/267/115 168/279/115 256/278/115
f 255/280/115 256/278/115 168/279/115
f 168/279/115 169/281/115 255/280/115
f 254/282/115 255/280/115 169/281/115
f 169/281/115 170/283/115 254/282/115
f 253/284/115 254/282/115 170/283/115
f 170/283/115 171/285/115 253/284/115
f 252/286/115 253/284/115 171/285/115
f 171/285/115 172/287/115 252/286/115
f 251/254/115 252/286/115 172/287/115
f 173/255/115 251/254/115 172/287/115
f 224/209/115 200/208/115 201/247/115
f 201/247/115 223/246/115 224/209/115
f 177/217/115 247/216/115 248/242/115
f 248/242/115 176/245/115 177/217/115
f 298/288/115 299/289/115 297/290/115
f 299/289/115 300/291/115 294/292/115
f 294/292/115 295/293/115 299/289/115
f 295/293/115 296/294/115 299/289/115
f 297/290/115 299/289/115 296/294/115
f 303/295/115 304/296/115 291/297/115
f 291/297/115 292/298/115 303/295/115
f 303/295/115 292/298/115 302/299/115
f 292/298/115 293/300/115 302/299/115
f 301/301/115 302/299/115 293/300/115
f 300/291/115 301/301/115 293/300/115
f 294/292/115 300/291/115 293/300/115
f 309/302/115 287/303/115 308/304/115
f 287/303/115 288/305/115 308/304/115
f 307/306/115 308/304/115 288/305/115
f 289/307/115 307/306/115 288/305/115
f 286/308/115 310/309/115 311/310/115
f 311/310/115 285/311/115 286/308/115
f 285/311/115 311/310/115 312/312/115
f 312/312/115 284/313/115 285/311/115
f 266/314/115 334/315/115 265/316/115
f 310/309/115 286/308/115 309/302/115
f 287/303/115 309/302/115 286/308/115
f 335/317/115 264/318/115 265/316/115
f 265/316/115 334/315/115 335/317/115
f 307/306/115 289/307/115 306/319/115
f 305/320/115 306/319/115 289/307/115
f 289/307/115 290/321/115 305/320/115
f 304/296/115 305/320/115 290/321/115
f 291/297/115 304/296/115 290/321/115
f 264/318/115 335/317/115 263/322/115
f 262/323/115 263/322/115 335/317/115
f 261/324/115 262/323/115 335/317/115
f 335/317/115 336/325/115 261/324/115
f 268/326/115 332/327/115 267/328/115
f 333/329/115 267/328/115 332/327/115
f 314/330/115 315/331/115 282/332/115
f 281/333/115 282/332/115 315/331/115
f 332/327/115 268/326/115 331/334/115
f 321/335/115 322/336/115 275/337/115
f 274/338/115 275/337/115 322/336/115
f 322/336/115 323/339/115 274/338/115
f 323/339/115 324/340/115 274/338/115
f 273/341/115 274/338/115 324/340/115
f 324/340/115 325/342/115 273/341/115
f 281/333/115 315/331/115 316/343/115
f 280/344/115 281/333/115 316/343/115
f 316/343/115 317/345/115 280/344/115
f 279/346/115 280/344/115 317/345/115
f 317/345/115 318/347/115 279/346/115
f 278/348/115 279/346/115 318/347/115
f 318/347/115 319/349/115 278/348/115
f 277/350/115 278/348/115 319/349/115
f 319/349/115 320/351/115 277/350/115
f 276/352/115 277/350/115 320/351/115
f 320/351/115 321/335/115 276/352/115
f 321/335/115 275/337/115 276/352/115
f 273/341/115 325/342/115 272/353/115
f 325/342/115 326/354/115 272/353/115
f 271/355/115 272/353/115 326/354/115
f 326/354/115 327/356/115 271/355/115
f 327/356/115 328/357/115 271/355/115
f 270/358/115 271/355/115 328/357/115
f 328/357/115 329/359/115 270/358/115
f 269/360/115 270/358/115 329/359/115
f 329/359/115 330/361/115 269/360/115
f 268/326/115 269/360/115 330/361/115
f 331/334/115 268/326/115 330/361/115
f 284/313/115 312/312/115 313/362/115
f 283/363/115 284/313/115 313/362/115
f 313/362/115 314/330/115 283/363/115
f 314/330/115 282/332/115 283/363/115
f 267/328/115 333/329/115 266/314/115
f 334/315/115 266/314/115 333/329/115
f 337/190/115 260/192/115 336/325/115
f 261/324/115 336/325/115 260/192/115
f 344/184/40 343/186/40 345/185/40
f 342/187/40 345/185/40 343/186/40
f 345/185/40 342/187/40 341/188/40
f 346/189/40 340/191/40 347/190/40
f 347/190/40 340/191/40 338/192/40
f 339/193/40 338/192/40 340/191/40
f 341/188/40 340/191/40 345/185/40
f 346/189/40 345/185/40 340/191/40
f 374/194/40 417/196/40 375/195/40
f 417/196/40 374/194/40 418/197/40
f 373/198/40 418/197/40 374/194/40
f 418/197/40 373/198/40 419/199/40
f 372/200/40 419/199/40 373/198/40
f 419/199/40 372/200/40 420/201/40
f 420/201/40 372/200/40 421/202/40
f 371/203/40 421/202/40 372/200/40
f 421/202/40 371/203/40 422/204/40
f 370/205/40 422/204/40 371/203/40
f 422/204/40 370/205/40 423/206/40
f 369/207/40 423/206/40 370/205/40
f 384/208/40 383/210/40 408/209/40
f 408/209/40 383/210/40 409/211/40
f 383/210/40 382/212/40 409/211/40
f 410/213/40 409/211/40 382/212/40
f 362/214/40 431/216/40 430/215/40
f 431/216/40 362/214/40 361/217/40
f 382/212/40 381/218/40 410/213/40
f 410/213/40 381/218/40 411/219/40
f 429/220/40 363/221/40 430/215/40
f 430/215/40 363/221/40 362/214/40
f 381/218/40 380/222/40 411/219/40
f 411/219/40 380/222/40 412/223/40
f 379/224/40 412/223/40 380/222/40
f 412/223/40 379/224/40 413/225/40
f 378/226/40 413/225/40 379/224/40
f 413/225/40 378/226/40 414/227/40
f 377/228/40 414/227/40 378/226/40
f 414/227/40 377/228/40 415/229/40
f 376/230/40 415/229/40 377/228/40
f 415/229/40 376/230/40 416/231/40
f 375/195/40 416/231/40 376/230/40
f 417/196/40 416/231/40 375/195/40
f 369/207/40 424/232/40 423/206/40
f 368/233/40 424/232/40 369/207/40
f 424/232/40 368/233/40 425/234/40
f 367/235/40 425/234/40 368/233/40
f 425/234/40 367/235/40 426/236/40
f 366/237/40 426/236/40 367/235/40
f 426/236/40 366/237/40 427/238/40
f 365/239/40 427/238/40 366/237/40
f 427/238/40 365/239/40 428/240/40
f 364/241/40 428/240/40 365/239/40
f 428/240/40 364/241/40 429/220/40
f 429/220/40 364/241/40 363/221/40
f 432/242/40 359/244/40 433/243/40
f 360/245/40 359/244/40 432/242/40
f 407/246/40 386/248/40 385/247/40
f 386/248/40 407/246/40 406/249/40
f 434/250/40 433/243/40 358/251/40
f 359/244/40 358/251/40 433/243/40
f 406/249/40 387/252/40 386/248/40
f 405/253/40 387/252/40 406/249/40
f 434/250/40 357/255/40 435/254/40
f 358/251/40 357/255/40 434/250/40
f 393/256/40 399/258/40 394/257/40
f 398/259/40 394/257/40 399/258/40
f 394/257/40 398/259/40 395/260/40
f 397/261/40 395/260/40 398/259/40
f 395/260/40 397/261/40 348/192/40
f 396/262/40 348/192/40 397/261/40
f 443/190/40 348/192/40 396/262/40
f 348/192/40 443/190/40 349/263/40
f 442/264/40 349/263/40 443/190/40
f 349/263/40 442/264/40 350/265/40
f 441/266/40 350/265/40 442/264/40
f 350/265/40 441/266/40 351/267/40
f 405/253/40 388/268/40 387/252/40
f 404/269/40 388/268/40 405/253/40
f 388/268/40 404/269/40 389/270/40
f 403/271/40 389/270/40 404/269/40
f 389/270/40 403/271/40 390/272/40
f 402/273/40 390/272/40 403/271/40
f 390/272/40 402/273/40 391/274/40
f 401/275/40 391/274/40 402/273/40
f 391/274/40 401/275/40 392/276/40
f 400/277/40 392/276/40 401/275/40
f 392/276/40 400/277/40 393/256/40
f 393/256/40 400/277/40 399/258/40
f 441/266/40 440/278/40 351/267/40
f 351/267/40 440/278/40 352/279/40
f 439/280/40 352/279/40 440/278/40
f 352/279/40 439/280/40 353/281/40
f 438/282/40 353/281/40 439/280/40
f 353/281/40 438/282/40 354/283/40
f 437/284/40 354/283/40 438/282/40
f 354/283/40 437/284/40 355/285/40
f 436/286/40 355/285/40 437/284/40
f 355/285/40 436/286/40 356/287/40
f 435/254/40 356/287/40 436/286/40
f 357/255/40 356/287/40 435/254/40
f 408/209/40 385/247/40 384/208/40
f 385/247/40 408/209/40 407/246/40
f 361/217/40 432/242/40 431/216/40
f 432/242/40 361/217/40 360/245/40
f 482/288/40 481/290/40 483/289/40
f 483/289/40 478/292/40 484/291/40
f 478/292/40 483/289/40 479/293/40
f 479/293/40 483/289/40 480/294/40
f 481/290/40 480/294/40 483/289/40
f 487/295/40 475/297/40 488/296/40
f 475/297/40 487/295/40 476/298/40
f 487/295/40 486/299/40 476/298/40
f 476/298/40 486/299/40 477/300/40
f 485/301/40 477/300/40 486/299/40
f 484/291/40 477/300/40 485/301/40
f 478/292/40 477/300/40 484/291/40
f 493/302/40 492/304/40 471/303/40
f 471/303/40 492/304/40 472/305/40
f 491/306/40 472/305/40 492/304/40
f 473/307/40 472/305/40 491/306/40
f 470/308/40 495/310/40 494/309/40
f 495/310/40 470/308/40 469/311/40
f 469/311/40 496/312/40 495/310/40
f 496/312/40 469/311/40 468/313/40
f 450/314/40 449/316/40 518/315/40
f 494/309/40 493/302/40 470/308/40
f 471/303/40 470/308/40 493/302/40
f 519/317/40 449/316/40 448/318/40
f 449/316/40 519/317/40 518/315/40
f 491/306/40 490/319/40 473/307/40
f 489/320/40 473/307/40 490/319/40
f 473/307/40 489/320/40 474/321/40
f 488/296/40 474/321/40 489/320/40
f 475/297/40 474/321/40 488/296/40
f 448/318/40 447/322/40 519/317/40
f 446/323/40 519/317/40 447/322/40
f 445/324/40 519/317/40 446/323/40
f 519/317/40 445/324/40 520/325/40
f 452/326/40 451/328/40 516/327/40
f 517/329/40 516/327/40 451/328/40
f 498/330/40 466/332/40 499/331/40
f 465/333/40 499/331/40 466/332/40
f 516/327/40 515/334/40 452/326/40
f 505/335/40 459/337/40 506/336/40
f 458/338/40 506/336/40 459/337/40
f 506/336/40 458/338/40 507/339/40
f 507/339/40 458/338/40 508/340/40
f 457/341/40 508/340/40 458/338/40
f 508/340/40 457/341/40 509/342/40
f 465/333/40 500/343/40 499/331/40
f 464/344/40 500/343/40 465/333/40
f 500/343/40 464/344/40 501/345/40
f 463/346/40 501/345/40 464/344/40
f 501/345/40 463/346/40 502/347/40
f 462/348/40 502/347/40 463/346/40
f 502/347/40 462/348/40 503/349/40
f 461/350/40 503/349/40 462/348/40
f 503/349/40 461/350/40 504/351/40
f 460/352/40 504/351/40 461/350/40
f 504/351/40 460/352/40 505/335/40
f 505/335/40 460/352/40 459/337/40
f 457/341/40 456/353/40 509/342/40
f 509/342/40 456/353/40 510/354/40
f 455/355/40 510/354/40 456/353/40
f 510/354/40 455/355/40 511/356/40
f 511/356/40 455/355/40 512/357/40
f 454/358/40 512/357/40 455/355/40
f 512/357/40 454/358/40 513/359/40
f 453/360/40 513/359/40 454/358/40
f 513/359/40 453/360/40 514/361/40
f 452/326/40 514/361/40 453/360/40
f 515/334/40 514/361/40 452/326/40
f 468/313/40 497/362/40 496/312/40
f 467/363/40 497/362/40 468/313/40
f 497/362/40 467/363/40 498/330/40
f 498/330/40 467/363/40 466/332/40
f 451/328/40 450/314/40 517/329/40
f 518/315/40 517/329/40 450/314/40
f 521/190/40 520/325/40 444/192/40
f 445/324/40 444/192/40 520/325/40
f 160/184/135 159/186/135 343/186/135 344/184/135
f 161/185/148 160/184/148 344/184/148 345/185/148
f 159/186/149 158/187/149 342/187/149 343/186/149
f 158/187/150 157/188/150 341/188/150 342/187/150
f 163/190/135 162/189/135 346/189/135 347/190/135
f 154/192/148 163/190/148 347/190/148 338/192/148
f 155/193/150 154/192/150 338/192/150 339/193/150
f 156/191/149 155/193/149 339/193/149 340/191/149
f 157/188/151 156/191/151 340/191/151 341/188/151
f 162/189/152 161/185/152 345/185/152 346/189/152
f 191/195/153 190/194/153 374/194/153 375/195/153
f 234/197/154 233/196/154 417/196/154 418/197/154
f 190/194/155 189/198/155 373/198/155 374/194/155
f 235/199/156 234/197/156 418/197/156 419/199/156
f 189/198/157 188/200/157 372/200/157 373/198/157
f 236/201/158 235/199/158 419/199/158 420/201/158
f 237/202/159 236/201/159 420/201/159 421/202/159
f 188/200/160 187/203/160 371/203/160 372/200/160
f 238/204/161 237/202/161 421/202/161 422/204/161
f 187/203/162 186/205/162 370/205/162 371/203/162
f 239/206/163 238/204/163 422/204/163 423/206/163
f 186/205/164 185/207/164 369/207/164 370/205/164
f 200/208/165 199/210/165 383/210/165 384/208/165
f 225/211/166 224/209/166 408/209/166 409/211/166
f 199/210/167 198/212/167 382/212/167 383/210/167
f 226/213/168 225/211/168 409/211/168 410/213/168
f 247/216/169 246/215/169 430/215/169 431/216/169
f 178/214/170 177/217/170 361/217/170 362/214/170
f 198/212/171 197/218/171 381/218/171 382/212/171
f 227/219/172 226/213/172 410/213/172 411/219/172
f 246/215/173 245/220/173 429/220/173 430/215/173
f 179/221/174 178/214/174 362/214/174 363/221/174
f 197/218/175 196/222/175 380/222/175 381/218/175
f 228/223/176 227/219/176 411/219/176 412/223/176
f 196/222/177 195/224/177 379/224/177 380/222/177
f 229/225/178 228/223/178 412/223/178 413/225/178
f 195/224/179 194/226/179 378/226/179 379/224/179
f 230/227/180 229/225/180 413/225/180 414/227/180
f 194/226/181 193/228/181 377/228/181 378/226/181
f 231/229/182 230/227/182 414/227/182 415/229/182
f 193/228/183 192/230/183 376/230/183 377/228/183
f 232/231/184 231/229/184 415/229/184 416/231/184
f 192/230/185 191/195/185 375/195/185 376/230/185
f 233/196/186 232/231/186 416/231/186 417/196/186
f 240/232/187 239/206/187 423/206/187 424/232/187
f 185/207/188 184/233/188 368/233/188 369/207/188
f 241/234/189 240/232/189 424/232/189 425/234/189
f 184/233/190 183/235/190 367/235/190 368/233/190
f 242/236/191 241/234/191 425/234/191 426/236/191
f 183/235/192 182/237/192 366/237/192 367/235/192
f 243/238/193 242/236/193 426/236/193 427/238/193
f 182/237/194 181/239/194 365/239/194 366/237/194
f 244/240/195 243/238/195 427/238/195 428/240/195
f 181/239/196 180/241/196 364/241/196 365/239/196
f 245/220/197 244/240/197 428/240/197 429/220/197
f 180/241/198 179/221/198 363/221/198 364/241/198
f 249/243/199 248/242/199 432/242/199 433/243/199
f 176/245/200 175/244/200 359/244/200 360/245/200
f 202/248/201 201/247/201 385/247/201 386/248/201
f 223/246/202 222/249/202 406/249/202 407/246/202
f 250/250/203 249/243/203 433/243/203 434/250/203
f 175/244/204 174/251/204 358/251/204 359/244/204
f 203/252/205 202/248/205 386/248/205 387/252/205
f 222/249/206 221/253/206 405/253/206 406/249/206
f 251/254/207 250/250/207 434/250/207 435/254/207
f 174/251/208 173/255/208 357/255/208 358/251/208
f 210/257/209 209/256/209 393/256/209 394/257/209
f 215/258/210 214/259/210 398/259/210 399/258/210
f 211/260/211 210/257/211 394/257/211 395/260/211
f 214/259/212 213/261/212 397/261/212 398/259/212
f 164/192/213 211/260/213 395/260/213 348/192/213
f 213/261/214 212/262/214 396/262/214 397/261/214
f 212/262/215 259/190/215 443/190/215 396/262/215
f 165/263/216 164/192/216 348/192/216 349/263/216
f 259/190/217 258/264/217 442/264/217 443/190/217
f 166/265/218 165/263/218 349/263/218 350/265/218
f 258/264/219 257/266/219 441/266/219 442/264/219
f 167/267/220 166/265/220 350/265/220 351/267/220
f 204/268/221 203/252/221 387/252/221 388/268/221
f 221/253/222 220/269/222 404/269/222 405/253/222
f 205/270/223 204/268/223 388/268/223 389/270/223
f 220/269/224 219/271/224 403/271/224 404/269/224
f 206/272/225 205/270/225 389/270/225 390/272/225
f 219/271/226 218/273/226 402/273/226 403/271/226
f 207/274/227 206/272/227 390/272/227 391/274/227
f 218/273/228 217/275/228 401/275/228 402/273/228
f 208/276/229 207/274/229 391/274/229 392/276/229
f 217/275/230 216/277/230 400/277/230 401/275/230
f 209/256/231 208/276/231 392/276/231 393/256/231
f 216/277/232 215/258/232 399/258/232 400/277/232
f 257/266/233 256/278/233 440/278/233 441/266/233
f 168/279/234 167/267/234 351/267/234 352/279/234
f 256/278/235 255/280/235 439/280/235 440/278/235
f 169/281/236 168/279/236 352/279/236 353/281/236
f 255/280/237 254/282/237 438/282/237 439/280/237
f 170/283/238 169/281/238 353/281/238 354/283/238
f 254/282/239 253/284/239 437/284/239 438/282/239
f 171/285/240 170/283/240 354/283/240 355/285/240
f 253/284/241 252/286/241 436/286/241 437/284/241
f 172/287/242 171/285/242 355/285/242 356/287/242
f 252/286/243 251/254/243 435/254/243 436/286/243
f 173/255/244 172/287/244 356/287/244 357/255/244
f 201/247/245 200/208/245 384/208/245 385/247/245
f 224/209/246 223/246/246 407/246/246 408/209/246
f 248/242/247 247/216/247 431/216/247 432/242/247
f 177/217/248 176/245/248 360/245/248 361/217/248
f 298/288/249 297/290/249 481/290/249 482/288/249
f 299/289/149 298/288/149 482/288/149 483/289/149
f 300/291/250 299/289/250 483/289/250 484/291/250
f 295/293/251 294/292/251 478/292/251 479/293/251
f 296/294/252 295/293/252 479/293/252 480/294/252
f 297/290/253 296/294/253 480/294/253 481/290/253
f 304/296/254 303/295/254 487/295/254 488/296/254
f 292/298/255 291/297/255 475/297/255 476/298/255
f 303/295/256 302/299/256 486/299/256 487/295/256
f 293/300/257 292/298/257 476/298/257 477/300/257
f 302/299/258 301/301/258 485/301/258 486/299/258
f 301/301/259 300/291/259 484/291/259 485/301/259
f 294/292/260 293/300/260 477/300/260 478/292/260
f 309/302/261 308/304/261 492/304/261 493/302/261
f 288/305/262 287/303/262 471/303/262 472/305/262
f 308/304/263 307/306/263 491/306/263 492/304/263
f 289/307/264 288/305/264 472/305/264 473/307/264
f 311/310/265 310/309/265 494/309/265 495/310/265
f 286/308/266 285/311/266 469/311/266 470/308/266
f 312/312/267 311/310/267 495/310/267 496/312/267
f 285/311/268 284/313/268 468/313/268 469/311/268
f 266/314/269 265/316/269 449/316/269 450/314/269
f 310/309/270 309/302/270 493/302/270 494/309/270
f 287/303/271 286/308/271 470/308/271 471/303/271
f 265/316/272 264/318/272 448/318/272 449/316/272
f 335/317/273 334/315/273 518/315/273 519/317/273
f 307/306/274 306/319/274 490/319/274 491/306/274
f 306/319/275 305/320/275 489/320/275 490/319/275
f 290/321/276 289/307/276 473/307/276 474/321/276
f 305/320/277 304/296/277 488/296/277 489/320/277
f 291/297/278 290/321/278 474/321/278 475/297/278
f 264/318/279 263/322/279 447/322/279 448/318/279
f 263/322/280 262/323/280 446/323/280 447/322/280
f 262/323/149 261/324/149 445/324/149 446/323/149
f 336/325/148 335/317/148 519/317/148 520/325/148
f 268/326/281 267/328/281 451/328/281 452/326/281
f 333/329/282 332/327/282 516/327/282 517/329/282
f 315/331/283 314/330/283 498/330/283 499/331/283
f 282/332/284 281/333/284 465/333/284 466/332/284
f 332/327/285 331/334/285 515/334/285 516/327/285
f 322/336/286 321/335/286 505/335/286 506/336/286
f 275/337/287 274/338/287 458/338/287 459/337/287
f 323/339/288 322/336/288 506/336/288 507/339/288
f 324/340/289 323/339/289 507/339/289 508/340/289
f 274/338/290 273/341/290 457/341/290 458/338/290
f 325/342/291 324/340/291 508/340/291 509/342/291
f 316/343/292 315/331/292 499/331/292 500/343/292
f 281/333/293 280/344/293 464/344/293 465/333/293
f 317/345/294 316/343/294 500/343/294 501/345/294
f 280/344/295 279/346/295 463/346/295 464/344/295
f 318/347/296 317/345/296 501/345/296 502/347/296
f 279/346/297 278/348/297 462/348/297 463/346/297
f 319/349/298 318/347/298 502/347/298 503/349/298
f 278/348/299 277/350/299 461/350/299 462/348/299
f 320/351/300 319/349/300 503/349/300 504/351/300
f 277/350/301 276/352/301 460/352/301 461/350/301
f 321/335/302 320/351/302 504/351/302 505/335/302
f 276/352/303 275/337/303 459/337/303 460/352/303
f 273/341/304 272/353/304 456/353/304 457/341/304
f 326/354/305 325/342/305 509/342/305 510/354/305
f 272/353/306 271/355/306 455/355/306 456/353/306
f 327/356/307 326/354/307 510/354/307 511/356/307
f 328/357/308 327/356/308 511/356/308 512/357/308
f 271/355/309 270/358/309 454/358/309 455/355/309
f 329/359/310 328/357/310 512/357/310 513/359/310
f 270/358/311 269/360/311 453/360/311 454/358/311
f 330/361/312 329/359/312 513/359/312 514/361/312
f 269/360/313 268/326/313 452/326/313 453/360/313
f 331/334/314 330/361/314 514/361/314 515/334/314
f 313/362/315 312/312/315 496/312/315 497/362/315
f 284/313/316 283/363/316 467/363/316 468/313/316
f 314/330/317 313/362/317 497/362/317 498/330/317
f 283/363/318 282/332/318 466/332/318 467/363/318
f 267/328/319 266/314/319 450/314/319 451/328/319
f 334/315/320 333/329/320 517/329/320 518/315/320
f 337/190/135 336/325/135 520/325/135 521/190/135
f 260/192/148 337/190/148 521/190/148 444/192/148
f 261/324/150 260/192/150 444/192/150 445/324/150
usemtl Material.002
f 153/1/1 152/2/1 6/3/1 7/4/1
f 151/5/2 150/6/2 4/7/2 5/8/2
f 149/9/3 148/10/3 2/11/3 3/12/3
f 152/2/4 151/5/4 5/8/4 6/3/4
f 150/6/5 149/9/5 3/12/5 4/7/5
f 148/10/6 1/13/6 2/11/6
f 3/12/7 2/11/7 8/14/7 9/15/7
f 6/3/8 5/8/8 11/16/8 12/17/8
f 4/7/9 3/12/9 9/15/9 10/18/9
f 2/11/10 1/19/10 8/14/10
f 7/4/11 6/3/11 12/17/11 13/20/11
f 5/8/12 4/7/12 10/18/12 11/16/12
f 12/17/13 11/16/13 17/21/13 18/22/13
f 10/18/14 9/15/14 15/23/14 16/24/14
f 8/14/15 1/25/15 14/26/15
f 13/20/16 12/17/16 18/22/16 19/27/16
f 11/16/17 10/18/17 16/24/17 17/21/17
f 9/15/18 8/14/18 14/26/18 15/23/18
f 14/26/19 1/28/19 20/29/19
f 19/27/20 18/22/20 24/30/20 25/31/20
f 17/21/21 16/24/21 22/32/21 23/33/21
f 15/23/22 14/26/22 20/29/22 21/34/22
f 18/22/23 17/21/23 23/33/23 24/30/23
f 16/24/24 15/23/24 21/34/24 22/32/24
f 25/31/25 24/30/25 30/35/25 31/36/25
f 23/33/26 22/32/26 28/37/26 29/38/26
f 21/34/27 20/29/27 26/39/27 27/40/27
f 24/30/28 23/33/28 29/38/28 30/35/28
f 22/32/29 21/34/29 27/40/29 28/37/29
f 20/29/30 1/41/30 26/39/30
f 28/37/31 27/40/31 33/42/31 34/43/31
f 26/39/32 1/44/32 32/45/32
f 31/36/33 30/35/33 35/46/33 36/47/33
f 27/40/34 26/39/34 32/45/34 33/42/34
f 34/43/35 33/42/35 38/48/35 39/49/35
f 32/45/36 1/50/36 37/51/36
f 36/47/37 35/46/37 40/52/37 41/53/37
f 33/42/38 32/45/38 37/51/38 38/48/38
f 41/53/39 40/52/39 46/54/39 47/55/39
f 40/52/40 35/46/40 30/35/40 29/38/40 28/37/40 34/43/40 39/49/40 44/56/40 45/57/40 46/54/40
f 38/48/41 37/51/41 42/58/41 43/59/41
f 39/49/42 38/48/42 43/59/42 44/56/42
f 37/51/43 1/60/43 42/58/43
f 45/57/44 44/56/44 50/61/44 51/62/44
f 43/59/45 42/58/45 48/63/45 49/64/45
f 46/54/46 45/57/46 51/62/46 52/65/46
f 44/56/47 43/59/47 49/64/47 50/61/47
f 42/58/48 1/66/48 48/63/48
f 47/55/49 46/54/49 52/65/49 53/67/49
f 52/65/50 51/62/50 57/68/50 58/69/50
f 50/61/51 49/64/51 55/70/51 56/71/51
f 48/63/52 1/72/52 54/73/52
f 53/67/53 52/65/53 58/69/53 59/74/53
f 51/62/54 50/61/54 56/71/54 57/68/54
f 49/64/55 48/63/55 54/73/55 55/70/55
f 56/71/56 55/70/56 61/75/56 62/76/56
f 54/73/57 1/77/57 60/78/57
f 59/74/58 58/69/58 64/79/58 65/80/58
f 57/68/59 56/71/59 62/76/59 63/81/59
f 55/70/60 54/73/60 60/78/60 61/75/60
f 58/69/61 57/68/61 63/81/61 64/79/61
f 65/80/62 64/79/62 70/82/62 71/83/62
f 63/81/63 62/76/63 68/84/63 69/85/63
f 61/75/64 60/78/64 66/86/64 67/87/64
f 64/79/65 63/81/65 69/85/65 70/82/65
f 62/76/66 61/75/66 67/87/66 68/84/66
f 60/78/67 1/88/67 66/86/67
f 67/87/68 66/86/68 72/89/68 73/90/68
f 70/82/69 69/85/69 75/91/69 76/92/69
f 68/84/70 67/87/70 73/90/70 74/93/70
f 66/86/71 1/94/71 72/89/71
f 71/83/72 70/82/72 76/92/72 77/95/72
f 69/85/73 68/84/73 74/93/73 75/91/73
f 76/92/74 75/91/74 81/96/74 82/97/74
f 74/93/75 73/90/75 79/98/75 80/99/75
f 72/89/76 1/100/76 78/101/76
f 77/95/77 76/92/77 82/97/77 83/102/77
f 75/91/78 74/93/78 80/99/78 81/96/78
f 73/90/79 72/89/79 78/101/79 79/98/79
f 78/101/80 1/103/80 84/104/80
f 83/102/81 82/97/81 88/105/81 89/106/81
f 81/96/82 80/99/82 86/107/82 87/108/82
f 79/98/83 78/101/83 84/104/83 85/109/83
f 82/97/84 81/96/84 87/108/84 88/105/84
f 80/99/85 79/98/85 85/109/85 86/107/85
f 89/106/86 88/105/86 94/110/86 95/111/86
f 87/108/87 86/107/87 92/112/87 93/113/87
f 85/109/88 84/104/88 90/114/88 91/115/88
f 88/105/89 87/108/89 93/113/89 94/110/89
f 86/107/90 85/109/90 91/115/90 92/112/90
f 84/104/91 1/116/91 90/114/91
f 94/110/92 93/113/92 99/117/92 100/118/92
f 92/112/93 91/115/93 97/119/93 98/120/93
f 90/114/94 1/121/94 96/122/94
f 95/111/95 94/110/95 100/118/95 101/123/95
f 93/113/96 92/112/96 98/120/96 99/117/96
f 91/115/97 90/114/97 96/122/97 97/119/97
f 100/118/98 99/117/98 105/124/98 106/125/98
f 98/120/99 97/119/99 103/126/99 104/127/99
f 96/122/100 1/128/100 102/129/100
f 101/123/101 100/118/101 106/125/101 107/130/101
f 99/117/102 98/120/102 104/127/102 105/124/102
f 97/119/103 96/122/103 102/129/103 103/126/103
f 107/130/104 106/125/104 111/131/104 112/132/104
f 103/126/105 102/129/105 108/133/105 109/134/105
f 104/127/106 103/126/106 109/134/106 110/135/106
f 102/129/107 1/136/107 108/133/107
f 109/137/108 108/138/108 113/139/108 114/140/108
f 110/141/109 109/137/109 114/140/109 115/142/109
f 108/138/110 1/143/110 113/139/110
f 112/144/111 111/145/111 116/146/111 117/147/111
f 115/142/112 114/140/112 119/148/112 120/149/112
f 113/139/113 1/150/113 118/151/113
f 117/147/114 116/146/114 122/152/114 123/153/114
f 116/146/115 111/131/115 106/125/115 105/124/115 104/127/115 110/141/115 115/142/115 120/149/115 121/154/115 122/152/115
f 114/140/116 113/139/116 118/151/116 119/148/116
f 120/149/117 119/148/117 125/155/117 126/156/117
f 118/151/118 1/157/118 124/158/118
f 123/153/119 122/152/119 128/159/119 129/160/119
f 121/154/120 120/149/120 126/156/120 127/161/120
f 119/148/121 118/151/121 124/158/121 125/155/121
f 122/152/122 121/154/122 127/161/122 128/159/122
f 129/160/123 128/159/123 134/162/123 135/163/123
f 127/161/124 126/156/124 132/164/124 133/165/124
f 125/155/125 124/158/125 130/166/125 131/167/125
f 128/159/126 127/161/126 133/165/126 134/162/126
f 126/156/127 125/155/127 131/167/127 132/164/127
f 124/158/128 1/168/128 130/166/128
f 131/167/129 130/166/129 136/169/129 137/170/129
f 134/162/130 133/165/130 139/171/130 140/172/130
f 132/164/131 131/167/131 137/170/131 138/173/131
f 130/166/132 1/174/132 136/169/132
f 135/163/133 134/162/133 140/172/133 141/175/133
f 133/165/134 132/164/134 138/173/134 139/171/134
f 7/4/135 13/20/135 19/27/135 25/31/135 31/36/135 36/47/135 41/53/135 47/55/135 53/67/135 59/74/135 65/80/135 71/83/135 77/95/135 83/102/135 89/106/135 95/111/135 101/123/135 107/130/135 112/144/135 117/147/135 123/153/135 129/160/135 135/163/135 141/175/135 147/176/135 153/1/135
f 140/172/136 139/171/136 145/177/136 146/178/136
f 138/173/137 137/170/137 143/179/137 144/180/137
f 136/169/138 1/181/138 142/182/138
f 141/175/139 140/172/139 146/178/139 147/176/139
f 139/171/140 138/173/140 144/180/140 145/177/140
f 137/170/141 136/169/141 142/182/141 143/179/141
f 142/182/142 1/183/142 148/10/142
f 147/176/143 146/178/143 152/2/143 153/1/143
f 145/177/144 144/180/144 150/6/144 151/5/144
f 143/179/145 142/182/145 148/10/145 149/9/145
f 146/178/146 145/177/146 151/5/146 152/2/146
f 144/180/147 143/179/147 149/9/147 150/6/147
