# Blender 5.1.0
# www.blender.org
mtllib weight_handle.mtl
o Torus
v -0.999793 -0.394002 0.000000
v -0.999793 -0.393480 0.001951
v -0.999793 -0.392052 0.003378
v -0.999793 -0.390101 0.003901
v -0.999793 -0.388151 0.003378
v -0.999793 -0.386723 0.001951
v -0.999793 -0.386200 0.000000
v -0.999793 -0.386723 -0.001951
v -0.999793 -0.388151 -0.003378
v -0.999793 -0.390101 -0.003901
v -0.999793 -0.392052 -0.003378
v -0.999793 -0.393480 -0.001951
v -0.948365 -0.390632 0.000000
v -0.948434 -0.390114 0.001951
v -0.948620 -0.388698 0.003378
v -0.948875 -0.386764 0.003901
v -0.949129 -0.384830 0.003378
v -0.949316 -0.383415 0.001951
v -0.949384 -0.382896 0.000000
v -0.949316 -0.383415 -0.001951
v -0.949129 -0.384830 -0.003378
v -0.948875 -0.386764 -0.003901
v -0.948620 -0.388698 -0.003378
v -0.948434 -0.390114 -0.001951
v -0.897818 -0.380577 0.000000
v -0.897953 -0.380072 0.001951
v -0.898323 -0.378693 0.003378
v -0.898827 -0.376809 0.003901
v -0.899332 -0.374925 0.003378
v -0.899702 -0.373546 0.001951
v -0.899837 -0.373041 0.000000
v -0.899702 -0.373546 -0.001951
v -0.899332 -0.374925 -0.003378
v -0.898827 -0.376809 -0.003901
v -0.898323 -0.378693 -0.003378
v -0.897953 -0.380072 -0.001951
v -0.849015 -0.364011 0.000000
v -0.849215 -0.363528 0.001951
v -0.849761 -0.362209 0.003378
v -0.850508 -0.360407 0.003901
v -0.851254 -0.358605 0.003378
v -0.851801 -0.357286 0.001951
v -0.852001 -0.356803 0.000000
v -0.851801 -0.357286 -0.001951
v -0.851254 -0.358605 -0.003378
v -0.850508 -0.360407 -0.003901
v -0.849761 -0.362209 -0.003378
v -0.849215 -0.363528 -0.001951
v -0.802792 -0.341216 0.000000
v -0.803053 -0.340764 0.001951
v -0.803767 -0.339527 0.003378
v -0.804742 -0.337838 0.003901
v -0.805718 -0.336149 0.003378
v -0.806432 -0.334912 0.001951
v -0.806693 -0.334459 0.000000
v -0.806432 -0.334912 -0.001951
v -0.805718 -0.336149 -0.003378
v -0.804742 -0.337838 -0.003901
v -0.803767 -0.339527 -0.003378
v -0.803053 -0.340764 -0.001951
v -0.759940 -0.312583 0.000000
v -0.760258 -0.312169 0.001951
v -0.761127 -0.311036 0.003378
v -0.762314 -0.309488 0.003901
v -0.763502 -0.307941 0.003378
v -0.764371 -0.306808 0.001951
v -0.764689 -0.306393 0.000000
v -0.764371 -0.306808 -0.001951
v -0.763502 -0.307941 -0.003378
v -0.762314 -0.309488 -0.003901
v -0.761127 -0.311036 -0.003378
v -0.760258 -0.312169 -0.001951
v -0.721191 -0.278602 0.000000
v -0.721561 -0.278232 0.001951
v -0.722570 -0.277223 0.003378
v -0.723950 -0.275843 0.003901
v -0.725329 -0.274464 0.003378
v -0.726339 -0.273454 0.001951
v -0.726708 -0.273085 0.000000
v -0.726339 -0.273454 -0.001951
v -0.725329 -0.274464 -0.003378
v -0.723950 -0.275843 -0.003901
v -0.722570 -0.277223 -0.003378
v -0.721561 -0.278232 -0.001951
v -0.687210 -0.239854 0.000000
v -0.687625 -0.239535 0.001951
v -0.688757 -0.238666 0.003378
v -0.690305 -0.237479 0.003901
v -0.691852 -0.236291 0.003378
v -0.692985 -0.235422 0.001951
v -0.693400 -0.235104 0.000000
v -0.692985 -0.235422 -0.001951
v -0.691852 -0.236291 -0.003378
v -0.690305 -0.237479 -0.003901
v -0.688757 -0.238666 -0.003378
v -0.687625 -0.239535 -0.001951
v -0.658577 -0.197001 0.000000
v -0.659030 -0.196740 0.001951
v -0.660266 -0.196026 0.003378
v -0.661955 -0.195051 0.003901
v -0.663644 -0.194075 0.003378
v -0.664881 -0.193362 0.001951
v -0.665334 -0.193100 0.000000
v -0.664881 -0.193362 -0.001951
v -0.663644 -0.194075 -0.003378
v -0.661955 -0.195051 -0.003901
v -0.660266 -0.196026 -0.003378
v -0.659030 -0.196740 -0.001951
v -0.635782 -0.150778 0.000000
v -0.636265 -0.150578 0.001951
v -0.637584 -0.150032 0.003378
v -0.639386 -0.149285 0.003901
v -0.641188 -0.148539 0.003378
v -0.642508 -0.147993 0.001951
v -0.642990 -0.147793 0.000000
v -0.642508 -0.147993 -0.001951
v -0.641188 -0.148539 -0.003378
v -0.639386 -0.149285 -0.003901
v -0.637584 -0.150032 -0.003378
v -0.636265 -0.150578 -0.001951
v -0.619216 -0.101975 0.000000
v -0.619721 -0.101840 0.001951
v -0.621100 -0.101471 0.003378
v -0.622984 -0.100966 0.003901
v -0.624868 -0.100461 0.003378
v -0.626247 -0.100091 0.001951
v -0.626752 -0.099956 0.000000
v -0.626247 -0.100091 -0.001951
v -0.624868 -0.100461 -0.003378
v -0.622984 -0.100966 -0.003901
v -0.621100 -0.101471 -0.003378
v -0.619721 -0.101840 -0.001951
v -0.609161 -0.051428 0.000000
v -0.609680 -0.051359 0.001951
v -0.611095 -0.051173 0.003378
v -0.613029 -0.050918 0.003901
v -0.614963 -0.050664 0.003378
v -0.616378 -0.050477 0.001951
v -0.616897 -0.050409 0.000000
v -0.616378 -0.050477 -0.001951
v -0.614963 -0.050664 -0.003378
v -0.613029 -0.050918 -0.003901
v -0.611095 -0.051173 -0.003378
v -0.609680 -0.051359 -0.001951
v -0.605791 -0.000000 0.000000
v -0.606313 -0.000000 0.001951
v -0.607741 -0.000000 0.003378
v -0.609692 -0.000000 0.003901
v -0.611642 -0.000000 0.003378
v -0.613070 -0.000000 0.001951
v -0.613593 -0.000000 0.000000
v -0.613070 -0.000000 -0.001951
v -0.611642 -0.000000 -0.003378
v -0.609692 -0.000000 -0.003901
v -0.607741 -0.000000 -0.003378
v -0.606313 -0.000000 -0.001951
v -0.609161 0.051428 0.000000
v -0.609680 0.051359 0.001951
v -0.611095 0.051173 0.003378
v -0.613029 0.050919 0.003901
v -0.614963 0.050664 0.003378
v -0.616379 0.050478 0.001951
v -0.616897 0.050409 0.000000
v -0.616379 0.050478 -0.001951
v -0.614963 0.050664 -0.003378
v -0.613029 0.050919 -0.003901
v -0.611095 0.051173 -0.003378
v -0.609680 0.051359 -0.001951
v -0.619216 0.101975 0.000000
v -0.619721 0.101840 0.001951
v -0.621100 0.101470 0.003378
v -0.622984 0.100966 0.003901
v -0.624868 0.100461 0.003378
v -0.626247 0.100091 0.001951
v -0.626752 0.099956 0.000000
v -0.626247 0.100091 -0.001951
v -0.624868 0.100461 -0.003378
v -0.622984 0.100966 -0.003901
v -0.621100 0.101470 -0.003378
v -0.619721 0.101840 -0.001951
v -0.635782 0.150778 0.000000
v -0.636265 0.150578 0.001951
v -0.637584 0.150032 0.003378
v -0.639386 0.149285 0.003901
v -0.641188 0.148539 0.003378
v -0.642508 0.147993 0.001951
v -0.642990 0.147793 0.000000
v -0.642508 0.147993 -0.001951
v -0.641188 0.148539 -0.003378
v -0.639386 0.149285 -0.003901
v -0.637584 0.150032 -0.003378
v -0.636265 0.150578 -0.001951
v -0.658577 0.197001 0.000000
v -0.659030 0.196740 0.001951
v -0.660266 0.196026 0.003378
v -0.661955 0.195051 0.003901
v -0.663644 0.194075 0.003378
v -0.664881 0.193361 0.001951
v -0.665334 0.193100 0.000000
v -0.664881 0.193361 -0.001951
v -0.663644 0.194075 -0.003378
v -0.661955 0.195051 -0.003901
v -0.660266 0.196026 -0.003378
v -0.659030 0.196740 -0.001951
v -0.687210 0.239854 0.000000
v -0.687625 0.239535 0.001951
v -0.688757 0.238666 0.003378
v -0.690305 0.237479 0.003901
v -0.691852 0.236291 0.003378
v -0.692985 0.235422 0.001951
v -0.693400 0.235104 0.000000
v -0.692985 0.235422 -0.001951
v -0.691852 0.236291 -0.003378
v -0.690305 0.237479 -0.003901
v -0.688757 0.238666 -0.003378
v -0.687625 0.239535 -0.001951
v -0.721191 0.278602 0.000000
v -0.721561 0.278232 0.001951
v -0.722571 0.277223 0.003378
v -0.723950 0.275843 0.003901
v -0.725329 0.274464 0.003378
v -0.726339 0.273455 0.001951
v -0.726708 0.273085 0.000000
v -0.726339 0.273455 -0.001951
v -0.725329 0.274464 -0.003378
v -0.723950 0.275843 -0.003901
v -0.722571 0.277223 -0.003378
v -0.721561 0.278232 -0.001951
v -0.759940 0.312583 0.000000
v -0.760258 0.312169 0.001951
v -0.761127 0.311036 0.003378
v -0.762314 0.309488 0.003901
v -0.763502 0.307941 0.003378
v -0.764371 0.306808 0.001951
v -0.764689 0.306393 0.000000
v -0.764371 0.306808 -0.001951
v -0.763502 0.307941 -0.003378
v -0.762314 0.309488 -0.003901
v -0.761127 0.311036 -0.003378
v -0.760258 0.312169 -0.001951
v -0.802792 0.341216 0.000000
v -0.803053 0.340763 0.001951
v -0.803767 0.339527 0.003378
v -0.804742 0.337838 0.003901
v -0.805718 0.336149 0.003378
v -0.806431 0.334912 0.001951
v -0.806693 0.334459 0.000000
v -0.806431 0.334912 -0.001951
v -0.805718 0.336149 -0.003378
v -0.804742 0.337838 -0.003901
v -0.803767 0.339527 -0.003378
v -0.803053 0.340763 -0.001951
v -0.849015 0.364011 0.000000
v -0.849215 0.363528 0.001951
v -0.849761 0.362209 0.003378
v -0.850508 0.360407 0.003901
v -0.851254 0.358605 0.003378
v -0.851801 0.357286 0.001951
v -0.852001 0.356803 0.000000
v -0.851801 0.357286 -0.001951
v -0.851254 0.358605 -0.003378
v -0.850508 0.360407 -0.003901
v -0.849761 0.362209 -0.003378
v -0.849215 0.363528 -0.001951
v -0.897818 0.380577 0.000000
v -0.897953 0.380072 0.001951
v -0.898323 0.378693 0.003378
v -0.898827 0.376809 0.003901
v -0.899332 0.374925 0.003378
v -0.899702 0.373546 0.001951
v -0.899837 0.373041 0.000000
v -0.899702 0.373546 -0.001951
v -0.899332 0.374925 -0.003378
v -0.898827 0.376809 -0.003901
v -0.898323 0.378693 -0.003378
v -0.897953 0.380072 -0.001951
v -0.948365 0.390632 0.000000
v -0.948434 0.390114 0.001951
v -0.948620 0.388698 0.003378
v -0.948875 0.386764 0.003901
v -0.949129 0.384830 0.003378
v -0.949316 0.383415 0.001951
v -0.949384 0.382896 0.000000
v -0.949316 0.383415 -0.001951
v -0.949129 0.384830 -0.003378
v -0.948875 0.386764 -0.003901
v -0.948620 0.388698 -0.003378
v -0.948434 0.390114 -0.001951
v -0.999793 0.394002 0.000000
v -0.999793 0.393480 0.001951
v -0.999793 0.392052 0.003378
v -0.999793 0.390101 0.003901
v -0.999793 0.388151 0.003378
v -0.999793 0.386723 0.001951
v -0.999793 0.386200 0.000000
v -0.999793 0.386723 -0.001951
v -0.999793 0.388151 -0.003378
v -0.999793 0.390101 -0.003901
v -0.999793 0.392052 -0.003378
v -0.999793 0.393480 -0.001951
v -1.051221 0.390632 0.000000
v -1.051153 0.390114 0.001951
v -1.050966 0.388698 0.003378
v -1.050712 0.386764 0.003901
v -1.050457 0.384830 0.003378
v -1.050271 0.383415 0.001951
v -1.050202 0.382896 0.000000
v -1.050271 0.383415 -0.001951
v -1.050457 0.384830 -0.003378
v -1.050712 0.386764 -0.003901
v -1.050966 0.388698 -0.003378
v -1.051153 0.390114 -0.001951
v -1.101768 0.380577 0.000000
v -1.101633 0.380072 0.001951
v -1.101264 0.378693 0.003378
v -1.100759 0.376809 0.003901
v -1.100254 0.374925 0.003378
v -1.099884 0.373546 0.001951
v -1.099749 0.373041 0.000000
v -1.099884 0.373546 -0.001951
v -1.100254 0.374925 -0.003378
v -1.100759 0.376809 -0.003901
v -1.101264 0.378693 -0.003378
v -1.101633 0.380072 -0.001951
v -1.150571 0.364011 0.000000
v -1.150371 0.363528 0.001951
v -1.149825 0.362209 0.003378
v -1.149078 0.360407 0.003901
v -1.148332 0.358605 0.003378
v -1.147785 0.357286 0.001951
v -1.147586 0.356803 0.000000
v -1.147785 0.357286 -0.001951
v -1.148332 0.358605 -0.003378
v -1.149078 0.360407 -0.003901
v -1.149825 0.362209 -0.003378
v -1.150371 0.363528 -0.001951
v -1.204200 0.341216 0.000000
v -1.204051 0.340764 0.001951
v -1.203649 0.339527 0.003378
v -1.203109 0.337838 0.003901
v -1.202582 0.336149 0.003378
v -1.202204 0.334912 0.001951
v -1.202067 0.334459 0.000000
v -1.202204 0.334912 -0.001951
v -1.202582 0.336149 -0.003378
v -1.203109 0.337838 -0.003901
v -1.203649 0.339527 -0.003378
v -1.204051 0.340764 -0.001951
v -1.276731 0.312583 0.000000
v -1.276618 0.312169 0.001951
v -1.276313 0.311036 0.003378
v -1.275902 0.309488 0.003901
v -1.275501 0.307941 0.003378
v -1.275212 0.306808 0.001951
v -1.275108 0.306393 0.000000
v -1.275212 0.306808 -0.001951
v -1.275501 0.307941 -0.003378
v -1.275902 0.309488 -0.003901
v -1.276313 0.311036 -0.003378
v -1.276618 0.312169 -0.001951
v -1.364198 0.278602 0.000000
v -1.364074 0.278232 0.001951
v -1.363739 0.277223 0.003378
v -1.363285 0.275843 0.003901
v -1.362837 0.274464 0.003378
v -1.362513 0.273455 0.001951
v -1.362395 0.273085 0.000000
v -1.362513 0.273455 -0.001951
v -1.362837 0.274464 -0.003378
v -1.363285 0.275843 -0.003901
v -1.363739 0.277223 -0.003378
v -1.364074 0.278232 -0.001951
v -1.460659 0.239854 0.000000
v -1.460487 0.239536 0.001951
v -1.460019 0.238666 0.003378
v -1.459383 0.237479 0.003901
v -1.458750 0.236291 0.003378
v -1.458288 0.235422 0.001951
v -1.458120 0.235104 0.000000
v -1.458288 0.235422 -0.001951
v -1.458750 0.236291 -0.003378
v -1.459383 0.237479 -0.003901
v -1.460019 0.238666 -0.003378
v -1.460487 0.239536 -0.001951
v -1.558979 0.197001 0.000000
v -1.558733 0.196740 0.001951
v -1.558062 0.196026 0.003378
v -1.557148 0.195051 0.003901
v -1.556235 0.194075 0.003378
v -1.555568 0.193361 0.001951
v -1.555325 0.193100 0.000000
v -1.555568 0.193361 -0.001951
v -1.556235 0.194075 -0.003378
v -1.557148 0.195051 -0.003901
v -1.558062 0.196026 -0.003378
v -1.558733 0.196740 -0.001951
v -1.651058 0.150778 0.000000
v -1.650726 0.150578 0.001951
v -1.649821 0.150032 0.003378
v -1.648586 0.149285 0.003901
v -1.647351 0.148539 0.003378
v -1.646448 0.147993 0.001951
v -1.646118 0.147793 0.000000
v -1.646448 0.147993 -0.001951
v -1.647351 0.148539 -0.003378
v -1.648586 0.149285 -0.003901
v -1.649821 0.150032 -0.003378
v -1.650726 0.150578 -0.001951
v -1.728117 0.101975 0.000000
v -1.727704 0.101840 0.001951
v -1.726583 0.101471 0.003378
v -1.725043 0.100966 0.003901
v -1.723496 0.100461 0.003378
v -1.722369 0.100091 0.001951
v -1.721956 0.099956 0.000000
v -1.722369 0.100091 -0.001951
v -1.723496 0.100461 -0.003378
v -1.725043 0.100966 -0.003901
v -1.726583 0.101471 -0.003378
v -1.727704 0.101840 -0.001951
v -1.781065 0.051428 0.000000
v -1.780634 0.051360 0.001951
v -1.779353 0.051173 0.003378
v -1.777564 0.050919 0.003901
v -1.775764 0.050664 0.003378
v -1.774429 0.050478 0.001951
v -1.773952 0.050410 0.000000
v -1.774429 0.050478 -0.001951
v -1.775764 0.050664 -0.003378
v -1.777564 0.050919 -0.003901
v -1.779353 0.051173 -0.003378
v -1.780634 0.051360 -0.001951
v -1.801016 -0.000000 0.000000
v -1.800494 -0.000000 0.001951
v -1.799066 -0.000000 0.003378
v -1.797115 -0.000000 0.003901
v -1.795165 -0.000000 0.003378
v -1.793737 -0.000000 0.001951
v -1.793214 -0.000000 0.000000
v -1.793737 -0.000000 -0.001951
v -1.795165 -0.000000 -0.003378
v -1.797115 -0.000000 -0.003901
v -1.799066 -0.000000 -0.003378
v -1.800494 -0.000000 -0.001951
v -1.781066 -0.051428 0.000000
v -1.780634 -0.051359 0.001951
v -1.779354 -0.051173 0.003378
v -1.777564 -0.050918 0.003901
v -1.775764 -0.050664 0.003378
v -1.774430 -0.050477 0.001951
v -1.773953 -0.050409 0.000000
v -1.774430 -0.050477 -0.001951
v -1.775764 -0.050664 -0.003378
v -1.777564 -0.050918 -0.003901
v -1.779354 -0.051173 -0.003378
v -1.780634 -0.051359 -0.001951
v -1.728117 -0.101975 0.000000
v -1.727705 -0.101840 0.001951
v -1.726583 -0.101470 0.003378
v -1.725043 -0.100966 0.003901
v -1.723496 -0.100461 0.003378
v -1.722369 -0.100091 0.001951
v -1.721957 -0.099956 0.000000
v -1.722369 -0.100091 -0.001951
v -1.723496 -0.100461 -0.003378
v -1.725043 -0.100966 -0.003901
v -1.726583 -0.101470 -0.003378
v -1.727705 -0.101840 -0.001951
v -1.651058 -0.150778 0.000000
v -1.650726 -0.150578 0.001951
v -1.649821 -0.150032 0.003378
v -1.648586 -0.149285 0.003901
v -1.647351 -0.148539 0.003378
v -1.646448 -0.147993 0.001951
v -1.646118 -0.147793 0.000000
v -1.646448 -0.147993 -0.001951
v -1.647351 -0.148539 -0.003378
v -1.648586 -0.149285 -0.003901
v -1.649821 -0.150032 -0.003378
v -1.650726 -0.150578 -0.001951
v -1.558979 -0.197001 0.000000
v -1.558733 -0.196740 0.001951
v -1.558062 -0.196026 0.003378
v -1.557148 -0.195051 0.003901
v -1.556235 -0.194075 0.003378
v -1.555568 -0.193362 0.001951
v -1.555325 -0.193100 0.000000
v -1.555568 -0.193362 -0.001951
v -1.556235 -0.194075 -0.003378
v -1.557148 -0.195051 -0.003901
v -1.558062 -0.196026 -0.003378
v -1.558733 -0.196740 -0.001951
v -1.460660 -0.239853 0.000000
v -1.460488 -0.239535 0.001951
v -1.460020 -0.238666 0.003378
v -1.459383 -0.237479 0.003901
v -1.458750 -0.236291 0.003378
v -1.458289 -0.235422 0.001951
v -1.458121 -0.235104 0.000000
v -1.458289 -0.235422 -0.001951
v -1.458750 -0.236291 -0.003378
v -1.459383 -0.237479 -0.003901
v -1.460020 -0.238666 -0.003378
v -1.460488 -0.239535 -0.001951
v -1.364199 -0.278602 0.000000
v -1.364075 -0.278232 0.001951
v -1.363739 -0.277222 0.003378
v -1.363286 -0.275843 0.003901
v -1.362838 -0.274464 0.003378
v -1.362513 -0.273454 0.001951
v -1.362395 -0.273085 0.000000
v -1.362513 -0.273454 -0.001951
v -1.362838 -0.274464 -0.003378
v -1.363286 -0.275843 -0.003901
v -1.363739 -0.277222 -0.003378
v -1.364075 -0.278232 -0.001951
v -1.276731 -0.312583 0.000000
v -1.276618 -0.312169 0.001951
v -1.276312 -0.311036 0.003378
v -1.275902 -0.309488 0.003901
v -1.275501 -0.307941 0.003378
v -1.275212 -0.306808 0.001951
v -1.275108 -0.306393 0.000000
v -1.275212 -0.306808 -0.001951
v -1.275501 -0.307941 -0.003378
v -1.275902 -0.309488 -0.003901
v -1.276312 -0.311036 -0.003378
v -1.276618 -0.312169 -0.001951
v -1.204200 -0.341216 0.000000
v -1.204051 -0.340764 0.001951
v -1.203649 -0.339527 0.003378
v -1.203110 -0.337838 0.003901
v -1.202582 -0.336149 0.003378
v -1.202204 -0.334912 0.001951
v -1.202067 -0.334459 0.000000
v -1.202204 -0.334912 -0.001951
v -1.202582 -0.336149 -0.003378
v -1.203110 -0.337838 -0.003901
v -1.203649 -0.339527 -0.003378
v -1.204051 -0.340764 -0.001951
v -1.150571 -0.364011 0.000000
v -1.150371 -0.363528 0.001951
v -1.149825 -0.362209 0.003378
v -1.149079 -0.360407 0.003901
v -1.148332 -0.358605 0.003378
v -1.147786 -0.357285 0.001951
v -1.147586 -0.356803 0.000000
v -1.147786 -0.357285 -0.001951
v -1.148332 -0.358605 -0.003378
v -1.149079 -0.360407 -0.003901
v -1.149825 -0.362209 -0.003378
v -1.150371 -0.363528 -0.001951
v -1.101768 -0.380577 0.000000
v -1.101633 -0.380072 0.001951
v -1.101264 -0.378693 0.003378
v -1.100759 -0.376809 0.003901
v -1.100254 -0.374925 0.003378
v -1.099884 -0.373546 0.001951
v -1.099749 -0.373041 0.000000
v -1.099884 -0.373546 -0.001951
v -1.100254 -0.374925 -0.003378
v -1.100759 -0.376809 -0.003901
v -1.101264 -0.378693 -0.003378
v -1.101633 -0.380072 -0.001951
v -1.051221 -0.390632 0.000000
v -1.051153 -0.390114 0.001951
v -1.050966 -0.388698 0.003378
v -1.050712 -0.386764 0.003901
v -1.050457 -0.384830 0.003378
v -1.050271 -0.383415 0.001951
v -1.050202 -0.382896 0.000000
v -1.050271 -0.383415 -0.001951
v -1.050457 -0.384830 -0.003378
v -1.050712 -0.386764 -0.003901
v -1.050966 -0.388698 -0.003378
v -1.051153 -0.390114 -0.001951
vn 0.0632 -0.9640 0.2583
vn 0.0463 -0.7063 0.7063
vn 0.0170 -0.2588 0.9658
vn -0.0170 0.2588 0.9658
vn -0.0463 0.7064 0.7063
vn -0.0632 0.9640 0.2583
vn -0.0632 0.9640 -0.2583
vn -0.0463 0.7064 -0.7063
vn -0.0170 0.2588 -0.9658
vn 0.0170 -0.2588 -0.9658
vn 0.0463 -0.7063 -0.7063
vn 0.0632 -0.9640 -0.2583
vn 0.1885 -0.9475 0.2583
vn 0.1381 -0.6943 0.7063
vn 0.0506 -0.2544 0.9658
vn -0.0506 0.2544 0.9658
vn -0.1381 0.6943 0.7063
vn -0.1885 0.9475 0.2583
vn -0.1885 0.9475 -0.2583
vn -0.1381 0.6943 -0.7063
vn -0.0506 0.2544 -0.9658
vn 0.0506 -0.2544 -0.9658
vn 0.1381 -0.6943 -0.7063
vn 0.1885 -0.9475 -0.2583
vn 0.3105 -0.9148 0.2583
vn 0.2275 -0.6703 0.7063
vn 0.0834 -0.2456 0.9658
vn -0.0834 0.2456 0.9658
vn -0.2275 0.6703 0.7063
vn -0.3105 0.9148 0.2583
vn -0.3105 0.9148 -0.2583
vn -0.2275 0.6703 -0.7063
vn -0.0834 0.2456 -0.9658
vn 0.0834 -0.2456 -0.9658
vn 0.2275 -0.6703 -0.7063
vn 0.3105 -0.9148 -0.2583
vn 0.4273 -0.8664 0.2583
vn 0.3131 -0.6349 0.7064
vn 0.1147 -0.2326 0.9658
vn -0.1147 0.2326 0.9658
vn -0.3131 0.6349 0.7063
vn -0.4273 0.8664 0.2583
vn -0.4273 0.8664 -0.2583
vn -0.3131 0.6349 -0.7063
vn -0.1147 0.2326 -0.9658
vn 0.1147 -0.2326 -0.9658
vn 0.3131 -0.6349 -0.7064
vn 0.4273 -0.8664 -0.2583
vn 0.5367 -0.8033 0.2583
vn 0.3933 -0.5886 0.7063
vn 0.1441 -0.2156 0.9658
vn -0.1441 0.2156 0.9658
vn -0.3933 0.5886 0.7063
vn -0.5367 0.8033 0.2583
vn -0.5367 0.8033 -0.2583
vn -0.3933 0.5886 -0.7063
vn -0.1441 0.2156 -0.9658
vn 0.1441 -0.2156 -0.9658
vn 0.3933 -0.5886 -0.7063
vn 0.5367 -0.8033 -0.2583
vn 0.6370 -0.7263 0.2583
vn 0.4667 -0.5322 0.7064
vn 0.1710 -0.1950 0.9658
vn -0.1710 0.1950 0.9658
vn -0.4667 0.5322 0.7063
vn -0.6370 0.7263 0.2583
vn -0.6370 0.7263 -0.2583
vn -0.4667 0.5322 -0.7063
vn -0.1710 0.1950 -0.9658
vn 0.1710 -0.1950 -0.9658
vn 0.4667 -0.5322 -0.7064
vn 0.6370 -0.7263 -0.2583
vn 0.7263 -0.6370 0.2583
vn 0.5322 -0.4667 0.7064
vn 0.1950 -0.1710 0.9658
vn -0.1950 0.1710 0.9658
vn -0.5322 0.4667 0.7064
vn -0.7263 0.6370 0.2583
vn -0.7263 0.6370 -0.2583
vn -0.5322 0.4667 -0.7064
vn -0.1950 0.1710 -0.9658
vn 0.1950 -0.1710 -0.9658
vn 0.5322 -0.4667 -0.7064
vn 0.7263 -0.6370 -0.2583
vn 0.8033 -0.5367 0.2583
vn 0.5886 -0.3933 0.7063
vn 0.2156 -0.1441 0.9658
vn -0.2156 0.1441 0.9658
vn -0.5886 0.3933 0.7063
vn -0.8033 0.5367 0.2583
vn -0.8033 0.5367 -0.2583
vn -0.5886 0.3933 -0.7063
vn -0.2156 0.1441 -0.9658
vn 0.2156 -0.1441 -0.9658
vn 0.5886 -0.3933 -0.7063
vn 0.8033 -0.5367 -0.2583
vn 0.8664 -0.4273 0.2583
vn 0.6349 -0.3131 0.7063
vn 0.2326 -0.1147 0.9658
vn -0.2326 0.1147 0.9658
vn -0.6349 0.3131 0.7064
vn -0.8664 0.4273 0.2583
vn -0.8664 0.4273 -0.2583
vn -0.6349 0.3131 -0.7064
vn -0.2326 0.1147 -0.9658
vn 0.2326 -0.1147 -0.9658
vn 0.6349 -0.3131 -0.7063
vn 0.8664 -0.4273 -0.2583
vn 0.9148 -0.3105 0.2583
vn 0.6703 -0.2275 0.7063
vn 0.2456 -0.0834 0.9658
vn -0.2456 0.0834 0.9658
vn -0.6703 0.2275 0.7063
vn -0.9148 0.3105 0.2583
vn -0.9148 0.3105 -0.2583
vn -0.6703 0.2275 -0.7063
vn -0.2456 0.0834 -0.9658
vn 0.2456 -0.0834 -0.9658
vn 0.6703 -0.2275 -0.7063
vn 0.9148 -0.3105 -0.2583
vn 0.9475 -0.1885 0.2583
vn 0.6943 -0.1381 0.7064
vn 0.2544 -0.0506 0.9658
vn -0.2544 0.0506 0.9658
vn -0.6943 0.1381 0.7063
vn -0.9475 0.1885 0.2583
vn -0.9475 0.1885 -0.2583
vn -0.6943 0.1381 -0.7063
vn -0.2544 0.0506 -0.9658
vn 0.2544 -0.0506 -0.9658
vn 0.6943 -0.1381 -0.7064
vn 0.9475 -0.1885 -0.2583
vn 0.9640 -0.0632 0.2583
vn 0.7063 -0.0463 0.7064
vn 0.2588 -0.0170 0.9658
vn -0.2588 0.0170 0.9658
vn -0.7064 0.0463 0.7063
vn -0.9640 0.0632 0.2583
vn -0.9640 0.0632 -0.2583
vn -0.7064 0.0463 -0.7063
vn -0.2588 0.0170 -0.9658
vn 0.2588 -0.0170 -0.9658
vn 0.7063 -0.0463 -0.7064
vn 0.9640 -0.0632 -0.2583
vn 0.9640 0.0632 0.2583
vn 0.7063 0.0463 0.7064
vn 0.2588 0.0170 0.9658
vn -0.2588 -0.0170 0.9658
vn -0.7063 -0.0463 0.7063
vn -0.9640 -0.0632 0.2583
vn -0.9640 -0.0632 -0.2583
vn -0.7063 -0.0463 -0.7063
vn -0.2588 -0.0170 -0.9658
vn 0.2588 0.0170 -0.9658
vn 0.7063 0.0463 -0.7064
vn 0.9640 0.0632 -0.2583
vn 0.9475 0.1885 0.2583
vn 0.6943 0.1381 0.7064
vn 0.2544 0.0506 0.9658
vn -0.2544 -0.0506 0.9658
vn -0.6943 -0.1381 0.7064
vn -0.9475 -0.1885 0.2583
vn -0.9475 -0.1885 -0.2583
vn -0.6943 -0.1381 -0.7064
vn -0.2544 -0.0506 -0.9658
vn 0.2544 0.0506 -0.9658
vn 0.6943 0.1381 -0.7064
vn 0.9475 0.1885 -0.2583
vn 0.9148 0.3105 0.2583
vn 0.6703 0.2275 0.7063
vn 0.2456 0.0834 0.9658
vn -0.2456 -0.0834 0.9658
vn -0.6703 -0.2275 0.7063
vn -0.9148 -0.3105 0.2583
vn -0.9148 -0.3105 -0.2583
vn -0.6703 -0.2275 -0.7063
vn -0.2456 -0.0834 -0.9658
vn 0.2456 0.0834 -0.9658
vn 0.6703 0.2275 -0.7063
vn 0.9148 0.3105 -0.2583
vn 0.8664 0.4273 0.2583
vn 0.6349 0.3131 0.7063
vn 0.2326 0.1147 0.9658
vn -0.2326 -0.1147 0.9658
vn -0.6349 -0.3131 0.7063
vn -0.8664 -0.4273 0.2583
vn -0.8664 -0.4273 -0.2583
vn -0.6349 -0.3131 -0.7063
vn -0.2326 -0.1147 -0.9658
vn 0.2326 0.1147 -0.9658
vn 0.6349 0.3131 -0.7063
vn 0.8664 0.4273 -0.2583
vn 0.8033 0.5367 0.2583
vn 0.5886 0.3933 0.7063
vn 0.2156 0.1441 0.9658
vn -0.2156 -0.1441 0.9658
vn -0.5886 -0.3933 0.7064
vn -0.8033 -0.5367 0.2583
vn -0.8033 -0.5367 -0.2583
vn -0.5886 -0.3933 -0.7064
vn -0.2156 -0.1441 -0.9658
vn 0.2156 0.1441 -0.9658
vn 0.5886 0.3933 -0.7063
vn 0.8033 0.5367 -0.2583
vn 0.7263 0.6370 0.2583
vn 0.5322 0.4667 0.7063
vn 0.1950 0.1710 0.9658
vn -0.1950 -0.1710 0.9658
vn -0.5322 -0.4667 0.7063
vn -0.7263 -0.6370 0.2583
vn -0.7263 -0.6370 -0.2583
vn -0.5322 -0.4667 -0.7063
vn -0.1950 -0.1710 -0.9658
vn 0.1950 0.1710 -0.9658
vn 0.5322 0.4667 -0.7063
vn 0.7263 0.6370 -0.2583
vn 0.6370 0.7263 0.2583
vn 0.4667 0.5322 0.7063
vn 0.1710 0.1950 0.9658
vn -0.1710 -0.1950 0.9658
vn -0.4667 -0.5322 0.7064
vn -0.6370 -0.7263 0.2583
vn -0.6370 -0.7263 -0.2583
vn -0.4667 -0.5322 -0.7064
vn -0.1710 -0.1950 -0.9658
vn 0.1710 0.1950 -0.9658
vn 0.4667 0.5322 -0.7063
vn 0.6370 0.7263 -0.2583
vn 0.5367 0.8033 0.2583
vn 0.3933 0.5886 0.7063
vn 0.1441 0.2156 0.9658
vn -0.1441 -0.2156 0.9658
vn -0.3933 -0.5886 0.7063
vn -0.5367 -0.8033 0.2583
vn -0.5367 -0.8033 -0.2583
vn -0.3933 -0.5886 -0.7063
vn -0.1441 -0.2156 -0.9658
vn 0.1441 0.2156 -0.9658
vn 0.3933 0.5886 -0.7063
vn 0.5367 0.8033 -0.2583
vn 0.4273 0.8664 0.2583
vn 0.3131 0.6349 0.7063
vn 0.1147 0.2326 0.9658
vn -0.1147 -0.2326 0.9658
vn -0.3131 -0.6349 0.7063
vn -0.4273 -0.8664 0.2583
vn -0.4273 -0.8664 -0.2583
vn -0.3131 -0.6349 -0.7063
vn -0.1147 -0.2326 -0.9658
vn 0.1147 0.2326 -0.9658
vn 0.3131 0.6349 -0.7063
vn 0.4273 0.8664 -0.2583
vn 0.3105 0.9148 0.2583
vn 0.2275 0.6703 0.7063
vn 0.0834 0.2456 0.9658
vn -0.0834 -0.2456 0.9658
vn -0.2275 -0.6703 0.7063
vn -0.3105 -0.9148 0.2583
vn -0.3105 -0.9148 -0.2583
vn -0.2275 -0.6703 -0.7063
vn -0.0834 -0.2456 -0.9658
vn 0.0834 0.2456 -0.9658
vn 0.2275 0.6703 -0.7063
vn 0.3105 0.9148 -0.2583
vn 0.1885 0.9475 0.2583
vn 0.1381 0.6943 0.7063
vn 0.0506 0.2544 0.9658
vn -0.0506 -0.2544 0.9658
vn -0.1381 -0.6943 0.7063
vn -0.1885 -0.9475 0.2583
vn -0.1885 -0.9475 -0.2583
vn -0.1381 -0.6943 -0.7063
vn -0.0506 -0.2544 -0.9658
vn 0.0506 0.2544 -0.9658
vn 0.1381 0.6943 -0.7063
vn 0.1885 0.9475 -0.2583
vn 0.0632 0.9640 0.2583
vn 0.0463 0.7063 0.7063
vn 0.0170 0.2588 0.9658
vn -0.0170 -0.2588 0.9658
vn -0.0463 -0.7063 0.7063
vn -0.0632 -0.9640 0.2583
vn -0.0632 -0.9640 -0.2583
vn -0.0463 -0.7063 -0.7063
vn -0.0170 -0.2588 -0.9658
vn 0.0170 0.2588 -0.9658
vn 0.0463 0.7063 -0.7063
vn 0.0632 0.9640 -0.2583
vn -0.0463 0.7063 0.7063
vn -0.0463 0.7063 -0.7063
vn 0.2275 -0.6703 0.7064
vn 0.2275 -0.6703 -0.7064
vn -0.3786 0.8918 0.2477
vn -0.2818 0.6665 0.6902
vn -0.1047 0.2496 0.9627
vn 0.1041 -0.2502 0.9626
vn 0.2764 -0.6699 0.6891
vn 0.3681 -0.8964 0.2467
vn 0.3681 -0.8964 -0.2467
vn 0.2764 -0.6699 -0.6891
vn 0.1041 -0.2502 -0.9626
vn -0.1047 0.2496 -0.9627
vn -0.2818 0.6665 -0.6902
vn -0.3786 0.8918 -0.2477
vn -0.3575 0.9063 0.2255
vn -0.2770 0.7046 0.6533
vn -0.1081 0.2767 0.9549
vn 0.1077 -0.2774 0.9547
vn 0.2732 -0.7080 0.6512
vn 0.3499 -0.9097 0.2239
vn 0.3499 -0.9097 -0.2239
vn 0.2732 -0.7080 -0.6512
vn 0.1077 -0.2774 -0.9547
vn -0.1081 0.2767 -0.9549
vn -0.2770 0.7046 -0.6533
vn -0.3575 0.9063 -0.2255
vn -0.3543 0.9124 0.2049
vn -0.2847 0.7350 0.6154
vn -0.1170 0.3032 0.9457
vn 0.1167 -0.3038 0.9456
vn 0.2822 -0.7374 0.6138
vn 0.3492 -0.9146 0.2038
vn 0.3492 -0.9146 -0.2038
vn 0.2822 -0.7374 -0.6138
vn 0.1167 -0.3038 -0.9456
vn -0.1170 0.3032 -0.9457
vn -0.2847 0.7350 -0.6154
vn -0.3543 0.9124 -0.2049
vn -0.3659 0.9114 0.1884
vn -0.3026 0.7549 0.5819
vn -0.1303 0.3260 0.9363
vn 0.1301 -0.3265 0.9362
vn 0.3008 -0.7566 0.5806
vn 0.3624 -0.9130 0.1876
vn 0.3624 -0.9130 -0.1876
vn 0.3008 -0.7566 -0.5806
vn 0.1301 -0.3265 -0.9362
vn -0.1303 0.3260 -0.9363
vn -0.3026 0.7549 -0.5819
vn -0.3659 0.9114 -0.1884
vn -0.3932 0.9024 0.1761
vn -0.3319 0.7626 0.5551
vn -0.1486 0.3419 0.9279
vn 0.1484 -0.3423 0.9278
vn 0.3306 -0.7640 0.5541
vn 0.3906 -0.9037 0.1755
vn 0.3906 -0.9037 -0.1755
vn 0.3306 -0.7640 -0.5541
vn 0.1484 -0.3423 -0.9278
vn -0.1486 0.3419 -0.9279
vn -0.3319 0.7626 -0.5551
vn -0.3932 0.9024 -0.1761
vn -0.4421 0.8808 0.1696
vn -0.3773 0.7523 0.5402
vn -0.1726 0.3447 0.9227
vn 0.1725 -0.3450 0.9226
vn 0.3763 -0.7533 0.5394
vn 0.4402 -0.8819 0.1691
vn 0.4402 -0.8819 -0.1691
vn 0.3763 -0.7533 -0.5394
vn 0.1725 -0.3450 -0.9226
vn -0.1726 0.3447 -0.9227
vn -0.3773 0.7523 -0.5402
vn -0.4421 0.8808 -0.1696
vn -0.5270 0.8323 0.1721
vn -0.4483 0.7083 0.5453
vn -0.2033 0.3216 0.9248
vn 0.2030 -0.3214 0.9249
vn 0.4474 -0.7088 0.5454
vn 0.5256 -0.8332 0.1717
vn 0.5256 -0.8332 -0.1717
vn 0.4474 -0.7088 -0.5454
vn 0.2030 -0.3214 -0.9249
vn -0.2033 0.3216 -0.9248
vn -0.4483 0.7083 -0.5453
vn -0.5270 0.8323 -0.1721
vn -0.6786 0.7111 0.1840
vn -0.5597 0.5870 0.5850
vn -0.2378 0.2495 0.9387
vn 0.2369 -0.2487 0.9392
vn 0.5557 -0.5832 0.5926
vn 0.6771 -0.7105 0.1914
vn 0.6771 -0.7105 -0.1914
vn 0.5557 -0.5832 -0.5926
vn 0.2369 -0.2487 -0.9392
vn -0.2378 0.2495 -0.9387
vn -0.5597 0.5870 -0.5850
vn -0.6786 0.7111 -0.1840
vn -0.9079 0.3516 0.2282
vn -0.6906 0.2665 0.6724
vn -0.2614 0.1005 0.9600
vn 0.2608 -0.1000 0.9602
vn 0.6850 -0.2621 0.6798
vn 0.9071 -0.3468 0.2385
vn 0.9071 -0.3468 -0.2385
vn 0.6850 -0.2621 -0.6798
vn 0.2608 -0.1000 -0.9602
vn -0.2614 0.1005 -0.9600
vn -0.6906 0.2665 -0.6724
vn -0.9079 0.3516 -0.2282
vn -0.9079 -0.3516 0.2282
vn -0.6906 -0.2665 0.6723
vn -0.2614 -0.1005 0.9600
vn 0.2608 0.1000 0.9602
vn 0.6850 0.2622 0.6797
vn 0.9071 0.3468 0.2385
vn 0.9071 0.3468 -0.2385
vn 0.6850 0.2622 -0.6797
vn 0.2608 0.1000 -0.9602
vn -0.2614 -0.1005 -0.9600
vn -0.6906 -0.2665 -0.6723
vn -0.9079 -0.3516 -0.2282
vn -0.6786 -0.7111 0.1839
vn -0.5597 -0.5870 0.5850
vn -0.2378 -0.2495 0.9387
vn 0.2369 0.2486 0.9392
vn 0.5557 0.5832 0.5926
vn 0.6771 0.7105 0.1914
vn 0.6771 0.7105 -0.1914
vn 0.5557 0.5832 -0.5926
vn 0.2369 0.2486 -0.9392
vn -0.2378 -0.2495 -0.9387
vn -0.5597 -0.5870 -0.5850
vn -0.6786 -0.7111 -0.1839
vn -0.5270 -0.8323 0.1721
vn -0.4483 -0.7083 0.5453
vn -0.2033 -0.3216 0.9248
vn 0.2030 0.3214 0.9249
vn 0.4474 0.7088 0.5454
vn 0.5256 0.8332 0.1717
vn 0.5256 0.8332 -0.1717
vn 0.4474 0.7088 -0.5454
vn 0.2030 0.3214 -0.9249
vn -0.2033 -0.3216 -0.9248
vn -0.4483 -0.7083 -0.5453
vn -0.5270 -0.8323 -0.1721
vn -0.4421 -0.8808 0.1696
vn -0.3773 -0.7523 0.5401
vn -0.1726 -0.3446 0.9227
vn 0.1725 0.3450 0.9226
vn 0.3763 0.7533 0.5394
vn 0.4402 0.8819 0.1691
vn 0.4402 0.8819 -0.1691
vn 0.3763 0.7533 -0.5394
vn 0.1725 0.3450 -0.9226
vn -0.1726 -0.3446 -0.9227
vn -0.3773 -0.7523 -0.5401
vn -0.4421 -0.8808 -0.1696
vn -0.3932 -0.9024 0.1761
vn -0.3319 -0.7626 0.5552
vn -0.1486 -0.3419 0.9279
vn 0.1484 0.3424 0.9278
vn 0.3306 0.7640 0.5541
vn 0.3906 0.9037 0.1755
vn 0.3906 0.9037 -0.1755
vn 0.3306 0.7640 -0.5541
vn 0.1484 0.3424 -0.9278
vn -0.1486 -0.3419 -0.9279
vn -0.3319 -0.7626 -0.5552
vn -0.3932 -0.9024 -0.1761
vn -0.3659 -0.9114 0.1884
vn -0.3026 -0.7549 0.5818
vn -0.1303 -0.3260 0.9364
vn 0.1301 0.3265 0.9362
vn 0.3008 0.7566 0.5806
vn 0.3624 0.9130 0.1875
vn 0.3624 0.9130 -0.1875
vn 0.3008 0.7566 -0.5806
vn 0.1301 0.3265 -0.9362
vn -0.1303 -0.3260 -0.9364
vn -0.3026 -0.7549 -0.5818
vn -0.3659 -0.9114 -0.1884
vn -0.3543 -0.9124 0.2049
vn -0.2847 -0.7350 0.6154
vn -0.1170 -0.3032 0.9457
vn 0.1167 0.3038 0.9456
vn 0.2822 0.7373 0.6138
vn 0.3492 0.9146 0.2038
vn 0.3492 0.9146 -0.2038
vn 0.2822 0.7373 -0.6138
vn 0.1167 0.3038 -0.9456
vn -0.1170 -0.3032 -0.9457
vn -0.2847 -0.7350 -0.6154
vn -0.3543 -0.9124 -0.2049
vn -0.3575 -0.9063 0.2255
vn -0.2770 -0.7046 0.6533
vn -0.1081 -0.2767 0.9549
vn 0.1077 0.2774 0.9547
vn 0.2732 0.7080 0.6512
vn 0.3499 0.9097 0.2239
vn 0.3499 0.9097 -0.2239
vn 0.2732 0.7080 -0.6512
vn 0.1077 0.2774 -0.9547
vn -0.1081 -0.2767 -0.9549
vn -0.2770 -0.7046 -0.6533
vn -0.3575 -0.9063 -0.2255
vn -0.3786 -0.8918 0.2477
vn -0.2818 -0.6665 0.6902
vn -0.1047 -0.2496 0.9627
vn 0.1041 0.2502 0.9626
vn 0.2764 0.6699 0.6890
vn 0.3681 0.8964 0.2468
vn 0.3681 0.8964 -0.2468
vn 0.2764 0.6699 -0.6890
vn 0.1041 0.2502 -0.9626
vn -0.1047 -0.2496 -0.9627
vn -0.2818 -0.6665 -0.6902
vn -0.3786 -0.8918 -0.2477
vn 0.2275 0.6703 0.7064
vn 0.2275 0.6703 -0.7064
vn 0.0463 0.7064 0.7063
vn 0.0463 0.7064 -0.7063
vt 0.500000 0.500000
vt 0.520833 0.500000
vt 0.520833 0.583333
vt 0.500000 0.583333
vt 0.520833 0.666667
vt 0.500000 0.666667
vt 0.520833 0.750000
vt 0.500000 0.750000
vt 0.520833 0.833333
vt 0.500000 0.833333
vt 0.520833 0.916667
vt 0.500000 0.916667
vt 0.520833 1.000000
vt 0.500000 1.000000
vt 0.500000 0.000000
vt 0.520833 0.000000
vt 0.520833 0.083333
vt 0.500000 0.083333
vt 0.520833 0.166667
vt 0.500000 0.166667
vt 0.520833 0.250000
vt 0.500000 0.250000
vt 0.520833 0.333333
vt 0.500000 0.333333
vt 0.520833 0.416667
vt 0.500000 0.416667
vt 0.541667 0.500000
vt 0.541667 0.583333
vt 0.541667 0.666667
vt 0.541667 0.750000
vt 0.541667 0.833333
vt 0.541667 0.916667
vt 0.541667 1.000000
vt 0.541667 0.000000
vt 0.541667 0.083333
vt 0.541667 0.166667
vt 0.541667 0.250000
vt 0.541667 0.333333
vt 0.541667 0.416667
vt 0.562500 0.500000
vt 0.562500 0.583333
vt 0.562500 0.666667
vt 0.562500 0.750000
vt 0.562500 0.833333
vt 0.562500 0.916667
vt 0.562500 1.000000
vt 0.562500 0.000000
vt 0.562500 0.083333
vt 0.562500 0.166667
vt 0.562500 0.250000
vt 0.562500 0.333333
vt 0.562500 0.416667
vt 0.583333 0.500000
vt 0.583333 0.583333
vt 0.583333 0.666667
vt 0.583333 0.750000
vt 0.583333 0.833333
vt 0.583333 0.916667
vt 0.583333 1.000000
vt 0.583333 0.000000
vt 0.583333 0.083333
vt 0.583333 0.166667
vt 0.583333 0.250000
vt 0.583333 0.333333
vt 0.583333 0.416667
vt 0.604167 0.500000
vt 0.604167 0.583333
vt 0.604167 0.666667
vt 0.604167 0.750000
vt 0.604167 0.833333
vt 0.604167 0.916667
vt 0.604167 1.000000
vt 0.604167 0.000000
vt 0.604167 0.083333
vt 0.604167 0.166667
vt 0.604167 0.250000
vt 0.604167 0.333333
vt 0.604167 0.416667
vt 0.625000 0.500000
vt 0.625000 0.583333
vt 0.625000 0.666667
vt 0.625000 0.750000
vt 0.625000 0.833333
vt 0.625000 0.916667
vt 0.625000 1.000000
vt 0.625000 0.000000
vt 0.625000 0.083333
vt 0.625000 0.166667
vt 0.625000 0.250000
vt 0.625000 0.333333
vt 0.625000 0.416667
vt 0.645833 0.500000
vt 0.645833 0.583333
vt 0.645833 0.666667
vt 0.645833 0.750000
vt 0.645833 0.833333
vt 0.645833 0.916667
vt 0.645833 1.000000
vt 0.645833 0.000000
vt 0.645833 0.083333
vt 0.645833 0.166667
vt 0.645833 0.250000
vt 0.645833 0.333333
vt 0.645833 0.416667
vt 0.666667 0.500000
vt 0.666667 0.583333
vt 0.666667 0.666667
vt 0.666667 0.750000
vt 0.666667 0.833333
vt 0.666667 0.916667
vt 0.666667 1.000000
vt 0.666667 0.000000
vt 0.666667 0.083333
vt 0.666667 0.166667
vt 0.666667 0.250000
vt 0.666667 0.333333
vt 0.666667 0.416667
vt 0.687500 0.500000
vt 0.687500 0.583333
vt 0.687500 0.666667
vt 0.687500 0.750000
vt 0.687500 0.833333
vt 0.687500 0.916667
vt 0.687500 1.000000
vt 0.687500 0.000000
vt 0.687500 0.083333
vt 0.687500 0.166667
vt 0.687500 0.250000
vt 0.687500 0.333333
vt 0.687500 0.416667
vt 0.708333 0.500000
vt 0.708333 0.583333
vt 0.708333 0.666667
vt 0.708333 0.750000
vt 0.708333 0.833333
vt 0.708333 0.916667
vt 0.708333 1.000000
vt 0.708333 0.000000
vt 0.708333 0.083333
vt 0.708333 0.166667
vt 0.708333 0.250000
vt 0.708333 0.333333
vt 0.708333 0.416667
vt 0.729167 0.500000
vt 0.729167 0.583333
vt 0.729167 0.666667
vt 0.729167 0.750000
vt 0.729167 0.833333
vt 0.729167 0.916667
vt 0.729167 1.000000
vt 0.729167 0.000000
vt 0.729167 0.083333
vt 0.729167 0.166667
vt 0.729167 0.250000
vt 0.729167 0.333333
vt 0.729167 0.416667
vt 0.750000 0.500000
vt 0.750000 0.583333
vt 0.750000 0.666667
vt 0.750000 0.750000
vt 0.750000 0.833333
vt 0.750000 0.916667
vt 0.750000 1.000000
vt 0.750000 0.000000
vt 0.750000 0.083333
vt 0.750000 0.166667
vt 0.750000 0.250000
vt 0.750000 0.333333
vt 0.750000 0.416667
vt 0.770833 0.500000
vt 0.770833 0.583333
vt 0.770833 0.666667
vt 0.770833 0.750000
vt 0.770833 0.833333
vt 0.770833 0.916667
vt 0.770833 1.000000
vt 0.770833 0.000000
vt 0.770833 0.083333
vt 0.770833 0.166667
vt 0.770833 0.250000
vt 0.770833 0.333333
vt 0.770833 0.416667
vt 0.791667 0.500000
vt 0.791667 0.583333
vt 0.791667 0.666667
vt 0.791667 0.750000
vt 0.791667 0.833333
vt 0.791667 0.916667
vt 0.791667 1.000000
vt 0.791667 0.000000
vt 0.791667 0.083333
vt 0.791667 0.166667
vt 0.791667 0.250000
vt 0.791667 0.333333
vt 0.791667 0.416667
vt 0.812500 0.500000
vt 0.812500 0.583333
vt 0.812500 0.666667
vt 0.812500 0.750000
vt 0.812500 0.833333
vt 0.812500 0.916667
vt 0.812500 1.000000
vt 0.812500 0.000000
vt 0.812500 0.083333
vt 0.812500 0.166667
vt 0.812500 0.250000
vt 0.812500 0.333333
vt 0.812500 0.416667
vt 0.833333 0.500000
vt 0.833333 0.583333
vt 0.833333 0.666667
vt 0.833333 0.750000
vt 0.833333 0.833333
vt 0.833333 0.916667
vt 0.833333 1.000000
vt 0.833333 0.000000
vt 0.833333 0.083333
vt 0.833333 0.166667
vt 0.833333 0.250000
vt 0.833333 0.333333
vt 0.833333 0.416667
vt 0.854167 0.500000
vt 0.854167 0.583333
vt 0.854167 0.666667
vt 0.854167 0.750000
vt 0.854167 0.833333
vt 0.854167 0.916667
vt 0.854167 1.000000
vt 0.854167 0.000000
vt 0.854167 0.083333
vt 0.854167 0.166667
vt 0.854167 0.250000
vt 0.854167 0.333333
vt 0.854167 0.416667
vt 0.875000 0.500000
vt 0.875000 0.583333
vt 0.875000 0.666667
vt 0.875000 0.750000
vt 0.875000 0.833333
vt 0.875000 0.916667
vt 0.875000 1.000000
vt 0.875000 0.000000
vt 0.875000 0.083333
vt 0.875000 0.166667
vt 0.875000 0.250000
vt 0.875000 0.333333
vt 0.875000 0.416667
vt 0.895833 0.500000
vt 0.895833 0.583333
vt 0.895833 0.666667
vt 0.895833 0.750000
vt 0.895833 0.833333
vt 0.895833 0.916667
vt 0.895833 1.000000
vt 0.895833 0.000000
vt 0.895833 0.083333
vt 0.895833 0.166667
vt 0.895833 0.250000
vt 0.895833 0.333333
vt 0.895833 0.416667
vt 0.916667 0.500000
vt 0.916667 0.583333
vt 0.916667 0.666667
vt 0.916667 0.750000
vt 0.916667 0.833333
vt 0.916667 0.916667
vt 0.916667 1.000000
vt 0.916667 0.000000
vt 0.916667 0.083333
vt 0.916667 0.166667
vt 0.916667 0.250000
vt 0.916667 0.333333
vt 0.916667 0.416667
vt 0.937500 0.500000
vt 0.937500 0.583333
vt 0.937500 0.666667
vt 0.937500 0.750000
vt 0.937500 0.833333
vt 0.937500 0.916667
vt 0.937500 1.000000
vt 0.937500 0.000000
vt 0.937500 0.083333
vt 0.937500 0.166667
vt 0.937500 0.250000
vt 0.937500 0.333333
vt 0.937500 0.416667
vt 0.958333 0.500000
vt 0.958333 0.583333
vt 0.958333 0.666667
vt 0.958333 0.750000
vt 0.958333 0.833333
vt 0.958333 0.916667
vt 0.958333 1.000000
vt 0.958333 0.000000
vt 0.958333 0.083333
vt 0.958333 0.166667
vt 0.958333 0.250000
vt 0.958333 0.333333
vt 0.958333 0.416667
vt 0.979167 0.500000
vt 0.979167 0.583333
vt 0.979167 0.666667
vt 0.979167 0.750000
vt 0.979167 0.833333
vt 0.979167 0.916667
vt 0.979167 1.000000
vt 0.979167 0.000000
vt 0.979167 0.083333
vt 0.979167 0.166667
vt 0.979167 0.250000
vt 0.979167 0.333333
vt 0.979167 0.416667
vt 1.000000 0.500000
vt 1.000000 0.583333
vt 1.000000 0.666667
vt 1.000000 0.750000
vt 1.000000 0.833333
vt 1.000000 0.916667
vt 1.000000 1.000000
vt 1.000000 0.000000
vt 1.000000 0.083333
vt 1.000000 0.166667
vt 1.000000 0.250000
vt 1.000000 0.333333
vt 1.000000 0.416667
vt 0.000000 0.500000
vt 0.020833 0.500000
vt 0.020833 0.583333
vt 0.000000 0.583333
vt 0.020833 0.666667
vt 0.000000 0.666667
vt 0.020833 0.750000
vt 0.000000 0.750000
vt 0.020833 0.833333
vt 0.000000 0.833333
vt 0.020833 0.916667
vt 0.000000 0.916667
vt 0.020833 1.000000
vt 0.000000 1.000000
vt 0.000000 0.000000
vt 0.020833 0.000000
vt 0.020833 0.083333
vt 0.000000 0.083333
vt 0.020833 0.166667
vt 0.000000 0.166667
vt 0.020833 0.250000
vt 0.000000 0.250000
vt 0.020833 0.333333
vt 0.000000 0.333333
vt 0.020833 0.416667
vt 0.000000 0.416667
vt 0.041667 0.500000
vt 0.041667 0.583333
vt 0.041667 0.666667
vt 0.041667 0.750000
vt 0.041667 0.833333
vt 0.041667 0.916667
vt 0.041667 1.000000
vt 0.041667 0.000000
vt 0.041667 0.083333
vt 0.041667 0.166667
vt 0.041667 0.250000
vt 0.041667 0.333333
vt 0.041667 0.416667
vt 0.062500 0.500000
vt 0.062500 0.583333
vt 0.062500 0.666667
vt 0.062500 0.750000
vt 0.062500 0.833333
vt 0.062500 0.916667
vt 0.062500 1.000000
vt 0.062500 0.000000
vt 0.062500 0.083333
vt 0.062500 0.166667
vt 0.062500 0.250000
vt 0.062500 0.333333
vt 0.062500 0.416667
vt 0.083333 0.500000
vt 0.083333 0.583333
vt 0.083333 0.666667
vt 0.083333 0.750000
vt 0.083333 0.833333
vt 0.083333 0.916667
vt 0.083333 1.000000
vt 0.083333 0.000000
vt 0.083333 0.083333
vt 0.083333 0.166667
vt 0.083333 0.250000
vt 0.083333 0.333333
vt 0.083333 0.416667
vt 0.104167 0.500000
vt 0.104167 0.583333
vt 0.104167 0.666667
vt 0.104167 0.750000
vt 0.104167 0.833333
vt 0.104167 0.916667
vt 0.104167 1.000000
vt 0.104167 0.000000
vt 0.104167 0.083333
vt 0.104167 0.166667
vt 0.104167 0.250000
vt 0.104167 0.333333
vt 0.104167 0.416667
vt 0.125000 0.500000
vt 0.125000 0.583333
vt 0.125000 0.666667
vt 0.125000 0.750000
vt 0.125000 0.833333
vt 0.125000 0.916667
vt 0.125000 1.000000
vt 0.125000 0.000000
vt 0.125000 0.083333
vt 0.125000 0.166667
vt 0.125000 0.250000
vt 0.125000 0.333333
vt 0.125000 0.416667
vt 0.145833 0.500000
vt 0.145833 0.583333
vt 0.145833 0.666667
vt 0.145833 0.750000
vt 0.145833 0.833333
vt 0.145833 0.916667
vt 0.145833 1.000000
vt 0.145833 0.000000
vt 0.145833 0.083333
vt 0.145833 0.166667
vt 0.145833 0.250000
vt 0.145833 0.333333
vt 0.145833 0.416667
vt 0.166667 0.500000
vt 0.166667 0.583333
vt 0.166667 0.666667
vt 0.166667 0.750000
vt 0.166667 0.833333
vt 0.166667 0.916667
vt 0.166667 1.000000
vt 0.166667 0.000000
vt 0.166667 0.083333
vt 0.166667 0.166667
vt 0.166667 0.250000
vt 0.166667 0.333333
vt 0.166667 0.416667
vt 0.187500 0.500000
vt 0.187500 0.583333
vt 0.187500 0.666667
vt 0.187500 0.750000
vt 0.187500 0.833333
vt 0.187500 0.916667
vt 0.187500 1.000000
vt 0.187500 0.000000
vt 0.187500 0.083333
vt 0.187500 0.166667
vt 0.187500 0.250000
vt 0.187500 0.333333
vt 0.187500 0.416667
vt 0.208333 0.500000
vt 0.208333 0.583333
vt 0.208333 0.666667
vt 0.208333 0.750000
vt 0.208333 0.833333
vt 0.208333 0.916667
vt 0.208333 1.000000
vt 0.208333 0.000000
vt 0.208333 0.083333
vt 0.208333 0.166667
vt 0.208333 0.250000
vt 0.208333 0.333333
vt 0.208333 0.416667
vt 0.229167 0.500000
vt 0.229167 0.583333
vt 0.229167 0.666667
vt 0.229167 0.750000
vt 0.229167 0.833333
vt 0.229167 0.916667
vt 0.229167 1.000000
vt 0.229167 0.000000
vt 0.229167 0.083333
vt 0.229167 0.166667
vt 0.229167 0.250000
vt 0.229167 0.333333
vt 0.229167 0.416667
vt 0.250000 0.500000
vt 0.250000 0.583333
vt 0.250000 0.666667
vt 0.250000 0.750000
vt 0.250000 0.833333
vt 0.250000 0.916667
vt 0.250000 1.000000
vt 0.250000 0.000000
vt 0.250000 0.083333
vt 0.250000 0.166667
vt 0.250000 0.250000
vt 0.250000 0.333333
vt 0.250000 0.416667
vt 0.270833 0.500000
vt 0.270833 0.583333
vt 0.270833 0.666667
vt 0.270833 0.750000
vt 0.270833 0.833333
vt 0.270833 0.916667
vt 0.270833 1.000000
vt 0.270833 0.000000
vt 0.270833 0.083333
vt 0.270833 0.166667
vt 0.270833 0.250000
vt 0.270833 0.333333
vt 0.270833 0.416667
vt 0.291667 0.500000
vt 0.291667 0.583333
vt 0.291667 0.666667
vt 0.291667 0.750000
vt 0.291667 0.833333
vt 0.291667 0.916667
vt 0.291667 1.000000
vt 0.291667 0.000000
vt 0.291667 0.083333
vt 0.291667 0.166667
vt 0.291667 0.250000
vt 0.291667 0.333333
vt 0.291667 0.416667
vt 0.312500 0.500000
vt 0.312500 0.583333
vt 0.312500 0.666667
vt 0.312500 0.750000
vt 0.312500 0.833333
vt 0.312500 0.916667
vt 0.312500 1.000000
vt 0.312500 0.000000
vt 0.312500 0.083333
vt 0.312500 0.166667
vt 0.312500 0.250000
vt 0.312500 0.333333
vt 0.312500 0.416667
vt 0.333333 0.500000
vt 0.333333 0.583333
vt 0.333333 0.666667
vt 0.333333 0.750000
vt 0.333333 0.833333
vt 0.333333 0.916667
vt 0.333333 1.000000
vt 0.333333 0.000000
vt 0.333333 0.083333
vt 0.333333 0.166667
vt 0.333333 0.250000
vt 0.333333 0.333333
vt 0.333333 0.416667
vt 0.354167 0.500000
vt 0.354167 0.583333
vt 0.354167 0.666667
vt 0.354167 0.750000
vt 0.354167 0.833333
vt 0.354167 0.916667
vt 0.354167 1.000000
vt 0.354167 0.000000
vt 0.354167 0.083333
vt 0.354167 0.166667
vt 0.354167 0.250000
vt 0.354167 0.333333
vt 0.354167 0.416667
vt 0.375000 0.500000
vt 0.375000 0.583333
vt 0.375000 0.666667
vt 0.375000 0.750000
vt 0.375000 0.833333
vt 0.375000 0.916667
vt 0.375000 1.000000
vt 0.375000 0.000000
vt 0.375000 0.083333
vt 0.375000 0.166667
vt 0.375000 0.250000
vt 0.375000 0.333333
vt 0.375000 0.416667
vt 0.395833 0.500000
vt 0.395833 0.583333
vt 0.395833 0.666667
vt 0.395833 0.750000
vt 0.395833 0.833333
vt 0.395833 0.916667
vt 0.395833 1.000000
vt 0.395833 0.000000
vt 0.395833 0.083333
vt 0.395833 0.166667
vt 0.395833 0.250000
vt 0.395833 0.333333
vt 0.395833 0.416667
vt 0.416667 0.500000
vt 0.416667 0.583333
vt 0.416667 0.666667
vt 0.416667 0.750000
vt 0.416667 0.833333
vt 0.416667 0.916667
vt 0.416667 1.000000
vt 0.416667 0.000000
vt 0.416667 0.083333
vt 0.416667 0.166667
vt 0.416667 0.250000
vt 0.416667 0.333333
vt 0.416667 0.416667
vt 0.437500 0.500000
vt 0.437500 0.583333
vt 0.437500 0.666667
vt 0.437500 0.750000
vt 0.437500 0.833333
vt 0.437500 0.916667
vt 0.437500 1.000000
vt 0.437500 0.000000
vt 0.437500 0.083333
vt 0.437500 0.166667
vt 0.437500 0.250000
vt 0.437500 0.333333
vt 0.437500 0.416667
vt 0.458333 0.500000
vt 0.458333 0.583333
vt 0.458333 0.666667
vt 0.458333 0.750000
vt 0.458333 0.833333
vt 0.458333 0.916667
vt 0.458333 1.000000
vt 0.458333 0.000000
vt 0.458333 0.083333
vt 0.458333 0.166667
vt 0.458333 0.250000
vt 0.458333 0.333333
vt 0.458333 0.416667
vt 0.479167 0.500000
vt 0.479167 0.583333
vt 0.479167 0.666667
vt 0.479167 0.750000
vt 0.479167 0.833333
vt 0.479167 0.916667
vt 0.479167 1.000000
vt 0.479167 0.000000
vt 0.479167 0.083333
vt 0.479167 0.166667
vt 0.479167 0.250000
vt 0.479167 0.333333
vt 0.479167 0.416667
s 0
usemtl Material.003
f 1/1/1 13/2/1 14/3/1 2/4/1
f 2/4/2 14/3/2 15/5/2 3/6/2
f 3/6/3 15/5/3 16/7/3 4/8/3
f 4/8/4 16/7/4 17/9/4 5/10/4
f 5/10/5 17/9/5 18/11/5 6/12/5
f 6/12/6 18/11/6 19/13/6 7/14/6
f 7/15/7 19/16/7 20/17/7 8/18/7
f 8/18/8 20/17/8 21/19/8 9/20/8
f 9/20/9 21/19/9 22/21/9 10/22/9
f 10/22/10 22/21/10 23/23/10 11/24/10
f 11/24/11 23/23/11 24/25/11 12/26/11
f 12/26/12 24/25/12 13/2/12 1/1/12
f 13/2/13 25/27/13 26/28/13 14/3/13
f 14/3/14 26/28/14 27/29/14 15/5/14
f 15/5/15 27/29/15 28/30/15 16/7/15
f 16/7/16 28/30/16 29/31/16 17/9/16
f 17/9/17 29/31/17 30/32/17 18/11/17
f 18/11/18 30/32/18 31/33/18 19/13/18
f 19/16/19 31/34/19 32/35/19 20/17/19
f 20/17/20 32/35/20 33/36/20 21/19/20
f 21/19/21 33/36/21 34/37/21 22/21/21
f 22/21/22 34/37/22 35/38/22 23/23/22
f 23/23/23 35/38/23 36/39/23 24/25/23
f 24/25/24 36/39/24 25/27/24 13/2/24
f 25/27/25 37/40/25 38/41/25 26/28/25
f 26/28/26 38/41/26 39/42/26 27/29/26
f 27/29/27 39/42/27 40/43/27 28/30/27
f 28/30/28 40/43/28 41/44/28 29/31/28
f 29/31/29 41/44/29 42/45/29 30/32/29
f 30/32/30 42/45/30 43/46/30 31/33/30
f 31/34/31 43/47/31 44/48/31 32/35/31
f 32/35/32 44/48/32 45/49/32 33/36/32
f 33/36/33 45/49/33 46/50/33 34/37/33
f 34/37/34 46/50/34 47/51/34 35/38/34
f 35/38/35 47/51/35 48/52/35 36/39/35
f 36/39/36 48/52/36 37/40/36 25/27/36
f 37/40/37 49/53/37 50/54/37 38/41/37
f 38/41/38 50/54/38 51/55/38 39/42/38
f 39/42/39 51/55/39 52/56/39 40/43/39
f 40/43/40 52/56/40 53/57/40 41/44/40
f 41/44/41 53/57/41 54/58/41 42/45/41
f 42/45/42 54/58/42 55/59/42 43/46/42
f 43/47/43 55/60/43 56/61/43 44/48/43
f 44/48/44 56/61/44 57/62/44 45/49/44
f 45/49/45 57/62/45 58/63/45 46/50/45
f 46/50/46 58/63/46 59/64/46 47/51/46
f 47/51/47 59/64/47 60/65/47 48/52/47
f 48/52/48 60/65/48 49/53/48 37/40/48
f 49/53/49 61/66/49 62/67/49 50/54/49
f 50/54/50 62/67/50 63/68/50 51/55/50
f 51/55/51 63/68/51 64/69/51 52/56/51
f 52/56/52 64/69/52 65/70/52 53/57/52
f 53/57/53 65/70/53 66/71/53 54/58/53
f 54/58/54 66/71/54 67/72/54 55/59/54
f 55/60/55 67/73/55 68/74/55 56/61/55
f 56/61/56 68/74/56 69/75/56 57/62/56
f 57/62/57 69/75/57 70/76/57 58/63/57
f 58/63/58 70/76/58 71/77/58 59/64/58
f 59/64/59 71/77/59 72/78/59 60/65/59
f 60/65/60 72/78/60 61/66/60 49/53/60
f 61/66/61 73/79/61 74/80/61 62/67/61
f 62/67/62 74/80/62 75/81/62 63/68/62
f 63/68/63 75/81/63 76/82/63 64/69/63
f 64/69/64 76/82/64 77/83/64 65/70/64
f 65/70/65 77/83/65 78/84/65 66/71/65
f 66/71/66 78/84/66 79/85/66 67/72/66
f 67/73/67 79/86/67 80/87/67 68/74/67
f 68/74/68 80/87/68 81/88/68 69/75/68
f 69/75/69 81/88/69 82/89/69 70/76/69
f 70/76/70 82/89/70 83/90/70 71/77/70
f 71/77/71 83/90/71 84/91/71 72/78/71
f 72/78/72 84/91/72 73/79/72 61/66/72
f 73/79/73 85/92/73 86/93/73 74/80/73
f 74/80/74 86/93/74 87/94/74 75/81/74
f 75/81/75 87/94/75 88/95/75 76/82/75
f 76/82/76 88/95/76 89/96/76 77/83/76
f 77/83/77 89/96/77 90/97/77 78/84/77
f 78/84/78 90/97/78 91/98/78 79/85/78
f 79/86/79 91/99/79 92/100/79 80/87/79
f 80/87/80 92/100/80 93/101/80 81/88/80
f 81/88/81 93/101/81 94/102/81 82/89/81
f 82/89/82 94/102/82 95/103/82 83/90/82
f 83/90/83 95/103/83 96/104/83 84/91/83
f 84/91/84 96/104/84 85/92/84 73/79/84
f 85/92/85 97/105/85 98/106/85 86/93/85
f 86/93/86 98/106/86 99/107/86 87/94/86
f 87/94/87 99/107/87 100/108/87 88/95/87
f 88/95/88 100/108/88 101/109/88 89/96/88
f 89/96/89 101/109/89 102/110/89 90/97/89
f 90/97/90 102/110/90 103/111/90 91/98/90
f 91/99/91 103/112/91 104/113/91 92/100/91
f 92/100/92 104/113/92 105/114/92 93/101/92
f 93/101/93 105/114/93 106/115/93 94/102/93
f 94/102/94 106/115/94 107/116/94 95/103/94
f 95/103/95 107/116/95 108/117/95 96/104/95
f 96/104/96 108/117/96 97/105/96 85/92/96
f 97/105/97 109/118/97 110/119/97 98/106/97
f 98/106/98 110/119/98 111/120/98 99/107/98
f 99/107/99 111/120/99 112/121/99 100/108/99
f 100/108/100 112/121/100 113/122/100 101/109/100
f 101/109/101 113/122/101 114/123/101 102/110/101
f 102/110/102 114/123/102 115/124/102 103/111/102
f 103/112/103 115/125/103 116/126/103 104/113/103
f 104/113/104 116/126/104 117/127/104 105/114/104
f 105/114/105 117/127/105 118/128/105 106/115/105
f 106/115/106 118/128/106 119/129/106 107/116/106
f 107/116/107 119/129/107 120/130/107 108/117/107
f 108/117/108 120/130/108 109/118/108 97/105/108
f 109/118/109 121/131/109 122/132/109 110/119/109
f 110/119/110 122/132/110 123/133/110 111/120/110
f 111/120/111 123/133/111 124/134/111 112/121/111
f 112/121/112 124/134/112 125/135/112 113/122/112
f 113/122/113 125/135/113 126/136/113 114/123/113
f 114/123/114 126/136/114 127/137/114 115/124/114
f 115/125/115 127/138/115 128/139/115 116/126/115
f 116/126/116 128/139/116 129/140/116 117/127/116
f 117/127/117 129/140/117 130/141/117 118/128/117
f 118/128/118 130/141/118 131/142/118 119/129/118
f 119/129/119 131/142/119 132/143/119 120/130/119
f 120/130/120 132/143/120 121/131/120 109/118/120
f 121/131/121 133/144/121 134/145/121 122/132/121
f 122/132/122 134/145/122 135/146/122 123/133/122
f 123/133/123 135/146/123 136/147/123 124/134/123
f 124/134/124 136/147/124 137/148/124 125/135/124
f 125/135/125 137/148/125 138/149/125 126/136/125
f 126/136/126 138/149/126 139/150/126 127/137/126
f 127/138/127 139/151/127 140/152/127 128/139/127
f 128/139/128 140/152/128 141/153/128 129/140/128
f 129/140/129 141/153/129 142/154/129 130/141/129
f 130/141/130 142/154/130 143/155/130 131/142/130
f 131/142/131 143/155/131 144/156/131 132/143/131
f 132/143/132 144/156/132 133/144/132 121/131/132
f 133/144/133 145/157/133 146/158/133 134/145/133
f 134/145/134 146/158/134 147/159/134 135/146/134
f 135/146/135 147/159/135 148/160/135 136/147/135
f 136/147/136 148/160/136 149/161/136 137/148/136
f 137/148/137 149/161/137 150/162/137 138/149/137
f 138/149/138 150/162/138 151/163/138 139/150/138
f 139/151/139 151/164/139 152/165/139 140/152/139
f 140/152/140 152/165/140 153/166/140 141/153/140
f 141/153/141 153/166/141 154/167/141 142/154/141
f 142/154/142 154/167/142 155/168/142 143/155/142
f 143/155/143 155/168/143 156/169/143 144/156/143
f 144/156/144 156/169/144 145/157/144 133/144/144
f 145/157/145 157/170/145 158/171/145 146/158/145
f 146/158/146 158/171/146 159/172/146 147/159/146
f 147/159/147 159/172/147 160/173/147 148/160/147
f 148/160/148 160/173/148 161/174/148 149/161/148
f 149/161/149 161/174/149 162/175/149 150/162/149
f 150/162/150 162/175/150 163/176/150 151/163/150
f 151/164/151 163/177/151 164/178/151 152/165/151
f 152/165/152 164/178/152 165/179/152 153/166/152
f 153/166/153 165/179/153 166/180/153 154/167/153
f 154/167/154 166/180/154 167/181/154 155/168/154
f 155/168/155 167/181/155 168/182/155 156/169/155
f 156/169/156 168/182/156 157/170/156 145/157/156
f 157/170/157 169/183/157 170/184/157 158/171/157
f 158/171/158 170/184/158 171/185/158 159/172/158
f 159/172/159 171/185/159 172/186/159 160/173/159
f 160/173/160 172/186/160 173/187/160 161/174/160
f 161/174/161 173/187/161 174/188/161 162/175/161
f 162/175/162 174/188/162 175/189/162 163/176/162
f 163/177/163 175/190/163 176/191/163 164/178/163
f 164/178/164 176/191/164 177/192/164 165/179/164
f 165/179/165 177/192/165 178/193/165 166/180/165
f 166/180/166 178/193/166 179/194/166 167/181/166
f 167/181/167 179/194/167 180/195/167 168/182/167
f 168/182/168 180/195/168 169/183/168 157/170/168
f 169/183/169 181/196/169 182/197/169 170/184/169
f 170/184/170 182/197/170 183/198/170 171/185/170
f 171/185/171 183/198/171 184/199/171 172/186/171
f 172/186/172 184/199/172 185/200/172 173/187/172
f 173/187/173 185/200/173 186/201/173 174/188/173
f 174/188/174 186/201/174 187/202/174 175/189/174
f 175/190/175 187/203/175 188/204/175 176/191/175
f 176/191/176 188/204/176 189/205/176 177/192/176
f 177/192/177 189/205/177 190/206/177 178/193/177
f 178/193/178 190/206/178 191/207/178 179/194/178
f 179/194/179 191/207/179 192/208/179 180/195/179
f 180/195/180 192/208/180 181/196/180 169/183/180
f 181/196/181 193/209/181 194/210/181 182/197/181
f 182/197/182 194/210/182 195/211/182 183/198/182
f 183/198/183 195/211/183 196/212/183 184/199/183
f 184/199/184 196/212/184 197/213/184 185/200/184
f 185/200/185 197/213/185 198/214/185 186/201/185
f 186/201/186 198/214/186 199/215/186 187/202/186
f 187/203/187 199/216/187 200/217/187 188/204/187
f 188/204/188 200/217/188 201/218/188 189/205/188
f 189/205/189 201/218/189 202/219/189 190/206/189
f 190/206/190 202/219/190 203/220/190 191/207/190
f 191/207/191 203/220/191 204/221/191 192/208/191
f 192/208/192 204/221/192 193/209/192 181/196/192
f 193/209/193 205/222/193 206/223/193 194/210/193
f 194/210/194 206/223/194 207/224/194 195/211/194
f 195/211/195 207/224/195 208/225/195 196/212/195
f 196/212/196 208/225/196 209/226/196 197/213/196
f 197/213/197 209/226/197 210/227/197 198/214/197
f 198/214/198 210/227/198 211/228/198 199/215/198
f 199/216/199 211/229/199 212/230/199 200/217/199
f 200/217/200 212/230/200 213/231/200 201/218/200
f 201/218/201 213/231/201 214/232/201 202/219/201
f 202/219/202 214/232/202 215/233/202 203/220/202
f 203/220/203 215/233/203 216/234/203 204/221/203
f 204/221/204 216/234/204 205/222/204 193/209/204
f 205/222/205 217/235/205 218/236/205 206/223/205
f 206/223/206 218/236/206 219/237/206 207/224/206
f 207/224/207 219/237/207 220/238/207 208/225/207
f 208/225/208 220/238/208 221/239/208 209/226/208
f 209/226/209 221/239/209 222/240/209 210/227/209
f 210/227/210 222/240/210 223/241/210 211/228/210
f 211/229/211 223/242/211 224/243/211 212/230/211
f 212/230/212 224/243/212 225/244/212 213/231/212
f 213/231/213 225/244/213 226/245/213 214/232/213
f 214/232/214 226/245/214 227/246/214 215/233/214
f 215/233/215 227/246/215 228/247/215 216/234/215
f 216/234/216 228/247/216 217/235/216 205/222/216
f 217/235/217 229/248/217 230/249/217 218/236/217
f 218/236/218 230/249/218 231/250/218 219/237/218
f 219/237/219 231/250/219 232/251/219 220/238/219
f 220/238/220 232/251/220 233/252/220 221/239/220
f 221/239/221 233/252/221 234/253/221 222/240/221
f 222/240/222 234/253/222 235/254/222 223/241/222
f 223/242/223 235/255/223 236/256/223 224/243/223
f 224/243/224 236/256/224 237/257/224 225/244/224
f 225/244/225 237/257/225 238/258/225 226/245/225
f 226/245/226 238/258/226 239/259/226 227/246/226
f 227/246/227 239/259/227 240/260/227 228/247/227
f 228/247/228 240/260/228 229/248/228 217/235/228
f 229/248/229 241/261/229 242/262/229 230/249/229
f 230/249/230 242/262/230 243/263/230 231/250/230
f 231/250/231 243/263/231 244/264/231 232/251/231
f 232/251/232 244/264/232 245/265/232 233/252/232
f 233/252/233 245/265/233 246/266/233 234/253/233
f 234/253/234 246/266/234 247/267/234 235/254/234
f 235/255/235 247/268/235 248/269/235 236/256/235
f 236/256/236 248/269/236 249/270/236 237/257/236
f 237/257/237 249/270/237 250/271/237 238/258/237
f 238/258/238 250/271/238 251/272/238 239/259/238
f 239/259/239 251/272/239 252/273/239 240/260/239
f 240/260/240 252/273/240 241/261/240 229/248/240
f 241/261/241 253/274/241 254/275/241 242/262/241
f 242/262/242 254/275/242 255/276/242 243/263/242
f 243/263/243 255/276/243 256/277/243 244/264/243
f 244/264/244 256/277/244 257/278/244 245/265/244
f 245/265/245 257/278/245 258/279/245 246/266/245
f 246/266/246 258/279/246 259/280/246 247/267/246
f 247/268/247 259/281/247 260/282/247 248/269/247
f 248/269/248 260/282/248 261/283/248 249/270/248
f 249/270/249 261/283/249 262/284/249 250/271/249
f 250/271/250 262/284/250 263/285/250 251/272/250
f 251/272/251 263/285/251 264/286/251 252/273/251
f 252/273/252 264/286/252 253/274/252 241/261/252
f 253/274/253 265/287/253 266/288/253 254/275/253
f 254/275/254 266/288/254 267/289/254 255/276/254
f 255/276/255 267/289/255 268/290/255 256/277/255
f 256/277/256 268/290/256 269/291/256 257/278/256
f 257/278/257 269/291/257 270/292/257 258/279/257
f 258/279/258 270/292/258 271/293/258 259/280/258
f 259/281/259 271/294/259 272/295/259 260/282/259
f 260/282/260 272/295/260 273/296/260 261/283/260
f 261/283/261 273/296/261 274/297/261 262/284/261
f 262/284/262 274/297/262 275/298/262 263/285/262
f 263/285/263 275/298/263 276/299/263 264/286/263
f 264/286/264 276/299/264 265/287/264 253/274/264
f 265/287/265 277/300/265 278/301/265 266/288/265
f 266/288/266 278/301/266 279/302/266 267/289/266
f 267/289/267 279/302/267 280/303/267 268/290/267
f 268/290/268 280/303/268 281/304/268 269/291/268
f 269/291/269 281/304/269 282/305/269 270/292/269
f 270/292/270 282/305/270 283/306/270 271/293/270
f 271/294/271 283/307/271 284/308/271 272/295/271
f 272/295/272 284/308/272 285/309/272 273/296/272
f 273/296/273 285/309/273 286/310/273 274/297/273
f 274/297/274 286/310/274 287/311/274 275/298/274
f 275/298/275 287/311/275 288/312/275 276/299/275
f 276/299/276 288/312/276 277/300/276 265/287/276
f 277/300/277 289/313/277 290/314/277 278/301/277
f 278/301/278 290/314/278 291/315/278 279/302/278
f 279/302/279 291/315/279 292/316/279 280/303/279
f 280/303/280 292/316/280 293/317/280 281/304/280
f 281/304/281 293/317/281 294/318/281 282/305/281
f 282/305/282 294/318/282 295/319/282 283/306/282
f 283/307/283 295/320/283 296/321/283 284/308/283
f 284/308/284 296/321/284 297/322/284 285/309/284
f 285/309/285 297/322/285 298/323/285 286/310/285
f 286/310/286 298/323/286 299/324/286 287/311/286
f 287/311/287 299/324/287 300/325/287 288/312/287
f 288/312/288 300/325/288 289/313/288 277/300/288
f 289/326/6 301/327/6 302/328/6 290/329/6
f 290/329/289 302/328/289 303/330/289 291/331/289
f 291/331/4 303/330/4 304/332/4 292/333/4
f 292/333/3 304/332/3 305/334/3 293/335/3
f 293/335/2 305/334/2 306/336/2 294/337/2
f 294/337/1 306/336/1 307/338/1 295/339/1
f 295/340/12 307/341/12 308/342/12 296/343/12
f 296/343/11 308/342/11 309/344/11 297/345/11
f 297/345/10 309/344/10 310/346/10 298/347/10
f 298/347/9 310/346/9 311/348/9 299/349/9
f 299/349/290 311/348/290 312/350/290 300/351/290
f 300/351/7 312/350/7 301/327/7 289/326/7
f 301/327/18 313/352/18 314/353/18 302/328/18
f 302/328/17 314/353/17 315/354/17 303/330/17
f 303/330/16 315/354/16 316/355/16 304/332/16
f 304/332/15 316/355/15 317/356/15 305/334/15
f 305/334/14 317/356/14 318/357/14 306/336/14
f 306/336/13 318/357/13 319/358/13 307/338/13
f 307/341/24 319/359/24 320/360/24 308/342/24
f 308/342/23 320/360/23 321/361/23 309/344/23
f 309/344/22 321/361/22 322/362/22 310/346/22
f 310/346/21 322/362/21 323/363/21 311/348/21
f 311/348/20 323/363/20 324/364/20 312/350/20
f 312/350/19 324/364/19 313/352/19 301/327/19
f 313/352/30 325/365/30 326/366/30 314/353/30
f 314/353/29 326/366/29 327/367/29 315/354/29
f 315/354/28 327/367/28 328/368/28 316/355/28
f 316/355/27 328/368/27 329/369/27 317/356/27
f 317/356/291 329/369/291 330/370/291 318/357/291
f 318/357/25 330/370/25 331/371/25 319/358/25
f 319/359/36 331/372/36 332/373/36 320/360/36
f 320/360/292 332/373/292 333/374/292 321/361/292
f 321/361/34 333/374/34 334/375/34 322/362/34
f 322/362/33 334/375/33 335/376/33 323/363/33
f 323/363/32 335/376/32 336/377/32 324/364/32
f 324/364/31 336/377/31 325/365/31 313/352/31
f 325/365/293 337/378/293 338/379/293 326/366/293
f 326/366/294 338/379/294 339/380/294 327/367/294
f 327/367/295 339/380/295 340/381/295 328/368/295
f 328/368/296 340/381/296 341/382/296 329/369/296
f 329/369/297 341/382/297 342/383/297 330/370/297
f 330/370/298 342/383/298 343/384/298 331/371/298
f 331/372/299 343/385/299 344/386/299 332/373/299
f 332/373/300 344/386/300 345/387/300 333/374/300
f 333/374/301 345/387/301 346/388/301 334/375/301
f 334/375/302 346/388/302 347/389/302 335/376/302
f 335/376/303 347/389/303 348/390/303 336/377/303
f 336/377/304 348/390/304 337/378/304 325/365/304
f 337/378/305 349/391/305 350/392/305 338/379/305
f 338/379/306 350/392/306 351/393/306 339/380/306
f 339/380/307 351/393/307 352/394/307 340/381/307
f 340/381/308 352/394/308 353/395/308 341/382/308
f 341/382/309 353/395/309 354/396/309 342/383/309
f 342/383/310 354/396/310 355/397/310 343/384/310
f 343/385/311 355/398/311 356/399/311 344/386/311
f 344/386/312 356/399/312 357/400/312 345/387/312
f 345/387/313 357/400/313 358/401/313 346/388/313
f 346/388/314 358/401/314 359/402/314 347/389/314
f 347/389/315 359/402/315 360/403/315 348/390/315
f 348/390/316 360/403/316 349/391/316 337/378/316
f 349/391/317 361/404/317 362/405/317 350/392/317
f 350/392/318 362/405/318 363/406/318 351/393/318
f 351/393/319 363/406/319 364/407/319 352/394/319
f 352/394/320 364/407/320 365/408/320 353/395/320
f 353/395/321 365/408/321 366/409/321 354/396/321
f 354/396/322 366/409/322 367/410/322 355/397/322
f 355/398/323 367/411/323 368/412/323 356/399/323
f 356/399/324 368/412/324 369/413/324 357/400/324
f 357/400/325 369/413/325 370/414/325 358/401/325
f 358/401/326 370/414/326 371/415/326 359/402/326
f 359/402/327 371/415/327 372/416/327 360/403/327
f 360/403/328 372/416/328 361/404/328 349/391/328
f 361/404/329 373/417/329 374/418/329 362/405/329
f 362/405/330 374/418/330 375/419/330 363/406/330
f 363/406/331 375/419/331 376/420/331 364/407/331
f 364/407/332 376/420/332 377/421/332 365/408/332
f 365/408/333 377/421/333 378/422/333 366/409/333
f 366/409/334 378/422/334 379/423/334 367/410/334
f 367/411/335 379/424/335 380/425/335 368/412/335
f 368/412/336 380/425/336 381/426/336 369/413/336
f 369/413/337 381/426/337 382/427/337 370/414/337
f 370/414/338 382/427/338 383/428/338 371/415/338
f 371/415/339 383/428/339 384/429/339 372/416/339
f 372/416/340 384/429/340 373/417/340 361/404/340
f 373/417/341 385/430/341 386/431/341 374/418/341
f 374/418/342 386/431/342 387/432/342 375/419/342
f 375/419/343 387/432/343 388/433/343 376/420/343
f 376/420/344 388/433/344 389/434/344 377/421/344
f 377/421/345 389/434/345 390/435/345 378/422/345
f 378/422/346 390/435/346 391/436/346 379/423/346
f 379/424/347 391/437/347 392/438/347 380/425/347
f 380/425/348 392/438/348 393/439/348 381/426/348
f 381/426/349 393/439/349 394/440/349 382/427/349
f 382/427/350 394/440/350 395/441/350 383/428/350
f 383/428/351 395/441/351 396/442/351 384/429/351
f 384/429/352 396/442/352 385/430/352 373/417/352
f 385/430/353 397/443/353 398/444/353 386/431/353
f 386/431/354 398/444/354 399/445/354 387/432/354
f 387/432/355 399/445/355 400/446/355 388/433/355
f 388/433/356 400/446/356 401/447/356 389/434/356
f 389/434/357 401/447/357 402/448/357 390/435/357
f 390/435/358 402/448/358 403/449/358 391/436/358
f 391/437/359 403/450/359 404/451/359 392/438/359
f 392/438/360 404/451/360 405/452/360 393/439/360
f 393/439/361 405/452/361 406/453/361 394/440/361
f 394/440/362 406/453/362 407/454/362 395/441/362
f 395/441/363 407/454/363 408/455/363 396/442/363
f 396/442/364 408/455/364 397/443/364 385/430/364
f 397/443/365 409/456/365 410/457/365 398/444/365
f 398/444/366 410/457/366 411/458/366 399/445/366
f 399/445/367 411/458/367 412/459/367 400/446/367
f 400/446/368 412/459/368 413/460/368 401/447/368
f 401/447/369 413/460/369 414/461/369 402/448/369
f 402/448/370 414/461/370 415/462/370 403/449/370
f 403/450/371 415/463/371 416/464/371 404/451/371
f 404/451/372 416/464/372 417/465/372 405/452/372
f 405/452/373 417/465/373 418/466/373 406/453/373
f 406/453/374 418/466/374 419/467/374 407/454/374
f 407/454/375 419/467/375 420/468/375 408/455/375
f 408/455/376 420/468/376 409/456/376 397/443/376
f 409/456/377 421/469/377 422/470/377 410/457/377
f 410/457/378 422/470/378 423/471/378 411/458/378
f 411/458/379 423/471/379 424/472/379 412/459/379
f 412/459/380 424/472/380 425/473/380 413/460/380
f 413/460/381 425/473/381 426/474/381 414/461/381
f 414/461/382 426/474/382 427/475/382 415/462/382
f 415/463/383 427/476/383 428/477/383 416/464/383
f 416/464/384 428/477/384 429/478/384 417/465/384
f 417/465/385 429/478/385 430/479/385 418/466/385
f 418/466/386 430/479/386 431/480/386 419/467/386
f 419/467/387 431/480/387 432/481/387 420/468/387
f 420/468/388 432/481/388 421/469/388 409/456/388
f 421/469/389 433/482/389 434/483/389 422/470/389
f 422/470/390 434/483/390 435/484/390 423/471/390
f 423/471/391 435/484/391 436/485/391 424/472/391
f 424/472/392 436/485/392 437/486/392 425/473/392
f 425/473/393 437/486/393 438/487/393 426/474/393
f 426/474/394 438/487/394 439/488/394 427/475/394
f 427/476/395 439/489/395 440/490/395 428/477/395
f 428/477/396 440/490/396 441/491/396 429/478/396
f 429/478/397 441/491/397 442/492/397 430/479/397
f 430/479/398 442/492/398 443/493/398 431/480/398
f 431/480/399 443/493/399 444/494/399 432/481/399
f 432/481/400 444/494/400 433/482/400 421/469/400
f 433/482/401 445/495/401 446/496/401 434/483/401
f 434/483/402 446/496/402 447/497/402 435/484/402
f 435/484/403 447/497/403 448/498/403 436/485/403
f 436/485/404 448/498/404 449/499/404 437/486/404
f 437/486/405 449/499/405 450/500/405 438/487/405
f 438/487/406 450/500/406 451/501/406 439/488/406
f 439/489/407 451/502/407 452/503/407 440/490/407
f 440/490/408 452/503/408 453/504/408 441/491/408
f 441/491/409 453/504/409 454/505/409 442/492/409
f 442/492/410 454/505/410 455/506/410 443/493/410
f 443/493/411 455/506/411 456/507/411 444/494/411
f 444/494/412 456/507/412 445/495/412 433/482/412
f 445/495/413 457/508/413 458/509/413 446/496/413
f 446/496/414 458/509/414 459/510/414 447/497/414
f 447/497/415 459/510/415 460/511/415 448/498/415
f 448/498/416 460/511/416 461/512/416 449/499/416
f 449/499/417 461/512/417 462/513/417 450/500/417
f 450/500/418 462/513/418 463/514/418 451/501/418
f 451/502/419 463/515/419 464/516/419 452/503/419
f 452/503/420 464/516/420 465/517/420 453/504/420
f 453/504/421 465/517/421 466/518/421 454/505/421
f 454/505/422 466/518/422 467/519/422 455/506/422
f 455/506/423 467/519/423 468/520/423 456/507/423
f 456/507/424 468/520/424 457/508/424 445/495/424
f 457/508/425 469/521/425 470/522/425 458/509/425
f 458/509/426 470/522/426 471/523/426 459/510/426
f 459/510/427 471/523/427 472/524/427 460/511/427
f 460/511/428 472/524/428 473/525/428 461/512/428
f 461/512/429 473/525/429 474/526/429 462/513/429
f 462/513/430 474/526/430 475/527/430 463/514/430
f 463/515/431 475/528/431 476/529/431 464/516/431
f 464/516/432 476/529/432 477/530/432 465/517/432
f 465/517/433 477/530/433 478/531/433 466/518/433
f 466/518/434 478/531/434 479/532/434 467/519/434
f 467/519/435 479/532/435 480/533/435 468/520/435
f 468/520/436 480/533/436 469/521/436 457/508/436
f 469/521/437 481/534/437 482/535/437 470/522/437
f 470/522/438 482/535/438 483/536/438 471/523/438
f 471/523/439 483/536/439 484/537/439 472/524/439
f 472/524/440 484/537/440 485/538/440 473/525/440
f 473/525/441 485/538/441 486/539/441 474/526/441
f 474/526/442 486/539/442 487/540/442 475/527/442
f 475/528/443 487/541/443 488/542/443 476/529/443
f 476/529/444 488/542/444 489/543/444 477/530/444
f 477/530/445 489/543/445 490/544/445 478/531/445
f 478/531/446 490/544/446 491/545/446 479/532/446
f 479/532/447 491/545/447 492/546/447 480/533/447
f 480/533/448 492/546/448 481/534/448 469/521/448
f 481/534/449 493/547/449 494/548/449 482/535/449
f 482/535/450 494/548/450 495/549/450 483/536/450
f 483/536/451 495/549/451 496/550/451 484/537/451
f 484/537/452 496/550/452 497/551/452 485/538/452
f 485/538/453 497/551/453 498/552/453 486/539/453
f 486/539/454 498/552/454 499/553/454 487/540/454
f 487/541/455 499/554/455 500/555/455 488/542/455
f 488/542/456 500/555/456 501/556/456 489/543/456
f 489/543/457 501/556/457 502/557/457 490/544/457
f 490/544/458 502/557/458 503/558/458 491/545/458
f 491/545/459 503/558/459 504/559/459 492/546/459
f 492/546/460 504/559/460 493/547/460 481/534/460
f 493/547/461 505/560/461 506/561/461 494/548/461
f 494/548/462 506/561/462 507/562/462 495/549/462
f 495/549/463 507/562/463 508/563/463 496/550/463
f 496/550/464 508/563/464 509/564/464 497/551/464
f 497/551/465 509/564/465 510/565/465 498/552/465
f 498/552/466 510/565/466 511/566/466 499/553/466
f 499/554/467 511/567/467 512/568/467 500/555/467
f 500/555/468 512/568/468 513/569/468 501/556/468
f 501/556/469 513/569/469 514/570/469 502/557/469
f 502/557/470 514/570/470 515/571/470 503/558/470
f 503/558/471 515/571/471 516/572/471 504/559/471
f 504/559/472 516/572/472 505/560/472 493/547/472
f 505/560/473 517/573/473 518/574/473 506/561/473
f 506/561/474 518/574/474 519/575/474 507/562/474
f 507/562/475 519/575/475 520/576/475 508/563/475
f 508/563/476 520/576/476 521/577/476 509/564/476
f 509/564/477 521/577/477 522/578/477 510/565/477
f 510/565/478 522/578/478 523/579/478 511/566/478
f 511/567/479 523/580/479 524/581/479 512/568/479
f 512/568/480 524/581/480 525/582/480 513/569/480
f 513/569/481 525/582/481 526/583/481 514/570/481
f 514/570/482 526/583/482 527/584/482 515/571/482
f 515/571/483 527/584/483 528/585/483 516/572/483
f 516/572/484 528/585/484 517/573/484 505/560/484
f 517/573/485 529/586/485 530/587/485 518/574/485
f 518/574/486 530/587/486 531/588/486 519/575/486
f 519/575/487 531/588/487 532/589/487 520/576/487
f 520/576/488 532/589/488 533/590/488 521/577/488
f 521/577/489 533/590/489 534/591/489 522/578/489
f 522/578/490 534/591/490 535/592/490 523/579/490
f 523/580/491 535/593/491 536/594/491 524/581/491
f 524/581/492 536/594/492 537/595/492 525/582/492
f 525/582/493 537/595/493 538/596/493 526/583/493
f 526/583/494 538/596/494 539/597/494 527/584/494
f 527/584/495 539/597/495 540/598/495 528/585/495
f 528/585/496 540/598/496 529/586/496 517/573/496
f 529/586/497 541/599/497 542/600/497 530/587/497
f 530/587/498 542/600/498 543/601/498 531/588/498
f 531/588/499 543/601/499 544/602/499 532/589/499
f 532/589/500 544/602/500 545/603/500 533/590/500
f 533/590/501 545/603/501 546/604/501 534/591/501
f 534/591/502 546/604/502 547/605/502 535/592/502
f 535/593/503 547/606/503 548/607/503 536/594/503
f 536/594/504 548/607/504 549/608/504 537/595/504
f 537/595/505 549/608/505 550/609/505 538/596/505
f 538/596/506 550/609/506 551/610/506 539/597/506
f 539/597/507 551/610/507 552/611/507 540/598/507
f 540/598/508 552/611/508 541/599/508 529/586/508
f 541/599/258 553/612/258 554/613/258 542/600/258
f 542/600/257 554/613/257 555/614/257 543/601/257
f 543/601/256 555/614/256 556/615/256 544/602/256
f 544/602/255 556/615/255 557/616/255 545/603/255
f 545/603/509 557/616/509 558/617/509 546/604/509
f 546/604/253 558/617/253 559/618/253 547/605/253
f 547/606/264 559/619/264 560/620/264 548/607/264
f 548/607/510 560/620/510 561/621/510 549/608/510
f 549/608/262 561/621/262 562/622/262 550/609/262
f 550/609/261 562/622/261 563/623/261 551/610/261
f 551/610/260 563/623/260 564/624/260 552/611/260
f 552/611/259 564/624/259 553/612/259 541/599/259
f 553/612/270 565/625/270 566/626/270 554/613/270
f 554/613/269 566/626/269 567/627/269 555/614/269
f 555/614/268 567/627/268 568/628/268 556/615/268
f 556/615/267 568/628/267 569/629/267 557/616/267
f 557/616/266 569/629/266 570/630/266 558/617/266
f 558/617/265 570/630/265 571/631/265 559/618/265
f 559/619/276 571/632/276 572/633/276 560/620/276
f 560/620/275 572/633/275 573/634/275 561/621/275
f 561/621/274 573/634/274 574/635/274 562/622/274
f 562/622/273 574/635/273 575/636/273 563/623/273
f 563/623/272 575/636/272 576/637/272 564/624/272
f 564/624/271 576/637/271 565/625/271 553/612/271
f 565/625/282 1/1/282 2/4/282 566/626/282
f 566/626/281 2/4/281 3/6/281 567/627/281
f 567/627/280 3/6/280 4/8/280 568/628/280
f 568/628/279 4/8/279 5/10/279 569/629/279
f 569/629/511 5/10/511 6/12/511 570/630/511
f 570/630/277 6/12/277 7/14/277 571/631/277
f 571/632/288 7/15/288 8/18/288 572/633/288
f 572/633/512 8/18/512 9/20/512 573/634/512
f 573/634/286 9/20/286 10/22/286 574/635/286
f 574/635/285 10/22/285 11/24/285 575/636/285
f 575/636/284 11/24/284 12/26/284 576/637/284
f 576/637/283 12/26/283 1/1/283 565/625/283
