{
	"asset":{
		"generator":"Khronos glTF Blender I/O v5.1.18",
		"version":"2.0"
	},
	"scene":0,
	"scenes":[
		{
			"name":"Scene",
			"nodes":[
				0
			]
		}
	],
	"nodes":[
		{
			"mesh":0,
			"name":"col_middle_phalanx"
		}
	],
	"materials":[
		{
			"doubleSided":true,
			"name":"Collision",
			"pbrMetallicRoughness":{
				"baseColorFactor":[
					1,
					0,
					0,
					1
				],
				"metallicFactor":0,
				"roughnessFactor":0.5
			}
		}
	],
	"meshes":[
		{
			"name":"V4_Assem.101",
			"primitives":[
				{
					"attributes":{
						"POSITION":0,
						"NORMAL":1
					},
					"indices":2,
					"material":0
				}
			]
		}
	],
	"accessors":[
		{
			"bufferView":0,
			"componentType":5126,
			"count":758,
			"max":[
				0.051990605890750885,
				0.011999808251857758,
				0.014850519597530365
			],
			"min":[
				-0.012042976915836334,
				-0.014391586184501648,
				-0.015223215334117413
			],
			"type":"VEC3"
		},
		{
			"bufferView":1,
			"componentType":5126,
			"count":758,
			"type":"VEC3"
		},
		{
			"bufferView":2,
			"componentType":5123,
			"count":1308,
			"type":"SCALAR"
		}
	],
	"bufferViews":[
		{
			"buffer":0,
			"byteLength":9096,
			"byteOffset":0,
			"target":34962
		},
		{
			"buffer":0,
			"byteLength":9096,
			"byteOffset":9096,
			"target":34962
		},
		{
			"buffer":0,
			"byteLength":2616,
			"byteOffset":18192,
			"target":34963
		}
	],
	"buffers":[
		{
			"byteLength":20808,
			"uri":"col_middle_phalanx.bin"
		}
	]
}
