# Blender 5.1.0
# www.blender.org
o col_middle_phalanx
v 0.029012 0.015149 0.006959
v -0.005417 0.014677 -0.005815
v 0.029425 0.015155 0.007087
v 0.030266 0.014167 0.008206
v 0.030282 0.015167 0.007206
v 0.030807 0.014174 0.008193
v 0.031144 0.015179 0.007138
v 0.031972 0.015190 0.006887
v 0.032378 0.014196 0.007806
v 0.032864 0.014202 0.007567
v 0.032725 0.015200 0.006463
v 0.033371 0.015209 0.005887
v 0.034221 0.015221 0.004392
v 0.034365 0.015223 0.002678
v 0.034284 0.015222 0.002253
v 0.033988 0.015218 0.001440
v 0.033524 0.015211 0.000710
v 0.032914 0.015203 0.000097
v 0.032187 0.015193 -0.000371
v -0.002242 0.014721 -0.013145
v -0.003081 0.014709 -0.013356
v -0.003512 0.014703 -0.013392
v -0.003469 0.013704 -0.014392
v -0.004010 0.013696 -0.014378
v -0.004547 0.013689 -0.014307
v -0.004375 0.014691 -0.013324
v -0.004795 0.014686 -0.013221
v -0.005591 0.014675 -0.012881
v -0.006524 0.013662 -0.013462
v -0.006946 0.013656 -0.013124
v -0.006294 0.014665 -0.012378
v -0.007330 0.013651 -0.012742
v -0.006601 0.014661 -0.012072
v -0.007670 0.013646 -0.012321
v -0.007963 0.013642 -0.011866
v -0.007108 0.014654 -0.011371
v -0.008205 0.013639 -0.011381
v -0.008393 0.013636 -0.010874
v -0.008525 0.013634 -0.010348
v -0.007451 0.014649 -0.010578
v -0.007557 0.014648 -0.010158
v -0.008599 0.013633 -0.009812
v -0.008615 0.013633 -0.009271
v -0.008573 0.013634 -0.008731
v -0.008472 0.013635 -0.008199
v -0.007515 0.014648 -0.008438
v -0.008314 0.013637 -0.007681
v -0.008102 0.013640 -0.007184
v -0.007837 0.013644 -0.006712
v -0.006466 0.014663 -0.006573
v -0.006145 0.014667 -0.006283
v -0.007219 0.014652 -0.007626
v -0.007629 0.014647 -0.009296
v -0.006067 0.013668 -0.013753
v -0.005581 0.013675 -0.013992
v -0.005073 0.013682 -0.014177
v -0.002930 0.013711 -0.014346
v 0.034386 0.015223 0.003543
v 0.033877 0.015216 0.005186
v 0.031869 0.014189 0.007992
v 0.031344 0.014181 0.008121
v -0.002021 -0.013779 -0.014243
v -0.002251 -0.014782 -0.013273
v -0.003108 -0.014794 -0.013392
v -0.002552 -0.013786 -0.014346
v -0.003092 -0.013794 -0.014392
v -0.003633 -0.013801 -0.014378
v -0.004170 -0.013809 -0.014307
v -0.003970 -0.014806 -0.013324
v -0.004797 -0.014817 -0.013072
v -0.004695 -0.013816 -0.014177
v -0.005204 -0.013823 -0.013992
v -0.005551 -0.014828 -0.012648
v -0.006146 -0.013836 -0.013462
v -0.005689 -0.013829 -0.013753
v -0.006196 -0.014836 -0.012072
v -0.006953 -0.013847 -0.012742
v -0.006569 -0.013841 -0.013124
v -0.007293 -0.013851 -0.012321
v -0.007586 -0.013855 -0.011866
v -0.006703 -0.014843 -0.011371
v -0.006896 -0.014846 -0.010984
v -0.007827 -0.013859 -0.011381
v -0.007152 -0.014850 -0.010158
v -0.007225 -0.014851 -0.009296
v -0.008222 -0.013864 -0.009812
v -0.008147 -0.013863 -0.010348
v -0.007191 -0.014850 -0.008864
v -0.008195 -0.013864 -0.008731
v -0.008238 -0.013864 -0.009271
v -0.008095 -0.013862 -0.008199
v -0.007937 -0.013860 -0.007681
v -0.006984 -0.014847 -0.008024
v -0.006602 -0.014842 -0.007248
v -0.007724 -0.013857 -0.007184
v -0.007459 -0.013854 -0.006712
v -0.006062 -0.014835 -0.006573
v -0.006784 -0.013844 -0.005867
v -0.007145 -0.013849 -0.006271
v -0.005389 -0.014825 -0.006029
v -0.006382 -0.013839 -0.005505
v -0.004615 -0.014815 -0.005643
v 0.030255 -0.014336 0.007170
v 0.031120 -0.014324 0.007196
v 0.030643 -0.013331 0.008206
v 0.030104 -0.013338 0.008161
v 0.031969 -0.014313 0.007035
v 0.032765 -0.014302 0.006695
v 0.032755 -0.013302 0.007806
v 0.032247 -0.013309 0.007992
v 0.031721 -0.013316 0.008121
v 0.033468 -0.014292 0.006192
v 0.034048 -0.014284 0.005550
v 0.034121 -0.013283 0.006938
v 0.033698 -0.013289 0.007277
v 0.034475 -0.014278 0.004798
v 0.034626 -0.014276 0.004392
v 0.034791 -0.014274 0.003543
v 0.034770 -0.014274 0.002678
v 0.034689 -0.014275 0.002253
v 0.034393 -0.014279 0.001440
v 0.033929 -0.014286 0.000710
v 0.033319 -0.014294 0.000097
v 0.032591 -0.014304 -0.000371
v 0.033241 -0.013295 0.007567
v 0.031185 -0.013323 0.008193
v -0.011841 -0.000913 -0.001876
v -0.011569 -0.000909 -0.003146
v -0.011974 -0.000914 -0.000584
v -0.011910 0.004087 -0.001876
v -0.011637 0.004091 -0.003146
v -0.011967 -0.000914 0.000716
v -0.011820 -0.000912 0.002007
v -0.011888 0.004087 0.002007
v -0.011602 0.004091 0.003274
v -0.012036 0.004085 0.000716
v -0.011533 -0.000908 0.003274
v -0.012043 0.004085 -0.000584
v -0.011229 0.004096 -0.004380
v 0.041169 0.004815 -0.012157
v 0.042452 0.004833 -0.011954
v 0.041237 -0.000184 -0.012157
v 0.042521 -0.000167 -0.011954
v 0.043706 0.004850 -0.011614
v 0.044915 0.004867 -0.011139
v 0.046067 0.004883 -0.010537
v 0.044984 -0.000133 -0.011139
v 0.043774 -0.000149 -0.011614
v 0.046135 -0.000117 -0.010537
v 0.047215 -0.000102 -0.009814
v 0.047146 0.004897 -0.009814
v 0.048141 0.004911 -0.008978
v 0.048209 -0.000089 -0.008978
v 0.049039 0.004923 -0.008040
v 0.049831 0.004934 -0.007010
v 0.049108 -0.000076 -0.008040
v 0.049900 -0.000065 -0.007010
v 0.050507 0.004943 -0.005900
v 0.051059 0.004951 -0.004724
v 0.050576 -0.000056 -0.005900
v 0.051128 -0.000049 -0.004724
v 0.051481 0.004957 -0.003495
v 0.051550 -0.000043 -0.003495
v 0.051767 0.004961 -0.002227
v 0.051915 0.004963 -0.000936
v 0.051922 0.004963 0.000363
v 0.051983 -0.000037 -0.000936
v 0.051836 -0.000039 -0.002227
v 0.051991 -0.000037 0.000363
v 0.051789 0.004961 0.001655
v 0.051857 -0.000039 0.001655
v 0.051516 0.004957 0.002926
v 0.051108 0.004952 0.004159
v 0.050569 0.004944 0.005342
v 0.051177 -0.000048 0.004159
v 0.051585 -0.000042 0.002926
v 0.050638 -0.000055 0.005342
v 0.049906 0.004935 0.006459
v 0.049974 -0.000064 0.006459
v 0.049125 0.004924 0.007497
v 0.048237 0.004912 0.008446
v 0.047251 0.004899 0.009292
v 0.048305 -0.000087 0.008446
v 0.049194 -0.000075 0.007497
v 0.047320 -0.000101 0.009292
v 0.046180 0.004884 0.010027
v 0.046249 -0.000115 0.010027
v 0.045036 0.004868 0.010642
v 0.043831 0.004852 0.011130
v 0.042581 0.004835 0.011484
v 0.043900 -0.000148 0.011130
v 0.045104 -0.000131 0.010642
v 0.042650 -0.000165 0.011484
v 0.041300 0.004817 0.011702
v 0.041369 -0.000182 0.011702
v 0.000008 0.004251 0.012000
v 0.040072 -0.000200 0.011779
v 0.000077 -0.000749 0.012000
v -0.001290 0.004233 0.011937
v -0.002573 0.004215 0.011733
v -0.003827 0.004198 0.011393
v -0.005036 0.004181 0.010919
v -0.003758 -0.000802 0.011393
v -0.002504 -0.000784 0.011733
v -0.001221 -0.000767 0.011937
v -0.004968 -0.000818 0.010919
v -0.006119 -0.000834 0.010316
v -0.006188 0.004165 0.010316
v -0.007267 0.004151 0.009593
v -0.008262 0.004137 0.008757
v -0.007198 -0.000849 0.009593
v -0.008193 -0.000862 0.008757
v -0.009160 0.004125 0.007819
v -0.009952 0.004114 0.006789
v -0.009092 -0.000875 0.007819
v -0.009884 -0.000886 0.006789
v -0.010628 0.004105 0.005679
v -0.010560 -0.000895 0.005679
v -0.011112 -0.000903 0.004503
v -0.011180 0.004097 0.004503
vn -0.7777 -0.0107 -0.6285
vn -0.9458 -0.0130 0.3245
vn 0.5733 -0.6740 0.4660
vn -0.8486 0.4971 0.1810
vn -0.5087 0.6997 -0.5016
vn -0.2388 -0.0033 -0.9711
vn -0.7221 -0.0099 0.6917
vn 0.1672 0.0023 0.9859
vn 0.3539 -0.7438 -0.5670
vn -0.1325 -0.0018 -0.9912
vn 0.4635 0.0064 -0.8861
vn 0.3514 0.8553 -0.3808
vn -0.5396 -0.7182 0.4393
vn -0.9999 -0.0137 0.0055
vn -0.6706 0.7016 0.2409
vn -0.9029 0.4197 0.0932
vn -0.3424 -0.0047 -0.9395
vn 0.2196 -0.5878 -0.7786
vn -0.8539 -0.0117 0.5203
vn 0.9999 0.0137 -0.0055
vn 0.5251 -0.7774 -0.3463
vn 0.9753 0.0134 -0.2204
vn -0.0455 -0.7115 -0.7013
vn 0.7221 0.0099 -0.6917
vn 0.2934 0.6202 0.7275
vn 0.2753 0.8369 -0.4731
vn -0.0137 0.9999 -0.0000
vn -0.3349 -0.7154 -0.6132
vn 0.1950 0.7135 0.6730
vn 0.4881 0.8685 -0.0862
vn -0.5800 0.7029 -0.4118
vn -0.2861 0.7069 -0.6469
vn -0.6957 -0.7162 0.0556
vn -0.9425 0.3342 -0.0045
vn -0.6045 -0.6259 0.4928
vn 0.4759 -0.5911 0.6512
vn 0.5154 -0.6214 0.5901
vn -0.9493 0.0772 -0.3046
vn 0.1740 0.7044 -0.6882
vn 0.5566 0.0076 -0.8308
vn -0.2622 -0.0036 0.9650
vn 0.5140 0.8475 0.1325
vn 0.9934 0.0136 -0.1136
vn -0.9335 -0.0381 -0.3565
vn 0.8596 0.0118 0.5108
vn 0.9777 0.0134 0.2096
vn 0.4567 0.8702 -0.1849
vn 0.9493 0.0130 0.3141
vn -0.5566 -0.0076 0.8308
vn 0.4742 0.7881 0.3924
vn 0.0486 0.0007 -0.9988
vn -0.0651 0.7099 -0.7013
vn 0.4497 -0.7653 -0.4606
vn -0.6234 -0.7152 -0.3160
vn 0.2861 -0.7069 0.6469
vn -0.6959 0.6971 -0.1725
vn 0.0054 0.0067 1.0000
vn -0.9753 -0.0134 0.2204
vn -0.6807 -0.5855 0.4402
vn 0.5069 0.8618 0.0158
vn 0.7297 0.0100 0.6837
vn 0.6431 0.0088 -0.7657
vn 0.4111 0.8660 -0.2848
vn -0.0492 0.4843 0.8735
vn 0.5045 0.8240 0.2579
vn 0.2512 -0.7149 -0.6525
vn -0.0111 -0.7110 0.7031
vn 0.1405 -0.7089 0.6912
vn 0.7993 0.0110 0.6008
vn -0.7927 -0.0109 0.6096
vn -0.6677 -0.7143 -0.2099
vn 0.7927 0.0109 -0.6096
vn 0.9052 0.0124 -0.4249
vn -0.1228 -0.5534 0.8238
vn -0.9777 -0.0134 -0.2096
vn -0.6994 0.6333 0.3315
vn 0.6192 -0.7782 -0.1049
vn -0.3688 0.7868 0.4949
vn 0.0805 0.1570 -0.9843
vn 0.1339 0.4462 -0.8848
vn 0.0495 0.7073 -0.7051
vn 0.0021 0.3524 0.9358
vn -0.8411 -0.0115 -0.5407
vn -0.6212 -0.7194 0.3109
vn -0.1793 0.7799 0.5997
vn 0.6120 -0.7084 0.3517
vn 0.4310 0.7473 0.5058
vn 0.8539 0.0117 -0.5203
vn -0.1563 -0.0021 0.9877
vn 0.1563 0.0021 -0.9877
vn -0.3039 -0.7306 0.6114
vn -0.9934 -0.0136 0.1136
vn 0.6515 0.0089 0.7586
vn -0.2182 -0.7440 0.6316
vn -0.4735 0.7510 0.4602
vn -0.5265 -0.6604 0.5355
vn 0.6395 -0.7686 0.0191
vn 0.5818 -0.7815 -0.2254
vn -0.6911 -0.7203 -0.0589
vn 0.1065 -0.7094 -0.6967
vn -0.7052 -0.0097 -0.7089
vn 0.6305 -0.7279 0.2693
vn -0.9637 0.2435 -0.1091
vn -0.6431 -0.0088 0.7657
vn -0.5830 0.7042 0.4053
vn 0.1778 -0.4333 -0.8835
vn 0.1516 -0.3387 -0.9286
vn 0.9098 0.0125 0.4149
vn -0.7107 0.7011 -0.0589
vn 0.3650 0.0050 -0.9310
vn -0.4635 -0.0064 0.8861
vn -0.6245 -0.0086 -0.7810
vn 0.9458 0.0130 -0.3245
vn -0.3650 -0.0050 0.9310
vn 0.3752 0.0051 0.9269
vn 0.6426 -0.7495 0.1594
vn -0.1950 -0.7135 -0.6730
vn -0.9654 0.1591 -0.2064
vn 0.2622 0.0036 -0.9650
vn -0.7838 0.5652 0.2573
vn 0.1320 0.4734 0.8709
vn 0.2728 0.0037 0.9621
vn 0.2688 -0.4421 0.8558
vn -0.9702 -0.1546 -0.1866
vn 0.2132 0.5465 0.8099
vn -0.9096 -0.0125 -0.4153
vn 0.9946 0.0136 0.1026
vn 0.4186 -0.7051 0.5724
vn 0.3742 0.6986 0.6099
vn 0.4732 0.0065 0.8809
vn -0.9551 -0.2951 0.0259
vn -0.9712 -0.2249 -0.0794
vn -0.8195 -0.4861 0.3035
vn -0.7532 -0.5390 0.3771
vn 0.0455 0.7115 0.7013
vn -0.5605 -0.7185 -0.4118
vn -0.1787 0.7042 -0.6871
vn -0.6552 0.7018 -0.2796
vn 0.0137 -0.9999 -0.0000
vn 0.0847 -0.1134 -0.9899
vn -0.5364 -0.0074 -0.8440
vn -0.4186 0.7051 -0.5724
vn -0.7069 0.7011 0.0932
vn -0.0487 -0.3959 0.9170
vn -0.9052 -0.0124 0.4249
vn -0.4586 -0.7171 -0.5248
vn 0.4175 -0.5475 0.7252
vn 0.3485 -0.4977 0.7942
vn -0.8771 -0.4272 0.2195
vn 0.1932 0.8127 -0.5497
vn -0.9946 -0.0136 -0.1026
vn 0.0092 -0.2687 0.9632
vn -0.9231 -0.3631 0.1264
vn -0.4148 -0.7014 0.5796
vn -0.1308 0.6868 0.7150
vn 0.0813 -0.3154 0.9455
vn 0.1792 -0.3809 0.9071
vn -0.2081 0.8268 0.5226
vn 0.5657 0.0078 0.8246
vn -0.6733 -0.7201 0.1680
vn -0.4420 -0.0061 -0.8970
s 0
f 34//1 32//1 77//1 79//1
f 137//2 219//2 220//2 135//2
f 113//3 179//3 184//3 183//3 114//3 112//3
f 134//4 135//4 45//4 44//4
f 32//5 33//5 31//5 30//5
f 71//6 56//6 25//6 68//6
f 212//7 210//7 213//7 215//7
f 195//8 193//8 190//8 194//8
f 124//9 147//9 149//9 150//9 123//9
f 68//10 25//10 24//10 67//10
f 147//11 145//11 146//11 149//11
f 152//12 151//12 18//12 17//12 154//12
f 97//13 98//13 99//13 96//13 94//13
f 129//14 132//14 136//14 138//14
f 52//15 46//15 45//15 47//15 48//15
f 134//16 44//16 43//16 136//16
f 71//17 72//17 55//17 56//17
f 62//18 143//18 148//18
f 218//19 216//19 214//19 217//19
f 165//20 166//20 169//20 167//20
f 122//21 156//21 157//21 160//21 121//21
f 162//22 164//22 168//22 163//22
f 69//23 68//23 67//23 66//23 64//23
f 156//24 153//24 152//24 154//24
f 189//25 188//25 10//25 9//25 60//25
f 145//26 19//26 18//26 151//26 146//26
f 40//27 41//27 53//27 46//27 52//27 50//27 51//27 2//27 1//27 3//27 5//27 7//27 8//27 11//27 12//27 59//27 13//27 58//27 14//27 15//27 16//27 17//27 18//27 19//27 20//27 21//27 22//27 26//27 27//27 28//27 31//27 33//27 36//27
f 73//28 74//28 75//28 72//28 70//28
f 61//29 60//29 9//29 8//29 7//29
f 15//30 14//30 165//30 164//30 162//30
f 35//31 36//31 33//31 32//31 34//31
f 28//32 27//32 56//32 55//32 54//32
f 89//33 90//33 85//33 88//33
f 138//34 136//34 43//34 42//34
f 99//35 98//35 215//35 216//35
f 115//36 114//36 185//36 187//36
f 114//37 183//37 185//37
f 131//38 39//38 38//38 37//38 139//38
f 141//39 57//39 21//39 20//39 144//39
f 146//40 151//40 150//40 149//40
f 200//41 201//41 203//41 204//41
f 58//42 13//42 173//42 172//42 170//42
f 164//43 165//43 167//43 168//43
f 139//44 83//44 87//44 128//44 131//44
f 174//45 178//45 179//45 177//45
f 170//46 172//46 176//46 171//46
f 162//47 159//47 158//47 16//47 15//47
f 172//48 173//48 175//48 176//48
f 208//49 209//49 211//49 207//49
f 59//50 12//50 181//50 180//50 178//50
f 142//51 66//51 67//51 24//51 23//51 140//51
f 25//52 26//52 22//52 23//52 24//52
f 123//53 150//53 153//53 156//53 122//53
f 81//54 82//54 83//54 80//54
f 110//55 107//55 108//55 125//55 109//55
f 38//56 39//56 41//56 40//56
f 198//57 197//57 195//57 194//57 196//57 199//57 205//57
f 133//58 137//58 135//58 134//58
f 96//59 99//59 216//59 218//59
f 170//60 166//60 165//60 14//60 58//60
f 180//61 181//61 183//61 184//61
f 153//62 150//62 151//62 152//62
f 155//63 154//63 17//63 16//63 158//63
f 199//64 196//64 4//64
f 178//65 174//65 173//65 13//65 59//65
f 62//66 148//66 147//66 124//66 63//66
f 106//67 103//67 104//67 126//67 105//67
f 126//68 104//68 107//68 110//68 111//68
f 184//69 179//69 178//69 180//69
f 215//70 213//70 214//70 216//70
f 83//71 82//71 84//71 87//71
f 157//72 156//72 154//72 155//72
f 158//73 159//73 161//73 160//73
f 106//74 205//74 204//74
f 130//75 131//75 128//75 127//75
f 217//76 49//76 48//76 47//76 220//76
f 119//77 120//77 163//77 168//77 167//77
f 2//78 51//78 210//78 209//78 208//78
f 57//79 140//79 23//79
f 141//80 140//80 57//80
f 57//81 23//81 22//81 21//81
f 196//82 194//82 6//82 4//82
f 79//83 80//83 35//83 34//83
f 96//84 95//84 92//84 93//84 94//84
f 201//85 200//85 3//85 1//85
f 113//86 116//86 177//86 179//86
f 182//87 181//87 12//87 11//87
f 155//88 158//88 160//88 157//88
f 199//89 200//89 204//89 205//89
f 140//90 141//90 143//90 142//90
f 102//91 206//91 207//91 100//91
f 136//92 132//92 133//92 134//92
f 181//93 182//93 185//93 183//93
f 103//94 106//94 204//94 203//94 206//94 102//94
f 213//95 210//95 51//95 50//95
f 215//96 98//96 101//96 212//96
f 118//97 119//97 167//97 169//97 171//97
f 161//98 163//98 120//98 121//98 160//98
f 87//99 84//99 85//99 90//99 86//99
f 65//100 62//100 63//100 64//100 66//100
f 30//101 78//101 77//101 32//101
f 116//102 117//102 175//102 177//102
f 130//103 138//103 42//103 39//103
f 212//104 211//104 209//104 210//104
f 50//105 52//105 48//105 49//105 217//105 214//105 213//105
f 62//106 65//106 143//106
f 65//107 142//107 143//107
f 175//108 173//108 174//108 177//108
f 53//109 41//109 39//109 42//109 43//109
f 147//110 148//110 144//110 145//110
f 206//111 202//111 208//111 207//111
f 30//112 29//112 74//112 78//112
f 159//113 162//113 163//113 161//113
f 206//114 203//114 201//114 202//114
f 192//115 188//115 189//115 191//115
f 117//116 118//116 171//116 176//116 175//116
f 72//117 71//117 68//117 69//117 70//117
f 131//118 130//118 39//118
f 143//119 141//119 144//119 148//119
f 135//120 220//120 47//120 45//120
f 194//121 190//121 61//121 6//121
f 189//122 190//122 193//122 191//122
f 110//123 109//123 191//123 193//123
f 87//124 86//124 127//124 128//124
f 190//125 189//125 60//125 61//125
f 139//126 37//126 35//126 80//126 83//126
f 171//127 169//127 166//127 170//127
f 112//128 114//128 115//128 125//128 108//128
f 186//129 182//129 11//129 8//129 9//129 10//129 188//129
f 186//130 188//130 192//130 187//130
f 90//131 89//131 132//131 129//131
f 86//132 90//132 129//132 127//132
f 92//133 95//133 219//133 137//133
f 95//134 96//134 218//134 219//134
f 4//135 6//135 61//135 7//135 5//135
f 81//136 80//136 79//136 77//136 76//136
f 25//137 56//137 27//137 26//137
f 38//138 40//138 36//138 35//138 37//138
f 63//139 124//139 123//139 122//139 121//139 120//139 119//139 118//139 117//139 116//139 113//139 112//139 108//139 107//139 104//139 103//139 102//139 100//139 97//139 94//139 93//139 88//139 85//139 84//139 82//139 81//139 76//139 73//139 70//139 69//139 64//139
f 65//140 66//140 142//140
f 29//141 54//141 75//141 74//141
f 54//142 29//142 30//142 31//142 28//142
f 45//143 46//143 53//143 43//143 44//143
f 105//144 198//144 205//144 106//144
f 217//145 220//145 219//145 218//145
f 73//146 76//146 77//146 78//146 74//146
f 125//147 115//147 187//147 192//147
f 109//148 125//148 192//148 191//148
f 91//149 92//149 137//149 133//149
f 145//150 144//150 20//150 19//150
f 138//151 130//151 127//151 129//151
f 198//152 105//152 126//152 197//152
f 89//153 91//153 133//153 132//153
f 100//154 207//154 211//154 212//154 101//154 98//154 97//154
f 3//155 200//155 199//155 4//155 5//155
f 126//156 111//156 195//156 197//156
f 111//157 110//157 193//157 195//157
f 201//158 1//158 2//158 208//158 202//158
f 187//159 185//159 182//159 186//159
f 93//160 92//160 91//160 89//160 88//160
f 55//161 72//161 75//161 54//161
