# Blender 5.1.0
# www.blender.org
o col_distal_phalanx
v 0.000182 -0.008248 0.012500
v 0.000210 -0.010248 0.012500
v 0.000148 -0.011249 0.011500
v 0.031078 -0.010825 -0.007216
v 0.031301 -0.009821 -0.008188
v 0.031790 -0.009815 -0.008042
v 0.031469 -0.010819 -0.007099
v 0.032261 -0.009808 -0.007847
v 0.031846 -0.010814 -0.006944
v 0.032710 -0.009802 -0.007606
v 0.032206 -0.010809 -0.006750
v 0.033132 -0.009796 -0.007319
v 0.032544 -0.010805 -0.006521
v 0.033141 -0.010796 -0.005967
v 0.033523 -0.009791 -0.006992
v 0.033879 -0.009786 -0.006626
v 0.034195 -0.009782 -0.006226
v 0.033394 -0.010793 -0.005646
v 0.034469 -0.009778 -0.005795
v 0.032429 0.010696 -0.007606
v 0.031980 0.010690 -0.007847
v 0.031538 0.011684 -0.006944
v 0.031508 0.010683 -0.008042
v 0.031019 0.010677 -0.008188
v 0.030770 0.011673 -0.007216
v -0.000210 0.010248 -0.012500
v -0.000287 0.011247 -0.011499
v -0.012486 0.010080 -0.001954
v -0.012202 0.010084 -0.003278
v -0.011777 0.010089 -0.004563
v -0.011216 0.010097 -0.005794
v -0.010524 0.010107 -0.006958
v -0.009711 0.010118 -0.008040
v -0.008786 0.010130 -0.009027
v -0.007759 0.010144 -0.009909
v -0.007164 0.011153 -0.009116
v -0.006137 0.011167 -0.009821
v -0.006643 0.010160 -0.010675
v -0.005040 0.011182 -0.010410
v -0.005451 0.010176 -0.011316
v -0.004197 0.010193 -0.011823
v -0.002688 0.011214 -0.011217
v -0.002895 0.010211 -0.012193
v -0.001561 0.010230 -0.012419
v 0.034649 0.010726 0.004479
v 0.033680 0.011713 0.004183
v 0.033841 0.011715 0.003383
v 0.034850 0.010729 0.003480
v 0.035131 -0.009769 0.003480
v 0.034930 -0.009772 0.004479
v 0.035056 -0.009770 0.003984
v 0.034149 -0.010782 0.003383
v 0.033989 -0.010785 0.004183
v 0.033848 -0.010787 0.004566
v 0.033669 -0.010789 0.004932
v 0.033454 -0.010792 0.005279
v 0.034262 -0.009781 0.005849
v 0.033950 -0.009785 0.006253
v 0.033204 -0.010795 0.005602
v 0.033598 -0.009790 0.006623
v 0.032614 -0.010804 0.006163
v 0.032792 -0.009801 0.007246
v 0.032346 -0.009807 0.007492
v 0.031921 -0.010813 0.006593
v 0.031876 -0.009814 0.007692
v 0.031546 -0.010818 0.006753
v 0.031389 -0.009820 0.007843
v 0.031156 -0.010824 0.006874
v 0.033211 -0.009795 0.006955
v 0.031595 0.010684 0.007692
v 0.031108 0.010678 0.007843
v 0.030847 0.011674 0.006874
v 0.030447 0.011669 0.006955
v -0.000072 0.010250 0.012500
v -0.000160 0.011249 0.011500
v 0.033668 0.010713 0.006253
v 0.033317 0.010708 0.006623
v 0.032615 0.011699 0.005898
v 0.032930 0.010703 0.006955
v 0.031970 0.011690 0.006396
v 0.032511 0.010697 0.007246
v 0.032064 0.010691 0.007492
v 0.031237 0.011680 0.006753
v 0.033145 0.011706 0.005279
v 0.033539 0.011711 0.004566
v 0.034473 0.010724 0.004958
v 0.034249 0.010721 0.005416
v 0.033980 0.010717 0.005849
v 0.034531 -0.009777 0.005416
v 0.034754 -0.009774 0.004958
v -0.001423 0.010231 0.012434
v -0.002760 0.010213 0.012222
v -0.000044 0.008250 0.012500
v -0.004066 0.010195 0.011868
v -0.005326 0.010178 0.011374
v -0.006525 0.010161 0.010746
v -0.007650 0.010146 0.009993
v 0.034878 -0.009772 -0.004863
v 0.035010 -0.009771 -0.004370
v 0.033940 -0.010785 -0.004556
v 0.034046 -0.010784 -0.004162
v 0.035090 -0.009769 -0.003866
v 0.034110 -0.010783 -0.003759
v 0.033914 0.010716 -0.006226
v 0.033597 0.010712 -0.006626
v 0.033085 0.011705 -0.005646
v 0.032832 0.011702 -0.005967
v 0.033242 0.010707 -0.006992
v 0.032851 0.010702 -0.007319
v 0.032235 0.011693 -0.006521
v 0.033632 0.011713 -0.004556
v 0.033487 0.011711 -0.004937
v 0.034416 0.010723 -0.005339
v 0.034188 0.010720 -0.005795
v 0.034597 0.010726 -0.004863
v 0.034729 0.010727 -0.004370
v 0.033801 0.011715 -0.003759
v 0.034809 0.010729 -0.003866
v 0.033796 -0.010787 -0.004937
v 0.033613 -0.010790 -0.005302
v 0.034697 -0.009775 -0.005339
v 0.034775 0.010728 0.003984
v 0.000072 -0.010250 -0.012500
v -0.001279 -0.010269 -0.012419
v 0.000021 -0.011251 -0.011499
v -0.002380 -0.011284 -0.011217
v -0.002614 -0.010287 -0.012193
v -0.003916 -0.010305 -0.011823
v -0.005170 -0.010322 -0.011316
v -0.004731 -0.011316 -0.010410
v -0.005828 -0.011331 -0.009821
v -0.006362 -0.010338 -0.010675
v -0.006855 -0.011345 -0.009116
v -0.007478 -0.010354 -0.009909
v -0.008505 -0.010368 -0.009027
v -0.009430 -0.010380 -0.008040
v -0.010934 -0.010401 -0.005794
v -0.011496 -0.010409 -0.004563
v -0.011921 -0.010415 -0.003278
v -0.012205 -0.010418 -0.001954
v -0.007368 -0.010352 0.009993
v -0.006244 -0.010337 0.010746
v -0.005045 -0.010320 0.011374
v -0.003785 -0.010303 0.011868
v -0.002479 -0.010285 0.012222
v -0.001142 -0.010267 0.012434
v -0.010243 -0.010392 -0.006958
v -0.012181 -0.014769 0.005250
v -0.011967 -0.014766 0.005562
v -0.011720 -0.014762 0.005850
v -0.011443 -0.014758 0.006109
v -0.010815 -0.014750 0.006530
v -0.010470 -0.014745 0.006687
v -0.011141 -0.014754 0.006337
v -0.012201 -0.014769 0.001641
v -0.012377 -0.014771 0.001977
v -0.012515 -0.014773 0.002330
v -0.012615 -0.014774 0.002695
v -0.012674 -0.014775 0.003070
v -0.012692 -0.014776 0.003448
v -0.012670 -0.014775 0.003827
v -0.012606 -0.014774 0.004200
v -0.012503 -0.014773 0.004565
v -0.012361 -0.014771 0.004916
v -0.011741 0.014440 0.006193
v -0.012027 0.014436 0.005944
v -0.012284 0.014433 0.005666
v -0.012511 0.014430 0.005362
v -0.012702 0.014427 0.005035
v -0.013090 0.014422 0.003581
v -0.013086 0.014422 0.003202
v -0.013041 0.014422 0.002826
v -0.012955 0.014424 0.002457
v -0.012830 0.014425 0.002099
v -0.012668 0.014428 0.001757
v -0.010746 0.014454 0.006734
v -0.011096 0.014449 0.006590
v -0.011429 0.014445 0.006409
v -0.012858 0.014425 0.004690
v -0.012975 0.014423 0.004329
v -0.013053 0.014422 0.003959
v -0.010194 0.015661 0.005860
v -0.009911 0.015816 0.005759
v -0.010161 0.015812 0.005713
v -0.010405 0.015809 0.005640
v -0.010454 0.015658 0.005782
v -0.010940 0.015651 0.005546
v -0.010862 0.015802 0.005418
v -0.011069 0.015800 0.005271
v -0.011161 0.015648 0.005389
v -0.011431 0.015795 0.004915
v -0.011546 0.015643 0.005010
v -0.011706 0.015640 0.004792
v -0.011841 0.015639 0.004557
v -0.011708 0.015791 0.004489
v -0.008440 0.015836 0.005465
v -0.008905 0.015829 0.005670
v -0.009151 0.015826 0.005733
v -0.009403 0.015822 0.005769
v -0.009657 0.015819 0.005778
v -0.007693 0.015846 0.004785
v -0.007413 0.015850 0.002602
v -0.008584 0.015834 0.001316
v -0.009062 0.015827 0.001145
v -0.010072 0.015813 0.001125
v -0.009566 0.015820 0.001080
v -0.010784 0.015804 0.001393
v -0.010557 0.015807 0.001278
v -0.010997 0.015801 0.001531
v -0.011483 0.015643 0.001774
v -0.011651 0.015641 0.001986
v -0.011194 0.015798 0.001692
v -0.011666 0.015791 0.002288
v -0.011863 0.015789 0.002757
v -0.012005 0.015636 0.002714
v -0.011795 0.015639 0.002215
v -0.011530 0.015793 0.002073
v -0.012103 0.015635 0.003245
v -0.012108 0.015635 0.003516
v -0.011955 0.015787 0.003256
v -0.011960 0.015787 0.003511
v -0.012031 0.015636 0.004051
v -0.011949 0.015637 0.004309
v -0.011887 0.015788 0.004013
v -0.006979 -0.016047 0.002591
v -0.007583 -0.016056 0.005158
v -0.008219 -0.016064 0.005575
v -0.008702 -0.016071 0.005731
v -0.008954 -0.016074 0.005768
v -0.009208 -0.016078 0.005778
v -0.011649 -0.015961 0.003798
v -0.011369 -0.016107 0.004267
v -0.011511 -0.015959 0.004321
v -0.011265 -0.016106 0.004499
v -0.011401 -0.015957 0.004568
v -0.011265 -0.015956 0.004802
v -0.010986 -0.016102 0.004924
v -0.011105 -0.015953 0.005020
v -0.010623 -0.016097 0.005279
v -0.010718 -0.015948 0.005397
v -0.010191 -0.016091 0.005547
v -0.010258 -0.015942 0.005682
v -0.010008 -0.015938 0.005786
v -0.009712 -0.016085 0.005716
v -0.009749 -0.015935 0.005862
v -0.011498 -0.016109 0.003775
v -0.011670 -0.015961 0.003257
v -0.011518 -0.016110 0.003268
v -0.011637 -0.015961 0.002989
v -0.011058 -0.015953 0.001783
v -0.011225 -0.015955 0.001996
v -0.011099 -0.016104 0.002082
v -0.011368 -0.015957 0.002226
v -0.011344 -0.016107 0.002528
v -0.011485 -0.015959 0.002470
v -0.011487 -0.016109 0.003015
v -0.010765 -0.016099 0.001700
v -0.010569 -0.016097 0.001538
v -0.010130 -0.016090 0.001283
v -0.010356 -0.016094 0.001398
v -0.009646 -0.016084 0.001127
v -0.008636 -0.016070 0.001142
v 0.017898 -0.013006 0.007696
v 0.018144 -0.013002 0.007662
v 0.018386 -0.012999 0.007602
v 0.018620 -0.012996 0.007516
v 0.025050 -0.011907 -0.006435
v 0.024541 -0.011914 -0.006674
v 0.024270 -0.011918 -0.006750
v 0.032412 -0.011806 0.002721
v 0.032644 -0.011803 0.002209
v 0.032760 -0.011802 0.001659
v 0.032755 -0.011802 0.001097
v 0.032630 -0.011803 0.000549
v 0.032076 -0.011811 0.003172
vn 0.3816 0.0052 -0.9243
vn -0.2622 -0.0036 0.9650
vn 0.7248 0.0099 0.6889
vn 0.6545 0.7157 0.2438
vn 0.8494 0.0117 0.5276
vn -0.9648 -0.0132 0.2625
vn -0.0137 0.9999 -0.0000
vn 0.3918 0.0054 0.9201
vn 0.6786 0.7197 -0.1465
vn 0.4738 0.0065 -0.8806
vn -0.9493 -0.0130 -0.3141
vn -0.1672 -0.0023 -0.9859
vn 0.1368 0.0019 -0.9906
vn 0.8987 0.0123 0.4384
vn 0.1751 -0.8982 0.4033
vn 0.8435 0.0116 -0.5370
vn 0.6992 0.7149 -0.0039
vn 0.9890 0.0136 0.1471
vn 0.9387 0.0129 0.3445
vn -0.2728 -0.0037 -0.9621
vn -0.3776 0.7020 -0.6039
vn -0.2122 0.7037 0.6780
vn 0.2854 0.0039 -0.9584
vn -0.9098 -0.0125 -0.4149
vn -0.6515 -0.0089 -0.7586
vn -0.2551 0.8517 -0.4577
vn 0.5610 0.0077 -0.8278
vn -0.7993 -0.0110 -0.6008
vn -0.6925 -0.7162 -0.0867
vn -0.5534 -0.1977 0.8091
vn -0.2322 -0.8582 -0.4578
vn 0.4835 0.0066 0.8753
vn -0.8596 -0.0118 -0.5108
vn -0.6817 -0.6498 0.3362
vn 0.0995 0.9950 0.0072
vn 0.6508 0.0089 0.7592
vn 0.0871 0.7075 -0.7014
vn 0.0872 0.9343 0.3456
vn -0.5657 -0.0078 -0.8246
vn -0.6989 -0.7147 0.0282
vn -0.3650 -0.0050 0.9310
vn 0.1069 -0.9887 -0.1053
vn -0.4788 -0.7271 -0.4921
vn -0.9193 0.2466 -0.3066
vn 0.4205 0.7162 0.5570
vn 0.4888 -0.7037 -0.5156
vn 0.6827 -0.6978 -0.2169
vn 0.6997 -0.7008 0.1389
vn 0.3760 -0.7020 -0.6048
vn 0.4945 -0.7036 0.5103
vn -0.4062 0.7748 -0.4844
vn -0.1564 0.8911 -0.4260
vn -0.9712 0.1097 -0.2114
vn -0.0669 0.7195 0.6913
vn 0.2797 -0.9529 -0.1171
vn -0.6303 0.6227 -0.4636
vn 0.1477 0.0020 0.9890
vn -0.6763 -0.7144 0.1798
vn -0.5072 0.6981 0.5053
vn -0.7571 -0.6531 0.0151
vn -0.7772 0.6292 -0.0110
vn -0.4491 0.6337 0.6299
vn -0.7164 0.6329 -0.2937
vn -0.4854 -0.7118 0.5077
vn 0.0920 -0.9637 0.2507
vn 0.7083 -0.6970 -0.1118
vn 0.1349 -0.9567 -0.2581
vn 0.0105 0.7898 0.6133
vn 0.3317 -0.9153 0.2283
vn 0.0792 0.8874 0.4541
vn 0.0941 0.9689 0.2290
vn 0.6802 0.7198 0.1389
vn 0.5695 -0.6989 0.4326
vn 0.6424 0.0088 -0.7663
vn 0.9661 0.0133 -0.2577
vn 0.0313 0.9465 -0.3212
vn 0.6739 -0.6975 0.2438
vn -0.5566 -0.0076 0.8308
vn -0.5963 -0.7305 -0.3328
vn -0.7405 0.5116 -0.4358
vn -0.6367 -0.7154 0.2878
vn -0.4435 0.3336 0.8319
vn 0.5701 0.0078 0.8215
vn -0.3404 0.6380 0.6907
vn -0.3308 0.4692 0.8188
vn -0.5368 -0.6501 0.5378
vn -0.7071 0.6954 -0.1283
vn 0.5647 -0.6990 -0.4388
vn -0.9950 -0.0135 -0.0986
vn 0.7844 0.0108 -0.6201
vn -0.8136 -0.0112 0.5813
vn 0.0954 0.7039 0.7039
vn -0.7405 0.6297 0.2350
vn -0.7630 0.6322 -0.1347
vn -0.6271 0.6312 0.4563
vn 0.4133 -0.8936 0.1752
vn 0.5245 0.7176 0.4582
vn -0.7359 -0.6529 0.1794
vn 0.2458 -0.7038 -0.6665
vn -0.7380 -0.5194 -0.4308
vn -0.1323 -0.8949 -0.4262
vn 0.5453 0.7142 -0.4388
vn 0.1065 -0.7048 -0.7014
vn 0.7171 0.0098 -0.6969
vn -0.3752 -0.0051 -0.9269
vn 0.8938 0.0123 -0.4483
vn 0.2960 0.0041 0.9552
vn -0.4732 -0.0065 -0.8809
vn -0.8387 0.3865 -0.3835
vn 0.0728 -0.9032 0.4229
vn -0.9732 -0.1185 -0.1969
vn -0.2159 -0.7213 -0.6581
vn -0.6840 -0.0092 0.7294
vn -0.5435 0.6352 0.5487
vn -0.9195 -0.0126 0.3928
vn 0.0840 0.9927 -0.0868
vn -0.3126 -0.8223 -0.4754
vn -0.0900 0.7160 -0.6923
vn 0.6025 0.7187 -0.3472
vn -0.5509 0.1927 0.8120
vn 0.9689 0.0133 0.2470
vn 0.1290 -0.0000 -0.9916
vn 0.9348 0.0128 -0.3548
vn -0.5680 -0.7301 0.3798
vn 0.6063 0.7187 0.3404
vn -0.7460 -0.0102 0.6659
vn -0.0486 -0.0007 0.9988
vn 0.7185 -0.6955 -0.0039
vn 0.3549 0.7153 -0.6020
vn 0.4693 0.7169 -0.5156
vn -0.4635 -0.0064 0.8861
vn -0.0596 -0.0008 -0.9982
vn -0.3893 -0.7832 -0.4849
vn -0.1563 -0.0021 0.9877
vn -0.7297 -0.0100 -0.6837
vn -0.3198 0.7007 0.6377
vn -0.4085 -0.6484 0.6425
vn 0.5032 -0.8583 0.1009
vn 0.3891 -0.9175 -0.0826
vn -0.7665 0.6322 0.1132
vn -0.3000 -0.6440 0.7037
vn -0.6771 -0.6492 -0.3465
vn -0.1558 0.6538 0.7405
vn -0.1823 -0.6210 0.7623
vn -0.2189 0.5918 0.7758
vn -0.0703 -0.7182 -0.6923
vn 0.1997 0.7095 0.6759
vn -0.9968 -0.0137 0.0786
vn -0.8717 -0.0120 0.4899
vn 0.3810 -0.7052 0.5979
vn 0.2869 -0.7028 0.6510
vn 0.6247 -0.6986 -0.3488
vn 0.6286 -0.6985 0.3420
vn 0.2987 0.7145 0.6327
vn -0.8412 -0.3906 -0.3739
vn 0.1221 -0.9189 -0.3751
vn 0.1091 -0.9913 0.0743
vn -0.6708 -0.7143 -0.1996
vn 0.1789 -0.9425 0.2822
vn -0.6088 0.6983 -0.3765
vn -0.2356 0.7151 -0.6581
vn -0.7115 0.6953 0.1011
vn -0.6632 0.6960 -0.2752
vn -0.4430 -0.3354 0.8314
vn 0.1253 -0.6165 0.7773
vn 0.0137 -0.9999 -0.0000
vn 0.0333 -0.9412 -0.3363
vn -0.0666 -0.7083 0.7028
vn 0.0984 0.9879 0.1198
vn 0.7912 0.0109 0.6115
vn -0.4180 0.7009 0.5779
vn -0.3582 -0.7121 -0.6039
vn 0.1069 -0.9940 0.0208
vn -0.7218 -0.6527 -0.2302
vn -0.9777 -0.0134 -0.2096
vn -0.9219 -0.2525 -0.2940
vn -0.6572 0.7133 0.2435
vn -0.7171 0.6968 -0.0137
vn 0.1657 -0.7643 0.6232
vn 0.1722 -0.8375 0.5186
vn 0.6518 0.7157 -0.2511
vn 0.2253 0.7135 -0.6634
vn 0.0591 0.9772 -0.2038
vn 0.0485 -0.8007 0.5970
vn -0.6186 -0.6484 0.4438
vn -0.6092 -0.6426 -0.4647
vn 0.5938 -0.8046 -0.0033
vn -0.6924 0.6309 0.3501
vn -0.2204 -0.7254 0.6521
vn 0.9873 0.0135 -0.1580
vn -0.3647 -0.7101 0.6023
vn -0.7518 -0.6502 -0.1093
vn 0.0908 -0.8112 -0.5777
vn -0.3344 0.8138 -0.4753
vn -0.4983 0.7138 -0.4921
vn -0.0551 0.9245 -0.3771
vn -0.9858 -0.0137 0.1672
vn 0.9999 0.0137 -0.0055
vn -0.3267 -0.4687 0.8207
vn -0.5897 0.7143 0.3769
vn 0.0703 0.8318 0.5505
s 0
f 23//1 21//1 8//1 6//1
f 94//2 144//2 145//2 92//2
f 58//3 76//3 77//3 60//3
f 45//4 46//4 85//4 86//4
f 57//5 89//5 87//5 88//5
f 180//6 181//6 162//6 163//6 179//6
f 204//7 206//7 205//7 208//7 207//7 209//7 212//7 217//7 213//7 214//7 220//7 221//7 224//7 195//7 191//7 189//7 188//7 185//7 184//7 183//7 200//7 199//7 198//7 197//7 196//7 201//7 202//7 203//7
f 82//8 70//8 65//8 63//8
f 115//9 111//9 117//9 118//9 116//9
f 21//10 20//10 10//10 8//10
f 138//11 139//11 29//11 30//11
f 127//12 43//12 44//12 124//12
f 26//13 24//13 5//13 123//13
f 86//14 87//14 89//14 90//14
f 265//15 266//15 64//15 66//15
f 17//16 104//16 114//16 19//16
f 47//17 48//17 118//17 117//17
f 49//18 48//18 122//18 51//18
f 45//19 86//19 90//19 50//19
f 128//20 41//20 43//20 127//20
f 39//21 40//21 38//21 35//21 36//21 37//21
f 185//22 186//22 182//22 184//22
f 24//23 23//23 6//23 5//23
f 137//24 138//24 30//24 31//24
f 35//25 134//25 135//25 34//25
f 39//26 37//26 207//26 208//26
f 20//27 109//27 12//27 10//27
f 147//28 32//28 33//28 136//28
f 256//29 248//29 247//29 249//29
f 142//30 141//30 151//30 154//30
f 260//31 131//31 130//31 259//31
f 81//32 82//32 63//32 62//32
f 147//33 137//33 31//33 32//33
f 233//34 235//34 236//34 148//34 164//34 163//34
f 47//35 117//35 111//35 202//35 201//35 84//35 85//35 46//35
f 79//36 69//36 60//36 77//36
f 27//37 25//37 24//37 26//37
f 72//38 83//38 197//38 198//38
f 38//39 132//39 134//39 35//39
f 246//40 231//40 247//40 248//40
f 143//41 144//41 94//41 95//41
f 267//42 11//42 13//42 14//42 18//42 120//42 274//42 225//42 262//42 269//42 268//42
f 250//43 136//43 135//43 134//43 133//43 257//43 252//43 251//43
f 30//44 29//44 173//44 174//44
f 79//45 77//45 78//45 80//45 81//45
f 12//46 15//46 16//46 14//46 13//46
f 100//47 119//47 121//47 98//47 99//47 101//47
f 52//48 49//48 51//48 50//48 53//48
f 8//49 10//49 12//49 13//49 11//49 9//49
f 58//50 60//50 69//50 61//50 59//50
f 36//51 212//51 209//51
f 39//52 208//52 205//52 42//52
f 29//53 28//53 172//53 173//53
f 183//54 91//54 74//54 75//54 200//54
f 274//55 120//55 119//55 100//55
f 33//56 32//56 175//56 216//56 211//56 210//56
f 67//57 71//57 74//57 93//57 2//57
f 246//58 232//58 233//58 231//58
f 189//59 191//59 192//59 190//59
f 247//60 231//60 161//60 160//60 159//60
f 171//61 170//61 219//61 218//61
f 165//62 178//62 187//62 190//62
f 174//63 173//63 215//63 216//63 175//63
f 237//64 239//64 240//64 238//64
f 228//65 227//65 266//65 265//65 264//65
f 102//66 103//66 101//66 99//66
f 268//67 7//67 9//67 11//67 267//67
f 75//68 199//68 200//68
f 275//69 270//69 55//69 56//69 59//69
f 73//70 72//70 198//70
f 83//71 80//71 196//71 197//71
f 47//72 46//72 45//72 122//72 48//72
f 57//73 58//73 59//73 56//73
f 109//74 108//74 15//74 12//74
f 99//75 98//75 115//75 116//75
f 27//76 206//76 204//76 25//76
f 54//77 53//77 50//77 90//77
f 142//78 96//78 97//78 141//78
f 254//79 255//79 253//79 251//79 252//79
f 32//80 31//80 175//80
f 232//81 234//81 235//81 233//81
f 96//82 95//82 177//82 178//82
f 79//83 81//83 62//83 69//83
f 177//84 176//84 186//84 187//84 178//84
f 95//85 94//85 176//85 177//85
f 238//86 240//86 151//86 150//86 149//86
f 220//87 214//87 215//87 218//87
f 17//88 18//88 14//88 16//88
f 159//89 160//89 170//89 171//89 172//89 28//89 140//89
f 104//90 17//90 16//90 105//90
f 149//91 167//91 168//91 148//91
f 73//92 75//92 74//92 71//92 72//92
f 180//93 179//93 223//93 222//93
f 172//94 171//94 218//94 215//94 173//94
f 168//95 167//95 192//95 193//95
f 271//96 53//96 54//96 55//96 270//96
f 84//97 78//97 77//97 76//97 88//97
f 231//98 233//98 163//98 162//98 161//98
f 8//99 9//99 7//99 4//99 5//99 6//99
f 156//100 137//100 147//100 155//100
f 259//101 130//101 126//101 261//101
f 104//102 105//102 107//102 106//102
f 125//103 123//103 5//103 4//103
f 16//104 15//104 108//104 105//104
f 129//105 40//105 41//105 128//105
f 113//106 121//106 19//106 114//106
f 65//107 70//107 71//107 67//107
f 129//108 132//108 38//108 40//108
f 31//109 30//109 174//109 175//109
f 264//110 263//110 229//110 228//110
f 140//111 139//111 158//111 159//111
f 130//112 129//112 128//112 127//112 126//112
f 97//113 165//113 166//113 150//113 151//113 141//113
f 166//114 165//114 190//114 192//114 167//114
f 164//115 169//115 179//115 163//115
f 203//116 202//116 111//116 112//116 106//116 107//116 110//116 22//116
f 258//117 133//117 131//117 260//117
f 42//118 27//118 26//118 44//118 43//118
f 104//119 106//119 112//119 113//119 114//119
f 97//120 96//120 178//120 165//120
f 50//121 51//121 122//121 45//121
f 1//122 93//122 74//122
f 98//123 121//123 113//123 115//123
f 236//124 235//124 234//124 237//124 238//124
f 88//125 87//125 86//125 85//125 84//125
f 150//126 166//126 167//126 149//126
f 1//127 74//127 91//127 146//127 2//127 93//127
f 102//128 49//128 52//128 103//128
f 21//129 22//129 110//129 109//129 20//129
f 109//130 110//130 107//130 105//130 108//130
f 143//131 95//131 96//131 142//131
f 26//132 123//132 124//132 44//132
f 257//133 133//133 258//133
f 91//134 92//134 145//134 146//134
f 136//135 33//135 34//135 135//135
f 186//136 185//136 188//136 187//136
f 154//137 151//137 240//137 242//137 152//137
f 271//138 272//138 52//138 53//138
f 273//139 274//139 100//139 101//139 103//139
f 181//140 180//140 222//140 219//140 170//140
f 242//141 243//141 153//141 152//141
f 156//142 155//142 253//142 255//142
f 176//143 92//143 91//143 183//143 184//143 182//143 186//143
f 243//144 245//144 145//144 144//144 153//144
f 94//145 92//145 176//145
f 124//146 123//146 125//146 126//146 127//146
f 71//147 70//147 83//147 72//147
f 170//148 160//148 161//148 181//148
f 169//149 164//149 148//149 168//149
f 63//150 64//150 61//150 69//150 62//150
f 63//151 65//151 66//151 64//151
f 120//152 18//152 17//152 19//152 121//152 119//152
f 89//153 57//153 56//153 55//153 54//153 90//153
f 82//154 81//154 80//154 83//154 70//154
f 156//155 157//155 138//155 137//155
f 269//156 4//156 7//156 268//156
f 226//157 275//157 266//157 227//157
f 254//158 256//158 249//158 255//158
f 61//159 64//159 266//159 275//159 59//159
f 216//160 213//160 217//160 211//160
f 41//161 40//161 39//161 42//161 43//161
f 221//162 219//162 222//162 224//162
f 215//163 214//163 213//163 216//163
f 152//164 143//164 142//164 154//164
f 264//165 68//165 66//165 65//165 67//165 2//165 3//165 263//165
f 225//166 226//166 227//166 228//166 229//166 230//166 244//166 241//166 239//166 237//166 234//166 232//166 246//166 248//166 256//166 254//166 252//166 257//166 258//166 260//166 259//166 261//166 262//166
f 269//167 262//167 261//167 126//167 125//167
f 3//168 2//168 146//168 145//168 245//168 244//168 230//168
f 80//169 78//169 84//169 201//169 196//169
f 76//170 58//170 57//170 88//170
f 190//171 187//171 188//171 189//171
f 133//172 134//172 132//172 129//172 130//172 131//172
f 225//173 274//173 273//173 272//173 271//173 270//173 275//173 226//173
f 157//174 156//174 255//174 249//174 158//174
f 139//175 140//175 28//175 29//175
f 157//176 158//176 139//176 138//176
f 223//177 194//177 195//177 224//177 222//177
f 218//178 219//178 221//178 220//178
f 264//179 265//179 68//179
f 265//180 66//180 68//180
f 115//181 113//181 112//181 111//181
f 24//182 25//182 22//182 21//182 23//182
f 203//183 22//183 25//183 204//183
f 229//184 263//184 3//184 230//184
f 236//185 238//185 149//185 148//185
f 147//186 136//186 250//186 251//186 253//186 155//186
f 272//187 273//187 103//187 52//187
f 194//188 223//188 179//188 169//188 168//188 193//188
f 243//189 242//189 241//189 244//189 245//189
f 116//190 118//190 102//190 99//190
f 240//191 239//191 241//191 242//191
f 249//192 247//192 159//192 158//192
f 4//193 269//193 125//193
f 37//194 36//194 209//194 207//194
f 212//195 36//195 35//195 34//195 33//195 210//195 211//195 217//195
f 27//196 42//196 205//196 206//196
f 162//197 181//197 161//197
f 118//198 48//198 49//198 102//198
f 152//199 153//199 144//199 143//199
f 191//200 195//200 194//200 193//200 192//200
f 73//201 198//201 199//201 75//201
