{
	"asset":{
		"generator":"Khronos glTF Blender I/O v5.1.18",
		"version":"2.0"
	},
	"scene":0,
	"scenes":[
		{
			"name":"Scene",
			"nodes":[
				0
			]
		}
	],
	"nodes":[
		{
			"mesh":0,
			"name":"col_proximal_phalanx"
		}
	],
	"materials":[
		{
			"doubleSided":true,
			"name":"Collision",
			"pbrMetallicRoughness":{
				"baseColorFactor":[
					1,
					0,
					0,
					1
				],
				"metallicFactor":0,
				"roughnessFactor":0.5
			}
		}
	],
	"meshes":[
		{
			"name":"V4_Assem.102",
			"primitives":[
				{
					"attributes":{
						"POSITION":0,
						"NORMAL":1
					},
					"indices":2,
					"material":0
				}
			]
		}
	],
	"accessors":[
		{
			"bufferView":0,
			"componentType":5126,
			"count":794,
			"max":[
				0.07711820304393768,
				0.01499977707862854,
				0.01511023472994566
			],
			"min":[
				-0.015155773609876633,
				-0.014999769628047943,
				-0.016825461760163307
			],
			"type":"VEC3"
		},
		{
			"bufferView":1,
			"componentType":5126,
			"count":794,
			"type":"VEC3"
		},
		{
			"bufferView":2,
			"componentType":5123,
			"count":1368,
			"type":"SCALAR"
		}
	],
	"bufferViews":[
		{
			"buffer":0,
			"byteLength":9528,
			"byteOffset":0,
			"target":34962
		},
		{
			"buffer":0,
			"byteLength":9528,
			"byteOffset":9528,
			"target":34962
		},
		{
			"buffer":0,
			"byteLength":2736,
			"byteOffset":19056,
			"target":34963
		}
	],
	"buffers":[
		{
			"byteLength":21792,
			"uri":"col_proximal_phalanx.bin"
		}
	]
}
