# Blender 5.1.0
# www.blender.org
o col_base_link
v 0.005500 -0.025000 0.000000
v -0.005500 -0.025000 0.000000
v -0.005500 0.025000 0.000000
v 0.005500 0.025000 0.000000
v 0.005500 -0.025000 0.119836
v -0.005500 -0.025000 0.119836
v 0.026359 0.005826 0.119836
v 0.026949 0.005051 0.119836
v 0.027452 0.004216 0.119836
v 0.027861 0.003331 0.119836
v 0.028172 0.002408 0.119836
v 0.028381 0.001456 0.119836
v 0.028487 0.000487 0.119836
v 0.028487 -0.000487 0.119836
v 0.028381 -0.001456 0.119836
v 0.028172 -0.002408 0.119836
v 0.027861 -0.003331 0.119836
v 0.027452 -0.004216 0.119836
v 0.026949 -0.005051 0.119836
v 0.026359 -0.005826 0.119836
v 0.005500 0.025000 0.119836
v 0.026949 0.005051 0.076836
v 0.027452 0.004216 0.076836
v 0.028172 0.002408 0.076836
v 0.027861 0.003331 0.076836
v 0.028381 0.001456 0.076836
v 0.028487 0.000487 0.076836
v 0.028487 -0.000487 0.076836
v 0.028381 -0.001456 0.076836
v 0.028172 -0.002408 0.076836
v 0.027861 -0.003331 0.076836
v 0.027452 -0.004216 0.076836
v 0.026949 -0.005051 0.076836
v -0.005500 0.025000 0.119836
vn 0.9766 0.2150 -0.0000
vn 0.6767 -0.7362 -0.0000
vn 0.9615 -0.1046 -0.2543
vn 0.9528 -0.2097 -0.2195
vn 0.9317 -0.3139 -0.1826
vn 0.8981 -0.4155 -0.1442
vn 0.8521 -0.5127 -0.1048
vn 0.6767 0.7362 -0.0000
vn 0.6916 0.7223 -0.0035
vn -0.0000 1.0000 -0.0000
vn -0.0000 -0.0000 1.0000
vn -1.0000 -0.0000 -0.0000
vn -0.0000 -0.0000 -1.0000
vn 0.8569 0.5156 -0.0000
vn 0.6916 -0.7223 -0.0035
vn 0.8521 0.5127 -0.1048
vn 0.8981 0.4155 -0.1442
vn 0.9317 0.3139 -0.1826
vn 0.9528 0.2097 -0.2195
vn 0.9615 0.1046 -0.2543
vn 0.9076 0.4199 -0.0000
vn 1.0000 -0.0000 -0.0000
vn 0.9580 -0.0000 -0.2866
vn 0.9477 -0.3193 -0.0000
vn 0.9477 0.3193 -0.0000
vn -0.0000 -1.0000 -0.0000
vn 0.8569 -0.5156 -0.0000
vn 0.9941 0.1081 -0.0000
vn 0.9076 -0.4199 -0.0000
vn 0.9766 -0.2150 -0.0000
vn 0.9941 -0.1081 -0.0000
s 0
f 26//1 24//1 11//1 12//1
f 1//2 20//2 5//2
f 28//3 29//3 1//3
f 29//4 30//4 1//4
f 30//5 31//5 1//5
f 31//6 32//6 1//6
f 32//7 33//7 1//7
f 7//8 4//8 21//8
f 4//9 7//9 8//9 22//9
f 4//10 3//10 34//10 21//10
f 9//11 8//11 7//11 21//11 34//11 6//11 5//11 20//11 19//11 18//11 17//11 16//11 15//11 14//11 13//11 12//11 11//11 10//11
f 2//12 6//12 34//12 3//12
f 3//13 4//13 1//13 2//13
f 23//14 22//14 8//14 9//14
f 33//15 19//15 20//15 1//15
f 22//16 23//16 4//16
f 23//17 25//17 4//17
f 25//18 24//18 4//18
f 24//19 26//19 4//19
f 26//20 27//20 4//20
f 25//21 23//21 9//21 10//21
f 14//22 28//22 27//22 13//22
f 28//23 1//23 4//23 27//23
f 31//24 30//24 16//24 17//24
f 24//25 25//25 10//25 11//25
f 6//26 2//26 1//26 5//26
f 33//27 32//27 18//27 19//27
f 27//28 26//28 12//28 13//28
f 32//29 31//29 17//29 18//29
f 30//30 29//30 15//30 16//30
f 29//31 28//31 14//31 15//31
