# Blender 5.1.0
# www.blender.org
o col_proximal_phalanx
v 0.073296 0.014757 -0.000006
v 0.075420 0.012286 -0.003360
v 0.075034 0.012281 -0.004486
v 0.074528 0.012274 -0.005565
v 0.073908 0.012265 -0.006582
v 0.014883 0.013956 0.013224
v 0.000092 -0.012750 -0.015000
v -0.001529 -0.012772 -0.014903
v 0.000089 -0.013750 -0.014000
v -0.001402 -0.013771 -0.013909
v -0.002896 -0.013791 -0.013656
v -0.003130 -0.012794 -0.014631
v -0.004354 -0.013811 -0.013242
v -0.004692 -0.012816 -0.014188
v -0.007094 -0.013849 -0.011956
v -0.006198 -0.012836 -0.013579
v -0.007628 -0.012856 -0.012810
v -0.009494 -0.013882 -0.010111
v -0.010199 -0.012891 -0.010833
v -0.011310 -0.012906 -0.009648
v -0.011441 -0.013908 -0.007793
v -0.012285 -0.012920 -0.008349
v -0.008968 -0.012874 -0.011891
v -0.013115 -0.012931 -0.006953
v -0.012844 -0.013928 -0.005110
v -0.013789 -0.012940 -0.005475
v -0.013320 -0.013934 -0.003671
v -0.014299 -0.012947 -0.003933
v -0.000289 0.013747 -0.014000
v -0.003273 0.013706 -0.013656
v -0.001779 0.013727 -0.013909
v -0.003480 0.012703 -0.014631
v -0.005042 0.012682 -0.014188
v -0.006548 0.012661 -0.013579
v -0.004732 0.013686 -0.013242
v -0.007472 0.013649 -0.011956
v -0.007978 0.012642 -0.012810
v -0.009317 0.012623 -0.011891
v -0.012635 0.012578 -0.008349
v -0.011660 0.012591 -0.009648
v -0.009871 0.013616 -0.010111
v -0.010549 0.012606 -0.010833
v -0.011818 0.013589 -0.007793
v -0.013465 0.012566 -0.006953
v -0.014139 0.012557 -0.005475
v -0.014649 0.012550 -0.003933
v -0.013221 0.013570 -0.005110
v -0.015156 0.012543 -0.000729
v -0.014989 0.012546 -0.002345
v -0.013698 0.013563 -0.003671
v -0.014171 0.013557 -0.000681
v -0.015147 0.012543 0.000895
v -0.014962 0.012546 0.002508
v -0.001879 0.012725 -0.014903
v -0.000258 0.012748 -0.015000
v 0.015260 -0.013542 0.013224
v 0.000243 -0.013748 0.014000
v 0.000258 -0.012748 0.015000
v -0.013793 -0.013941 -0.000681
v -0.014806 -0.012954 -0.000729
v -0.014797 -0.012954 0.000895
v -0.013613 -0.013938 0.002341
v -0.014612 -0.012952 0.002508
v -0.014255 -0.012947 0.004093
v -0.012787 -0.013927 0.005254
v -0.013728 -0.012940 0.005629
v -0.013038 -0.012930 0.007099
v -0.011354 -0.013907 0.007920
v -0.012193 -0.012919 0.008486
v -0.011203 -0.012905 0.009774
v -0.009382 -0.013880 0.010217
v -0.010079 -0.012890 0.010947
v -0.008836 -0.012872 0.011991
v -0.006962 -0.013847 0.012036
v -0.007487 -0.012854 0.012895
v -0.006048 -0.012834 0.013648
v -0.004536 -0.012813 0.014241
v -0.004208 -0.013809 0.013292
v -0.002745 -0.013789 0.013689
v -0.002968 -0.012792 0.014667
v -0.001364 -0.012770 0.014921
v -0.014639 -0.012952 -0.002345
v 0.072342 -0.009258 -0.009952
v 0.071263 -0.009273 -0.010675
v 0.070112 -0.009289 -0.011277
v 0.068902 -0.009306 -0.011751
v 0.073337 -0.009245 -0.009116
v 0.074236 -0.009232 -0.008177
v 0.075028 -0.009221 -0.007147
v 0.075704 -0.009212 -0.006038
v 0.074217 -0.010233 -0.006582
v 0.076256 -0.009205 -0.004862
v 0.076677 -0.009199 -0.003633
v 0.076963 -0.009195 -0.002365
v 0.075729 -0.010212 -0.003360
v 0.075342 -0.010217 -0.004486
v 0.074836 -0.010224 -0.005565
v 0.077111 -0.009193 -0.001074
v 0.077118 -0.009193 0.000225
v 0.076985 -0.009195 0.001518
v 0.073550 -0.012704 0.001329
v 0.076713 -0.009198 0.002788
v 0.073673 -0.012740 -0.000006
v 0.067437 -0.010396 0.010329
v 0.070232 -0.009287 0.010504
v 0.069027 -0.009304 0.010992
v 0.069486 -0.010641 0.009377
v 0.071376 -0.009272 0.009889
v 0.072448 -0.009257 0.009154
v 0.071434 -0.011321 0.007366
v 0.072335 -0.011896 0.005666
v 0.075102 -0.009220 0.006321
v 0.072714 -0.012172 0.004701
v 0.075766 -0.009211 0.005204
v 0.076305 -0.009204 0.004022
v 0.073045 -0.012408 0.003672
v 0.073334 -0.012594 0.002528
v 0.074321 -0.009231 0.007360
v 0.073433 -0.009243 0.008308
v 0.067778 -0.009321 0.011347
v 0.066497 -0.009339 0.011564
v 0.073174 0.014717 0.001329
v 0.076704 0.011303 0.001518
v 0.076431 0.011300 0.002788
v 0.076837 0.011305 0.000225
v 0.076830 0.011305 -0.001074
v 0.076682 0.011303 -0.002365
v 0.076396 0.011299 -0.003633
v 0.075974 0.011293 -0.004862
v 0.075422 0.011286 -0.006038
v 0.074746 0.011277 -0.007147
v 0.073954 0.011266 -0.008177
v 0.073056 0.011253 -0.009116
v 0.072061 0.011240 -0.009952
v 0.070982 0.011225 -0.010675
v 0.069830 0.011209 -0.011277
v 0.068621 0.011193 -0.011751
v 0.074040 0.011267 0.007360
v 0.074821 0.011278 0.006321
v 0.075484 0.011287 0.005204
v 0.072353 0.014163 0.004701
v 0.072677 0.014407 0.003672
v 0.072961 0.014601 0.002528
v 0.076023 0.011294 0.004022
v 0.071982 0.013877 0.005666
v 0.071096 0.013276 0.007366
v 0.072166 0.011241 0.009154
v 0.073152 0.011255 0.008308
v 0.071095 0.011226 0.009889
v 0.069950 0.011211 0.010504
v 0.069167 0.012544 0.009377
v 0.068746 0.011194 0.010992
v 0.067496 0.011177 0.011347
v 0.067126 0.012242 0.010329
v 0.066215 0.011160 0.011564
v -0.000092 0.012750 0.015000
v -0.001714 0.012728 0.014921
v -0.000134 0.013749 0.014000
v -0.003122 0.013708 0.013689
v -0.003318 0.012706 0.014667
v -0.004585 0.013688 0.013292
v -0.004886 0.012684 0.014241
v -0.006397 0.012663 0.013648
v -0.007339 0.013651 0.012036
v -0.007837 0.012644 0.012895
v -0.009186 0.012625 0.011991
v -0.009759 0.013617 0.010217
v -0.010429 0.012608 0.010947
v -0.010808 0.013603 0.009122
v -0.011553 0.012593 0.009774
v -0.012542 0.012579 0.008486
v -0.012520 0.013579 0.006626
v -0.013387 0.012568 0.007099
v -0.014077 0.012558 0.005629
v -0.013656 0.013564 0.003820
v -0.014604 0.012551 0.004093
v -0.013990 0.013559 0.002341
v 0.061124 0.016790 -0.012091
v 0.060873 0.016787 -0.012054
v 0.061653 0.016647 -0.012234
v 0.061919 0.016651 -0.012186
v 0.061883 0.016801 -0.012040
v 0.061632 0.016797 -0.012084
v 0.061378 0.016794 -0.012102
v 0.062362 0.016807 -0.011871
v 0.062429 0.016658 -0.012006
v 0.062666 0.016661 -0.011876
v 0.063092 0.016667 -0.011543
v 0.062888 0.016664 -0.011721
v 0.063157 0.016818 -0.011248
v 0.063308 0.016820 -0.011043
v 0.063540 0.016823 -0.010591
v 0.063618 0.016824 -0.010349
v 0.062064 0.016803 -0.007515
v 0.060564 0.016783 -0.007536
v 0.063693 0.016825 -0.009847
v 0.063406 0.016822 -0.008623
v 0.061567 0.016796 -0.007413
v 0.063436 0.016822 -0.010824
v 0.062793 0.016813 -0.011603
v 0.063713 -0.013727 -0.012660
v 0.063387 -0.013732 -0.012854
v 0.063042 -0.013736 -0.013011
v 0.062682 -0.013741 -0.013130
v 0.062312 -0.013746 -0.013209
v 0.063843 -0.015075 -0.008623
v 0.064131 -0.015072 -0.009847
v 0.064055 -0.015073 -0.010349
v 0.063978 -0.015074 -0.010591
v 0.063874 -0.015075 -0.010824
v 0.063746 -0.015077 -0.011043
v 0.063595 -0.015079 -0.011248
v 0.063525 -0.014929 -0.011543
v 0.063231 -0.015084 -0.011603
v 0.063322 -0.014932 -0.011721
v 0.063100 -0.014935 -0.011876
v 0.063022 -0.015087 -0.011748
v 0.062564 -0.015093 -0.011968
v 0.062070 -0.015100 -0.012084
v 0.061562 -0.015107 -0.012091
v 0.061816 -0.015103 -0.012102
v 0.062086 -0.014949 -0.012234
v 0.061310 -0.015110 -0.012054
v 0.062740 -0.015091 -0.007606
v 0.062612 -0.014942 -0.012110
v 0.063200 0.015469 -0.012732
v 0.062867 0.015464 -0.012913
v 0.062517 0.015459 -0.013057
v 0.062153 0.015454 -0.013162
v 0.061779 0.015449 -0.013228
vn -0.9493 -0.0130 -0.3141
vn 0.9098 0.0125 0.4149
vn -0.3752 -0.0051 -0.9269
vn 0.8539 0.0117 -0.5203
vn -0.2728 -0.0037 -0.9621
vn 0.5657 0.0078 0.8246
vn 0.4732 0.0065 0.8809
vn -0.1563 -0.0021 0.9877
vn -0.2622 -0.0036 0.9650
vn -0.6431 -0.0088 0.7657
vn 0.9493 0.0130 0.3141
vn -0.1672 -0.0023 -0.9859
vn 0.0243 0.9812 0.1916
vn 0.9946 0.0136 0.1026
vn 0.7115 -0.6983 0.0787
vn 0.5791 0.7153 0.3912
vn 0.6431 0.0088 -0.7657
vn -0.9934 -0.0136 0.1136
vn 0.7927 0.0109 -0.6096
vn -0.7993 -0.0110 -0.6008
vn 0.9777 0.0134 0.2096
vn 0.4149 -0.7010 -0.5801
vn 0.6920 0.7175 0.0787
vn -0.0139 0.9948 0.1013
vn 0.0738 -0.6272 0.7754
vn 0.4635 0.0064 -0.8861
vn 0.6557 -0.6984 0.2870
vn 0.3517 0.7228 0.5948
vn 0.4810 0.7159 0.5060
vn 0.9052 0.0124 -0.4249
vn -0.3650 -0.0050 0.9310
vn -0.1952 0.7040 0.6829
vn 0.9999 0.0137 -0.0055
vn -0.7927 -0.0109 0.6096
vn 0.0742 -0.9288 0.3630
vn 0.1672 0.0023 0.9859
vn 0.7221 0.0099 -0.6917
vn 0.3555 0.2327 -0.9052
vn -0.7018 0.7111 0.0413
vn 0.1223 -0.9858 0.1153
vn 0.3138 0.9437 -0.1050
vn 0.3835 0.9065 -0.1765
vn 0.5157 -0.7713 -0.3729
vn 0.0051 -0.7013 -0.7129
vn 0.5566 0.0076 -0.8308
vn -0.0596 -0.0008 -0.9982
vn 0.1990 -0.6400 -0.7421
vn 0.2261 0.7082 -0.6688
vn -0.0428 0.9835 -0.1759
vn -0.0141 0.7012 -0.7129
vn 0.5872 0.7831 -0.2051
vn 0.0287 0.0001 -0.9996
vn -0.6043 -0.7291 -0.3213
vn 0.6725 0.7163 0.1861
vn 0.1247 0.6416 -0.7569
vn 0.9458 0.0130 -0.3245
vn 0.5985 -0.6991 0.3913
vn -0.4263 0.7149 0.5542
vn 0.3593 0.6448 -0.6746
vn -0.0303 0.8931 -0.4488
vn -0.0348 0.9308 -0.3639
vn -0.0158 -0.9843 -0.1759
vn 0.0518 0.0007 0.9987
vn -0.8596 -0.0118 -0.5108
vn -0.0132 -0.9999 0.0038
vn -0.6621 -0.7157 -0.2222
vn -0.4066 -0.7264 0.5542
vn 0.0565 0.6290 0.7754
vn -0.0813 0.7193 0.6899
vn 0.6892 -0.7135 -0.1259
vn 0.5079 0.7271 -0.4619
vn 0.2126 0.7175 0.6634
vn -0.5159 -0.7279 0.4517
vn 0.5946 0.7148 -0.3682
vn 0.3650 0.0050 -0.9310
vn 0.4944 0.7851 -0.3730
vn 0.9753 0.0134 -0.2204
vn 0.2751 -0.9606 -0.0392
vn -0.6815 0.6973 -0.2222
vn -0.4126 -0.7264 -0.5496
vn 0.3549 0.7272 -0.5876
vn -0.2975 0.7167 0.6308
vn -0.6748 -0.7300 -0.1084
vn -0.9458 -0.0130 0.3245
vn -0.2846 -0.7247 -0.6276
vn -0.1758 -0.7091 0.6829
vn -0.4324 0.7148 -0.5496
vn -0.0058 0.6382 -0.7699
vn -0.9098 -0.0125 -0.4149
vn 0.0433 -0.9840 0.1731
vn 0.2322 -0.7114 0.6634
vn -0.0616 -0.7213 0.6899
vn 0.3541 -0.6379 -0.6839
vn -0.8539 -0.0117 0.5203
vn -0.3044 0.7166 -0.6276
vn -0.5407 0.7134 -0.4459
vn -0.5566 -0.0076 0.8308
vn -0.7221 -0.0099 0.6917
vn -0.7297 -0.0100 -0.6837
vn 0.6515 0.0089 0.7586
vn -0.9946 -0.0136 -0.1026
vn -0.9753 -0.0134 0.2204
vn -0.6570 -0.7298 0.1891
vn -0.4635 -0.0064 0.8861
vn -0.9052 -0.0124 0.4249
vn -0.5815 0.7128 0.3922
vn -0.0486 -0.0007 0.9988
vn 0.4984 -0.8230 -0.2724
vn 0.4756 0.8364 -0.2724
vn 0.6084 -0.7666 -0.2051
vn 0.6694 0.7321 -0.1259
vn 0.2486 0.9678 -0.0392
vn 0.3396 -0.9347 -0.1050
vn 0.4081 -0.8957 -0.1764
vn -0.6241 0.7122 -0.3213
vn -0.5209 -0.7279 -0.4459
vn -0.5207 0.6995 0.4895
vn 0.1945 -0.9799 0.0436
vn 0.2132 0.0029 -0.9770
vn 0.3714 -0.7129 0.5948
vn 0.3589 -0.2166 -0.9079
vn 0.3125 -0.1465 -0.9385
vn -0.0420 0.9991 -0.0015
vn -0.4732 -0.0065 -0.8809
vn -0.9777 -0.0134 -0.2096
vn -0.1655 0.7049 -0.6897
vn 0.9934 0.0136 -0.1136
vn -0.6515 -0.0089 -0.7586
vn -0.6945 0.7112 -0.1084
vn 0.6139 -0.6982 -0.3682
vn 0.6457 0.7160 -0.2653
vn 0.4899 0.6362 -0.5960
vn -0.6007 -0.7290 0.3281
vn 0.6363 0.7161 0.2870
vn 0.8596 0.0118 0.5108
vn -0.9999 -0.0137 0.0055
vn 0.7297 0.0100 0.6837
vn 0.2728 0.0037 0.9621
vn -0.5657 -0.0078 -0.8246
vn 0.3164 -0.7007 -0.6394
vn 0.4807 -0.4911 -0.7264
vn 0.5277 -0.7129 -0.4619
vn 0.4352 -0.3670 -0.8222
vn 0.6919 -0.6976 0.1861
vn 0.3996 -0.2971 -0.8672
vn 0.1718 -0.7027 -0.6904
vn -0.0058 -0.8935 -0.4490
vn -0.0093 -0.9314 -0.3639
vn -0.6999 0.6971 0.1559
vn -0.1461 -0.7092 -0.6897
vn 0.4712 0.5180 -0.7139
vn -0.6524 0.7118 0.2601
vn 0.6917 0.7210 -0.0419
vn 0.7112 -0.7018 -0.0419
vn 0.2445 0.6461 -0.7231
vn -0.6821 -0.7301 0.0413
vn 0.1145 0.7082 -0.6966
vn 0.0909 0.9887 0.1190
vn 0.2751 0.1009 -0.9561
vn 0.6651 -0.6980 -0.2653
vn 0.5083 -0.6257 -0.5918
vn 0.3752 0.0051 0.9269
vn 0.7993 0.0110 0.6008
vn -0.2777 -0.7246 0.6308
vn 0.0122 -0.6313 -0.7754
vn 0.1676 0.9849 0.0436
vn 0.5005 -0.7025 0.5060
vn 0.0487 0.9305 0.3630
vn 0.4267 0.3847 -0.8185
s 0
f 28//1 46//1 45//1 26//1
f 115//2 144//2 140//2 114//2
f 33//3 14//3 16//3 34//3
f 90//4 89//4 131//4 130//4
f 33//5 32//5 12//5 14//5
f 108//6 109//6 147//6 149//6
f 105//7 108//7 149//7 150//7
f 81//8 157//8 160//8 80//8
f 160//9 162//9 77//9 80//9
f 73//10 166//10 168//10 72//10
f 115//11 102//11 124//11 144//11
f 54//12 8//12 12//12 32//12
f 142//13 143//13 194//13 198//13 6//13 141//13
f 99//14 125//14 123//14 100//14
f 101//15 103//15 99//15 100//15
f 141//16 145//16 138//16 139//16 140//16 142//16
f 87//17 83//17 134//17 133//17
f 53//18 52//18 61//18 63//18
f 89//19 88//19 132//19 131//19
f 39//20 40//20 20//20 22//20
f 102//21 100//21 123//21 124//21
f 214//22 217//22 216//22 215//22
f 123//23 125//23 1//23 122//23
f 198//24 195//24 161//24 159//24 158//24 6//24
f 121//25 58//25 57//25 56//25 104//25 120//25
f 84//26 85//26 136//26 135//26
f 116//27 117//27 115//27 114//27
f 151//28 150//28 149//28 147//28 146//28
f 145//29 146//29 147//29 148//29 138//29
f 92//30 90//30 130//30 129//30
f 163//31 76//31 77//31 162//31
f 161//32 162//32 160//32 159//32
f 98//33 126//33 125//33 99//33
f 170//34 171//34 69//34 70//34
f 56//35 113//35 111//35 110//35 107//35 104//35
f 121//36 120//36 153//36 155//36
f 133//37 132//37 88//37 87//37
f 136//38 137//38 228//38 227//38
f 177//39 51//39 48//39 52//39 53//39
f 206//40 101//40 117//40 224//40
f 1//41 192//41 193//41
f 1//42 199//42 192//42
f 212//43 91//43 211//43
f 8//44 7//44 222//44 219//44 221//44 9//44 10//44
f 83//45 84//45 135//45 134//45
f 55//46 7//46 8//46 54//46
f 225//47 222//47 205//47 204//47 203//47
f 182//48 185//48 186//48 181//48
f 31//49 30//49 179//49 178//49
f 54//50 31//50 29//50 184//50 183//50 180//50 55//50
f 2//51 3//51 1//51
f 230//52 205//52 7//52 55//52
f 25//53 26//53 24//53 22//53 21//53
f 143//54 144//54 124//54 123//54 122//54
f 229//55 230//55 180//55 181//55
f 93//56 92//56 129//56 128//56
f 113//57 116//57 114//57 112//57 118//57 111//57
f 167//58 168//58 166//58 165//58 164//58
f 226//59 227//59 186//59 187//59
f 29//60 178//60 184//60
f 29//61 31//61 178//61
f 223//62 11//62 10//62 220//62
f 58//63 121//63 155//63 156//63
f 22//64 24//64 44//64 39//64
f 57//65 79//65 78//65 74//65 71//65 68//65 65//65 62//65 59//65 27//65 25//65 21//65 18//65 15//65 13//65 11//65 223//65 220//65 221//65 219//65 218//65 217//65 214//65 212//65 211//65 210//65 209//65 208//65 207//65 206//65 224//65
f 25//66 27//66 28//66 26//66
f 74//67 75//67 73//67 72//67 71//67
f 6//68 158//68 156//68 155//68 153//68 154//68
f 156//69 158//69 159//69 160//69 157//69
f 95//70 93//70 94//70 103//70
f 132//71 133//71 188//71 189//71 200//71 190//71 5//71 131//71
f 150//72 151//72 154//72 153//72 152//72
f 71//73 72//73 70//73 69//73 68//73
f 5//74 4//74 130//74 131//74
f 85//75 86//75 137//75 136//75
f 5//76 190//76 191//76
f 94//77 93//77 128//77 127//77
f 207//78 208//78 103//78
f 45//79 46//79 50//79 47//79
f 18//80 19//80 23//80 17//80 15//80
f 185//81 200//81 189//81 187//81 186//81
f 164//82 165//82 163//82 162//82 161//82
f 27//83 59//83 60//83 82//83 28//83
f 174//84 176//84 64//84 66//84
f 15//85 17//85 16//85 14//85 13//85
f 79//86 80//86 77//86 78//86
f 38//87 42//87 41//87 36//87 37//87
f 230//88 55//88 180//88
f 45//89 44//89 24//89 26//89
f 224//90 117//90 116//90 113//90 56//90 57//90
f 104//91 107//91 105//91 106//91 120//91
f 57//92 58//92 81//92 80//92 79//92
f 216//93 225//93 203//93 202//93 201//93
f 69//94 171//94 173//94 67//94
f 33//95 34//95 37//95 36//95 35//95
f 43//96 41//96 42//96 40//96 39//96
f 75//97 165//97 166//97 73//97
f 72//98 168//98 170//98 70//98
f 20//99 40//99 42//99 19//99
f 147//100 109//100 119//100 148//100
f 60//101 48//101 49//101 82//101
f 64//102 176//102 53//102 63//102
f 65//103 66//103 64//103 63//103 62//103
f 165//104 75//104 76//104 163//104
f 173//105 174//105 66//105 67//105
f 172//106 173//106 171//106 170//106 169//106
f 156//107 157//107 81//107 58//107
f 210//108 211//108 91//108 97//108 96//108 103//108
f 199//109 1//109 3//109 4//109 5//109 191//109
f 96//110 95//110 103//110
f 127//111 128//111 2//111 1//111
f 1//112 193//112 196//112
f 208//113 209//113 103//113
f 209//114 210//114 103//114
f 47//115 43//115 39//115 44//115 45//115
f 21//116 22//116 20//116 19//116 18//116
f 170//117 168//117 167//117 169//117
f 207//118 103//118 101//118 206//118
f 86//119 204//119 205//119 230//119 229//119 137//119
f 109//120 108//120 105//120 107//120 110//120
f 85//121 203//121 86//121
f 203//122 204//122 86//122
f 30//123 35//123 36//123 41//123 43//123 47//123 50//123 51//123 177//123 175//123 172//123 169//123 167//123 164//123 161//123 195//123 198//123 194//123 197//123 196//123 193//123 192//123 199//123 191//123 190//123 200//123 185//123 182//123 183//123 184//123 178//123 179//123
f 17//124 37//124 34//124 16//124
f 49//125 46//125 28//125 82//125
f 32//126 33//126 35//126 30//126 31//126 54//126
f 98//127 94//127 127//127 126//127
f 19//128 42//128 38//128 23//128
f 50//129 46//129 49//129 48//129 51//129
f 97//130 91//130 89//130 90//130
f 4//131 3//131 2//131 128//131 129//131 130//131
f 189//132 188//132 133//132 134//132 226//132 187//132
f 68//133 69//133 67//133 66//133 65//133
f 144//134 143//134 142//134 140//134
f 114//135 140//135 139//135 112//135
f 52//136 48//136 60//136 61//136
f 118//137 138//137 148//137 119//137
f 120//138 106//138 152//138 153//138
f 23//139 38//139 37//139 17//139
f 217//140 218//140 225//140 216//140
f 201//141 202//141 84//141 83//141
f 212//142 214//142 215//142 213//142 87//142 88//142 89//142 91//142
f 202//143 85//143 84//143
f 101//144 100//144 102//144 115//144 117//144
f 202//145 203//145 85//145
f 219//146 222//146 225//146 218//146
f 221//147 220//147 9//147
f 220//148 10//148 9//148
f 53//149 176//149 175//149 177//149
f 12//150 8//150 10//150 11//150 13//150 14//150
f 134//151 135//151 226//151
f 174//152 173//152 172//152 175//152 176//152
f 126//153 127//153 1//153 125//153
f 94//154 98//154 99//154 103//154
f 228//155 229//155 181//155 186//155 227//155
f 62//156 63//156 61//156 60//156 59//156
f 183//157 182//157 181//157 180//157
f 194//158 143//158 122//158 197//158
f 137//159 229//159 228//159
f 97//160 90//160 92//160 93//160 95//160 96//160
f 201//161 83//161 87//161 213//161 215//161 216//161
f 106//162 105//162 150//162 152//162
f 118//163 112//163 139//163 138//163
f 74//164 78//164 77//164 76//164 75//164
f 222//165 7//165 205//165
f 196//166 197//166 122//166 1//166
f 118//167 119//167 109//167 110//167 111//167
f 141//168 6//168 154//168 151//168 146//168 145//168
f 135//169 136//169 227//169 226//169
