# Blender 5.1.0
# www.blender.org
o col_mcp_link
v -0.007106 0.010153 0.018000
v -0.006825 -0.010345 0.018000
v 0.008559 -0.010134 0.018000
v 0.020413 -0.009971 0.006150
v 0.021035 -0.009962 0.005331
v 0.021566 -0.009955 0.004450
v 0.021998 -0.009949 0.003516
v 0.022326 -0.009945 0.002542
v 0.022547 -0.009942 0.001537
v 0.022658 -0.009940 0.000514
v 0.022658 -0.009940 -0.000514
v 0.022547 -0.009942 -0.001537
v 0.022326 -0.009945 -0.002542
v 0.021998 -0.009949 -0.003516
v 0.021566 -0.009955 -0.004450
v 0.021035 -0.009962 -0.005331
v 0.020413 -0.009971 -0.006150
v 0.008559 -0.010134 -0.018000
v -0.006825 -0.010345 -0.018000
v -0.007106 0.010153 -0.018000
v 0.020132 0.010527 -0.006150
v 0.021285 0.010543 -0.004450
v 0.020754 0.010536 -0.005331
v 0.021716 0.010549 -0.003516
v 0.022045 0.010553 -0.002542
v 0.022266 0.010556 -0.001537
v 0.022377 0.010558 -0.000514
v 0.022377 0.010558 0.000514
v 0.022266 0.010556 0.001537
v 0.022045 0.010553 0.002542
v 0.021716 0.010549 0.003516
v 0.020754 0.010536 0.005331
v 0.021285 0.010543 0.004450
v 0.020132 0.010527 0.006150
v -0.000810 -0.005631 0.022500
v 0.000420 -0.005681 0.022500
v 0.001032 -0.005606 0.022500
v 0.001632 -0.005465 0.022500
v 0.002214 -0.005260 0.022500
v 0.003779 -0.004289 0.022500
v 0.004953 -0.002868 0.022500
v 0.005234 -0.002319 0.022500
v 0.005703 -0.000537 0.022500
v 0.005728 0.000079 0.022500
v 0.005578 0.001301 0.022500
v 0.005405 0.001893 0.022500
v -0.004885 0.002869 0.022500
v -0.005387 0.001744 0.022500
v -0.005635 0.000538 0.022500
v -0.005618 -0.000693 0.022500
v -0.005510 -0.001300 0.022500
v -0.004805 -0.003002 0.022500
v -0.004452 -0.003508 0.022500
v -0.003097 -0.004756 0.022500
v -0.002001 -0.005318 0.022500
v -0.006971 0.002681 -0.021350
v -0.007383 0.001112 -0.021350
v -0.007220 0.001908 -0.021350
v -0.007235 0.001090 -0.021500
v -0.002408 0.006933 -0.021500
v 0.007528 -0.000303 -0.021350
v 0.007517 0.000509 -0.021350
v 0.007451 -0.001111 -0.021350
v 0.007303 -0.001089 -0.021500
v 0.007378 -0.000297 -0.021500
v 0.007367 0.000499 -0.021500
v 0.006898 -0.002626 -0.021500
v 0.000929 -0.007295 -0.021500
v 0.000135 -0.007349 -0.021500
v 0.000137 -0.007499 -0.021350
v -0.000661 -0.007317 -0.021500
v -0.002217 -0.006996 -0.021500
v -0.002961 -0.006712 -0.021500
v -0.003669 -0.006349 -0.021500
v -0.006756 -0.002813 -0.021500
v -0.006412 -0.003531 -0.021500
v -0.007021 -0.002063 -0.021500
v -0.007202 -0.001288 -0.021500
v -0.007350 -0.001314 -0.021350
v -0.007165 -0.002105 -0.021350
v -0.005993 -0.004207 -0.021500
v -0.005502 -0.004834 -0.021500
v -0.007449 -0.000508 -0.021350
v -0.007460 0.000304 -0.021350
v -0.007299 -0.000498 -0.021500
v -0.001448 -0.007199 -0.021500
v 0.002476 -0.006932 -0.021500
v 0.001712 -0.007155 -0.021500
v -0.006106 0.004041 -0.021500
v -0.006507 0.003354 -0.021500
v -0.006831 0.002627 -0.021500
v -0.002961 -0.006712 0.021500
v -0.003669 -0.006349 0.021500
v -0.004334 -0.005911 0.021500
v -0.007350 -0.001314 0.021350
v -0.007165 -0.002105 0.021350
v -0.007021 -0.002063 0.021500
v -0.007299 -0.000498 0.021500
v -0.002217 -0.006996 0.021500
v -0.001448 -0.007199 0.021500
v 0.000137 -0.007499 0.021350
v 0.002476 -0.006932 0.021500
v 0.001712 -0.007155 0.021500
v 0.000929 -0.007295 0.021500
v 0.000135 -0.007349 0.021500
v -0.000661 -0.007317 0.021500
v 0.007517 0.000509 0.021350
v 0.007528 -0.000303 0.021350
v 0.007367 0.000499 0.021500
v 0.007378 -0.000297 0.021500
v -0.005094 0.005267 0.021500
v -0.006831 0.002627 0.021500
v -0.006507 0.003354 0.021500
v -0.007235 0.001090 0.021500
v -0.007383 0.001112 0.021350
v -0.007220 0.001908 0.021350
v -0.006971 0.002681 0.021350
v -0.006106 0.004041 0.021500
v -0.007460 0.000304 0.021350
v -0.007449 -0.000508 0.021350
v 0.007303 -0.001089 0.021500
v 0.006898 -0.002626 0.021500
v 0.007451 -0.001111 0.021350
v -0.004947 -0.005404 0.021500
v -0.005502 -0.004834 0.021500
v -0.005993 -0.004207 0.021500
v -0.006412 -0.003531 0.021500
v 0.008447 0.009057 0.019990
v 0.008413 0.009245 0.019990
v 0.008360 0.009428 0.019990
v 0.008195 0.009772 0.019990
v 0.008086 0.009928 0.019990
v 0.007908 0.010308 0.019800
v 0.007960 0.010072 0.019990
v 0.007820 0.010201 0.019990
v 0.007667 0.010314 0.019990
v 0.007743 0.010430 0.019800
v 0.007565 0.010533 0.019800
v 0.007502 0.010410 0.019990
v 0.007377 0.010617 0.019800
v 0.007328 0.010488 0.019990
v 0.007181 0.010680 0.019800
v 0.007146 0.010547 0.019990
v 0.006980 0.010722 0.019800
v 0.006579 0.010600 0.019990
v 0.006769 0.010603 0.019990
v 0.006569 0.010738 0.019800
v 0.006775 0.010741 0.019800
v 0.006959 0.010585 0.019990
v -0.005618 -0.000693 -0.022500
v -0.005635 0.000538 -0.022500
v 0.000420 -0.005681 -0.022500
v 0.002214 -0.005260 -0.022500
v 0.001632 -0.005465 -0.022500
v 0.003779 -0.004289 -0.022500
v -0.002564 -0.005067 -0.022500
v -0.003097 -0.004756 -0.022500
v -0.004452 -0.003508 -0.022500
v -0.005337 -0.001892 -0.022500
v -0.001414 -0.005507 -0.022500
v -0.005387 0.001744 -0.022500
v -0.002146 0.005261 -0.022500
v -0.002702 0.004995 -0.022500
v -0.003712 0.004290 -0.022500
v -0.004546 0.003384 -0.022500
v -0.000352 0.005682 -0.022500
v 0.000878 0.005632 -0.022500
v 0.004114 0.003973 -0.022500
v 0.004872 0.003003 -0.022500
v 0.005728 0.000079 -0.022500
v 0.005703 -0.000537 -0.022500
v 0.005234 -0.002319 -0.022500
v 0.004953 -0.002868 -0.022500
v 0.005578 0.001301 -0.022500
v 0.005405 0.001893 -0.022500
v 0.002069 0.005319 -0.022500
v 0.008447 0.009057 -0.020040
v 0.008413 0.009245 -0.020040
v 0.008360 0.009428 -0.020040
v 0.008195 0.009772 -0.020040
v 0.008086 0.009928 -0.020040
v 0.007960 0.010072 -0.020040
v 0.007820 0.010201 -0.020040
v 0.007908 0.010308 -0.019849
v 0.007667 0.010314 -0.020040
v 0.007743 0.010430 -0.019849
v 0.007502 0.010410 -0.020040
v 0.007565 0.010533 -0.019849
v 0.007328 0.010488 -0.020040
v 0.007377 0.010617 -0.019849
v 0.007146 0.010547 -0.020040
v 0.007181 0.010680 -0.019849
v 0.006980 0.010722 -0.019849
v 0.006959 0.010585 -0.020040
v 0.006769 0.010603 -0.020040
v 0.006579 0.010600 -0.020040
v 0.006775 0.010741 -0.019849
v 0.006569 0.010738 -0.019849
v 0.006389 0.010577 -0.020040
v -0.001256 0.003849 0.023516
v -0.001206 0.004381 0.023516
v -0.000936 0.004844 0.023516
v -0.000498 0.005150 0.023516
v 0.000029 0.005244 0.023516
v 0.000547 0.005108 0.023516
v 0.000959 0.004767 0.023516
v -0.001022 0.004740 0.023516
v -0.000106 0.005242 0.023516
v 0.001153 0.004414 0.023516
v 0.001218 0.003883 0.023516
v 0.001054 0.003373 0.023516
v 0.000197 0.002775 0.023516
v -0.001096 0.004627 0.023516
v -0.000734 0.005021 0.023516
v 0.000295 0.005204 0.023516
v -0.000705 0.002960 0.023516
v -0.000370 0.005195 0.023516
vn 0.9940 0.0136 -0.1081
vn -0.3175 0.4548 -0.8321
vn 0.7045 -0.0668 0.7066
vn 0.4810 0.6510 0.5872
vn -0.0000 -0.0000 -1.0000
vn -0.0111 0.8093 0.5872
vn 0.7065 0.0315 0.7070
vn -0.3558 0.4420 0.8234
vn -0.0364 -0.5123 0.8580
vn 0.4339 0.1269 0.8920
vn 0.9940 0.0136 0.1081
vn 0.9476 0.0130 0.3193
vn 0.4271 0.1249 -0.8955
vn 0.9075 0.0125 0.4199
vn 0.2716 -0.4378 -0.8571
vn -0.2438 0.0231 0.9696
vn 0.9999 0.0137 -0.0000
vn 0.1669 -0.0537 0.9845
vn 0.6224 0.5435 -0.5632
vn 0.0137 -0.9999 -0.0000
vn 0.2479 0.7705 0.5872
vn 0.8568 0.0118 -0.5156
vn -0.6371 0.1675 0.7524
vn 0.9075 0.0125 -0.4199
vn 0.8568 0.0118 0.5156
vn 0.2428 0.2940 0.9244
vn -0.1115 0.8020 0.5868
vn 0.4660 -0.2843 -0.8379
vn 0.0173 0.4275 -0.9038
vn 0.2156 -0.4991 -0.8393
vn 0.1133 -0.6363 0.7631
vn 0.0526 -0.7160 -0.6961
vn 0.0106 -0.7729 0.6345
vn -0.0355 -0.7233 -0.6897
vn -0.0989 -0.6598 0.7449
vn -0.1581 -0.6012 0.7833
vn 0.5125 0.0793 -0.8550
vn -0.3382 -0.4459 -0.8287
vn -0.4628 0.3823 0.7998
vn -0.5641 -0.3500 0.7479
vn -0.8835 -0.2072 0.4201
vn -0.9781 -0.1200 0.1701
vn 0.6044 0.5770 -0.5493
vn 0.2479 0.7705 -0.5872
vn 0.4810 0.6510 -0.5872
vn -0.3406 -0.4233 0.8395
vn -0.0111 0.8094 -0.5872
vn 0.3298 0.7392 0.5872
vn 0.1984 0.9639 0.1774
vn -0.9781 -0.1200 -0.1701
vn -0.8835 -0.2072 -0.4201
vn -0.6563 0.2983 -0.6930
vn 0.6596 0.4605 0.5940
vn -0.5641 -0.3500 -0.7479
vn -0.4879 -0.3816 -0.7851
vn 0.5139 0.0832 0.8538
vn 0.4660 -0.2843 0.8379
vn -0.6582 0.0266 -0.7524
vn -0.0989 -0.6598 -0.7449
vn -0.3171 0.1415 0.9378
vn 0.6967 -0.1730 -0.6962
vn 0.0106 -0.7729 -0.6345
vn -0.0865 0.5300 -0.8436
vn 0.4930 -0.1296 0.8603
vn -0.3928 0.3200 0.8622
vn -0.0076 0.5563 0.8310
vn 0.7667 0.0107 0.6419
vn 0.1133 -0.6363 -0.7631
vn -0.0633 -0.5033 -0.8618
vn 0.2716 -0.4378 0.8571
vn 0.1060 0.9905 -0.0879
vn 0.4003 -0.3307 -0.8546
vn 0.6967 -0.1730 0.6962
vn -0.0241 -0.1169 0.9929
vn -0.3336 -0.4347 -0.8365
vn 0.6604 0.4611 -0.5927
vn -0.9980 -0.0633 -0.0000
vn -0.4246 -0.2965 0.8555
vn -0.6485 -0.1155 0.7524
vn -0.5050 0.1201 -0.8547
vn -0.5190 0.0087 0.8547
vn -0.4710 -0.1952 0.8603
vn 0.7045 -0.0668 -0.7066
vn 0.1984 0.9641 -0.1767
vn 0.3283 0.1800 0.9273
vn 0.9765 0.0134 -0.2150
vn 0.1631 0.7928 -0.5872
vn -0.9810 0.0931 0.1701
vn -0.8889 0.1829 0.4201
vn -0.7719 0.2484 0.5852
vn -0.1855 -0.5765 -0.7957
vn -0.5734 0.3344 0.7479
vn -0.1290 -0.0800 0.9884
vn 0.4003 -0.3307 0.8546
vn -0.2072 0.5882 0.7818
vn -0.3880 0.4040 -0.8284
vn 0.1773 0.2694 -0.9466
vn 0.3298 0.7392 -0.5872
vn 0.4077 0.6992 -0.5872
vn -0.0000 -0.0000 1.0000
vn 0.2949 0.9167 0.2696
vn 0.3815 0.8552 0.3508
vn 0.4571 0.7838 0.4205
vn 0.5217 0.7062 0.4786
vn 0.2423 0.0297 0.9698
vn 0.7047 0.3378 -0.6240
vn 0.7446 0.1746 -0.6443
vn -0.2885 0.4732 -0.8324
vn -0.6582 0.0266 0.7524
vn 0.0906 -0.5088 0.8561
vn 0.0723 0.4827 0.8728
vn 0.0902 -0.5063 -0.8576
vn -0.1457 -0.4925 0.8580
vn -0.4962 -0.1325 -0.8580
vn -0.5169 -0.0920 0.8511
vn -0.1981 -0.4738 -0.8580
vn -0.6962 -0.1240 -0.7071
vn 0.7037 0.3374 0.6253
vn -0.1296 0.6532 0.7461
vn -0.4675 0.2085 0.8590
vn -0.4497 0.2306 -0.8629
vn -0.6945 -0.2967 -0.6555
vn 0.3460 0.1659 -0.9235
vn 0.0765 0.8058 -0.5872
vn 0.6217 0.5429 0.5646
vn -0.5185 -0.0071 -0.8550
vn 0.2155 -0.4991 0.8393
vn -0.9995 0.0318 -0.0000
vn -0.4548 -0.3972 0.7971
vn 0.5222 0.7068 -0.4772
vn 0.4573 0.7843 -0.4192
vn 0.3817 0.8556 -0.3497
vn 0.2950 0.9169 -0.2687
vn -0.1352 0.6321 -0.7630
vn 0.6032 0.5775 0.5502
vn -0.2371 -0.5314 0.8133
vn 0.7067 0.0280 -0.7070
vn -0.5734 0.3344 -0.7479
vn -0.6563 0.2983 0.6930
vn -0.7719 0.2484 -0.5852
vn -0.8889 0.1829 -0.4201
vn -0.9810 0.0931 -0.1701
vn 0.5174 -0.0209 0.8555
vn 0.0920 0.3500 -0.9322
vn -0.0194 0.9998 -0.0000
vn 0.1054 0.9906 0.0876
vn 0.7435 0.1744 0.6456
vn 0.7670 0.0097 -0.6415
vn -0.6371 0.1675 -0.7524
vn -0.4372 -0.2572 -0.8618
vn 0.0733 -0.1050 0.9918
vn -0.5050 0.1201 0.8547
vn -0.2481 -0.4496 0.8580
vn -0.2831 0.5168 0.8080
vn 0.9765 0.0134 0.2150
vn 0.0526 -0.7160 0.6961
vn 0.4078 0.6992 0.5872
vn -0.1125 0.8082 -0.5780
vn 0.1631 0.7928 0.5872
vn -0.6910 -0.2952 0.6598
vn 0.4930 -0.1296 -0.8603
vn 0.5174 -0.0209 -0.8555
vn 0.1530 0.3998 0.9038
vn 0.9476 0.0130 -0.3193
vn -0.3504 0.2306 0.9078
vn 0.0765 0.8058 0.5872
vn 0.2684 0.2099 -0.9402
vn -0.0355 -0.7233 0.6897
s 0
f 11//1 12//1 26//1 27//1
f 20//2 163//2 164//2
f 110//3 121//3 123//3 108//3
f 133//4 137//4 136//4 135//4
f 173//5 155//5 153//5 154//5 152//5 160//5 156//5 157//5 158//5 159//5 150//5 151//5 161//5 165//5 164//5 163//5 162//5 166//5 167//5 176//5 168//5 169//5 175//5 174//5 170//5 171//5 172//5
f 148//6 147//6 145//6 146//6
f 109//7 110//7 108//7 107//7 128//7
f 1//8 111//8 202//8 214//8
f 35//9 100//9 106//9 105//9 36//9
f 46//10 45//10 129//10 130//10
f 9//11 10//11 28//11 29//11
f 31//12 7//12 8//12 30//12
f 175//13 179//13 178//13 174//13
f 6//14 7//14 31//14 33//14
f 18//15 153//15 155//15
f 48//16 49//16 50//16 200//16 201//16
f 11//17 27//17 28//17 10//17
f 210//18 211//18 41//18 42//18 43//18
f 181//19 182//19 21//19
f 11//20 10//20 9//20 8//20 7//20 6//20 5//20 4//20 3//20 2//20 19//20 18//20 17//20 16//20 15//20 14//20 13//20 12//20
f 142//21 143//21 141//21 140//21
f 15//22 16//22 23//22 22//22
f 114//23 112//23 117//23 116//23 115//23
f 24//24 14//24 15//24 22//24
f 32//25 5//25 6//25 33//25
f 136//26 139//26 205//26 206//26 132//26 134//26 135//26
f 145//27 147//27 1//27
f 173//28 172//28 67//28 18//28
f 167//29 166//29 196//29 195//29 194//29
f 153//30 18//30 88//30 87//30 154//30
f 103//31 104//31 3//31
f 70//32 69//32 68//32 18//32
f 101//33 2//33 3//33
f 71//34 69//34 70//34 19//34
f 106//35 100//35 2//35
f 100//36 99//36 2//36
f 170//37 174//37 178//37 177//37 66//37
f 157//38 156//38 74//38 73//38 19//38
f 118//39 111//39 1//39
f 126//40 127//40 2//40
f 96//41 95//41 2//41
f 95//42 120//42 2//42
f 182//43 183//43 184//43 21//43
f 189//44 191//44 192//44 190//44
f 183//45 185//45 186//45 184//45
f 53//46 125//46 124//46 2//46 93//46 94//46 54//46
f 196//47 198//47 197//47 195//47
f 138//48 140//48 141//48 139//48
f 142//49 34//49 144//49
f 83//50 79//50 19//50
f 79//51 80//51 19//51
f 20//52 90//52 91//52 56//52
f 132//53 131//53 34//53
f 76//54 81//54 19//54
f 81//55 82//55 19//55
f 128//56 129//56 45//56 44//56 109//56
f 41//57 3//57 122//57 42//57
f 59//58 85//58 83//58 84//58 57//58
f 86//59 71//59 19//59
f 201//60 213//60 47//60 48//60
f 67//61 64//61 63//61 17//61 18//61
f 70//62 18//62 19//62
f 162//63 60//63 199//63 196//63 166//63
f 42//64 122//64 121//64 43//64
f 111//65 118//65 113//65 47//65 207//65 202//65
f 208//66 204//66 146//66 145//66
f 34//67 128//67 107//67 108//67 123//67 4//67 5//67 32//67
f 68//68 88//68 18//68
f 152//69 69//69 71//69 86//69 72//69 160//69
f 39//70 3//70 40//70
f 21//71 193//71 197//71 23//71
f 18//72 155//72 173//72
f 123//73 121//73 122//73 3//73 4//73
f 55//74 35//74 36//74 37//74 212//74 216//74 54//74
f 82//75 158//75 157//75 19//75
f 181//76 21//76 180//76
f 19//77 2//77 120//77 83//77
f 52//78 127//78 126//78 125//78 53//78
f 95//79 96//79 97//79 98//79 120//79
f 161//80 151//80 59//80 91//80
f 49//81 114//81 98//81 50//81
f 51//82 97//82 127//82 52//82
f 64//83 65//83 61//83 63//83
f 21//84 192//84 193//84
f 131//85 132//85 206//85 209//85 46//85 130//85
f 12//86 13//86 25//86 26//86
f 193//87 192//87 191//87 194//87
f 119//88 115//88 1//88
f 115//89 116//89 1//89
f 116//90 117//90 1//90
f 72//91 86//91 19//91 73//91
f 113//92 118//92 1//92
f 200//93 50//93 51//93 52//93 53//93 54//93 216//93
f 41//94 40//94 3//94
f 203//95 217//95 1//95
f 165//96 89//96 20//96 164//96
f 168//97 176//97 189//97 187//97 185//97 183//97 182//97
f 190//98 188//98 187//98 189//98
f 188//99 186//99 185//99 187//99
f 216//100 212//100 211//100 210//100 209//100 206//100 205//100 215//100 204//100 208//100 217//100 203//100 214//100 202//100 207//100 213//100 201//100 200//100
f 140//101 34//101 142//101
f 140//102 138//102 34//102
f 138//103 137//103 34//103
f 137//104 133//104 34//104
f 209//105 210//105 43//105 44//105 45//105 46//105
f 180//106 21//106 179//106
f 178//107 179//107 21//107 177//107
f 20//108 60//108 162//108 163//108
f 119//109 120//109 98//109 114//109 115//109
f 104//110 103//110 102//110 38//110 37//110 36//110 105//110
f 149//111 146//111 204//111 215//111 143//111
f 154//112 87//112 88//112 68//112 69//112 152//112
f 99//113 100//113 35//113 55//113 92//113
f 159//114 75//114 77//114 78//114 150//114
f 51//115 50//115 98//115 97//115
f 156//116 160//116 72//116 73//116 74//116
f 79//117 83//117 85//117 78//117 77//117 80//117
f 131//118 130//118 34//118
f 145//119 1//119 217//119 208//119
f 47//120 113//120 112//120 48//120
f 91//121 90//121 89//121 165//121 161//121
f 75//122 76//122 19//122 80//122 77//122
f 175//123 169//123 180//123 179//123
f 194//124 195//124 197//124 193//124
f 134//125 132//125 34//125
f 151//126 150//126 78//126 85//126 59//126
f 39//127 38//127 102//127 103//127 3//127
f 119//128 1//128 20//128 84//128 83//128 120//128
f 125//129 126//129 2//129 124//129
f 184//130 186//130 21//130
f 186//131 188//131 21//131
f 188//132 190//132 21//132
f 190//133 192//133 21//133
f 60//134 20//134 199//134
f 135//135 134//135 34//135 133//135
f 92//136 93//136 2//136 99//136
f 62//137 61//137 65//137 66//137 177//137
f 89//138 90//138 20//138
f 112//139 113//139 1//139 117//139
f 56//140 58//140 20//140
f 58//141 57//141 20//141
f 57//142 84//142 20//142
f 44//143 43//143 121//143 110//143 109//143
f 167//144 194//144 191//144 189//144 176//144
f 33//145 31//145 30//145 29//145 28//145 27//145 26//145 25//145 24//145 22//145 23//145 197//145 198//145 20//145 1//145 147//145 148//145 32//145
f 34//146 32//146 148//146 144//146
f 129//147 128//147 34//147 130//147
f 61//148 62//148 177//148 21//148 23//148 16//148 17//148 63//148
f 59//149 57//149 58//149 56//149 91//149
f 158//150 82//150 81//150 76//150 75//150 159//150
f 41//151 211//151 212//151 37//151 38//151 39//151 40//151
f 48//152 112//152 114//152 49//152
f 93//153 92//153 55//153 54//153 94//153
f 214//154 203//154 1//154
f 9//155 29//155 30//155 8//155
f 3//156 104//156 105//156 101//156
f 139//157 136//157 137//157 138//157
f 198//158 196//158 199//158 20//158
f 142//159 144//159 149//159 143//159
f 96//160 2//160 127//160 97//160
f 67//161 172//161 171//161 64//161
f 171//162 170//162 66//162 65//162 64//162
f 141//163 143//163 215//163 205//163 139//163
f 13//164 14//164 24//164 25//164
f 207//165 47//165 213//165
f 144//166 148//166 146//166 149//166
f 169//167 168//167 182//167 181//167 180//167
f 105//168 106//168 2//168 101//168
