{
	"asset":{
		"generator":"Khronos glTF Blender I/O v5.1.18",
		"version":"2.0"
	},
	"scene":0,
	"scenes":[
		{
			"name":"Scene",
			"nodes":[
				0
			]
		}
	],
	"nodes":[
		{
			"mesh":0,
			"name":"col_distal_phalanx"
		}
	],
	"materials":[
		{
			"doubleSided":true,
			"name":"Collision",
			"pbrMetallicRoughness":{
				"baseColorFactor":[
					1,
					0,
					0,
					1
				],
				"metallicFactor":0,
				"roughnessFactor":0.5
			}
		}
	],
	"meshes":[
		{
			"name":"V4_Assem.099",
			"primitives":[
				{
					"attributes":{
						"POSITION":0,
						"NORMAL":1
					},
					"indices":2,
					"material":0
				}
			]
		}
	],
	"accessors":[
		{
			"bufferView":0,
			"componentType":5126,
			"count":948,
			"max":[
				0.03513103723526001,
				0.012499839067459106,
				0.016109542921185493
			],
			"min":[
				-0.013089559972286224,
				-0.012499786913394928,
				-0.01584978587925434
			],
			"type":"VEC3"
		},
		{
			"bufferView":1,
			"componentType":5126,
			"count":948,
			"type":"VEC3"
		},
		{
			"bufferView":2,
			"componentType":5123,
			"count":1638,
			"type":"SCALAR"
		}
	],
	"bufferViews":[
		{
			"buffer":0,
			"byteLength":11376,
			"byteOffset":0,
			"target":34962
		},
		{
			"buffer":0,
			"byteLength":11376,
			"byteOffset":11376,
			"target":34962
		},
		{
			"buffer":0,
			"byteLength":3276,
			"byteOffset":22752,
			"target":34963
		}
	],
	"buffers":[
		{
			"byteLength":26028,
			"uri":"col_distal_phalanx.bin"
		}
	]
}
