<?xml version="1.0" encoding="UTF-8" standalone="no"?>
<!DOCTYPE svg PUBLIC "-//W3C//DTD SVG 1.1//EN"
 "http://www.w3.org/Graphics/SVG/1.1/DTD/svg11.dtd">
<!-- Generated by graphviz version 2.43.0 (0)
 -->
<!-- Title: _89 Pages: 1 -->
<svg width="2398pt" height="726pt"
 viewBox="0.00 0.00 2398.00 726.03" xmlns="http://www.w3.org/2000/svg" xmlns:xlink="http://www.w3.org/1999/xlink">
<g id="graph0" class="graph" transform="scale(1 1) rotate(0) translate(4 722.03)">
<title>_89</title>
<polygon fill="white" stroke="transparent" points="-4,4 -4,-722.03 2394,-722.03 2394,4 -4,4"/>
<g id="clust1" class="cluster">
<title>cluster89diagram</title>
<polygon fill="none" stroke="black" points="8,-8 8,-697 2382,-697 2382,-8 8,-8"/>
<text text-anchor="start" x="1161" y="-678.3" font-family="Times,serif" font-weight="bold" font-size="14.00">Diagram</text>
</g>
<g id="clust2" class="cluster">
<title>cluster89subsystems</title>
<polygon fill="none" stroke="white" points="16,-16 16,-658 2374,-658 2374,-16 16,-16"/>
</g>
<!-- s2 -->
<g id="node1" class="node">
<title>s2</title>
<polygon fill="none" stroke="black" points="32.5,-612 32.5,-646 663.5,-646 663.5,-612 32.5,-612"/>
<text text-anchor="start" x="286.5" y="-632.8" font-family="Times,serif" font-weight="bold" font-size="14.00">MultibodyPlant</text>
<text text-anchor="start" x="304" y="-618.8" font-family="Times,serif" font-size="14.00">name=plant</text>
<polygon fill="none" stroke="black" points="32.5,-591 32.5,-612 299.5,-612 299.5,-591 32.5,-591"/>
<text text-anchor="start" x="107.5" y="-597.8" font-family="Times,serif" font-size="14.00">geometry_query</text>
<polygon fill="none" stroke="black" points="299.5,-591 299.5,-612 663.5,-612 663.5,-591 299.5,-591"/>
<text text-anchor="start" x="427" y="-597.8" font-family="Times,serif" font-size="14.00">geometry_pose</text>
<polygon fill="none" stroke="black" points="32.5,-570 32.5,-591 299.5,-591 299.5,-570 32.5,-570"/>
<text text-anchor="start" x="132.5" y="-576.8" font-family="Times,serif" font-size="14.00">actuation</text>
<polygon fill="none" stroke="black" points="299.5,-570 299.5,-591 663.5,-591 663.5,-570 299.5,-570"/>
<text text-anchor="start" x="369.5" y="-576.8" font-family="Times,serif" font-size="14.00">deformable_body_configuration</text>
<polygon fill="none" stroke="black" points="32.5,-549 32.5,-570 299.5,-570 299.5,-549 32.5,-549"/>
<text text-anchor="start" x="73" y="-555.8" font-family="Times,serif" font-size="14.00">applied_generalized_force</text>
<polygon fill="none" stroke="black" points="299.5,-549 299.5,-570 663.5,-570 663.5,-549 299.5,-549"/>
<text text-anchor="start" x="463" y="-555.8" font-family="Times,serif" font-size="14.00">state</text>
<polygon fill="none" stroke="black" points="32.5,-528 32.5,-549 299.5,-549 299.5,-528 32.5,-528"/>
<text text-anchor="start" x="90.5" y="-534.8" font-family="Times,serif" font-size="14.00">applied_spatial_force</text>
<polygon fill="none" stroke="black" points="299.5,-528 299.5,-549 663.5,-549 663.5,-528 299.5,-528"/>
<text text-anchor="start" x="440.5" y="-534.8" font-family="Times,serif" font-size="14.00">body_poses</text>
<polygon fill="none" stroke="black" points="32.5,-507 32.5,-528 299.5,-528 299.5,-507 32.5,-507"/>
<text text-anchor="start" x="55.5" y="-513.8" font-family="Times,serif" font-size="14.00" fill="grey">WorldModelInstance_actuation</text>
<polygon fill="none" stroke="black" points="299.5,-507 299.5,-528 663.5,-528 663.5,-507 299.5,-507"/>
<text text-anchor="start" x="399.5" y="-513.8" font-family="Times,serif" font-size="14.00">body_spatial_velocities</text>
<polygon fill="none" stroke="black" points="32.5,-486 32.5,-507 299.5,-507 299.5,-486 32.5,-486"/>
<text text-anchor="start" x="41" y="-492.8" font-family="Times,serif" font-size="14.00" fill="grey">WorldModelInstance_desired_state</text>
<polygon fill="none" stroke="black" points="299.5,-486 299.5,-507 663.5,-507 663.5,-486 299.5,-486"/>
<text text-anchor="start" x="386" y="-492.8" font-family="Times,serif" font-size="14.00">body_spatial_accelerations</text>
<polygon fill="none" stroke="black" points="32.5,-465 32.5,-486 299.5,-486 299.5,-465 32.5,-465"/>
<text text-anchor="start" x="50" y="-471.8" font-family="Times,serif" font-size="14.00" fill="grey">DefaultModelInstance_actuation</text>
<polygon fill="none" stroke="black" points="299.5,-465 299.5,-486 663.5,-486 663.5,-465 299.5,-465"/>
<text text-anchor="start" x="392.5" y="-471.8" font-family="Times,serif" font-size="14.00">generalized_acceleration</text>
<polygon fill="none" stroke="black" points="32.5,-444 32.5,-465 299.5,-465 299.5,-444 32.5,-444"/>
<text text-anchor="start" x="35.5" y="-450.8" font-family="Times,serif" font-size="14.00" fill="grey">DefaultModelInstance_desired_state</text>
<polygon fill="none" stroke="black" points="299.5,-444 299.5,-465 663.5,-465 663.5,-444 299.5,-444"/>
<text text-anchor="start" x="433" y="-450.8" font-family="Times,serif" font-size="14.00">net_actuation</text>
<polygon fill="none" stroke="black" points="32.5,-423 32.5,-444 299.5,-444 299.5,-423 32.5,-423"/>
<text text-anchor="start" x="61.5" y="-429.8" font-family="Times,serif" font-size="14.00">powerhouse_finger_actuation</text>
<polygon fill="none" stroke="black" points="299.5,-423 299.5,-444 663.5,-444 663.5,-423 299.5,-423"/>
<text text-anchor="start" x="427" y="-429.8" font-family="Times,serif" font-size="14.00">reaction_forces</text>
<polygon fill="none" stroke="black" points="32.5,-402 32.5,-423 299.5,-423 299.5,-402 32.5,-402"/>
<text text-anchor="start" x="47" y="-408.8" font-family="Times,serif" font-size="14.00">powerhouse_finger_desired_state</text>
<polygon fill="none" stroke="black" points="299.5,-402 299.5,-423 663.5,-423 663.5,-402 299.5,-402"/>
<text text-anchor="start" x="427" y="-408.8" font-family="Times,serif" font-size="14.00">contact_results</text>
<polyline fill="none" stroke="grey" points="32.5,-402 32.5,-150 299.5,-150 "/>
<polygon fill="none" stroke="black" points="299.5,-381 299.5,-402 663.5,-402 663.5,-381 299.5,-381"/>
<text text-anchor="start" x="386.5" y="-387.8" font-family="Times,serif" font-size="14.00" fill="grey">WorldModelInstance_state</text>
<polygon fill="none" stroke="black" points="299.5,-360 299.5,-381 663.5,-381 663.5,-360 299.5,-360"/>
<text text-anchor="start" x="316" y="-366.8" font-family="Times,serif" font-size="14.00" fill="grey">WorldModelInstance_generalized_acceleration</text>
<polygon fill="none" stroke="black" points="299.5,-339 299.5,-360 663.5,-360 663.5,-339 299.5,-339"/>
<text text-anchor="start" x="308" y="-345.8" font-family="Times,serif" font-size="14.00" fill="grey">WorldModelInstance_generalized_contact_forces</text>
<polygon fill="none" stroke="black" points="299.5,-318 299.5,-339 663.5,-339 663.5,-318 299.5,-318"/>
<text text-anchor="start" x="356" y="-324.8" font-family="Times,serif" font-size="14.00" fill="grey">WorldModelInstance_net_actuation</text>
<polygon fill="none" stroke="black" points="299.5,-297 299.5,-318 663.5,-318 663.5,-297 299.5,-297"/>
<text text-anchor="start" x="381" y="-303.8" font-family="Times,serif" font-size="14.00" fill="grey">DefaultModelInstance_state</text>
<polygon fill="none" stroke="black" points="299.5,-276 299.5,-297 663.5,-297 663.5,-276 299.5,-276"/>
<text text-anchor="start" x="310.5" y="-282.8" font-family="Times,serif" font-size="14.00" fill="grey">DefaultModelInstance_generalized_acceleration</text>
<polygon fill="none" stroke="black" points="299.5,-255 299.5,-276 663.5,-276 663.5,-255 299.5,-255"/>
<text text-anchor="start" x="302.5" y="-261.8" font-family="Times,serif" font-size="14.00" fill="grey">DefaultModelInstance_generalized_contact_forces</text>
<polygon fill="none" stroke="black" points="299.5,-234 299.5,-255 663.5,-255 663.5,-234 299.5,-234"/>
<text text-anchor="start" x="350.5" y="-240.8" font-family="Times,serif" font-size="14.00" fill="grey">DefaultModelInstance_net_actuation</text>
<polygon fill="none" stroke="black" points="299.5,-213 299.5,-234 663.5,-234 663.5,-213 299.5,-213"/>
<text text-anchor="start" x="392.5" y="-219.8" font-family="Times,serif" font-size="14.00">powerhouse_finger_state</text>
<polygon fill="none" stroke="black" points="299.5,-192 299.5,-213 663.5,-213 663.5,-192 299.5,-192"/>
<text text-anchor="start" x="322" y="-198.8" font-family="Times,serif" font-size="14.00">powerhouse_finger_generalized_acceleration</text>
<polygon fill="none" stroke="black" points="299.5,-171 299.5,-192 663.5,-192 663.5,-171 299.5,-171"/>
<text text-anchor="start" x="314" y="-177.8" font-family="Times,serif" font-size="14.00">powerhouse_finger_generalized_contact_forces</text>
<polygon fill="none" stroke="black" points="299.5,-150 299.5,-171 663.5,-171 663.5,-150 299.5,-150"/>
<text text-anchor="start" x="362" y="-156.8" font-family="Times,serif" font-size="14.00">powerhouse_finger_net_actuation</text>
</g>
<!-- s3 -->
<g id="node2" class="node">
<title>s3</title>
<polygon fill="none" stroke="black" points="823.5,-612 823.5,-646 1016.5,-646 1016.5,-612 823.5,-612"/>
<text text-anchor="start" x="872" y="-632.8" font-family="Times,serif" font-weight="bold" font-size="14.00">SceneGraph</text>
<text text-anchor="start" x="849.5" y="-618.8" font-family="Times,serif" font-size="14.00">name=scene_graph</text>
<polygon fill="none" stroke="black" points="823.5,-591 823.5,-612 968.5,-612 968.5,-591 823.5,-591"/>
<text text-anchor="start" x="857.5" y="-597.8" font-family="Times,serif" font-size="14.00">plant_pose</text>
<polygon fill="none" stroke="black" points="968.5,-570 968.5,-612 1016.5,-612 1016.5,-570 968.5,-570"/>
<text text-anchor="start" x="971.5" y="-587.3" font-family="Times,serif" font-size="14.00">query</text>
<polygon fill="none" stroke="black" points="823.5,-570 823.5,-591 968.5,-591 968.5,-570 823.5,-570"/>
<text text-anchor="start" x="826.5" y="-576.8" font-family="Times,serif" font-size="14.00">plant_configuration</text>
</g>
<!-- s2&#45;&gt;s3 -->
<g id="edge3" class="edge">
<title>s2:e&#45;&gt;s3:w</title>
<path fill="none" stroke="black" d="M664.5,-602C731.16,-602 750.36,-601.1 812.2,-601.01"/>
<polygon fill="black" stroke="black" points="812.5,-604.51 822.5,-601 812.5,-597.51 812.5,-604.51"/>
</g>
<!-- s2&#45;&gt;s3 -->
<g id="edge4" class="edge">
<title>s2:e&#45;&gt;s3:w</title>
<path fill="none" stroke="black" d="M664.5,-581C731.16,-581 750.36,-580.1 812.2,-580.01"/>
<polygon fill="black" stroke="black" points="812.5,-583.51 822.5,-580 812.5,-576.51 812.5,-583.51"/>
</g>
<!-- s79 -->
<g id="node8" class="node">
<title>s79</title>
<polygon fill="none" stroke="black" points="860.5,-244 860.5,-265 979.5,-265 979.5,-244 860.5,-244"/>
<text text-anchor="start" x="863.5" y="-251.8" font-family="Times,serif" font-weight="bold" font-size="14.00">Demultiplexer</text>
<polygon fill="none" stroke="black" points="860.5,-202 860.5,-244 920.5,-244 920.5,-202 860.5,-202"/>
<text text-anchor="start" x="881" y="-219.3" font-family="Times,serif" font-size="14.00">u0</text>
<polygon fill="none" stroke="black" points="920.5,-223 920.5,-244 979.5,-244 979.5,-223 920.5,-223"/>
<text text-anchor="start" x="941" y="-229.8" font-family="Times,serif" font-size="14.00">y0</text>
<polygon fill="none" stroke="black" points="920.5,-202 920.5,-223 979.5,-223 979.5,-202 920.5,-202"/>
<text text-anchor="start" x="941" y="-208.8" font-family="Times,serif" font-size="14.00">y1</text>
</g>
<!-- s2&#45;&gt;s79 -->
<g id="edge11" class="edge">
<title>s2:e&#45;&gt;s79:w</title>
<path fill="none" stroke="black" d="M664.5,-223C747.61,-223 770.95,-223 849.16,-223"/>
<polygon fill="black" stroke="black" points="849.5,-226.5 859.5,-223 849.5,-219.5 849.5,-226.5"/>
</g>
<!-- s3&#45;&gt;s2 -->
<g id="edge7" class="edge">
<title>s3:e&#45;&gt;s2:w</title>
<path fill="none" stroke="black" d="M1017.5,-591C1044.03,-591 1043.67,-504.18 815,-566 743.47,-585.34 742.53,-630.66 671,-650 534.03,-687.03 133.87,-749.28 32.5,-650 20.35,-638.1 13.38,-614.69 21.85,-605.66"/>
<polygon fill="black" stroke="black" points="23.39,-608.82 31.5,-602 20.91,-602.28 23.39,-608.82"/>
</g>
<!-- s75 -->
<g id="node3" class="node">
<title>s75</title>
<polygon fill="none" stroke="black" points="1287,-502 1287,-550 1533,-550 1533,-502 1287,-502"/>
<text text-anchor="start" x="1336.5" y="-536.8" font-family="Times,serif" font-weight="bold" font-size="14.00">MeshcatVisualizer</text>
<text text-anchor="start" x="1290" y="-522.8" font-family="Times,serif" font-size="14.00">name=meshcat_visualizer(visual)</text>
<text text-anchor="start" x="1342" y="-508.8" font-family="Times,serif" font-size="14.00">path=/drake/visual</text>
<polygon fill="none" stroke="black" points="1287,-481 1287,-502 1456,-502 1456,-481 1287,-481"/>
<text text-anchor="start" x="1325.5" y="-487.8" font-family="Times,serif" font-size="14.00">query_object</text>
<polyline fill="none" stroke="grey" points="1456,-481 1533,-481 1533,-502 "/>
</g>
<!-- s3&#45;&gt;s75 -->
<g id="edge5" class="edge">
<title>s3:e&#45;&gt;s75:w</title>
<path fill="none" stroke="black" d="M1017.5,-591C1141.36,-591 1157.82,-496.39 1275.8,-491.22"/>
<polygon fill="black" stroke="black" points="1276.08,-494.72 1286,-491 1275.93,-487.72 1276.08,-494.72"/>
</g>
<!-- s76 -->
<g id="node5" class="node">
<title>s76</title>
<polygon fill="none" stroke="black" points="1279,-597 1279,-645 1541,-645 1541,-597 1279,-597"/>
<text text-anchor="start" x="1336.5" y="-631.8" font-family="Times,serif" font-weight="bold" font-size="14.00">MeshcatVisualizer</text>
<text text-anchor="start" x="1282" y="-617.8" font-family="Times,serif" font-size="14.00">name=meshcat_visualizer(collision)</text>
<text text-anchor="start" x="1333.5" y="-603.8" font-family="Times,serif" font-size="14.00">path=/drake/collision</text>
<polygon fill="none" stroke="black" points="1279,-576 1279,-597 1456,-597 1456,-576 1279,-576"/>
<text text-anchor="start" x="1321.5" y="-582.8" font-family="Times,serif" font-size="14.00">query_object</text>
<polyline fill="none" stroke="grey" points="1456,-576 1541,-576 1541,-597 "/>
</g>
<!-- s3&#45;&gt;s76 -->
<g id="edge6" class="edge">
<title>s3:e&#45;&gt;s76:w</title>
<path fill="none" stroke="black" d="M1017.5,-591C1129.79,-591 1160.37,-586.3 1267.72,-586.01"/>
<polygon fill="black" stroke="black" points="1268,-589.51 1278,-586 1268,-582.51 1268,-589.51"/>
</g>
<!-- meshcat_in -->
<g id="node4" class="node">
<title>meshcat_in</title>
<ellipse fill="none" stroke="magenta" cx="1916.5" cy="-563" rx="50.09" ry="18"/>
<text text-anchor="middle" x="1916.5" y="-559.3" font-family="Times,serif" font-size="14.00">Meshcat</text>
</g>
<!-- s75&#45;&gt;meshcat_in -->
<g id="edge1" class="edge">
<title>s75:e&#45;&gt;meshcat_in</title>
<path fill="none" stroke="magenta" stroke-dasharray="5,2" d="M1542,-516C1657.08,-516 1790.56,-538.24 1862.68,-552.12"/>
<polygon fill="magenta" stroke="magenta" points="1862.38,-555.63 1872.87,-554.1 1863.72,-548.76 1862.38,-555.63"/>
</g>
<!-- s76&#45;&gt;meshcat_in -->
<g id="edge2" class="edge">
<title>s76:e&#45;&gt;meshcat_in</title>
<path fill="none" stroke="magenta" stroke-dasharray="5,2" d="M1550,-611C1662.39,-611 1792.58,-588.41 1863.26,-574.23"/>
<polygon fill="magenta" stroke="magenta" points="1864.15,-577.62 1873.25,-572.2 1862.75,-570.76 1864.15,-577.62"/>
</g>
<!-- s77 -->
<g id="node6" class="node">
<title>s77</title>
<polygon fill="none" stroke="black" points="264.5,-99 264.5,-120 430.5,-120 430.5,-99 264.5,-99"/>
<text text-anchor="start" x="267.5" y="-106.8" font-family="Times,serif" font-weight="bold" font-size="14.00">RosInterfaceSystem</text>
</g>
<!-- s78 -->
<g id="node7" class="node">
<title>s78</title>
<polygon fill="none" stroke="black" points="1184,-244 1184,-265 1637,-265 1637,-244 1184,-244"/>
<text text-anchor="start" x="1187" y="-251.8" font-family="Times,serif" font-weight="bold" font-size="14.00">finger_sim.drake_ros_systems.FingerJointStatePublisher</text>
<polygon fill="none" stroke="black" points="1184,-223 1184,-244 1408,-244 1408,-223 1184,-223"/>
<text text-anchor="start" x="1244" y="-229.8" font-family="Times,serif" font-size="14.00">joint_positions</text>
<polygon fill="none" stroke="black" points="1408,-202 1408,-244 1637,-244 1637,-202 1408,-202"/>
<text text-anchor="start" x="1466.5" y="-219.3" font-family="Times,serif" font-size="14.00">joint_state_msg</text>
<polygon fill="none" stroke="black" points="1184,-202 1184,-223 1408,-223 1408,-202 1184,-202"/>
<text text-anchor="start" x="1242.5" y="-208.8" font-family="Times,serif" font-size="14.00">joint_velocities</text>
</g>
<!-- s80 -->
<g id="node9" class="node">
<title>s80</title>
<polygon fill="none" stroke="black" points="1832.5,-234 1832.5,-255 2001.5,-255 2001.5,-234 1832.5,-234"/>
<text text-anchor="start" x="1835.5" y="-241.8" font-family="Times,serif" font-weight="bold" font-size="14.00">RosPublisherSystem</text>
<polygon fill="none" stroke="black" points="1832.5,-213 1832.5,-234 1948.5,-234 1948.5,-213 1832.5,-213"/>
<text text-anchor="start" x="1859" y="-219.8" font-family="Times,serif" font-size="14.00">message</text>
<polyline fill="none" stroke="grey" points="1948.5,-213 2001.5,-213 2001.5,-234 "/>
</g>
<!-- s78&#45;&gt;s80 -->
<g id="edge12" class="edge">
<title>s78:e&#45;&gt;s80:w</title>
<path fill="none" stroke="black" d="M1638,-223C1720.47,-223 1743.63,-223 1821.23,-223"/>
<polygon fill="black" stroke="black" points="1821.5,-226.5 1831.5,-223 1821.5,-219.5 1821.5,-226.5"/>
</g>
<!-- s79&#45;&gt;s78 -->
<g id="edge9" class="edge">
<title>s79:e&#45;&gt;s78:w</title>
<path fill="none" stroke="black" d="M980.5,-233C1066.98,-233 1091.14,-233 1172.75,-233"/>
<polygon fill="black" stroke="black" points="1173,-236.5 1183,-233 1173,-229.5 1173,-236.5"/>
</g>
<!-- s79&#45;&gt;s78 -->
<g id="edge10" class="edge">
<title>s79:e&#45;&gt;s78:w</title>
<path fill="none" stroke="black" d="M980.5,-212C1066.98,-212 1091.14,-212 1172.75,-212"/>
<polygon fill="black" stroke="black" points="1173,-215.5 1183,-212 1173,-208.5 1173,-215.5"/>
</g>
<!-- s83 -->
<g id="node12" class="node">
<title>s83</title>
<polygon fill="none" stroke="black" points="1176,-333 1176,-354 1644,-354 1644,-333 1176,-333"/>
<text text-anchor="start" x="1179" y="-340.8" font-family="Times,serif" font-weight="bold" font-size="14.00">finger_sim.drake_core_systems.MotorTorqueToJointTorque</text>
<polygon fill="none" stroke="black" points="1176,-312 1176,-333 1407,-333 1407,-312 1176,-312"/>
<text text-anchor="start" x="1243" y="-318.8" font-family="Times,serif" font-size="14.00">motor_torque</text>
<polygon fill="none" stroke="black" points="1407,-312 1407,-333 1644,-333 1644,-312 1407,-312"/>
<text text-anchor="start" x="1482" y="-318.8" font-family="Times,serif" font-size="14.00">joint_torque</text>
<polygon fill="none" stroke="black" points="1176,-291 1176,-312 1407,-312 1407,-291 1176,-291"/>
<text text-anchor="start" x="1239.5" y="-297.8" font-family="Times,serif" font-size="14.00">joint_positions</text>
<polygon fill="none" stroke="black" points="1407,-291 1407,-312 1644,-312 1644,-291 1407,-291"/>
<text text-anchor="start" x="1471" y="-297.8" font-family="Times,serif" font-size="14.00">tendon_tension</text>
</g>
<!-- s79&#45;&gt;s83 -->
<g id="edge15" class="edge">
<title>s79:e&#45;&gt;s83:w</title>
<path fill="none" stroke="black" d="M980.5,-233C1001.16,-233 1124.26,-288.37 1164.93,-299.18"/>
<polygon fill="black" stroke="black" points="1164.54,-302.67 1175,-301 1165.78,-295.78 1164.54,-302.67"/>
</g>
<!-- s81 -->
<g id="node10" class="node">
<title>s81</title>
<polygon fill="none" stroke="black" points="258.5,-49 258.5,-70 436.5,-70 436.5,-49 258.5,-49"/>
<text text-anchor="start" x="261.5" y="-56.8" font-family="Times,serif" font-weight="bold" font-size="14.00">RosSubscriberSystem</text>
<polyline fill="none" stroke="grey" points="258.5,-49 258.5,-28 338.5,-28 "/>
<polygon fill="none" stroke="black" points="338.5,-28 338.5,-49 436.5,-49 436.5,-28 338.5,-28"/>
<text text-anchor="start" x="378.5" y="-34.8" font-family="Times,serif" font-size="14.00">y0</text>
</g>
<!-- s82 -->
<g id="node11" class="node">
<title>s82</title>
<polygon fill="none" stroke="black" points="715.5,-323 715.5,-344 1124.5,-344 1124.5,-323 715.5,-323"/>
<text text-anchor="start" x="718.5" y="-330.8" font-family="Times,serif" font-weight="bold" font-size="14.00">finger_sim.drake_core_systems.MultiArrayToVector</text>
<polygon fill="none" stroke="black" points="715.5,-302 715.5,-323 912.5,-323 912.5,-302 715.5,-302"/>
<text text-anchor="start" x="798.5" y="-308.8" font-family="Times,serif" font-size="14.00">msg</text>
<polygon fill="none" stroke="black" points="912.5,-302 912.5,-323 1124.5,-323 1124.5,-302 912.5,-302"/>
<text text-anchor="start" x="995.5" y="-308.8" font-family="Times,serif" font-size="14.00">vector</text>
</g>
<!-- s81&#45;&gt;s82 -->
<g id="edge13" class="edge">
<title>s81:e&#45;&gt;s82:w</title>
<path fill="none" stroke="black" d="M437.5,-38C543.19,-38 596.59,-7.94 671,-83 741.37,-153.99 620,-301.17 704.43,-311.43"/>
<polygon fill="black" stroke="black" points="704.32,-314.93 714.5,-312 704.71,-307.94 704.32,-314.93"/>
</g>
<!-- s82&#45;&gt;s83 -->
<g id="edge14" class="edge">
<title>s82:e&#45;&gt;s83:w</title>
<path fill="none" stroke="black" d="M1125.5,-312C1144.09,-312 1150.44,-318.86 1164.83,-321.22"/>
<polygon fill="black" stroke="black" points="1164.76,-324.72 1175,-322 1165.3,-317.74 1164.76,-324.72"/>
</g>
<!-- s83&#45;&gt;s2 -->
<g id="edge8" class="edge">
<title>s83:e&#45;&gt;s2:w</title>
<path fill="none" stroke="black" d="M1645,-322C1660.34,-322 1655,-298.19 1644,-287.5 1634.52,-278.29 1179.3,-280.63 1168,-287.5 1138.28,-305.58 1157.06,-332.87 1132,-357 981.6,-501.78 849.32,-404.27 707,-557 676.78,-589.43 707.56,-624.95 671,-650 553.95,-730.2 133.55,-749.6 32.5,-650 13.56,-631.33 3.65,-593.15 21.36,-583.34"/>
<polygon fill="black" stroke="black" points="22.54,-586.66 31.5,-581 20.97,-579.84 22.54,-586.66"/>
</g>
<!-- s84 -->
<g id="node13" class="node">
<title>s84</title>
<polygon fill="none" stroke="black" points="1696.5,-307 1696.5,-328 2137.5,-328 2137.5,-307 1696.5,-307"/>
<text text-anchor="start" x="1699.5" y="-314.8" font-family="Times,serif" font-weight="bold" font-size="14.00">finger_sim.drake_core_systems.TendonTensionToStress</text>
<polygon fill="none" stroke="black" points="1696.5,-286 1696.5,-307 1921.5,-307 1921.5,-286 1696.5,-286"/>
<text text-anchor="start" x="1754.5" y="-292.8" font-family="Times,serif" font-size="14.00">tendon_tension</text>
<polygon fill="none" stroke="black" points="1921.5,-286 1921.5,-307 2137.5,-307 2137.5,-286 1921.5,-286"/>
<text text-anchor="start" x="1979.5" y="-292.8" font-family="Times,serif" font-size="14.00">tendon_stress</text>
</g>
<!-- s83&#45;&gt;s84 -->
<g id="edge16" class="edge">
<title>s83:e&#45;&gt;s84:w</title>
<path fill="none" stroke="black" d="M1645,-301C1663.68,-301 1670.59,-297.57 1685.22,-296.39"/>
<polygon fill="black" stroke="black" points="1685.64,-299.88 1695.5,-296 1685.37,-292.88 1685.64,-299.88"/>
</g>
<!-- s85 -->
<g id="node14" class="node">
<title>s85</title>
<polygon fill="none" stroke="black" points="1712.5,-375 1712.5,-396 2121.5,-396 2121.5,-375 1712.5,-375"/>
<text text-anchor="start" x="1715.5" y="-382.8" font-family="Times,serif" font-weight="bold" font-size="14.00">finger_sim.drake_core_systems.VectorToMultiArray</text>
<polygon fill="none" stroke="black" points="1712.5,-354 1712.5,-375 1924.5,-375 1924.5,-354 1712.5,-354"/>
<text text-anchor="start" x="1795.5" y="-360.8" font-family="Times,serif" font-size="14.00">vector</text>
<polygon fill="none" stroke="black" points="1924.5,-354 1924.5,-375 2121.5,-375 2121.5,-354 1924.5,-354"/>
<text text-anchor="start" x="2007.5" y="-360.8" font-family="Times,serif" font-size="14.00">msg</text>
</g>
<!-- s83&#45;&gt;s85 -->
<g id="edge17" class="edge">
<title>s83:e&#45;&gt;s85:w</title>
<path fill="none" stroke="black" d="M1645,-301C1681.9,-301 1673.1,-352.74 1701.42,-362.44"/>
<polygon fill="black" stroke="black" points="1701.08,-365.93 1711.5,-364 1702.15,-359.01 1701.08,-365.93"/>
</g>
<!-- s86 -->
<g id="node15" class="node">
<title>s86</title>
<polygon fill="none" stroke="black" points="2189.5,-307 2189.5,-328 2358.5,-328 2358.5,-307 2189.5,-307"/>
<text text-anchor="start" x="2192.5" y="-314.8" font-family="Times,serif" font-weight="bold" font-size="14.00">RosPublisherSystem</text>
<polygon fill="none" stroke="black" points="2189.5,-286 2189.5,-307 2305.5,-307 2305.5,-286 2189.5,-286"/>
<text text-anchor="start" x="2216" y="-292.8" font-family="Times,serif" font-size="14.00">message</text>
<polyline fill="none" stroke="grey" points="2305.5,-286 2358.5,-286 2358.5,-307 "/>
</g>
<!-- s84&#45;&gt;s86 -->
<g id="edge18" class="edge">
<title>s84:e&#45;&gt;s86:w</title>
<path fill="none" stroke="black" d="M2138.5,-296C2156.9,-296 2163.88,-296 2178.35,-296"/>
<polygon fill="black" stroke="black" points="2178.5,-299.5 2188.5,-296 2178.5,-292.5 2178.5,-299.5"/>
</g>
<!-- s87 -->
<g id="node16" class="node">
<title>s87</title>
<polygon fill="none" stroke="black" points="2189.5,-375 2189.5,-396 2358.5,-396 2358.5,-375 2189.5,-375"/>
<text text-anchor="start" x="2192.5" y="-382.8" font-family="Times,serif" font-weight="bold" font-size="14.00">RosPublisherSystem</text>
<polygon fill="none" stroke="black" points="2189.5,-354 2189.5,-375 2305.5,-375 2305.5,-354 2189.5,-354"/>
<text text-anchor="start" x="2216" y="-360.8" font-family="Times,serif" font-size="14.00">message</text>
<polyline fill="none" stroke="grey" points="2305.5,-354 2358.5,-354 2358.5,-375 "/>
</g>
<!-- s85&#45;&gt;s87 -->
<g id="edge19" class="edge">
<title>s85:e&#45;&gt;s87:w</title>
<path fill="none" stroke="black" d="M2122.5,-364C2148.17,-364 2156.99,-364 2178.45,-364"/>
<polygon fill="black" stroke="black" points="2178.5,-367.5 2188.5,-364 2178.5,-360.5 2178.5,-367.5"/>
</g>
</g>
</svg>
