<?xml version="1.0" encoding="UTF-8" standalone="no"?>
<!DOCTYPE svg PUBLIC "-//W3C//DTD SVG 1.1//EN"
 "http://www.w3.org/Graphics/SVG/1.1/DTD/svg11.dtd">
<!-- Generated by graphviz version 2.43.0 (0)
 -->
<!-- Title: _87 Pages: 1 -->
<svg width="2432pt" height="726pt"
 viewBox="0.00 0.00 2432.00 726.24" xmlns="http://www.w3.org/2000/svg" xmlns:xlink="http://www.w3.org/1999/xlink">
<g id="graph0" class="graph" transform="scale(1 1) rotate(0) translate(4 722.24)">
<title>_87</title>
<polygon fill="white" stroke="transparent" points="-4,4 -4,-722.24 2428,-722.24 2428,4 -4,4"/>
<g id="clust1" class="cluster">
<title>cluster87diagram</title>
<polygon fill="none" stroke="black" points="8,-8 8,-697 2416,-697 2416,-8 8,-8"/>
<text text-anchor="start" x="1178" y="-678.3" font-family="Times,serif" font-weight="bold" font-size="14.00">Diagram</text>
</g>
<g id="clust2" class="cluster">
<title>cluster87subsystems</title>
<polygon fill="none" stroke="white" points="16,-16 16,-658 2408,-658 2408,-16 16,-16"/>
</g>
<!-- s2 -->
<g id="node1" class="node">
<title>s2</title>
<polygon fill="none" stroke="black" points="32.5,-612 32.5,-646 663.5,-646 663.5,-612 32.5,-612"/>
<text text-anchor="start" x="286.5" y="-632.8" font-family="Times,serif" font-weight="bold" font-size="14.00">MultibodyPlant</text>
<text text-anchor="start" x="304" y="-618.8" font-family="Times,serif" font-size="14.00">name=plant</text>
<polygon fill="none" stroke="black" points="32.5,-591 32.5,-612 299.5,-612 299.5,-591 32.5,-591"/>
<text text-anchor="start" x="107.5" y="-597.8" font-family="Times,serif" font-size="14.00">geometry_query</text>
<polygon fill="none" stroke="black" points="299.5,-591 299.5,-612 663.5,-612 663.5,-591 299.5,-591"/>
<text text-anchor="start" x="427" y="-597.8" font-family="Times,serif" font-size="14.00">geometry_pose</text>
<polygon fill="none" stroke="black" points="32.5,-570 32.5,-591 299.5,-591 299.5,-570 32.5,-570"/>
<text text-anchor="start" x="132.5" y="-576.8" font-family="Times,serif" font-size="14.00">actuation</text>
<polygon fill="none" stroke="black" points="299.5,-570 299.5,-591 663.5,-591 663.5,-570 299.5,-570"/>
<text text-anchor="start" x="369.5" y="-576.8" font-family="Times,serif" font-size="14.00">deformable_body_configuration</text>
<polygon fill="none" stroke="black" points="32.5,-549 32.5,-570 299.5,-570 299.5,-549 32.5,-549"/>
<text text-anchor="start" x="73" y="-555.8" font-family="Times,serif" font-size="14.00">applied_generalized_force</text>
<polygon fill="none" stroke="black" points="299.5,-549 299.5,-570 663.5,-570 663.5,-549 299.5,-549"/>
<text text-anchor="start" x="463" y="-555.8" font-family="Times,serif" font-size="14.00">state</text>
<polygon fill="none" stroke="black" points="32.5,-528 32.5,-549 299.5,-549 299.5,-528 32.5,-528"/>
<text text-anchor="start" x="90.5" y="-534.8" font-family="Times,serif" font-size="14.00">applied_spatial_force</text>
<polygon fill="none" stroke="black" points="299.5,-528 299.5,-549 663.5,-549 663.5,-528 299.5,-528"/>
<text text-anchor="start" x="440.5" y="-534.8" font-family="Times,serif" font-size="14.00">body_poses</text>
<polygon fill="none" stroke="black" points="32.5,-507 32.5,-528 299.5,-528 299.5,-507 32.5,-507"/>
<text text-anchor="start" x="55.5" y="-513.8" font-family="Times,serif" font-size="14.00" fill="grey">WorldModelInstance_actuation</text>
<polygon fill="none" stroke="black" points="299.5,-507 299.5,-528 663.5,-528 663.5,-507 299.5,-507"/>
<text text-anchor="start" x="399.5" y="-513.8" font-family="Times,serif" font-size="14.00">body_spatial_velocities</text>
<polygon fill="none" stroke="black" points="32.5,-486 32.5,-507 299.5,-507 299.5,-486 32.5,-486"/>
<text text-anchor="start" x="41" y="-492.8" font-family="Times,serif" font-size="14.00" fill="grey">WorldModelInstance_desired_state</text>
<polygon fill="none" stroke="black" points="299.5,-486 299.5,-507 663.5,-507 663.5,-486 299.5,-486"/>
<text text-anchor="start" x="386" y="-492.8" font-family="Times,serif" font-size="14.00">body_spatial_accelerations</text>
<polygon fill="none" stroke="black" points="32.5,-465 32.5,-486 299.5,-486 299.5,-465 32.5,-465"/>
<text text-anchor="start" x="50" y="-471.8" font-family="Times,serif" font-size="14.00" fill="grey">DefaultModelInstance_actuation</text>
<polygon fill="none" stroke="black" points="299.5,-465 299.5,-486 663.5,-486 663.5,-465 299.5,-465"/>
<text text-anchor="start" x="392.5" y="-471.8" font-family="Times,serif" font-size="14.00">generalized_acceleration</text>
<polygon fill="none" stroke="black" points="32.5,-444 32.5,-465 299.5,-465 299.5,-444 32.5,-444"/>
<text text-anchor="start" x="35.5" y="-450.8" font-family="Times,serif" font-size="14.00" fill="grey">DefaultModelInstance_desired_state</text>
<polygon fill="none" stroke="black" points="299.5,-444 299.5,-465 663.5,-465 663.5,-444 299.5,-444"/>
<text text-anchor="start" x="433" y="-450.8" font-family="Times,serif" font-size="14.00">net_actuation</text>
<polygon fill="none" stroke="black" points="32.5,-423 32.5,-444 299.5,-444 299.5,-423 32.5,-423"/>
<text text-anchor="start" x="61.5" y="-429.8" font-family="Times,serif" font-size="14.00">powerhouse_finger_actuation</text>
<polygon fill="none" stroke="black" points="299.5,-423 299.5,-444 663.5,-444 663.5,-423 299.5,-423"/>
<text text-anchor="start" x="427" y="-429.8" font-family="Times,serif" font-size="14.00">reaction_forces</text>
<polygon fill="none" stroke="black" points="32.5,-402 32.5,-423 299.5,-423 299.5,-402 32.5,-402"/>
<text text-anchor="start" x="47" y="-408.8" font-family="Times,serif" font-size="14.00">powerhouse_finger_desired_state</text>
<polygon fill="none" stroke="black" points="299.5,-402 299.5,-423 663.5,-423 663.5,-402 299.5,-402"/>
<text text-anchor="start" x="427" y="-408.8" font-family="Times,serif" font-size="14.00">contact_results</text>
<polyline fill="none" stroke="grey" points="32.5,-402 32.5,-150 299.5,-150 "/>
<polygon fill="none" stroke="black" points="299.5,-381 299.5,-402 663.5,-402 663.5,-381 299.5,-381"/>
<text text-anchor="start" x="386.5" y="-387.8" font-family="Times,serif" font-size="14.00" fill="grey">WorldModelInstance_state</text>
<polygon fill="none" stroke="black" points="299.5,-360 299.5,-381 663.5,-381 663.5,-360 299.5,-360"/>
<text text-anchor="start" x="316" y="-366.8" font-family="Times,serif" font-size="14.00" fill="grey">WorldModelInstance_generalized_acceleration</text>
<polygon fill="none" stroke="black" points="299.5,-339 299.5,-360 663.5,-360 663.5,-339 299.5,-339"/>
<text text-anchor="start" x="308" y="-345.8" font-family="Times,serif" font-size="14.00" fill="grey">WorldModelInstance_generalized_contact_forces</text>
<polygon fill="none" stroke="black" points="299.5,-318 299.5,-339 663.5,-339 663.5,-318 299.5,-318"/>
<text text-anchor="start" x="356" y="-324.8" font-family="Times,serif" font-size="14.00" fill="grey">WorldModelInstance_net_actuation</text>
<polygon fill="none" stroke="black" points="299.5,-297 299.5,-318 663.5,-318 663.5,-297 299.5,-297"/>
<text text-anchor="start" x="381" y="-303.8" font-family="Times,serif" font-size="14.00" fill="grey">DefaultModelInstance_state</text>
<polygon fill="none" stroke="black" points="299.5,-276 299.5,-297 663.5,-297 663.5,-276 299.5,-276"/>
<text text-anchor="start" x="310.5" y="-282.8" font-family="Times,serif" font-size="14.00" fill="grey">DefaultModelInstance_generalized_acceleration</text>
<polygon fill="none" stroke="black" points="299.5,-255 299.5,-276 663.5,-276 663.5,-255 299.5,-255"/>
<text text-anchor="start" x="302.5" y="-261.8" font-family="Times,serif" font-size="14.00" fill="grey">DefaultModelInstance_generalized_contact_forces</text>
<polygon fill="none" stroke="black" points="299.5,-234 299.5,-255 663.5,-255 663.5,-234 299.5,-234"/>
<text text-anchor="start" x="350.5" y="-240.8" font-family="Times,serif" font-size="14.00" fill="grey">DefaultModelInstance_net_actuation</text>
<polygon fill="none" stroke="black" points="299.5,-213 299.5,-234 663.5,-234 663.5,-213 299.5,-213"/>
<text text-anchor="start" x="392.5" y="-219.8" font-family="Times,serif" font-size="14.00">powerhouse_finger_state</text>
<polygon fill="none" stroke="black" points="299.5,-192 299.5,-213 663.5,-213 663.5,-192 299.5,-192"/>
<text text-anchor="start" x="322" y="-198.8" font-family="Times,serif" font-size="14.00">powerhouse_finger_generalized_acceleration</text>
<polygon fill="none" stroke="black" points="299.5,-171 299.5,-192 663.5,-192 663.5,-171 299.5,-171"/>
<text text-anchor="start" x="314" y="-177.8" font-family="Times,serif" font-size="14.00">powerhouse_finger_generalized_contact_forces</text>
<polygon fill="none" stroke="black" points="299.5,-150 299.5,-171 663.5,-171 663.5,-150 299.5,-150"/>
<text text-anchor="start" x="362" y="-156.8" font-family="Times,serif" font-size="14.00">powerhouse_finger_net_actuation</text>
</g>
<!-- s3 -->
<g id="node2" class="node">
<title>s3</title>
<polygon fill="none" stroke="black" points="823.5,-609 823.5,-643 1016.5,-643 1016.5,-609 823.5,-609"/>
<text text-anchor="start" x="872" y="-629.8" font-family="Times,serif" font-weight="bold" font-size="14.00">SceneGraph</text>
<text text-anchor="start" x="849.5" y="-615.8" font-family="Times,serif" font-size="14.00">name=scene_graph</text>
<polygon fill="none" stroke="black" points="823.5,-588 823.5,-609 968.5,-609 968.5,-588 823.5,-588"/>
<text text-anchor="start" x="857.5" y="-594.8" font-family="Times,serif" font-size="14.00">plant_pose</text>
<polygon fill="none" stroke="black" points="968.5,-567 968.5,-609 1016.5,-609 1016.5,-567 968.5,-567"/>
<text text-anchor="start" x="971.5" y="-584.3" font-family="Times,serif" font-size="14.00">query</text>
<polygon fill="none" stroke="black" points="823.5,-567 823.5,-588 968.5,-588 968.5,-567 823.5,-567"/>
<text text-anchor="start" x="826.5" y="-573.8" font-family="Times,serif" font-size="14.00">plant_configuration</text>
</g>
<!-- s2&#45;&gt;s3 -->
<g id="edge7" class="edge">
<title>s2:e&#45;&gt;s3:w</title>
<path fill="none" stroke="black" d="M664.5,-602C731.18,-602 750.34,-598.4 812.19,-598.03"/>
<polygon fill="black" stroke="black" points="812.51,-601.53 822.5,-598 812.49,-594.53 812.51,-601.53"/>
</g>
<!-- s2&#45;&gt;s3 -->
<g id="edge8" class="edge">
<title>s2:e&#45;&gt;s3:w</title>
<path fill="none" stroke="black" d="M664.5,-581C731.18,-581 750.34,-577.4 812.19,-577.03"/>
<polygon fill="black" stroke="black" points="812.51,-580.53 822.5,-577 812.49,-573.53 812.51,-580.53"/>
</g>
<!-- s75 -->
<g id="node8" class="node">
<title>s75</title>
<polygon fill="none" stroke="black" points="860.5,-241 860.5,-262 979.5,-262 979.5,-241 860.5,-241"/>
<text text-anchor="start" x="863.5" y="-248.8" font-family="Times,serif" font-weight="bold" font-size="14.00">Demultiplexer</text>
<polygon fill="none" stroke="black" points="860.5,-199 860.5,-241 920.5,-241 920.5,-199 860.5,-199"/>
<text text-anchor="start" x="881" y="-216.3" font-family="Times,serif" font-size="14.00">u0</text>
<polygon fill="none" stroke="black" points="920.5,-220 920.5,-241 979.5,-241 979.5,-220 920.5,-220"/>
<text text-anchor="start" x="941" y="-226.8" font-family="Times,serif" font-size="14.00">y0</text>
<polygon fill="none" stroke="black" points="920.5,-199 920.5,-220 979.5,-220 979.5,-199 920.5,-199"/>
<text text-anchor="start" x="941" y="-205.8" font-family="Times,serif" font-size="14.00">y1</text>
</g>
<!-- s2&#45;&gt;s75 -->
<g id="edge11" class="edge">
<title>s2:e&#45;&gt;s75:w</title>
<path fill="none" stroke="black" d="M664.5,-223C747.62,-223 770.94,-220.24 849.15,-220.01"/>
<polygon fill="black" stroke="black" points="849.51,-223.51 859.5,-220 849.49,-216.51 849.51,-223.51"/>
</g>
<!-- s82 -->
<g id="node15" class="node">
<title>s82</title>
<polygon fill="none" stroke="black" points="1176,-434 1176,-455 1678,-455 1678,-434 1176,-434"/>
<text text-anchor="start" x="1179" y="-441.8" font-family="Times,serif" font-weight="bold" font-size="14.00">finger_sim.drake_core_systems.FingertipContactForceReporter</text>
<polygon fill="none" stroke="black" points="1176,-413 1176,-434 1433,-434 1433,-413 1176,-413"/>
<text text-anchor="start" x="1250" y="-419.8" font-family="Times,serif" font-size="14.00">contact_results</text>
<polygon fill="none" stroke="black" points="1433,-392 1433,-434 1678,-434 1678,-392 1433,-392"/>
<text text-anchor="start" x="1507.5" y="-409.3" font-family="Times,serif" font-size="14.00">contact_force</text>
<polygon fill="none" stroke="black" points="1176,-392 1176,-413 1433,-413 1433,-392 1176,-392"/>
<text text-anchor="start" x="1258.5" y="-398.8" font-family="Times,serif" font-size="14.00">query_object</text>
</g>
<!-- s2&#45;&gt;s82 -->
<g id="edge18" class="edge">
<title>s2:e&#45;&gt;s82:w</title>
<path fill="none" stroke="black" d="M664.5,-413C888,-413 946.31,-422.7 1164.81,-422.99"/>
<polygon fill="black" stroke="black" points="1165,-426.49 1175,-423 1165,-419.49 1165,-426.49"/>
</g>
<!-- s3&#45;&gt;s2 -->
<g id="edge3" class="edge">
<title>s3:e&#45;&gt;s2:w</title>
<path fill="none" stroke="black" d="M1017.5,-588C1043.19,-588 1036.87,-501.18 815,-563 742.97,-583.07 743.03,-629.93 671,-650 534.32,-688.08 133.87,-749.28 32.5,-650 20.35,-638.1 13.38,-614.69 21.85,-605.66"/>
<polygon fill="black" stroke="black" points="23.39,-608.82 31.5,-602 20.91,-602.28 23.39,-608.82"/>
</g>
<!-- s71 -->
<g id="node3" class="node">
<title>s71</title>
<polygon fill="none" stroke="black" points="1304,-597 1304,-645 1550,-645 1550,-597 1304,-597"/>
<text text-anchor="start" x="1353.5" y="-631.8" font-family="Times,serif" font-weight="bold" font-size="14.00">MeshcatVisualizer</text>
<text text-anchor="start" x="1307" y="-617.8" font-family="Times,serif" font-size="14.00">name=meshcat_visualizer(visual)</text>
<text text-anchor="start" x="1359" y="-603.8" font-family="Times,serif" font-size="14.00">path=/drake/visual</text>
<polygon fill="none" stroke="black" points="1304,-576 1304,-597 1473,-597 1473,-576 1304,-576"/>
<text text-anchor="start" x="1342.5" y="-582.8" font-family="Times,serif" font-size="14.00">query_object</text>
<polyline fill="none" stroke="grey" points="1473,-576 1550,-576 1550,-597 "/>
</g>
<!-- s3&#45;&gt;s71 -->
<g id="edge10" class="edge">
<title>s3:e&#45;&gt;s71:w</title>
<path fill="none" stroke="black" d="M1017.5,-588C1140.92,-588 1174.3,-586.11 1292.8,-586"/>
<polygon fill="black" stroke="black" points="1293,-589.5 1303,-586 1293,-582.5 1293,-589.5"/>
</g>
<!-- s72 -->
<g id="node5" class="node">
<title>s72</title>
<polygon fill="none" stroke="black" points="1296,-502 1296,-550 1558,-550 1558,-502 1296,-502"/>
<text text-anchor="start" x="1353.5" y="-536.8" font-family="Times,serif" font-weight="bold" font-size="14.00">MeshcatVisualizer</text>
<text text-anchor="start" x="1299" y="-522.8" font-family="Times,serif" font-size="14.00">name=meshcat_visualizer(collision)</text>
<text text-anchor="start" x="1350.5" y="-508.8" font-family="Times,serif" font-size="14.00">path=/drake/collision</text>
<polygon fill="none" stroke="black" points="1296,-481 1296,-502 1473,-502 1473,-481 1296,-481"/>
<text text-anchor="start" x="1338.5" y="-487.8" font-family="Times,serif" font-size="14.00">query_object</text>
<polyline fill="none" stroke="grey" points="1473,-481 1558,-481 1558,-502 "/>
</g>
<!-- s3&#45;&gt;s72 -->
<g id="edge9" class="edge">
<title>s3:e&#45;&gt;s72:w</title>
<path fill="none" stroke="black" d="M1017.5,-588C1144.71,-588 1163.42,-496.05 1284.9,-491.2"/>
<polygon fill="black" stroke="black" points="1285.07,-494.7 1295,-491 1284.93,-487.7 1285.07,-494.7"/>
</g>
<!-- s3&#45;&gt;s82 -->
<g id="edge19" class="edge">
<title>s3:e&#45;&gt;s82:w</title>
<path fill="none" stroke="black" d="M1017.5,-588C1083.06,-588 1091.76,-546.76 1132,-495 1157.55,-462.14 1134.27,-411.65 1164.86,-403.21"/>
<polygon fill="black" stroke="black" points="1165.49,-406.66 1175,-402 1164.65,-399.71 1165.49,-406.66"/>
</g>
<!-- meshcat_in -->
<g id="node4" class="node">
<title>meshcat_in</title>
<ellipse fill="none" stroke="magenta" cx="1950.5" cy="-563" rx="50.09" ry="18"/>
<text text-anchor="middle" x="1950.5" y="-559.3" font-family="Times,serif" font-size="14.00">Meshcat</text>
</g>
<!-- s71&#45;&gt;meshcat_in -->
<g id="edge1" class="edge">
<title>s71:e&#45;&gt;meshcat_in</title>
<path fill="none" stroke="magenta" stroke-dasharray="5,2" d="M1559,-611C1680.5,-611 1821.7,-587.82 1896.55,-573.68"/>
<polygon fill="magenta" stroke="magenta" points="1897.5,-577.06 1906.66,-571.75 1896.18,-570.19 1897.5,-577.06"/>
</g>
<!-- s72&#45;&gt;meshcat_in -->
<g id="edge2" class="edge">
<title>s72:e&#45;&gt;meshcat_in</title>
<path fill="none" stroke="magenta" stroke-dasharray="5,2" d="M1567,-516C1685.53,-516 1823.2,-538.51 1896.75,-552.37"/>
<polygon fill="magenta" stroke="magenta" points="1896.21,-555.84 1906.69,-554.27 1897.52,-548.96 1896.21,-555.84"/>
</g>
<!-- s73 -->
<g id="node6" class="node">
<title>s73</title>
<polygon fill="none" stroke="black" points="264.5,-99 264.5,-120 430.5,-120 430.5,-99 264.5,-99"/>
<text text-anchor="start" x="267.5" y="-106.8" font-family="Times,serif" font-weight="bold" font-size="14.00">RosInterfaceSystem</text>
</g>
<!-- s74 -->
<g id="node7" class="node">
<title>s74</title>
<polygon fill="none" stroke="black" points="1201,-239 1201,-260 1654,-260 1654,-239 1201,-239"/>
<text text-anchor="start" x="1204" y="-246.8" font-family="Times,serif" font-weight="bold" font-size="14.00">finger_sim.drake_ros_systems.FingerJointStatePublisher</text>
<polygon fill="none" stroke="black" points="1201,-218 1201,-239 1425,-239 1425,-218 1201,-218"/>
<text text-anchor="start" x="1261" y="-224.8" font-family="Times,serif" font-size="14.00">joint_positions</text>
<polygon fill="none" stroke="black" points="1425,-197 1425,-239 1654,-239 1654,-197 1425,-197"/>
<text text-anchor="start" x="1483.5" y="-214.3" font-family="Times,serif" font-size="14.00">joint_state_msg</text>
<polygon fill="none" stroke="black" points="1201,-197 1201,-218 1425,-218 1425,-197 1201,-197"/>
<text text-anchor="start" x="1259.5" y="-203.8" font-family="Times,serif" font-size="14.00">joint_velocities</text>
</g>
<!-- s76 -->
<g id="node9" class="node">
<title>s76</title>
<polygon fill="none" stroke="black" points="1866.5,-227 1866.5,-248 2035.5,-248 2035.5,-227 1866.5,-227"/>
<text text-anchor="start" x="1869.5" y="-234.8" font-family="Times,serif" font-weight="bold" font-size="14.00">RosPublisherSystem</text>
<polygon fill="none" stroke="black" points="1866.5,-206 1866.5,-227 1982.5,-227 1982.5,-206 1866.5,-206"/>
<text text-anchor="start" x="1893" y="-212.8" font-family="Times,serif" font-size="14.00">message</text>
<polyline fill="none" stroke="grey" points="1982.5,-206 2035.5,-206 2035.5,-227 "/>
</g>
<!-- s74&#45;&gt;s76 -->
<g id="edge12" class="edge">
<title>s74:e&#45;&gt;s76:w</title>
<path fill="none" stroke="black" d="M1655,-218C1745.09,-218 1770.11,-216.15 1855.37,-216.01"/>
<polygon fill="black" stroke="black" points="1855.5,-219.51 1865.5,-216 1855.5,-212.51 1855.5,-219.51"/>
</g>
<!-- s75&#45;&gt;s74 -->
<g id="edge5" class="edge">
<title>s75:e&#45;&gt;s74:w</title>
<path fill="none" stroke="black" d="M980.5,-230C1074.63,-230 1100.64,-228.14 1189.98,-228.01"/>
<polygon fill="black" stroke="black" points="1190,-231.51 1200,-228 1190,-224.51 1190,-231.51"/>
</g>
<!-- s75&#45;&gt;s74 -->
<g id="edge6" class="edge">
<title>s75:e&#45;&gt;s74:w</title>
<path fill="none" stroke="black" d="M980.5,-209C1074.63,-209 1100.64,-207.14 1189.98,-207.01"/>
<polygon fill="black" stroke="black" points="1190,-210.51 1200,-207 1190,-203.51 1190,-210.51"/>
</g>
<!-- s79 -->
<g id="node12" class="node">
<title>s79</title>
<polygon fill="none" stroke="black" points="1193,-328 1193,-349 1661,-349 1661,-328 1193,-328"/>
<text text-anchor="start" x="1196" y="-335.8" font-family="Times,serif" font-weight="bold" font-size="14.00">finger_sim.drake_core_systems.MotorTorqueToJointTorque</text>
<polygon fill="none" stroke="black" points="1193,-307 1193,-328 1424,-328 1424,-307 1193,-307"/>
<text text-anchor="start" x="1260" y="-313.8" font-family="Times,serif" font-size="14.00">motor_torque</text>
<polygon fill="none" stroke="black" points="1424,-307 1424,-328 1661,-328 1661,-307 1424,-307"/>
<text text-anchor="start" x="1499" y="-313.8" font-family="Times,serif" font-size="14.00">joint_torque</text>
<polygon fill="none" stroke="black" points="1193,-286 1193,-307 1424,-307 1424,-286 1193,-286"/>
<text text-anchor="start" x="1256.5" y="-292.8" font-family="Times,serif" font-size="14.00">joint_positions</text>
<polygon fill="none" stroke="black" points="1424,-286 1424,-307 1661,-307 1661,-286 1424,-286"/>
<text text-anchor="start" x="1488" y="-292.8" font-family="Times,serif" font-size="14.00">tendon_tension</text>
</g>
<!-- s75&#45;&gt;s79 -->
<g id="edge15" class="edge">
<title>s75:e&#45;&gt;s79:w</title>
<path fill="none" stroke="black" d="M980.5,-230C1026.56,-230 1128.46,-287.77 1181.72,-295.21"/>
<polygon fill="black" stroke="black" points="1181.76,-298.73 1192,-296 1182.3,-291.75 1181.76,-298.73"/>
</g>
<!-- s77 -->
<g id="node10" class="node">
<title>s77</title>
<polygon fill="none" stroke="black" points="258.5,-49 258.5,-70 436.5,-70 436.5,-49 258.5,-49"/>
<text text-anchor="start" x="261.5" y="-56.8" font-family="Times,serif" font-weight="bold" font-size="14.00">RosSubscriberSystem</text>
<polyline fill="none" stroke="grey" points="258.5,-49 258.5,-28 338.5,-28 "/>
<polygon fill="none" stroke="black" points="338.5,-28 338.5,-49 436.5,-49 436.5,-28 338.5,-28"/>
<text text-anchor="start" x="378.5" y="-34.8" font-family="Times,serif" font-size="14.00">y0</text>
</g>
<!-- s78 -->
<g id="node11" class="node">
<title>s78</title>
<polygon fill="none" stroke="black" points="715.5,-318 715.5,-339 1124.5,-339 1124.5,-318 715.5,-318"/>
<text text-anchor="start" x="718.5" y="-325.8" font-family="Times,serif" font-weight="bold" font-size="14.00">finger_sim.drake_core_systems.MultiArrayToVector</text>
<polygon fill="none" stroke="black" points="715.5,-297 715.5,-318 912.5,-318 912.5,-297 715.5,-297"/>
<text text-anchor="start" x="798.5" y="-303.8" font-family="Times,serif" font-size="14.00">msg</text>
<polygon fill="none" stroke="black" points="912.5,-297 912.5,-318 1124.5,-318 1124.5,-297 912.5,-297"/>
<text text-anchor="start" x="995.5" y="-303.8" font-family="Times,serif" font-size="14.00">vector</text>
</g>
<!-- s77&#45;&gt;s78 -->
<g id="edge13" class="edge">
<title>s77:e&#45;&gt;s78:w</title>
<path fill="none" stroke="black" d="M437.5,-38C543.19,-38 596.49,-8.04 671,-83 739.84,-152.26 622.41,-295.82 704.14,-306.38"/>
<polygon fill="black" stroke="black" points="704.31,-309.9 714.5,-307 704.73,-302.91 704.31,-309.9"/>
</g>
<!-- s78&#45;&gt;s79 -->
<g id="edge14" class="edge">
<title>s78:e&#45;&gt;s79:w</title>
<path fill="none" stroke="black" d="M1125.5,-307C1151.65,-307 1160.07,-314.66 1181.79,-316.57"/>
<polygon fill="black" stroke="black" points="1181.86,-320.08 1192,-317 1182.16,-313.08 1181.86,-320.08"/>
</g>
<!-- s79&#45;&gt;s2 -->
<g id="edge4" class="edge">
<title>s79:e&#45;&gt;s2:w</title>
<path fill="none" stroke="black" d="M1662,-317C1677.34,-317 1672,-293.19 1661,-282.5 1651.52,-273.29 1196.85,-276.63 1185,-282.5 1150.19,-299.73 1162.17,-327.53 1132,-352 969.58,-483.75 848.47,-399.97 707,-554 676.18,-587.56 708.45,-624.04 671,-650 554.38,-730.82 133.55,-749.6 32.5,-650 13.56,-631.33 3.65,-593.15 21.36,-583.34"/>
<polygon fill="black" stroke="black" points="22.54,-586.66 31.5,-581 20.97,-579.84 22.54,-586.66"/>
</g>
<!-- s80 -->
<g id="node13" class="node">
<title>s80</title>
<polygon fill="none" stroke="black" points="1730.5,-363 1730.5,-384 2171.5,-384 2171.5,-363 1730.5,-363"/>
<text text-anchor="start" x="1733.5" y="-370.8" font-family="Times,serif" font-weight="bold" font-size="14.00">finger_sim.drake_core_systems.TendonTensionToStress</text>
<polygon fill="none" stroke="black" points="1730.5,-342 1730.5,-363 1955.5,-363 1955.5,-342 1730.5,-342"/>
<text text-anchor="start" x="1788.5" y="-348.8" font-family="Times,serif" font-size="14.00">tendon_tension</text>
<polygon fill="none" stroke="black" points="1955.5,-342 1955.5,-363 2171.5,-363 2171.5,-342 1955.5,-342"/>
<text text-anchor="start" x="2013.5" y="-348.8" font-family="Times,serif" font-size="14.00">tendon_stress</text>
</g>
<!-- s79&#45;&gt;s80 -->
<g id="edge16" class="edge">
<title>s79:e&#45;&gt;s80:w</title>
<path fill="none" stroke="black" d="M1662,-296C1697.17,-296 1692.09,-341.6 1719.4,-350.5"/>
<polygon fill="black" stroke="black" points="1719.09,-353.99 1729.5,-352 1720.12,-347.07 1719.09,-353.99"/>
</g>
<!-- s81 -->
<g id="node14" class="node">
<title>s81</title>
<polygon fill="none" stroke="black" points="1746.5,-295 1746.5,-316 2155.5,-316 2155.5,-295 1746.5,-295"/>
<text text-anchor="start" x="1749.5" y="-302.8" font-family="Times,serif" font-weight="bold" font-size="14.00">finger_sim.drake_core_systems.VectorToMultiArray</text>
<polygon fill="none" stroke="black" points="1746.5,-274 1746.5,-295 1958.5,-295 1958.5,-274 1746.5,-274"/>
<text text-anchor="start" x="1829.5" y="-280.8" font-family="Times,serif" font-size="14.00">vector</text>
<polygon fill="none" stroke="black" points="1958.5,-274 1958.5,-295 2155.5,-295 2155.5,-274 1958.5,-274"/>
<text text-anchor="start" x="2041.5" y="-280.8" font-family="Times,serif" font-size="14.00">msg</text>
</g>
<!-- s79&#45;&gt;s81 -->
<g id="edge17" class="edge">
<title>s79:e&#45;&gt;s81:w</title>
<path fill="none" stroke="black" d="M1662,-296C1695.83,-296 1706.07,-286.23 1735.29,-284.32"/>
<polygon fill="black" stroke="black" points="1735.61,-287.81 1745.5,-284 1735.39,-280.82 1735.61,-287.81"/>
</g>
<!-- s83 -->
<g id="node16" class="node">
<title>s83</title>
<polygon fill="none" stroke="black" points="2223.5,-363 2223.5,-384 2392.5,-384 2392.5,-363 2223.5,-363"/>
<text text-anchor="start" x="2226.5" y="-370.8" font-family="Times,serif" font-weight="bold" font-size="14.00">RosPublisherSystem</text>
<polygon fill="none" stroke="black" points="2223.5,-342 2223.5,-363 2339.5,-363 2339.5,-342 2223.5,-342"/>
<text text-anchor="start" x="2250" y="-348.8" font-family="Times,serif" font-size="14.00">message</text>
<polyline fill="none" stroke="grey" points="2339.5,-342 2392.5,-342 2392.5,-363 "/>
</g>
<!-- s80&#45;&gt;s83 -->
<g id="edge20" class="edge">
<title>s80:e&#45;&gt;s83:w</title>
<path fill="none" stroke="black" d="M2172.5,-352C2190.9,-352 2197.88,-352 2212.35,-352"/>
<polygon fill="black" stroke="black" points="2212.5,-355.5 2222.5,-352 2212.5,-348.5 2212.5,-355.5"/>
</g>
<!-- s84 -->
<g id="node17" class="node">
<title>s84</title>
<polygon fill="none" stroke="black" points="2223.5,-295 2223.5,-316 2392.5,-316 2392.5,-295 2223.5,-295"/>
<text text-anchor="start" x="2226.5" y="-302.8" font-family="Times,serif" font-weight="bold" font-size="14.00">RosPublisherSystem</text>
<polygon fill="none" stroke="black" points="2223.5,-274 2223.5,-295 2339.5,-295 2339.5,-274 2223.5,-274"/>
<text text-anchor="start" x="2250" y="-280.8" font-family="Times,serif" font-size="14.00">message</text>
<polyline fill="none" stroke="grey" points="2339.5,-274 2392.5,-274 2392.5,-295 "/>
</g>
<!-- s81&#45;&gt;s84 -->
<g id="edge21" class="edge">
<title>s81:e&#45;&gt;s84:w</title>
<path fill="none" stroke="black" d="M2156.5,-284C2182.17,-284 2190.99,-284 2212.45,-284"/>
<polygon fill="black" stroke="black" points="2212.5,-287.5 2222.5,-284 2212.5,-280.5 2212.5,-287.5"/>
</g>
<!-- s85 -->
<g id="node18" class="node">
<title>s85</title>
<polygon fill="none" stroke="black" points="1866.5,-431 1866.5,-452 2035.5,-452 2035.5,-431 1866.5,-431"/>
<text text-anchor="start" x="1869.5" y="-438.8" font-family="Times,serif" font-weight="bold" font-size="14.00">RosPublisherSystem</text>
<polygon fill="none" stroke="black" points="1866.5,-410 1866.5,-431 1982.5,-431 1982.5,-410 1866.5,-410"/>
<text text-anchor="start" x="1893" y="-416.8" font-family="Times,serif" font-size="14.00">message</text>
<polyline fill="none" stroke="grey" points="1982.5,-410 2035.5,-410 2035.5,-431 "/>
</g>
<!-- s82&#45;&gt;s85 -->
<g id="edge22" class="edge">
<title>s82:e&#45;&gt;s85:w</title>
<path fill="none" stroke="black" d="M1679,-413C1758.38,-413 1780.67,-419.41 1855.14,-419.96"/>
<polygon fill="black" stroke="black" points="1855.49,-423.46 1865.5,-420 1855.51,-416.46 1855.49,-423.46"/>
</g>
</g>
</svg>
