<?xml version="1.0" encoding="UTF-8" standalone="no"?>
<!DOCTYPE svg PUBLIC "-//W3C//DTD SVG 1.1//EN"
 "http://www.w3.org/Graphics/SVG/1.1/DTD/svg11.dtd">
<!-- Generated by graphviz version 2.43.0 (0)
 -->
<!-- Title: _85 Pages: 1 -->
<svg width="2400pt" height="726pt"
 viewBox="0.00 0.00 2400.00 726.24" xmlns="http://www.w3.org/2000/svg" xmlns:xlink="http://www.w3.org/1999/xlink">
<g id="graph0" class="graph" transform="scale(1 1) rotate(0) translate(4 722.24)">
<title>_85</title>
<polygon fill="white" stroke="transparent" points="-4,4 -4,-722.24 2396,-722.24 2396,4 -4,4"/>
<g id="clust1" class="cluster">
<title>cluster85diagram</title>
<polygon fill="none" stroke="black" points="8,-8 8,-697 2384,-697 2384,-8 8,-8"/>
<text text-anchor="start" x="1162" y="-678.3" font-family="Times,serif" font-weight="bold" font-size="14.00">Diagram</text>
</g>
<g id="clust2" class="cluster">
<title>cluster85subsystems</title>
<polygon fill="none" stroke="white" points="16,-16 16,-658 2376,-658 2376,-16 16,-16"/>
</g>
<!-- s2 -->
<g id="node1" class="node">
<title>s2</title>
<polygon fill="none" stroke="black" points="32.5,-612 32.5,-646 663.5,-646 663.5,-612 32.5,-612"/>
<text text-anchor="start" x="286.5" y="-632.8" font-family="Times,serif" font-weight="bold" font-size="14.00">MultibodyPlant</text>
<text text-anchor="start" x="304" y="-618.8" font-family="Times,serif" font-size="14.00">name=plant</text>
<polygon fill="none" stroke="black" points="32.5,-591 32.5,-612 299.5,-612 299.5,-591 32.5,-591"/>
<text text-anchor="start" x="107.5" y="-597.8" font-family="Times,serif" font-size="14.00">geometry_query</text>
<polygon fill="none" stroke="black" points="299.5,-591 299.5,-612 663.5,-612 663.5,-591 299.5,-591"/>
<text text-anchor="start" x="427" y="-597.8" font-family="Times,serif" font-size="14.00">geometry_pose</text>
<polygon fill="none" stroke="black" points="32.5,-570 32.5,-591 299.5,-591 299.5,-570 32.5,-570"/>
<text text-anchor="start" x="132.5" y="-576.8" font-family="Times,serif" font-size="14.00">actuation</text>
<polygon fill="none" stroke="black" points="299.5,-570 299.5,-591 663.5,-591 663.5,-570 299.5,-570"/>
<text text-anchor="start" x="369.5" y="-576.8" font-family="Times,serif" font-size="14.00">deformable_body_configuration</text>
<polygon fill="none" stroke="black" points="32.5,-549 32.5,-570 299.5,-570 299.5,-549 32.5,-549"/>
<text text-anchor="start" x="73" y="-555.8" font-family="Times,serif" font-size="14.00">applied_generalized_force</text>
<polygon fill="none" stroke="black" points="299.5,-549 299.5,-570 663.5,-570 663.5,-549 299.5,-549"/>
<text text-anchor="start" x="463" y="-555.8" font-family="Times,serif" font-size="14.00">state</text>
<polygon fill="none" stroke="black" points="32.5,-528 32.5,-549 299.5,-549 299.5,-528 32.5,-528"/>
<text text-anchor="start" x="90.5" y="-534.8" font-family="Times,serif" font-size="14.00">applied_spatial_force</text>
<polygon fill="none" stroke="black" points="299.5,-528 299.5,-549 663.5,-549 663.5,-528 299.5,-528"/>
<text text-anchor="start" x="440.5" y="-534.8" font-family="Times,serif" font-size="14.00">body_poses</text>
<polygon fill="none" stroke="black" points="32.5,-507 32.5,-528 299.5,-528 299.5,-507 32.5,-507"/>
<text text-anchor="start" x="55.5" y="-513.8" font-family="Times,serif" font-size="14.00" fill="grey">WorldModelInstance_actuation</text>
<polygon fill="none" stroke="black" points="299.5,-507 299.5,-528 663.5,-528 663.5,-507 299.5,-507"/>
<text text-anchor="start" x="399.5" y="-513.8" font-family="Times,serif" font-size="14.00">body_spatial_velocities</text>
<polygon fill="none" stroke="black" points="32.5,-486 32.5,-507 299.5,-507 299.5,-486 32.5,-486"/>
<text text-anchor="start" x="41" y="-492.8" font-family="Times,serif" font-size="14.00" fill="grey">WorldModelInstance_desired_state</text>
<polygon fill="none" stroke="black" points="299.5,-486 299.5,-507 663.5,-507 663.5,-486 299.5,-486"/>
<text text-anchor="start" x="386" y="-492.8" font-family="Times,serif" font-size="14.00">body_spatial_accelerations</text>
<polygon fill="none" stroke="black" points="32.5,-465 32.5,-486 299.5,-486 299.5,-465 32.5,-465"/>
<text text-anchor="start" x="50" y="-471.8" font-family="Times,serif" font-size="14.00" fill="grey">DefaultModelInstance_actuation</text>
<polygon fill="none" stroke="black" points="299.5,-465 299.5,-486 663.5,-486 663.5,-465 299.5,-465"/>
<text text-anchor="start" x="392.5" y="-471.8" font-family="Times,serif" font-size="14.00">generalized_acceleration</text>
<polygon fill="none" stroke="black" points="32.5,-444 32.5,-465 299.5,-465 299.5,-444 32.5,-444"/>
<text text-anchor="start" x="35.5" y="-450.8" font-family="Times,serif" font-size="14.00" fill="grey">DefaultModelInstance_desired_state</text>
<polygon fill="none" stroke="black" points="299.5,-444 299.5,-465 663.5,-465 663.5,-444 299.5,-444"/>
<text text-anchor="start" x="433" y="-450.8" font-family="Times,serif" font-size="14.00">net_actuation</text>
<polygon fill="none" stroke="black" points="32.5,-423 32.5,-444 299.5,-444 299.5,-423 32.5,-423"/>
<text text-anchor="start" x="61.5" y="-429.8" font-family="Times,serif" font-size="14.00">powerhouse_finger_actuation</text>
<polygon fill="none" stroke="black" points="299.5,-423 299.5,-444 663.5,-444 663.5,-423 299.5,-423"/>
<text text-anchor="start" x="427" y="-429.8" font-family="Times,serif" font-size="14.00">reaction_forces</text>
<polygon fill="none" stroke="black" points="32.5,-402 32.5,-423 299.5,-423 299.5,-402 32.5,-402"/>
<text text-anchor="start" x="47" y="-408.8" font-family="Times,serif" font-size="14.00">powerhouse_finger_desired_state</text>
<polygon fill="none" stroke="black" points="299.5,-402 299.5,-423 663.5,-423 663.5,-402 299.5,-402"/>
<text text-anchor="start" x="427" y="-408.8" font-family="Times,serif" font-size="14.00">contact_results</text>
<polyline fill="none" stroke="grey" points="32.5,-402 32.5,-150 299.5,-150 "/>
<polygon fill="none" stroke="black" points="299.5,-381 299.5,-402 663.5,-402 663.5,-381 299.5,-381"/>
<text text-anchor="start" x="386.5" y="-387.8" font-family="Times,serif" font-size="14.00" fill="grey">WorldModelInstance_state</text>
<polygon fill="none" stroke="black" points="299.5,-360 299.5,-381 663.5,-381 663.5,-360 299.5,-360"/>
<text text-anchor="start" x="316" y="-366.8" font-family="Times,serif" font-size="14.00" fill="grey">WorldModelInstance_generalized_acceleration</text>
<polygon fill="none" stroke="black" points="299.5,-339 299.5,-360 663.5,-360 663.5,-339 299.5,-339"/>
<text text-anchor="start" x="308" y="-345.8" font-family="Times,serif" font-size="14.00" fill="grey">WorldModelInstance_generalized_contact_forces</text>
<polygon fill="none" stroke="black" points="299.5,-318 299.5,-339 663.5,-339 663.5,-318 299.5,-318"/>
<text text-anchor="start" x="356" y="-324.8" font-family="Times,serif" font-size="14.00" fill="grey">WorldModelInstance_net_actuation</text>
<polygon fill="none" stroke="black" points="299.5,-297 299.5,-318 663.5,-318 663.5,-297 299.5,-297"/>
<text text-anchor="start" x="381" y="-303.8" font-family="Times,serif" font-size="14.00" fill="grey">DefaultModelInstance_state</text>
<polygon fill="none" stroke="black" points="299.5,-276 299.5,-297 663.5,-297 663.5,-276 299.5,-276"/>
<text text-anchor="start" x="310.5" y="-282.8" font-family="Times,serif" font-size="14.00" fill="grey">DefaultModelInstance_generalized_acceleration</text>
<polygon fill="none" stroke="black" points="299.5,-255 299.5,-276 663.5,-276 663.5,-255 299.5,-255"/>
<text text-anchor="start" x="302.5" y="-261.8" font-family="Times,serif" font-size="14.00" fill="grey">DefaultModelInstance_generalized_contact_forces</text>
<polygon fill="none" stroke="black" points="299.5,-234 299.5,-255 663.5,-255 663.5,-234 299.5,-234"/>
<text text-anchor="start" x="350.5" y="-240.8" font-family="Times,serif" font-size="14.00" fill="grey">DefaultModelInstance_net_actuation</text>
<polygon fill="none" stroke="black" points="299.5,-213 299.5,-234 663.5,-234 663.5,-213 299.5,-213"/>
<text text-anchor="start" x="392.5" y="-219.8" font-family="Times,serif" font-size="14.00">powerhouse_finger_state</text>
<polygon fill="none" stroke="black" points="299.5,-192 299.5,-213 663.5,-213 663.5,-192 299.5,-192"/>
<text text-anchor="start" x="322" y="-198.8" font-family="Times,serif" font-size="14.00">powerhouse_finger_generalized_acceleration</text>
<polygon fill="none" stroke="black" points="299.5,-171 299.5,-192 663.5,-192 663.5,-171 299.5,-171"/>
<text text-anchor="start" x="314" y="-177.8" font-family="Times,serif" font-size="14.00">powerhouse_finger_generalized_contact_forces</text>
<polygon fill="none" stroke="black" points="299.5,-150 299.5,-171 663.5,-171 663.5,-150 299.5,-150"/>
<text text-anchor="start" x="362" y="-156.8" font-family="Times,serif" font-size="14.00">powerhouse_finger_net_actuation</text>
</g>
<!-- s3 -->
<g id="node2" class="node">
<title>s3</title>
<polygon fill="none" stroke="black" points="823.5,-609 823.5,-643 1016.5,-643 1016.5,-609 823.5,-609"/>
<text text-anchor="start" x="872" y="-629.8" font-family="Times,serif" font-weight="bold" font-size="14.00">SceneGraph</text>
<text text-anchor="start" x="849.5" y="-615.8" font-family="Times,serif" font-size="14.00">name=scene_graph</text>
<polygon fill="none" stroke="black" points="823.5,-588 823.5,-609 968.5,-609 968.5,-588 823.5,-588"/>
<text text-anchor="start" x="857.5" y="-594.8" font-family="Times,serif" font-size="14.00">plant_pose</text>
<polygon fill="none" stroke="black" points="968.5,-567 968.5,-609 1016.5,-609 1016.5,-567 968.5,-567"/>
<text text-anchor="start" x="971.5" y="-584.3" font-family="Times,serif" font-size="14.00">query</text>
<polygon fill="none" stroke="black" points="823.5,-567 823.5,-588 968.5,-588 968.5,-567 823.5,-567"/>
<text text-anchor="start" x="826.5" y="-573.8" font-family="Times,serif" font-size="14.00">plant_configuration</text>
</g>
<!-- s2&#45;&gt;s3 -->
<g id="edge5" class="edge">
<title>s2:e&#45;&gt;s3:w</title>
<path fill="none" stroke="black" d="M664.5,-602C731.18,-602 750.34,-598.4 812.19,-598.03"/>
<polygon fill="black" stroke="black" points="812.51,-601.53 822.5,-598 812.49,-594.53 812.51,-601.53"/>
</g>
<!-- s2&#45;&gt;s3 -->
<g id="edge6" class="edge">
<title>s2:e&#45;&gt;s3:w</title>
<path fill="none" stroke="black" d="M664.5,-581C731.18,-581 750.34,-577.4 812.19,-577.03"/>
<polygon fill="black" stroke="black" points="812.51,-580.53 822.5,-577 812.49,-573.53 812.51,-580.53"/>
</g>
<!-- s75 -->
<g id="node8" class="node">
<title>s75</title>
<polygon fill="none" stroke="black" points="860.5,-244 860.5,-265 979.5,-265 979.5,-244 860.5,-244"/>
<text text-anchor="start" x="863.5" y="-251.8" font-family="Times,serif" font-weight="bold" font-size="14.00">Demultiplexer</text>
<polygon fill="none" stroke="black" points="860.5,-202 860.5,-244 920.5,-244 920.5,-202 860.5,-202"/>
<text text-anchor="start" x="881" y="-219.3" font-family="Times,serif" font-size="14.00">u0</text>
<polygon fill="none" stroke="black" points="920.5,-223 920.5,-244 979.5,-244 979.5,-223 920.5,-223"/>
<text text-anchor="start" x="941" y="-229.8" font-family="Times,serif" font-size="14.00">y0</text>
<polygon fill="none" stroke="black" points="920.5,-202 920.5,-223 979.5,-223 979.5,-202 920.5,-202"/>
<text text-anchor="start" x="941" y="-208.8" font-family="Times,serif" font-size="14.00">y1</text>
</g>
<!-- s2&#45;&gt;s75 -->
<g id="edge11" class="edge">
<title>s2:e&#45;&gt;s75:w</title>
<path fill="none" stroke="black" d="M664.5,-223C747.61,-223 770.95,-223 849.16,-223"/>
<polygon fill="black" stroke="black" points="849.5,-226.5 859.5,-223 849.5,-219.5 849.5,-226.5"/>
</g>
<!-- s81 -->
<g id="node14" class="node">
<title>s81</title>
<polygon fill="none" stroke="black" points="1176,-429 1176,-450 1678,-450 1678,-429 1176,-429"/>
<text text-anchor="start" x="1179" y="-436.8" font-family="Times,serif" font-weight="bold" font-size="14.00">finger_sim.drake_core_systems.FingertipContactForceReporter</text>
<polygon fill="none" stroke="black" points="1176,-408 1176,-429 1433,-429 1433,-408 1176,-408"/>
<text text-anchor="start" x="1250" y="-414.8" font-family="Times,serif" font-size="14.00">contact_results</text>
<polygon fill="none" stroke="black" points="1433,-387 1433,-429 1678,-429 1678,-387 1433,-387"/>
<text text-anchor="start" x="1507.5" y="-404.3" font-family="Times,serif" font-size="14.00">contact_force</text>
<polygon fill="none" stroke="black" points="1176,-387 1176,-408 1433,-408 1433,-387 1176,-387"/>
<text text-anchor="start" x="1258.5" y="-393.8" font-family="Times,serif" font-size="14.00">query_object</text>
</g>
<!-- s2&#45;&gt;s81 -->
<g id="edge17" class="edge">
<title>s2:e&#45;&gt;s81:w</title>
<path fill="none" stroke="black" d="M664.5,-413C887.97,-413 946.34,-417.85 1164.81,-418"/>
<polygon fill="black" stroke="black" points="1165,-421.5 1175,-418 1165,-414.5 1165,-421.5"/>
</g>
<!-- s3&#45;&gt;s2 -->
<g id="edge3" class="edge">
<title>s3:e&#45;&gt;s2:w</title>
<path fill="none" stroke="black" d="M1017.5,-588C1043.19,-588 1036.87,-501.18 815,-563 742.97,-583.07 743.03,-629.93 671,-650 534.32,-688.08 133.87,-749.28 32.5,-650 20.35,-638.1 13.38,-614.69 21.85,-605.66"/>
<polygon fill="black" stroke="black" points="23.39,-608.82 31.5,-602 20.91,-602.28 23.39,-608.82"/>
</g>
<!-- s71 -->
<g id="node3" class="node">
<title>s71</title>
<polygon fill="none" stroke="black" points="1304,-597 1304,-645 1550,-645 1550,-597 1304,-597"/>
<text text-anchor="start" x="1353.5" y="-631.8" font-family="Times,serif" font-weight="bold" font-size="14.00">MeshcatVisualizer</text>
<text text-anchor="start" x="1307" y="-617.8" font-family="Times,serif" font-size="14.00">name=meshcat_visualizer(visual)</text>
<text text-anchor="start" x="1359" y="-603.8" font-family="Times,serif" font-size="14.00">path=/drake/visual</text>
<polygon fill="none" stroke="black" points="1304,-576 1304,-597 1473,-597 1473,-576 1304,-576"/>
<text text-anchor="start" x="1342.5" y="-582.8" font-family="Times,serif" font-size="14.00">query_object</text>
<polyline fill="none" stroke="grey" points="1473,-576 1550,-576 1550,-597 "/>
</g>
<!-- s3&#45;&gt;s71 -->
<g id="edge9" class="edge">
<title>s3:e&#45;&gt;s71:w</title>
<path fill="none" stroke="black" d="M1017.5,-588C1140.92,-588 1174.3,-586.11 1292.8,-586"/>
<polygon fill="black" stroke="black" points="1293,-589.5 1303,-586 1293,-582.5 1293,-589.5"/>
</g>
<!-- s72 -->
<g id="node5" class="node">
<title>s72</title>
<polygon fill="none" stroke="black" points="1296,-502 1296,-550 1558,-550 1558,-502 1296,-502"/>
<text text-anchor="start" x="1353.5" y="-536.8" font-family="Times,serif" font-weight="bold" font-size="14.00">MeshcatVisualizer</text>
<text text-anchor="start" x="1299" y="-522.8" font-family="Times,serif" font-size="14.00">name=meshcat_visualizer(collision)</text>
<text text-anchor="start" x="1350.5" y="-508.8" font-family="Times,serif" font-size="14.00">path=/drake/collision</text>
<polygon fill="none" stroke="black" points="1296,-481 1296,-502 1473,-502 1473,-481 1296,-481"/>
<text text-anchor="start" x="1338.5" y="-487.8" font-family="Times,serif" font-size="14.00">query_object</text>
<polyline fill="none" stroke="grey" points="1473,-481 1558,-481 1558,-502 "/>
</g>
<!-- s3&#45;&gt;s72 -->
<g id="edge10" class="edge">
<title>s3:e&#45;&gt;s72:w</title>
<path fill="none" stroke="black" d="M1017.5,-588C1144.71,-588 1163.42,-496.05 1284.9,-491.2"/>
<polygon fill="black" stroke="black" points="1285.07,-494.7 1295,-491 1284.93,-487.7 1285.07,-494.7"/>
</g>
<!-- s3&#45;&gt;s81 -->
<g id="edge18" class="edge">
<title>s3:e&#45;&gt;s81:w</title>
<path fill="none" stroke="black" d="M1017.5,-588C1083.06,-588 1092.27,-547.15 1132,-495 1158.46,-460.27 1132.5,-406.72 1164.85,-398.17"/>
<polygon fill="black" stroke="black" points="1165.47,-401.62 1175,-397 1164.67,-394.67 1165.47,-401.62"/>
</g>
<!-- meshcat_in -->
<g id="node4" class="node">
<title>meshcat_in</title>
<ellipse fill="none" stroke="magenta" cx="1934.5" cy="-563" rx="50.09" ry="18"/>
<text text-anchor="middle" x="1934.5" y="-559.3" font-family="Times,serif" font-size="14.00">Meshcat</text>
</g>
<!-- s71&#45;&gt;meshcat_in -->
<g id="edge1" class="edge">
<title>s71:e&#45;&gt;meshcat_in</title>
<path fill="none" stroke="magenta" stroke-dasharray="5,2" d="M1559,-611C1674.58,-611 1808.61,-588.23 1880.84,-574.05"/>
<polygon fill="magenta" stroke="magenta" points="1881.92,-577.41 1891.04,-572.03 1880.55,-570.54 1881.92,-577.41"/>
</g>
<!-- s72&#45;&gt;meshcat_in -->
<g id="edge2" class="edge">
<title>s72:e&#45;&gt;meshcat_in</title>
<path fill="none" stroke="magenta" stroke-dasharray="5,2" d="M1567,-516C1679.66,-516 1810.22,-538.12 1881.11,-552.01"/>
<polygon fill="magenta" stroke="magenta" points="1880.63,-555.48 1891.12,-553.99 1881.99,-548.62 1880.63,-555.48"/>
</g>
<!-- s73 -->
<g id="node6" class="node">
<title>s73</title>
<polygon fill="none" stroke="black" points="264.5,-99 264.5,-120 430.5,-120 430.5,-99 264.5,-99"/>
<text text-anchor="start" x="267.5" y="-106.8" font-family="Times,serif" font-weight="bold" font-size="14.00">RosInterfaceSystem</text>
</g>
<!-- s74 -->
<g id="node7" class="node">
<title>s74</title>
<polygon fill="none" stroke="black" points="1201,-244 1201,-265 1654,-265 1654,-244 1201,-244"/>
<text text-anchor="start" x="1204" y="-251.8" font-family="Times,serif" font-weight="bold" font-size="14.00">finger_sim.drake_ros_systems.FingerJointStatePublisher</text>
<polygon fill="none" stroke="black" points="1201,-223 1201,-244 1425,-244 1425,-223 1201,-223"/>
<text text-anchor="start" x="1261" y="-229.8" font-family="Times,serif" font-size="14.00">joint_positions</text>
<polygon fill="none" stroke="black" points="1425,-202 1425,-244 1654,-244 1654,-202 1425,-202"/>
<text text-anchor="start" x="1483.5" y="-219.3" font-family="Times,serif" font-size="14.00">joint_state_msg</text>
<polygon fill="none" stroke="black" points="1201,-202 1201,-223 1425,-223 1425,-202 1201,-202"/>
<text text-anchor="start" x="1259.5" y="-208.8" font-family="Times,serif" font-size="14.00">joint_velocities</text>
</g>
<!-- s76 -->
<g id="node9" class="node">
<title>s76</title>
<polygon fill="none" stroke="black" points="1850.5,-234 1850.5,-255 2019.5,-255 2019.5,-234 1850.5,-234"/>
<text text-anchor="start" x="1853.5" y="-241.8" font-family="Times,serif" font-weight="bold" font-size="14.00">RosPublisherSystem</text>
<polygon fill="none" stroke="black" points="1850.5,-213 1850.5,-234 1966.5,-234 1966.5,-213 1850.5,-213"/>
<text text-anchor="start" x="1877" y="-219.8" font-family="Times,serif" font-size="14.00">message</text>
<polyline fill="none" stroke="grey" points="1966.5,-213 2019.5,-213 2019.5,-234 "/>
</g>
<!-- s74&#45;&gt;s76 -->
<g id="edge12" class="edge">
<title>s74:e&#45;&gt;s76:w</title>
<path fill="none" stroke="black" d="M1655,-223C1737.9,-223 1761.17,-223 1839.18,-223"/>
<polygon fill="black" stroke="black" points="1839.5,-226.5 1849.5,-223 1839.5,-219.5 1839.5,-226.5"/>
</g>
<!-- s75&#45;&gt;s74 -->
<g id="edge7" class="edge">
<title>s75:e&#45;&gt;s74:w</title>
<path fill="none" stroke="black" d="M980.5,-233C1074.63,-233 1100.64,-233 1189.98,-233"/>
<polygon fill="black" stroke="black" points="1190,-236.5 1200,-233 1190,-229.5 1190,-236.5"/>
</g>
<!-- s75&#45;&gt;s74 -->
<g id="edge8" class="edge">
<title>s75:e&#45;&gt;s74:w</title>
<path fill="none" stroke="black" d="M980.5,-212C1074.63,-212 1100.64,-212 1189.98,-212"/>
<polygon fill="black" stroke="black" points="1190,-215.5 1200,-212 1190,-208.5 1190,-215.5"/>
</g>
<!-- s79 -->
<g id="node12" class="node">
<title>s79</title>
<polygon fill="none" stroke="black" points="1193,-333 1193,-354 1661,-354 1661,-333 1193,-333"/>
<text text-anchor="start" x="1196" y="-340.8" font-family="Times,serif" font-weight="bold" font-size="14.00">finger_sim.drake_core_systems.MotorTorqueToJointTorque</text>
<polygon fill="none" stroke="black" points="1193,-312 1193,-333 1424,-333 1424,-312 1193,-312"/>
<text text-anchor="start" x="1260" y="-318.8" font-family="Times,serif" font-size="14.00">motor_torque</text>
<polygon fill="none" stroke="black" points="1424,-312 1424,-333 1661,-333 1661,-312 1424,-312"/>
<text text-anchor="start" x="1499" y="-318.8" font-family="Times,serif" font-size="14.00">joint_torque</text>
<polygon fill="none" stroke="black" points="1193,-291 1193,-312 1424,-312 1424,-291 1193,-291"/>
<text text-anchor="start" x="1256.5" y="-297.8" font-family="Times,serif" font-size="14.00">joint_positions</text>
<polygon fill="none" stroke="black" points="1424,-291 1424,-312 1661,-312 1661,-291 1424,-291"/>
<text text-anchor="start" x="1488" y="-297.8" font-family="Times,serif" font-size="14.00">tendon_tension</text>
</g>
<!-- s75&#45;&gt;s79 -->
<g id="edge15" class="edge">
<title>s75:e&#45;&gt;s79:w</title>
<path fill="none" stroke="black" d="M980.5,-233C1026.69,-233 1128.36,-292.52 1181.7,-300.19"/>
<polygon fill="black" stroke="black" points="1181.76,-303.7 1192,-301 1182.31,-296.73 1181.76,-303.7"/>
</g>
<!-- s77 -->
<g id="node10" class="node">
<title>s77</title>
<polygon fill="none" stroke="black" points="258.5,-49 258.5,-70 436.5,-70 436.5,-49 258.5,-49"/>
<text text-anchor="start" x="261.5" y="-56.8" font-family="Times,serif" font-weight="bold" font-size="14.00">RosSubscriberSystem</text>
<polyline fill="none" stroke="grey" points="258.5,-49 258.5,-28 338.5,-28 "/>
<polygon fill="none" stroke="black" points="338.5,-28 338.5,-49 436.5,-49 436.5,-28 338.5,-28"/>
<text text-anchor="start" x="378.5" y="-34.8" font-family="Times,serif" font-size="14.00">y0</text>
</g>
<!-- s78 -->
<g id="node11" class="node">
<title>s78</title>
<polygon fill="none" stroke="black" points="715.5,-323 715.5,-344 1124.5,-344 1124.5,-323 715.5,-323"/>
<text text-anchor="start" x="718.5" y="-330.8" font-family="Times,serif" font-weight="bold" font-size="14.00">finger_sim.drake_core_systems.MultiArrayToVector</text>
<polygon fill="none" stroke="black" points="715.5,-302 715.5,-323 912.5,-323 912.5,-302 715.5,-302"/>
<text text-anchor="start" x="798.5" y="-308.8" font-family="Times,serif" font-size="14.00">msg</text>
<polygon fill="none" stroke="black" points="912.5,-302 912.5,-323 1124.5,-323 1124.5,-302 912.5,-302"/>
<text text-anchor="start" x="995.5" y="-308.8" font-family="Times,serif" font-size="14.00">vector</text>
</g>
<!-- s77&#45;&gt;s78 -->
<g id="edge13" class="edge">
<title>s77:e&#45;&gt;s78:w</title>
<path fill="none" stroke="black" d="M437.5,-38C543.19,-38 596.59,-7.94 671,-83 741.37,-153.99 620,-301.17 704.43,-311.43"/>
<polygon fill="black" stroke="black" points="704.32,-314.93 714.5,-312 704.71,-307.94 704.32,-314.93"/>
</g>
<!-- s78&#45;&gt;s79 -->
<g id="edge14" class="edge">
<title>s78:e&#45;&gt;s79:w</title>
<path fill="none" stroke="black" d="M1125.5,-312C1151.65,-312 1160.07,-319.66 1181.79,-321.57"/>
<polygon fill="black" stroke="black" points="1181.86,-325.08 1192,-322 1182.16,-318.08 1181.86,-325.08"/>
</g>
<!-- s79&#45;&gt;s2 -->
<g id="edge4" class="edge">
<title>s79:e&#45;&gt;s2:w</title>
<path fill="none" stroke="black" d="M1662,-322C1677.34,-322 1672,-298.19 1661,-287.5 1651.52,-278.29 1196.85,-281.63 1185,-287.5 1150.19,-304.73 1162.29,-332.67 1132,-357 969.68,-487.37 848.57,-401.35 707,-554 676.01,-587.41 708.45,-624.04 671,-650 554.38,-730.82 133.55,-749.6 32.5,-650 13.56,-631.33 3.65,-593.15 21.36,-583.34"/>
<polygon fill="black" stroke="black" points="22.54,-586.66 31.5,-581 20.97,-579.84 22.54,-586.66"/>
</g>
<!-- s80 -->
<g id="node13" class="node">
<title>s80</title>
<polygon fill="none" stroke="black" points="1730.5,-312 1730.5,-333 2139.5,-333 2139.5,-312 1730.5,-312"/>
<text text-anchor="start" x="1733.5" y="-319.8" font-family="Times,serif" font-weight="bold" font-size="14.00">finger_sim.drake_core_systems.VectorToMultiArray</text>
<polygon fill="none" stroke="black" points="1730.5,-291 1730.5,-312 1942.5,-312 1942.5,-291 1730.5,-291"/>
<text text-anchor="start" x="1813.5" y="-297.8" font-family="Times,serif" font-size="14.00">vector</text>
<polygon fill="none" stroke="black" points="1942.5,-291 1942.5,-312 2139.5,-312 2139.5,-291 1942.5,-291"/>
<text text-anchor="start" x="2025.5" y="-297.8" font-family="Times,serif" font-size="14.00">msg</text>
</g>
<!-- s79&#45;&gt;s80 -->
<g id="edge16" class="edge">
<title>s79:e&#45;&gt;s80:w</title>
<path fill="none" stroke="black" d="M1662,-301C1688.25,-301 1697.27,-301 1719.22,-301"/>
<polygon fill="black" stroke="black" points="1719.5,-304.5 1729.5,-301 1719.5,-297.5 1719.5,-304.5"/>
</g>
<!-- s82 -->
<g id="node15" class="node">
<title>s82</title>
<polygon fill="none" stroke="black" points="2191.5,-312 2191.5,-333 2360.5,-333 2360.5,-312 2191.5,-312"/>
<text text-anchor="start" x="2194.5" y="-319.8" font-family="Times,serif" font-weight="bold" font-size="14.00">RosPublisherSystem</text>
<polygon fill="none" stroke="black" points="2191.5,-291 2191.5,-312 2307.5,-312 2307.5,-291 2191.5,-291"/>
<text text-anchor="start" x="2218" y="-297.8" font-family="Times,serif" font-size="14.00">message</text>
<polyline fill="none" stroke="grey" points="2307.5,-291 2360.5,-291 2360.5,-312 "/>
</g>
<!-- s80&#45;&gt;s82 -->
<g id="edge19" class="edge">
<title>s80:e&#45;&gt;s82:w</title>
<path fill="none" stroke="black" d="M2140.5,-301C2158.9,-301 2165.88,-301 2180.35,-301"/>
<polygon fill="black" stroke="black" points="2180.5,-304.5 2190.5,-301 2180.5,-297.5 2180.5,-304.5"/>
</g>
<!-- s83 -->
<g id="node16" class="node">
<title>s83</title>
<polygon fill="none" stroke="black" points="1850.5,-419 1850.5,-440 2019.5,-440 2019.5,-419 1850.5,-419"/>
<text text-anchor="start" x="1853.5" y="-426.8" font-family="Times,serif" font-weight="bold" font-size="14.00">RosPublisherSystem</text>
<polygon fill="none" stroke="black" points="1850.5,-398 1850.5,-419 1966.5,-419 1966.5,-398 1850.5,-398"/>
<text text-anchor="start" x="1877" y="-404.8" font-family="Times,serif" font-size="14.00">message</text>
<polyline fill="none" stroke="grey" points="1966.5,-398 2019.5,-398 2019.5,-419 "/>
</g>
<!-- s81&#45;&gt;s83 -->
<g id="edge20" class="edge">
<title>s81:e&#45;&gt;s83:w</title>
<path fill="none" stroke="black" d="M1679,-408C1751.23,-408 1771.82,-408 1839.21,-408"/>
<polygon fill="black" stroke="black" points="1839.5,-411.5 1849.5,-408 1839.5,-404.5 1839.5,-411.5"/>
</g>
</g>
</svg>
