<?xml version="1.0" encoding="UTF-8" standalone="no"?>
<!DOCTYPE svg PUBLIC "-//W3C//DTD SVG 1.1//EN"
 "http://www.w3.org/Graphics/SVG/1.1/DTD/svg11.dtd">
<!-- Generated by graphviz version 2.43.0 (0)
 -->
<!-- Title: _81 Pages: 1 -->
<svg width="1905pt" height="713pt"
 viewBox="0.00 0.00 1905.00 713.00" xmlns="http://www.w3.org/2000/svg" xmlns:xlink="http://www.w3.org/1999/xlink">
<g id="graph0" class="graph" transform="scale(1 1) rotate(0) translate(4 709)">
<title>_81</title>
<polygon fill="white" stroke="transparent" points="-4,4 -4,-709 1901,-709 1901,4 -4,4"/>
<g id="clust1" class="cluster">
<title>cluster81diagram</title>
<polygon fill="none" stroke="black" points="8,-8 8,-697 1889,-697 1889,-8 8,-8"/>
<text text-anchor="start" x="914.5" y="-678.3" font-family="Times,serif" font-weight="bold" font-size="14.00">Diagram</text>
</g>
<g id="clust2" class="cluster">
<title>cluster81subsystems</title>
<polygon fill="none" stroke="white" points="16,-16 16,-658 1881,-658 1881,-16 16,-16"/>
</g>
<!-- s2 -->
<g id="node1" class="node">
<title>s2</title>
<polygon fill="none" stroke="black" points="32.5,-612 32.5,-646 663.5,-646 663.5,-612 32.5,-612"/>
<text text-anchor="start" x="286.5" y="-632.8" font-family="Times,serif" font-weight="bold" font-size="14.00">MultibodyPlant</text>
<text text-anchor="start" x="304" y="-618.8" font-family="Times,serif" font-size="14.00">name=plant</text>
<polygon fill="none" stroke="black" points="32.5,-591 32.5,-612 299.5,-612 299.5,-591 32.5,-591"/>
<text text-anchor="start" x="107.5" y="-597.8" font-family="Times,serif" font-size="14.00">geometry_query</text>
<polygon fill="none" stroke="black" points="299.5,-591 299.5,-612 663.5,-612 663.5,-591 299.5,-591"/>
<text text-anchor="start" x="427" y="-597.8" font-family="Times,serif" font-size="14.00">geometry_pose</text>
<polygon fill="none" stroke="black" points="32.5,-570 32.5,-591 299.5,-591 299.5,-570 32.5,-570"/>
<text text-anchor="start" x="132.5" y="-576.8" font-family="Times,serif" font-size="14.00">actuation</text>
<polygon fill="none" stroke="black" points="299.5,-570 299.5,-591 663.5,-591 663.5,-570 299.5,-570"/>
<text text-anchor="start" x="369.5" y="-576.8" font-family="Times,serif" font-size="14.00">deformable_body_configuration</text>
<polygon fill="none" stroke="black" points="32.5,-549 32.5,-570 299.5,-570 299.5,-549 32.5,-549"/>
<text text-anchor="start" x="73" y="-555.8" font-family="Times,serif" font-size="14.00">applied_generalized_force</text>
<polygon fill="none" stroke="black" points="299.5,-549 299.5,-570 663.5,-570 663.5,-549 299.5,-549"/>
<text text-anchor="start" x="463" y="-555.8" font-family="Times,serif" font-size="14.00">state</text>
<polygon fill="none" stroke="black" points="32.5,-528 32.5,-549 299.5,-549 299.5,-528 32.5,-528"/>
<text text-anchor="start" x="90.5" y="-534.8" font-family="Times,serif" font-size="14.00">applied_spatial_force</text>
<polygon fill="none" stroke="black" points="299.5,-528 299.5,-549 663.5,-549 663.5,-528 299.5,-528"/>
<text text-anchor="start" x="440.5" y="-534.8" font-family="Times,serif" font-size="14.00">body_poses</text>
<polygon fill="none" stroke="black" points="32.5,-507 32.5,-528 299.5,-528 299.5,-507 32.5,-507"/>
<text text-anchor="start" x="55.5" y="-513.8" font-family="Times,serif" font-size="14.00" fill="grey">WorldModelInstance_actuation</text>
<polygon fill="none" stroke="black" points="299.5,-507 299.5,-528 663.5,-528 663.5,-507 299.5,-507"/>
<text text-anchor="start" x="399.5" y="-513.8" font-family="Times,serif" font-size="14.00">body_spatial_velocities</text>
<polygon fill="none" stroke="black" points="32.5,-486 32.5,-507 299.5,-507 299.5,-486 32.5,-486"/>
<text text-anchor="start" x="41" y="-492.8" font-family="Times,serif" font-size="14.00" fill="grey">WorldModelInstance_desired_state</text>
<polygon fill="none" stroke="black" points="299.5,-486 299.5,-507 663.5,-507 663.5,-486 299.5,-486"/>
<text text-anchor="start" x="386" y="-492.8" font-family="Times,serif" font-size="14.00">body_spatial_accelerations</text>
<polygon fill="none" stroke="black" points="32.5,-465 32.5,-486 299.5,-486 299.5,-465 32.5,-465"/>
<text text-anchor="start" x="50" y="-471.8" font-family="Times,serif" font-size="14.00" fill="grey">DefaultModelInstance_actuation</text>
<polygon fill="none" stroke="black" points="299.5,-465 299.5,-486 663.5,-486 663.5,-465 299.5,-465"/>
<text text-anchor="start" x="392.5" y="-471.8" font-family="Times,serif" font-size="14.00">generalized_acceleration</text>
<polygon fill="none" stroke="black" points="32.5,-444 32.5,-465 299.5,-465 299.5,-444 32.5,-444"/>
<text text-anchor="start" x="35.5" y="-450.8" font-family="Times,serif" font-size="14.00" fill="grey">DefaultModelInstance_desired_state</text>
<polygon fill="none" stroke="black" points="299.5,-444 299.5,-465 663.5,-465 663.5,-444 299.5,-444"/>
<text text-anchor="start" x="433" y="-450.8" font-family="Times,serif" font-size="14.00">net_actuation</text>
<polygon fill="none" stroke="black" points="32.5,-423 32.5,-444 299.5,-444 299.5,-423 32.5,-423"/>
<text text-anchor="start" x="61.5" y="-429.8" font-family="Times,serif" font-size="14.00">powerhouse_finger_actuation</text>
<polygon fill="none" stroke="black" points="299.5,-423 299.5,-444 663.5,-444 663.5,-423 299.5,-423"/>
<text text-anchor="start" x="427" y="-429.8" font-family="Times,serif" font-size="14.00">reaction_forces</text>
<polygon fill="none" stroke="black" points="32.5,-402 32.5,-423 299.5,-423 299.5,-402 32.5,-402"/>
<text text-anchor="start" x="47" y="-408.8" font-family="Times,serif" font-size="14.00">powerhouse_finger_desired_state</text>
<polygon fill="none" stroke="black" points="299.5,-402 299.5,-423 663.5,-423 663.5,-402 299.5,-402"/>
<text text-anchor="start" x="427" y="-408.8" font-family="Times,serif" font-size="14.00">contact_results</text>
<polyline fill="none" stroke="grey" points="32.5,-402 32.5,-150 299.5,-150 "/>
<polygon fill="none" stroke="black" points="299.5,-381 299.5,-402 663.5,-402 663.5,-381 299.5,-381"/>
<text text-anchor="start" x="386.5" y="-387.8" font-family="Times,serif" font-size="14.00" fill="grey">WorldModelInstance_state</text>
<polygon fill="none" stroke="black" points="299.5,-360 299.5,-381 663.5,-381 663.5,-360 299.5,-360"/>
<text text-anchor="start" x="316" y="-366.8" font-family="Times,serif" font-size="14.00" fill="grey">WorldModelInstance_generalized_acceleration</text>
<polygon fill="none" stroke="black" points="299.5,-339 299.5,-360 663.5,-360 663.5,-339 299.5,-339"/>
<text text-anchor="start" x="308" y="-345.8" font-family="Times,serif" font-size="14.00" fill="grey">WorldModelInstance_generalized_contact_forces</text>
<polygon fill="none" stroke="black" points="299.5,-318 299.5,-339 663.5,-339 663.5,-318 299.5,-318"/>
<text text-anchor="start" x="356" y="-324.8" font-family="Times,serif" font-size="14.00" fill="grey">WorldModelInstance_net_actuation</text>
<polygon fill="none" stroke="black" points="299.5,-297 299.5,-318 663.5,-318 663.5,-297 299.5,-297"/>
<text text-anchor="start" x="381" y="-303.8" font-family="Times,serif" font-size="14.00" fill="grey">DefaultModelInstance_state</text>
<polygon fill="none" stroke="black" points="299.5,-276 299.5,-297 663.5,-297 663.5,-276 299.5,-276"/>
<text text-anchor="start" x="310.5" y="-282.8" font-family="Times,serif" font-size="14.00" fill="grey">DefaultModelInstance_generalized_acceleration</text>
<polygon fill="none" stroke="black" points="299.5,-255 299.5,-276 663.5,-276 663.5,-255 299.5,-255"/>
<text text-anchor="start" x="302.5" y="-261.8" font-family="Times,serif" font-size="14.00" fill="grey">DefaultModelInstance_generalized_contact_forces</text>
<polygon fill="none" stroke="black" points="299.5,-234 299.5,-255 663.5,-255 663.5,-234 299.5,-234"/>
<text text-anchor="start" x="350.5" y="-240.8" font-family="Times,serif" font-size="14.00" fill="grey">DefaultModelInstance_net_actuation</text>
<polygon fill="none" stroke="black" points="299.5,-213 299.5,-234 663.5,-234 663.5,-213 299.5,-213"/>
<text text-anchor="start" x="392.5" y="-219.8" font-family="Times,serif" font-size="14.00">powerhouse_finger_state</text>
<polygon fill="none" stroke="black" points="299.5,-192 299.5,-213 663.5,-213 663.5,-192 299.5,-192"/>
<text text-anchor="start" x="322" y="-198.8" font-family="Times,serif" font-size="14.00">powerhouse_finger_generalized_acceleration</text>
<polygon fill="none" stroke="black" points="299.5,-171 299.5,-192 663.5,-192 663.5,-171 299.5,-171"/>
<text text-anchor="start" x="314" y="-177.8" font-family="Times,serif" font-size="14.00">powerhouse_finger_generalized_contact_forces</text>
<polygon fill="none" stroke="black" points="299.5,-150 299.5,-171 663.5,-171 663.5,-150 299.5,-150"/>
<text text-anchor="start" x="362" y="-156.8" font-family="Times,serif" font-size="14.00">powerhouse_finger_net_actuation</text>
</g>
<!-- s3 -->
<g id="node2" class="node">
<title>s3</title>
<polygon fill="none" stroke="black" points="823.5,-612 823.5,-646 1016.5,-646 1016.5,-612 823.5,-612"/>
<text text-anchor="start" x="872" y="-632.8" font-family="Times,serif" font-weight="bold" font-size="14.00">SceneGraph</text>
<text text-anchor="start" x="849.5" y="-618.8" font-family="Times,serif" font-size="14.00">name=scene_graph</text>
<polygon fill="none" stroke="black" points="823.5,-591 823.5,-612 968.5,-612 968.5,-591 823.5,-591"/>
<text text-anchor="start" x="857.5" y="-597.8" font-family="Times,serif" font-size="14.00">plant_pose</text>
<polygon fill="none" stroke="black" points="968.5,-570 968.5,-612 1016.5,-612 1016.5,-570 968.5,-570"/>
<text text-anchor="start" x="971.5" y="-587.3" font-family="Times,serif" font-size="14.00">query</text>
<polygon fill="none" stroke="black" points="823.5,-570 823.5,-591 968.5,-591 968.5,-570 823.5,-570"/>
<text text-anchor="start" x="826.5" y="-576.8" font-family="Times,serif" font-size="14.00">plant_configuration</text>
</g>
<!-- s2&#45;&gt;s3 -->
<g id="edge9" class="edge">
<title>s2:e&#45;&gt;s3:w</title>
<path fill="none" stroke="black" d="M664.5,-602C731.16,-602 750.36,-601.1 812.2,-601.01"/>
<polygon fill="black" stroke="black" points="812.5,-604.51 822.5,-601 812.5,-597.51 812.5,-604.51"/>
</g>
<!-- s2&#45;&gt;s3 -->
<g id="edge10" class="edge">
<title>s2:e&#45;&gt;s3:w</title>
<path fill="none" stroke="black" d="M664.5,-581C731.16,-581 750.36,-580.1 812.2,-580.01"/>
<polygon fill="black" stroke="black" points="812.5,-583.51 822.5,-580 812.5,-576.51 812.5,-583.51"/>
</g>
<!-- s75 -->
<g id="node8" class="node">
<title>s75</title>
<polygon fill="none" stroke="black" points="860.5,-244 860.5,-265 979.5,-265 979.5,-244 860.5,-244"/>
<text text-anchor="start" x="863.5" y="-251.8" font-family="Times,serif" font-weight="bold" font-size="14.00">Demultiplexer</text>
<polygon fill="none" stroke="black" points="860.5,-202 860.5,-244 920.5,-244 920.5,-202 860.5,-202"/>
<text text-anchor="start" x="881" y="-219.3" font-family="Times,serif" font-size="14.00">u0</text>
<polygon fill="none" stroke="black" points="920.5,-223 920.5,-244 979.5,-244 979.5,-223 920.5,-223"/>
<text text-anchor="start" x="941" y="-229.8" font-family="Times,serif" font-size="14.00">y0</text>
<polygon fill="none" stroke="black" points="920.5,-202 920.5,-223 979.5,-223 979.5,-202 920.5,-202"/>
<text text-anchor="start" x="941" y="-208.8" font-family="Times,serif" font-size="14.00">y1</text>
</g>
<!-- s2&#45;&gt;s75 -->
<g id="edge3" class="edge">
<title>s2:e&#45;&gt;s75:w</title>
<path fill="none" stroke="black" d="M664.5,-223C747.61,-223 770.95,-223 849.16,-223"/>
<polygon fill="black" stroke="black" points="849.5,-226.5 859.5,-223 849.5,-219.5 849.5,-226.5"/>
</g>
<!-- s3&#45;&gt;s2 -->
<g id="edge5" class="edge">
<title>s3:e&#45;&gt;s2:w</title>
<path fill="none" stroke="black" d="M1017.5,-591C1044.03,-591 1043.67,-504.18 815,-566 743.47,-585.34 742.53,-630.66 671,-650 534.03,-687.03 133.87,-749.28 32.5,-650 20.35,-638.1 13.38,-614.69 21.85,-605.66"/>
<polygon fill="black" stroke="black" points="23.39,-608.82 31.5,-602 20.91,-602.28 23.39,-608.82"/>
</g>
<!-- s71 -->
<g id="node3" class="node">
<title>s71</title>
<polygon fill="none" stroke="black" points="1287,-502 1287,-550 1533,-550 1533,-502 1287,-502"/>
<text text-anchor="start" x="1336.5" y="-536.8" font-family="Times,serif" font-weight="bold" font-size="14.00">MeshcatVisualizer</text>
<text text-anchor="start" x="1290" y="-522.8" font-family="Times,serif" font-size="14.00">name=meshcat_visualizer(visual)</text>
<text text-anchor="start" x="1342" y="-508.8" font-family="Times,serif" font-size="14.00">path=/drake/visual</text>
<polygon fill="none" stroke="black" points="1287,-481 1287,-502 1456,-502 1456,-481 1287,-481"/>
<text text-anchor="start" x="1325.5" y="-487.8" font-family="Times,serif" font-size="14.00">query_object</text>
<polyline fill="none" stroke="grey" points="1456,-481 1533,-481 1533,-502 "/>
</g>
<!-- s3&#45;&gt;s71 -->
<g id="edge4" class="edge">
<title>s3:e&#45;&gt;s71:w</title>
<path fill="none" stroke="black" d="M1017.5,-591C1141.36,-591 1157.82,-496.39 1275.8,-491.22"/>
<polygon fill="black" stroke="black" points="1276.08,-494.72 1286,-491 1275.93,-487.72 1276.08,-494.72"/>
</g>
<!-- s72 -->
<g id="node5" class="node">
<title>s72</title>
<polygon fill="none" stroke="black" points="1279,-597 1279,-645 1541,-645 1541,-597 1279,-597"/>
<text text-anchor="start" x="1336.5" y="-631.8" font-family="Times,serif" font-weight="bold" font-size="14.00">MeshcatVisualizer</text>
<text text-anchor="start" x="1282" y="-617.8" font-family="Times,serif" font-size="14.00">name=meshcat_visualizer(collision)</text>
<text text-anchor="start" x="1333.5" y="-603.8" font-family="Times,serif" font-size="14.00">path=/drake/collision</text>
<polygon fill="none" stroke="black" points="1279,-576 1279,-597 1456,-597 1456,-576 1279,-576"/>
<text text-anchor="start" x="1321.5" y="-582.8" font-family="Times,serif" font-size="14.00">query_object</text>
<polyline fill="none" stroke="grey" points="1456,-576 1541,-576 1541,-597 "/>
</g>
<!-- s3&#45;&gt;s72 -->
<g id="edge7" class="edge">
<title>s3:e&#45;&gt;s72:w</title>
<path fill="none" stroke="black" d="M1017.5,-591C1129.79,-591 1160.37,-586.3 1267.72,-586.01"/>
<polygon fill="black" stroke="black" points="1268,-589.51 1278,-586 1268,-582.51 1268,-589.51"/>
</g>
<!-- meshcat_in -->
<g id="node4" class="node">
<title>meshcat_in</title>
<ellipse fill="none" stroke="magenta" cx="1780.5" cy="-563" rx="50.09" ry="18"/>
<text text-anchor="middle" x="1780.5" y="-559.3" font-family="Times,serif" font-size="14.00">Meshcat</text>
</g>
<!-- s71&#45;&gt;meshcat_in -->
<g id="edge1" class="edge">
<title>s71:e&#45;&gt;meshcat_in</title>
<path fill="none" stroke="magenta" stroke-dasharray="5,2" d="M1542,-516C1609.3,-516 1685.32,-534.38 1732.82,-548.16"/>
<polygon fill="magenta" stroke="magenta" points="1731.93,-551.54 1742.52,-551.02 1733.92,-544.83 1731.93,-551.54"/>
</g>
<!-- s72&#45;&gt;meshcat_in -->
<g id="edge2" class="edge">
<title>s72:e&#45;&gt;meshcat_in</title>
<path fill="none" stroke="magenta" stroke-dasharray="5,2" d="M1550,-611C1614.85,-611 1687.86,-592.41 1733.77,-578.37"/>
<polygon fill="magenta" stroke="magenta" points="1734.91,-581.68 1743.42,-575.36 1732.83,-575 1734.91,-581.68"/>
</g>
<!-- s73 -->
<g id="node6" class="node">
<title>s73</title>
<polygon fill="none" stroke="black" points="264.5,-99 264.5,-120 430.5,-120 430.5,-99 264.5,-99"/>
<text text-anchor="start" x="267.5" y="-106.8" font-family="Times,serif" font-weight="bold" font-size="14.00">RosInterfaceSystem</text>
</g>
<!-- s74 -->
<g id="node7" class="node">
<title>s74</title>
<polygon fill="none" stroke="black" points="1184,-244 1184,-265 1637,-265 1637,-244 1184,-244"/>
<text text-anchor="start" x="1187" y="-251.8" font-family="Times,serif" font-weight="bold" font-size="14.00">finger_sim.drake_ros_systems.FingerJointStatePublisher</text>
<polygon fill="none" stroke="black" points="1184,-223 1184,-244 1408,-244 1408,-223 1184,-223"/>
<text text-anchor="start" x="1244" y="-229.8" font-family="Times,serif" font-size="14.00">joint_positions</text>
<polygon fill="none" stroke="black" points="1408,-202 1408,-244 1637,-244 1637,-202 1408,-202"/>
<text text-anchor="start" x="1466.5" y="-219.3" font-family="Times,serif" font-size="14.00">joint_state_msg</text>
<polygon fill="none" stroke="black" points="1184,-202 1184,-223 1408,-223 1408,-202 1184,-202"/>
<text text-anchor="start" x="1242.5" y="-208.8" font-family="Times,serif" font-size="14.00">joint_velocities</text>
</g>
<!-- s76 -->
<g id="node9" class="node">
<title>s76</title>
<polygon fill="none" stroke="black" points="1696.5,-234 1696.5,-255 1865.5,-255 1865.5,-234 1696.5,-234"/>
<text text-anchor="start" x="1699.5" y="-241.8" font-family="Times,serif" font-weight="bold" font-size="14.00">RosPublisherSystem</text>
<polygon fill="none" stroke="black" points="1696.5,-213 1696.5,-234 1812.5,-234 1812.5,-213 1696.5,-213"/>
<text text-anchor="start" x="1723" y="-219.8" font-family="Times,serif" font-size="14.00">message</text>
<polyline fill="none" stroke="grey" points="1812.5,-213 1865.5,-213 1865.5,-234 "/>
</g>
<!-- s74&#45;&gt;s76 -->
<g id="edge13" class="edge">
<title>s74:e&#45;&gt;s76:w</title>
<path fill="none" stroke="black" d="M1638,-223C1659.76,-223 1667.63,-223 1685.26,-223"/>
<polygon fill="black" stroke="black" points="1685.5,-226.5 1695.5,-223 1685.5,-219.5 1685.5,-226.5"/>
</g>
<!-- s75&#45;&gt;s74 -->
<g id="edge11" class="edge">
<title>s75:e&#45;&gt;s74:w</title>
<path fill="none" stroke="black" d="M980.5,-233C1066.98,-233 1091.14,-233 1172.75,-233"/>
<polygon fill="black" stroke="black" points="1173,-236.5 1183,-233 1173,-229.5 1173,-236.5"/>
</g>
<!-- s75&#45;&gt;s74 -->
<g id="edge12" class="edge">
<title>s75:e&#45;&gt;s74:w</title>
<path fill="none" stroke="black" d="M980.5,-212C1066.98,-212 1091.14,-212 1172.75,-212"/>
<polygon fill="black" stroke="black" points="1173,-215.5 1183,-212 1173,-208.5 1173,-215.5"/>
</g>
<!-- s79 -->
<g id="node12" class="node">
<title>s79</title>
<polygon fill="none" stroke="black" points="1176,-333 1176,-354 1644,-354 1644,-333 1176,-333"/>
<text text-anchor="start" x="1179" y="-340.8" font-family="Times,serif" font-weight="bold" font-size="14.00">finger_sim.drake_core_systems.MotorTorqueToJointTorque</text>
<polygon fill="none" stroke="black" points="1176,-312 1176,-333 1418,-333 1418,-312 1176,-312"/>
<text text-anchor="start" x="1248.5" y="-318.8" font-family="Times,serif" font-size="14.00">motor_torque</text>
<polygon fill="none" stroke="black" points="1418,-291 1418,-333 1644,-333 1644,-291 1418,-291"/>
<text text-anchor="start" x="1487.5" y="-308.3" font-family="Times,serif" font-size="14.00">joint_torque</text>
<polygon fill="none" stroke="black" points="1176,-291 1176,-312 1418,-312 1418,-291 1176,-291"/>
<text text-anchor="start" x="1245" y="-297.8" font-family="Times,serif" font-size="14.00">joint_positions</text>
</g>
<!-- s75&#45;&gt;s79 -->
<g id="edge15" class="edge">
<title>s75:e&#45;&gt;s79:w</title>
<path fill="none" stroke="black" d="M980.5,-233C1068.59,-233 1082.44,-295.92 1164.88,-300.71"/>
<polygon fill="black" stroke="black" points="1164.9,-304.21 1175,-301 1165.1,-297.22 1164.9,-304.21"/>
</g>
<!-- s77 -->
<g id="node10" class="node">
<title>s77</title>
<polygon fill="none" stroke="black" points="258.5,-49 258.5,-70 436.5,-70 436.5,-49 258.5,-49"/>
<text text-anchor="start" x="261.5" y="-56.8" font-family="Times,serif" font-weight="bold" font-size="14.00">RosSubscriberSystem</text>
<polyline fill="none" stroke="grey" points="258.5,-49 258.5,-28 338.5,-28 "/>
<polygon fill="none" stroke="black" points="338.5,-28 338.5,-49 436.5,-49 436.5,-28 338.5,-28"/>
<text text-anchor="start" x="378.5" y="-34.8" font-family="Times,serif" font-size="14.00">y0</text>
</g>
<!-- s78 -->
<g id="node11" class="node">
<title>s78</title>
<polygon fill="none" stroke="black" points="715.5,-345 715.5,-366 1124.5,-366 1124.5,-345 715.5,-345"/>
<text text-anchor="start" x="718.5" y="-352.8" font-family="Times,serif" font-weight="bold" font-size="14.00">finger_sim.drake_core_systems.MultiArrayToVector</text>
<polygon fill="none" stroke="black" points="715.5,-324 715.5,-345 912.5,-345 912.5,-324 715.5,-324"/>
<text text-anchor="start" x="798.5" y="-330.8" font-family="Times,serif" font-size="14.00">msg</text>
<polygon fill="none" stroke="black" points="912.5,-324 912.5,-345 1124.5,-345 1124.5,-324 912.5,-324"/>
<text text-anchor="start" x="995.5" y="-330.8" font-family="Times,serif" font-size="14.00">vector</text>
</g>
<!-- s77&#45;&gt;s78 -->
<g id="edge8" class="edge">
<title>s77:e&#45;&gt;s78:w</title>
<path fill="none" stroke="black" d="M437.5,-38C543.19,-38 596.97,-7.57 671,-83 708.02,-120.72 664.49,-306.78 704.61,-331.33"/>
<polygon fill="black" stroke="black" points="703.93,-334.77 714.5,-334 705.76,-328.01 703.93,-334.77"/>
</g>
<!-- s78&#45;&gt;s79 -->
<g id="edge14" class="edge">
<title>s78:e&#45;&gt;s79:w</title>
<path fill="none" stroke="black" d="M1125.5,-334C1144.25,-334 1150.37,-325.77 1164.77,-322.94"/>
<polygon fill="black" stroke="black" points="1165.36,-326.4 1175,-322 1164.72,-319.43 1165.36,-326.4"/>
</g>
<!-- s79&#45;&gt;s2 -->
<g id="edge6" class="edge">
<title>s79:e&#45;&gt;s2:w</title>
<path fill="none" stroke="black" d="M1645,-312C1655.9,-312 1651.86,-295.05 1644,-287.5 1624.92,-269.19 1194.44,-286.83 1168,-287.5 1116.73,-288.81 744.25,-275.74 707,-311 651.98,-363.08 727.33,-599.34 671,-650 618.25,-697.44 83.03,-699.8 32.5,-650 13.56,-631.33 3.65,-593.15 21.36,-583.34"/>
<polygon fill="black" stroke="black" points="22.54,-586.66 31.5,-581 20.97,-579.84 22.54,-586.66"/>
</g>
</g>
</svg>
