{
	"asset":{
		"generator":"Khronos glTF Blender I/O v5.1.18",
		"version":"2.0"
	},
	"scene":0,
	"scenes":[
		{
			"name":"Scene",
			"nodes":[
				0
			]
		}
	],
	"nodes":[
		{
			"mesh":0,
			"name":"distal_phalanx"
		}
	],
	"materials":[
		{
			"doubleSided":true,
			"name":"Material",
			"pbrMetallicRoughness":{
				"baseColorFactor":[
					0.07324056327342987,
					0.07323986291885376,
					0.07323913276195526,
					1
				],
				"metallicFactor":0,
				"roughnessFactor":0.5
			}
		}
	],
	"meshes":[
		{
			"name":"V4_Assem.086",
			"primitives":[
				{
					"attributes":{
						"POSITION":0,
						"NORMAL":1
					},
					"indices":2,
					"material":0
				}
			]
		}
	],
	"accessors":[
		{
			"bufferView":0,
			"componentType":5126,
			"count":191636,
			"max":[
				0.03513103723526001,
				0.011966496706008911,
				0.017817744985222816
			],
			"min":[
				-0.013089559972286224,
				-0.013033129274845123,
				-0.014143629930913448
			],
			"type":"VEC3"
		},
		{
			"bufferView":1,
			"componentType":5126,
			"count":191636,
			"type":"VEC3"
		},
		{
			"bufferView":2,
			"componentType":5125,
			"count":319134,
			"type":"SCALAR"
		}
	],
	"bufferViews":[
		{
			"buffer":0,
			"byteLength":2299632,
			"byteOffset":0,
			"target":34962
		},
		{
			"buffer":0,
			"byteLength":2299632,
			"byteOffset":2299632,
			"target":34962
		},
		{
			"buffer":0,
			"byteLength":1276536,
			"byteOffset":4599264,
			"target":34963
		}
	],
	"buffers":[
		{
			"byteLength":5875800,
			"uri":"distal_phalanx.bin"
		}
	]
}
