{
	"asset":{
		"generator":"Khronos glTF Blender I/O v5.1.18",
		"version":"2.0"
	},
	"scene":0,
	"scenes":[
		{
			"name":"Scene",
			"nodes":[
				0
			]
		}
	],
	"nodes":[
		{
			"mesh":0,
			"name":"left_bar"
		}
	],
	"materials":[
		{
			"doubleSided":true,
			"name":"Material",
			"pbrMetallicRoughness":{
				"baseColorFactor":[
					0.07324056327342987,
					0.07323986291885376,
					0.07323913276195526,
					1
				],
				"metallicFactor":0,
				"roughnessFactor":0.5
			}
		}
	],
	"meshes":[
		{
			"name":"V4_Assem.084",
			"primitives":[
				{
					"attributes":{
						"POSITION":0,
						"NORMAL":1
					},
					"indices":2,
					"material":0
				}
			]
		}
	],
	"accessors":[
		{
			"bufferView":0,
			"componentType":5126,
			"count":1158,
			"max":[
				0.039101481437683105,
				0.017577677965164185,
				0.0015627220273017883
			],
			"min":[
				-0.00495331734418869,
				-0.0050199031829833984,
				-0.0020272238180041313
			],
			"type":"VEC3"
		},
		{
			"bufferView":1,
			"componentType":5126,
			"count":1158,
			"type":"VEC3"
		},
		{
			"bufferView":2,
			"componentType":5123,
			"count":2268,
			"type":"SCALAR"
		}
	],
	"bufferViews":[
		{
			"buffer":0,
			"byteLength":13896,
			"byteOffset":0,
			"target":34962
		},
		{
			"buffer":0,
			"byteLength":13896,
			"byteOffset":13896,
			"target":34962
		},
		{
			"buffer":0,
			"byteLength":4536,
			"byteOffset":27792,
			"target":34963
		}
	],
	"buffers":[
		{
			"byteLength":32328,
			"uri":"left_bar.bin"
		}
	]
}
