{
	"asset":{
		"generator":"Khronos glTF Blender I/O v5.1.18",
		"version":"2.0"
	},
	"scene":0,
	"scenes":[
		{
			"name":"Scene",
			"nodes":[
				0
			]
		}
	],
	"nodes":[
		{
			"mesh":0,
			"name":"middle_phalanx"
		}
	],
	"materials":[
		{
			"doubleSided":true,
			"name":"Material",
			"pbrMetallicRoughness":{
				"baseColorFactor":[
					0.07324056327342987,
					0.07323986291885376,
					0.07323913276195526,
					1
				],
				"metallicFactor":0,
				"roughnessFactor":0.5
			}
		}
	],
	"meshes":[
		{
			"name":"V4_Assem.002",
			"primitives":[
				{
					"attributes":{
						"POSITION":0,
						"NORMAL":1
					},
					"indices":2,
					"material":0
				}
			]
		}
	],
	"accessors":[
		{
			"bufferView":0,
			"componentType":5126,
			"count":1442,
			"max":[
				0.051990605890750885,
				0.011936627328395844,
				0.0009143761126324534
			],
			"min":[
				-0.012042976915836334,
				-0.012157350778579712,
				-0.0049628461711108685
			],
			"type":"VEC3"
		},
		{
			"bufferView":1,
			"componentType":5126,
			"count":1442,
			"type":"VEC3"
		},
		{
			"bufferView":2,
			"componentType":5123,
			"count":2892,
			"type":"SCALAR"
		}
	],
	"bufferViews":[
		{
			"buffer":0,
			"byteLength":17304,
			"byteOffset":0,
			"target":34962
		},
		{
			"buffer":0,
			"byteLength":17304,
			"byteOffset":17304,
			"target":34962
		},
		{
			"buffer":0,
			"byteLength":5784,
			"byteOffset":34608,
			"target":34963
		}
	],
	"buffers":[
		{
			"byteLength":40392,
			"uri":"middle_phalanx.bin"
		}
	]
}
