# Blender 5.1.0
# www.blender.org
mtllib nail.mtl
o Cylinder
v 0.000000 -0.025400 -0.001270
v 0.000000 0.025400 -0.001270
v 0.000486 -0.025400 -0.001173
v 0.000486 0.025400 -0.001173
v 0.000898 -0.025400 -0.000898
v 0.000898 0.025400 -0.000898
v 0.001173 -0.025400 -0.000486
v 0.001173 0.025400 -0.000486
v 0.001270 -0.025400 0.000000
v 0.001270 0.025400 0.000000
v 0.001173 -0.025400 0.000486
v 0.001173 0.025400 0.000486
v 0.000898 -0.025400 0.000898
v 0.000898 0.025400 0.000898
v 0.000486 -0.025400 0.001173
v 0.000486 0.025400 0.001173
v 0.000000 -0.025400 0.001270
v 0.000000 0.025400 0.001270
v -0.000486 -0.025400 0.001173
v -0.000486 0.025400 0.001173
v -0.000898 -0.025400 0.000898
v -0.000898 0.025400 0.000898
v -0.001173 -0.025400 0.000486
v -0.001173 0.025400 0.000486
v -0.001270 -0.025400 0.000000
v -0.001270 0.025400 0.000000
v -0.001173 -0.025400 -0.000486
v -0.001173 0.025400 -0.000486
v -0.000898 -0.025400 -0.000898
v -0.000898 0.025400 -0.000898
v -0.000486 -0.025400 -0.001173
v -0.000486 0.025400 -0.001173
v 0.001212 0.025875 -0.002927
v -0.000000 0.025875 -0.003168
v 0.002240 0.025875 -0.002240
v 0.002927 0.025875 -0.001212
v 0.003168 0.025875 0.000000
v 0.002927 0.025875 0.001212
v 0.002240 0.025875 0.002240
v 0.001212 0.025875 0.002927
v -0.000000 0.025875 0.003168
v -0.001212 0.025875 0.002927
v -0.002240 0.025875 0.002240
v -0.002927 0.025875 0.001212
v -0.003168 0.025875 0.000000
v -0.002927 0.025875 -0.001212
v -0.002240 0.025875 -0.002240
v -0.001212 0.025875 -0.002927
v 0.001212 0.027473 -0.002927
v -0.000000 0.027473 -0.003168
v 0.002240 0.027473 -0.002240
v 0.002927 0.027473 -0.001212
v 0.003168 0.027473 0.000000
v 0.002927 0.027473 0.001212
v 0.002240 0.027473 0.002240
v 0.001212 0.027473 0.002927
v -0.000000 0.027473 0.003168
v -0.001212 0.027473 0.002927
v -0.002240 0.027473 0.002240
v -0.002927 0.027473 0.001212
v -0.003168 0.027473 0.000000
v -0.002927 0.027473 -0.001212
v -0.002240 0.027473 -0.002240
v -0.001212 0.027473 -0.002927
v -0.000000 -0.028158 -0.000079
v 0.000030 -0.028158 -0.000073
v 0.000056 -0.028158 -0.000056
v 0.000073 -0.028158 -0.000030
v 0.000079 -0.028158 -0.000000
v 0.000073 -0.028158 0.000030
v 0.000056 -0.028158 0.000056
v 0.000030 -0.028158 0.000073
v -0.000000 -0.028158 0.000079
v -0.000030 -0.028158 0.000073
v -0.000056 -0.028158 0.000056
v -0.000073 -0.028158 0.000030
v -0.000079 -0.028158 -0.000000
v -0.000073 -0.028158 -0.000030
v -0.000056 -0.028158 -0.000056
v -0.000030 -0.028158 -0.000073
vn 0.1951 -0.0000 -0.9808
vn 0.5556 -0.0000 -0.8315
vn 0.8315 -0.0000 -0.5556
vn 0.9808 -0.0000 -0.1951
vn 0.9808 -0.0000 0.1951
vn 0.8315 -0.0000 0.5556
vn 0.5556 -0.0000 0.8315
vn 0.1951 -0.0000 0.9808
vn -0.1951 -0.0000 0.9808
vn -0.5556 -0.0000 0.8315
vn -0.8315 -0.0000 0.5556
vn -0.9808 -0.0000 0.1951
vn -0.9808 -0.0000 -0.1951
vn -0.8315 -0.0000 -0.5556
vn 0.1373 -0.9690 -0.2055
vn -0.5556 -0.0000 -0.8315
vn -0.1951 -0.0000 -0.9808
vn 0.9031 -0.3901 0.1796
vn 0.1373 -0.9690 0.2055
vn -0.2424 -0.9690 0.0482
vn 0.2424 -0.9690 0.0482
vn -0.1373 -0.9690 0.2055
vn -0.1373 -0.9690 -0.2055
vn 0.2055 -0.9690 -0.1373
vn 0.0482 -0.9690 0.2424
vn 0.0482 -0.9690 -0.2424
vn -0.2424 -0.9690 -0.0482
vn 0.2055 -0.9690 0.1373
vn -0.2055 -0.9690 0.1373
vn -0.0482 -0.9690 -0.2424
vn 0.2424 -0.9690 -0.0482
vn -0.0482 -0.9690 0.2424
vn -0.2055 -0.9690 -0.1373
vn -0.0000 1.0000 -0.0000
vn -0.0000 -1.0000 -0.0000
vn -0.5115 -0.3901 0.7656
vn -0.5115 -0.3901 -0.7656
vn 0.7656 -0.3901 -0.5116
vn 0.1796 -0.3901 0.9031
vn 0.1796 -0.3901 -0.9031
vn -0.9031 -0.3901 -0.1796
vn 0.7656 -0.3901 0.5116
vn -0.7656 -0.3901 0.5116
vn -0.1796 -0.3901 -0.9031
vn 0.9031 -0.3901 -0.1796
vn -0.1796 -0.3901 0.9031
vn -0.7656 -0.3901 -0.5116
vn 0.5115 -0.3901 -0.7656
vn 0.5115 -0.3901 0.7656
vn -0.9031 -0.3901 0.1796
vt 1.000000 0.500000
vt 1.000000 1.000000
vt 0.937500 1.000000
vt 0.937500 0.500000
vt 0.875000 1.000000
vt 0.875000 0.500000
vt 0.812500 1.000000
vt 0.812500 0.500000
vt 0.750000 1.000000
vt 0.750000 0.500000
vt 0.687500 1.000000
vt 0.687500 0.500000
vt 0.625000 1.000000
vt 0.625000 0.500000
vt 0.562500 1.000000
vt 0.562500 0.500000
vt 0.500000 1.000000
vt 0.500000 0.500000
vt 0.437500 1.000000
vt 0.437500 0.500000
vt 0.375000 1.000000
vt 0.375000 0.500000
vt 0.312500 1.000000
vt 0.312500 0.500000
vt 0.250000 1.000000
vt 0.250000 0.500000
vt 0.187500 1.000000
vt 0.187500 0.500000
vt 0.125000 1.000000
vt 0.125000 0.500000
vt 0.062500 1.000000
vt 0.062500 0.500000
vt 0.000000 1.000000
vt 0.000000 0.500000
vt 0.341844 0.471731
vt 0.250000 0.490000
vt 0.158156 0.471731
vt 0.080294 0.419706
vt 0.028269 0.341844
vt 0.010000 0.250000
vt 0.028269 0.158156
vt 0.080294 0.080294
vt 0.158156 0.028269
vt 0.250000 0.010000
vt 0.341844 0.028269
vt 0.419706 0.080294
vt 0.471731 0.158156
vt 0.490000 0.250000
vt 0.471731 0.341844
vt 0.419706 0.419706
vt 0.750000 0.490000
vt 0.841844 0.471731
vt 0.919706 0.419706
vt 0.971731 0.341844
vt 0.990000 0.250000
vt 0.971731 0.158156
vt 0.919706 0.080294
vt 0.841844 0.028269
vt 0.750000 0.010000
vt 0.658156 0.028269
vt 0.580294 0.080294
vt 0.528269 0.158156
vt 0.510000 0.250000
vt 0.528269 0.341844
vt 0.580294 0.419706
vt 0.658156 0.471731
s 0
f 1/1/1 2/2/1 4/3/1 3/4/1
f 3/4/2 4/3/2 6/5/2 5/6/2
f 5/6/3 6/5/3 8/7/3 7/8/3
f 7/8/4 8/7/4 10/9/4 9/10/4
f 9/10/5 10/9/5 12/11/5 11/12/5
f 11/12/6 12/11/6 14/13/6 13/14/6
f 13/14/7 14/13/7 16/15/7 15/16/7
f 15/16/8 16/15/8 18/17/8 17/18/8
f 17/18/9 18/17/9 20/19/9 19/20/9
f 19/20/10 20/19/10 22/21/10 21/22/10
f 21/22/11 22/21/11 24/23/11 23/24/11
f 23/24/12 24/23/12 26/25/12 25/26/12
f 25/26/13 26/25/13 28/27/13 27/28/13
f 27/28/14 28/27/14 30/29/14 29/30/14
f 6/5/15 4/3/15 33/3/15 35/5/15
f 29/30/16 30/29/16 32/31/16 31/32/16
f 31/32/17 32/31/17 2/33/17 1/34/17
f 9/10/18 11/12/18 70/12/18 69/10/18
f 43/21/10 42/19/10 58/19/10 59/21/10
f 16/15/19 14/13/19 39/13/19 40/15/19
f 26/25/20 24/23/20 44/23/20 45/25/20
f 12/11/21 10/9/21 37/9/21 38/11/21
f 22/21/22 20/19/22 42/19/22 43/21/22
f 32/31/23 30/29/23 47/29/23 48/31/23
f 8/7/24 6/5/24 35/5/24 36/7/24
f 18/17/25 16/15/25 40/15/25 41/17/25
f 4/3/26 2/2/26 34/2/26 33/3/26
f 28/27/27 26/25/27 45/25/27 46/27/27
f 14/13/28 12/11/28 38/11/28 39/13/28
f 24/23/29 22/21/29 43/21/29 44/23/29
f 2/33/30 32/31/30 48/31/30 34/33/30
f 10/9/31 8/7/31 36/7/31 37/9/31
f 20/19/32 18/17/32 41/17/32 42/19/32
f 30/29/33 28/27/33 46/27/33 47/29/33
f 49/35/34 50/36/34 64/37/34 63/38/34 62/39/34 61/40/34 60/41/34 59/42/34 58/43/34 57/44/34 56/45/34 55/46/34 54/47/34 53/48/34 52/49/34 51/50/34
f 36/7/3 35/5/3 51/5/3 52/7/3
f 44/23/11 43/21/11 59/21/11 60/23/11
f 37/9/4 36/7/4 52/7/4 53/9/4
f 45/25/12 44/23/12 60/23/12 61/25/12
f 38/11/5 37/9/5 53/9/5 54/11/5
f 46/27/13 45/25/13 61/25/13 62/27/13
f 39/13/6 38/11/6 54/11/6 55/13/6
f 47/29/14 46/27/14 62/27/14 63/29/14
f 40/15/7 39/13/7 55/13/7 56/15/7
f 48/31/16 47/29/16 63/29/16 64/31/16
f 41/17/8 40/15/8 56/15/8 57/17/8
f 33/3/1 34/2/1 50/2/1 49/3/1
f 34/33/17 48/31/17 64/31/17 50/33/17
f 42/19/9 41/17/9 57/17/9 58/19/9
f 35/5/2 33/3/2 49/3/2 51/5/2
f 65/51/35 66/52/35 67/53/35 68/54/35 69/55/35 70/56/35 71/57/35 72/58/35 73/59/35 74/60/35 75/61/35 76/62/35 77/63/35 78/64/35 79/65/35 80/66/35
f 19/20/36 21/22/36 75/22/36 74/20/36
f 29/30/37 31/32/37 80/32/37 79/30/37
f 5/6/38 7/8/38 68/8/38 67/6/38
f 15/16/39 17/18/39 73/18/39 72/16/39
f 1/1/40 3/4/40 66/4/40 65/1/40
f 25/26/41 27/28/41 78/28/41 77/26/41
f 11/12/42 13/14/42 71/14/42 70/12/42
f 21/22/43 23/24/43 76/24/43 75/22/43
f 31/32/44 1/34/44 65/34/44 80/32/44
f 7/8/45 9/10/45 69/10/45 68/8/45
f 17/18/46 19/20/46 74/20/46 73/18/46
f 27/28/47 29/30/47 79/30/47 78/28/47
f 3/4/48 5/6/48 67/6/48 66/4/48
f 13/14/49 15/16/49 72/16/49 71/14/49
f 23/24/50 25/26/50 77/26/50 76/24/50
