{
	"asset":{
		"generator":"Khronos glTF Blender I/O v5.1.18",
		"version":"2.0"
	},
	"scene":0,
	"scenes":[
		{
			"name":"Scene",
			"nodes":[
				0
			]
		}
	],
	"nodes":[
		{
			"mesh":0,
			"name":"proximal_phalanx"
		}
	],
	"materials":[
		{
			"doubleSided":true,
			"name":"Material",
			"pbrMetallicRoughness":{
				"baseColorFactor":[
					0.07324056327342987,
					0.07323986291885376,
					0.07323913276195526,
					1
				],
				"metallicFactor":0,
				"roughnessFactor":0.5
			}
		}
	],
	"meshes":[
		{
			"name":"V4_Assem.019",
			"primitives":[
				{
					"attributes":{
						"POSITION":0,
						"NORMAL":1
					},
					"indices":2,
					"material":0
				}
			]
		}
	],
	"accessors":[
		{
			"bufferView":0,
			"componentType":5126,
			"count":301588,
			"max":[
				0.07711820304393768,
				0.01499977707862854,
				0.01513590756803751
			],
			"min":[
				-0.015155773609876633,
				-0.014999769628047943,
				-0.016825413331389427
			],
			"type":"VEC3"
		},
		{
			"bufferView":1,
			"componentType":5126,
			"count":301588,
			"type":"VEC3"
		},
		{
			"bufferView":2,
			"componentType":5125,
			"count":502086,
			"type":"SCALAR"
		}
	],
	"bufferViews":[
		{
			"buffer":0,
			"byteLength":3619056,
			"byteOffset":0,
			"target":34962
		},
		{
			"buffer":0,
			"byteLength":3619056,
			"byteOffset":3619056,
			"target":34962
		},
		{
			"buffer":0,
			"byteLength":2008344,
			"byteOffset":7238112,
			"target":34963
		}
	],
	"buffers":[
		{
			"byteLength":9246456,
			"uri":"proximal_phalanx.bin"
		}
	]
}
