{
	"asset":{
		"generator":"Khronos glTF Blender I/O v5.1.18",
		"version":"2.0"
	},
	"scene":0,
	"scenes":[
		{
			"name":"Scene",
			"nodes":[
				0
			]
		}
	],
	"nodes":[
		{
			"mesh":0,
			"name":"right_bar"
		}
	],
	"materials":[
		{
			"doubleSided":true,
			"name":"Material",
			"pbrMetallicRoughness":{
				"baseColorFactor":[
					0.07324056327342987,
					0.07323986291885376,
					0.07323913276195526,
					1
				],
				"metallicFactor":0,
				"roughnessFactor":0.5
			}
		}
	],
	"meshes":[
		{
			"name":"V4_Assem.001",
			"primitives":[
				{
					"attributes":{
						"POSITION":0,
						"NORMAL":1
					},
					"indices":2,
					"material":0
				}
			]
		}
	],
	"accessors":[
		{
			"bufferView":0,
			"componentType":5126,
			"count":2332,
			"max":[
				0.03901561349630356,
				0.017599783837795258,
				0.0016308864578604698
			],
			"min":[
				-0.005039185285568237,
				-0.0049977898597717285,
				-0.028070151805877686
			],
			"type":"VEC3"
		},
		{
			"bufferView":1,
			"componentType":5126,
			"count":2332,
			"type":"VEC3"
		},
		{
			"bufferView":2,
			"componentType":5123,
			"count":4560,
			"type":"SCALAR"
		}
	],
	"bufferViews":[
		{
			"buffer":0,
			"byteLength":27984,
			"byteOffset":0,
			"target":34962
		},
		{
			"buffer":0,
			"byteLength":27984,
			"byteOffset":27984,
			"target":34962
		},
		{
			"buffer":0,
			"byteLength":9120,
			"byteOffset":55968,
			"target":34963
		}
	],
	"buffers":[
		{
			"byteLength":65088,
			"uri":"right_bar.bin"
		}
	]
}
